M48
;DRILL file {KiCad 5.0.2+dfsg1-1~bpo9+1} date Fri 10 Apr 2020 07:56:32 PM EDT
;FORMAT={-:-/ absolute / inch / decimal}
FMAT,2
INCH,TZ
T1C0.0315
T2C0.0335
T3C0.0350
T4C0.0354
T5C0.0394
T6C0.0400
T7C0.0433
T8C0.0598
%
G90
G05
T1
X4.4Y-1.45
X4.9Y-1.45
X2.375Y-2.175
X2.375Y-2.3719
X1.875Y-4.225
X1.875Y-4.425
X5.825Y-2.45
X5.825Y-2.6469
X3.55Y-3.5
X3.75Y-3.5
X5.675Y-2.45
X5.675Y-2.95
X4.2Y-3.45
X4.2Y-3.65
X2.775Y-2.175
X2.775Y-2.3719
X1.6Y-1.125
X1.6Y-1.3219
X3.025Y-2.175
X3.025Y-2.675
X1.8031Y-1.425
X2.Y-1.425
X1.275Y-3.85
X1.475Y-3.85
X2.225Y-2.175
X2.225Y-2.675
X5.2Y-3.375
X5.2Y-3.575
X1.525Y-2.675
X1.7219Y-2.675
X5.975Y-1.85
X5.975Y-2.35
X5.825Y-2.0531
X5.825Y-2.25
X2.625Y-2.175
X2.625Y-2.675
X5.675Y-1.75
X5.675Y-2.25
X5.975Y-2.475
X5.975Y-2.6719
X3.175Y-2.175
X3.175Y-2.3719
T2
X1.425Y-2.05
X1.425Y-2.55
X1.525Y-2.05
X1.525Y-2.55
X1.625Y-2.05
X1.625Y-2.55
X1.725Y-2.05
X1.725Y-2.55
T3
X2.625Y-1.575
X2.725Y-1.575
X2.825Y-1.575
X2.925Y-1.575
X3.025Y-1.575
X3.125Y-1.575
X3.225Y-1.575
X3.325Y-1.575
X3.425Y-1.575
X3.525Y-1.575
X3.625Y-1.575
X3.725Y-1.575
X3.825Y-1.575
X3.925Y-1.575
X4.025Y-1.575
X4.125Y-1.575
T4
X1.275Y-4.1
X1.375Y-4.1
X1.475Y-4.1
X1.575Y-4.1
X1.675Y-4.1
X1.775Y-4.1
X1.875Y-4.1
X1.975Y-4.1
X2.075Y-4.1
T5
X1.45Y-3.325
X1.55Y-3.325
X6.025Y-1.125
X6.025Y-1.225
X2.125Y-1.35
X4.15Y-1.1
X4.25Y-1.1
X4.35Y-1.1
X1.45Y-3.5
X1.55Y-3.5
X5.975Y-2.95
X5.975Y-3.05
X5.55Y-1.125
X5.55Y-1.225
X1.45Y-3.675
X1.55Y-3.675
X2.975Y-1.875
T6
X2.29Y-1.25
X2.39Y-1.25
X2.49Y-1.25
X2.59Y-1.25
X2.65Y-3.15
X2.69Y-1.25
X2.75Y-3.15
X2.79Y-1.25
X2.85Y-3.15
X2.89Y-1.25
X2.95Y-3.15
X2.99Y-1.25
X3.05Y-3.15
X3.09Y-1.25
X3.15Y-3.15
X3.19Y-1.25
X3.25Y-3.15
X3.35Y-1.25
X3.35Y-3.15
X3.45Y-1.25
X3.55Y-1.25
X3.55Y-3.15
X3.65Y-1.25
X3.65Y-3.15
X3.75Y-1.25
X3.75Y-3.15
X3.85Y-1.25
X3.85Y-3.15
X3.95Y-1.25
X3.95Y-3.15
X4.05Y-1.25
X4.05Y-3.15
X4.055Y-2.05
X4.055Y-2.15
X4.055Y-2.25
X4.15Y-3.15
X4.155Y-2.05
X4.155Y-2.15
X4.155Y-2.25
X4.25Y-1.25
X4.25Y-3.15
X4.35Y-1.25
X4.45Y-1.25
X4.45Y-3.15
X4.55Y-1.25
X4.55Y-3.15
X4.65Y-1.25
X4.65Y-3.15
X4.75Y-1.25
X4.75Y-3.15
X4.85Y-1.25
X4.85Y-3.15
X4.95Y-1.25
X4.95Y-3.15
X5.05Y-3.15
X5.15Y-3.15
X5.25Y-1.25
X5.25Y-1.35
X5.25Y-1.45
X5.25Y-1.55
X5.25Y-1.65
X5.25Y-1.75
X5.25Y-1.85
X5.25Y-1.95
X5.25Y-2.05
X5.25Y-2.15
X5.25Y-2.25
X5.25Y-2.35
X5.25Y-2.45
X5.25Y-2.55
X5.25Y-2.65
X5.25Y-2.75
X5.25Y-2.85
X5.25Y-2.95
X5.35Y-1.25
X5.35Y-1.35
X5.35Y-1.45
X5.35Y-1.55
X5.35Y-1.65
X5.35Y-1.75
X5.35Y-1.85
X5.35Y-1.95
X5.35Y-2.05
X5.35Y-2.15
X5.35Y-2.25
X5.35Y-2.35
X5.35Y-2.45
X5.35Y-2.55
X5.35Y-2.65
X5.35Y-2.75
X5.35Y-2.85
X5.35Y-2.95
T7
X1.765Y-1.185
X1.875Y-1.185
X1.985Y-1.185
T8
X1.35Y-1.15
X1.35Y-1.35
T0
M30
