  0
SECTION
  2
HEADER
  9
$ACADVER
  1
AC1015
  9
$ACADMAINTVER
 70
     6
  9
$DWGCODEPAGE
  3
ANSI_1252
  9
$INSBASE
 10
0.0
 20
0.0
 30
0.0
  9
$EXTMIN
 10
-1.5601529309
 20
-1.8296535265
 30
0.0
  9
$EXTMAX
 10
4.0573067073
 20
6.9916146015
 30
0.0
  9
$LIMMIN
 10
0.0
 20
0.0
  9
$LIMMAX
 10
12.0
 20
9.0
  9
$ORTHOMODE
 70
     0
  9
$REGENMODE
 70
     1
  9
$FILLMODE
 70
     1
  9
$QTEXTMODE
 70
     0
  9
$MIRRTEXT
 70
     1
  9
$LTSCALE
 40
1.0
  9
$ATTMODE
 70
     1
  9
$TEXTSIZE
 40
0.125
  9
$TRACEWID
 40
0.05
  9
$TEXTSTYLE
  7
Standard
  9
$CLAYER
  8
0
  9
$CELTYPE
  6
ByLayer
  9
$CECOLOR
 62
   256
  9
$CELTSCALE
 40
1.0
  9
$DISPSILH
 70
     0
  9
$DIMSCALE
 40
1.0
  9
$DIMASZ
 40
0.13
  9
$DIMEXO
 40
0.05
  9
$DIMDLI
 40
0.38
  9
$DIMRND
 40
0.0
  9
$DIMDLE
 40
0.0
  9
$DIMEXE
 40
0.125
  9
$DIMTP
 40
0.0
  9
$DIMTM
 40
0.0
  9
$DIMTXT
 40
0.125
  9
$DIMCEN
 40
0.09
  9
$DIMTSZ
 40
0.0
  9
$DIMTOL
 70
     0
  9
$DIMLIM
 70
     0
  9
$DIMTIH
 70
     1
  9
$DIMTOH
 70
     1
  9
$DIMSE1
 70
     0
  9
$DIMSE2
 70
     0
  9
$DIMTAD
 70
     0
  9
$DIMZIN
 70
     1
  9
$DIMBLK
  1

  9
$DIMASO
 70
     1
  9
$DIMSHO
 70
     1
  9
$DIMPOST
  1

  9
$DIMAPOST
  1

  9
$DIMALT
 70
     0
  9
$DIMALTD
 70
     2
  9
$DIMALTF
 40
25.4
  9
$DIMLFAC
 40
1.0
  9
$DIMTOFL
 70
     0
  9
$DIMTVP
 40
0.0
  9
$DIMTIX
 70
     0
  9
$DIMSOXD
 70
     0
  9
$DIMSAH
 70
     0
  9
$DIMBLK1
  1

  9
$DIMBLK2
  1

  9
$DIMSTYLE
  2
Standard
  9
$DIMCLRD
 70
     0
  9
$DIMCLRE
 70
     0
  9
$DIMCLRT
 70
     0
  9
$DIMTFAC
 40
1.0
  9
$DIMGAP
 40
0.06
  9
$DIMJUST
 70
     0
  9
$DIMSD1
 70
     0
  9
$DIMSD2
 70
     0
  9
$DIMTOLJ
 70
     1
  9
$DIMTZIN
 70
     1
  9
$DIMALTZ
 70
     0
  9
$DIMALTTZ
 70
     0
  9
$DIMUPT
 70
     0
  9
$DIMDEC
 70
     3
  9
$DIMTDEC
 70
     3
  9
$DIMALTU
 70
     2
  9
$DIMALTTD
 70
     2
  9
$DIMTXSTY
  7
Standard
  9
$DIMAUNIT
 70
     0
  9
$DIMADEC
 70
     2
  9
$DIMALTRND
 40
0.0
  9
$DIMAZIN
 70
     0
  9
$DIMDSEP
 70
    46
  9
$DIMATFIT
 70
     3
  9
$DIMFRAC
 70
     0
  9
$DIMLDRBLK
  1

  9
$DIMLUNIT
 70
     2
  9
$DIMLWD
 70
    -2
  9
$DIMLWE
 70
    -2
  9
$DIMTMOVE
 70
     0
  9
$LUNITS
 70
     2
  9
$LUPREC
 70
     3
  9
$SKETCHINC
 40
0.1
  9
$FILLETRAD
 40
0.5
  9
$AUNITS
 70
     0
  9
$AUPREC
 70
     2
  9
$MENU
  1
.
  9
$ELEVATION
 40
0.0
  9
$PELEVATION
 40
0.0
  9
$THICKNESS
 40
0.0
  9
$LIMCHECK
 70
     0
  9
$CHAMFERA
 40
0.0
  9
$CHAMFERB
 40
0.0
  9
$CHAMFERC
 40
0.0
  9
$CHAMFERD
 40
0.0
  9
$SKPOLY
 70
     0
  9
$TDCREATE
 40
2458953.610257708
  9
$TDUCREATE
 40
2458953.776924375
  9
$TDUPDATE
 40
2458953.610288831
  9
$TDUUPDATE
 40
2458953.776955498
  9
$TDINDWG
 40
0.0000000116
  9
$TDUSRTIMER
 40
0.0000000116
  9
$USRTIMER
 70
     1
  9
$ANGBASE
 50
0.0
  9
$ANGDIR
 70
     0
  9
$PDMODE
 70
     0
  9
$PDSIZE
 40
-1.0
  9
$PLINEWID
 40
0.0
  9
$SPLFRAME
 70
     0
  9
$SPLINETYPE
 70
     6
  9
$SPLINESEGS
 70
     8
  9
$HANDSEED
  5
247
  9
$SURFTAB1
 70
     6
  9
$SURFTAB2
 70
     6
  9
$SURFTYPE
 70
     6
  9
$SURFU
 70
     6
  9
$SURFV
 70
     6
  9
$UCSBASE
  2

  9
$UCSNAME
  2

  9
$UCSORG
 10
0.0
 20
0.0
 30
0.0
  9
$UCSXDIR
 10
1.0
 20
0.0
 30
0.0
  9
$UCSYDIR
 10
0.0
 20
1.0
 30
0.0
  9
$UCSORTHOREF
  2

  9
$UCSORTHOVIEW
 70
     0
  9
$UCSORGTOP
 10
0.0
 20
0.0
 30
0.0
  9
$UCSORGBOTTOM
 10
0.0
 20
0.0
 30
0.0
  9
$UCSORGLEFT
 10
0.0
 20
0.0
 30
0.0
  9
$UCSORGRIGHT
 10
0.0
 20
0.0
 30
0.0
  9
$UCSORGFRONT
 10
0.0
 20
0.0
 30
0.0
  9
$UCSORGBACK
 10
0.0
 20
0.0
 30
0.0
  9
$PUCSBASE
  2

  9
$PUCSNAME
  2

  9
$PUCSORG
 10
0.0
 20
0.0
 30
0.0
  9
$PUCSXDIR
 10
1.0
 20
0.0
 30
0.0
  9
$PUCSYDIR
 10
0.0
 20
1.0
 30
0.0
  9
$PUCSORTHOREF
  2

  9
$PUCSORTHOVIEW
 70
     0
  9
$PUCSORGTOP
 10
0.0
 20
0.0
 30
0.0
  9
$PUCSORGBOTTOM
 10
0.0
 20
0.0
 30
0.0
  9
$PUCSORGLEFT
 10
0.0
 20
0.0
 30
0.0
  9
$PUCSORGRIGHT
 10
0.0
 20
0.0
 30
0.0
  9
$PUCSORGFRONT
 10
0.0
 20
0.0
 30
0.0
  9
$PUCSORGBACK
 10
0.0
 20
0.0
 30
0.0
  9
$USERI1
 70
     0
  9
$USERI2
 70
     0
  9
$USERI3
 70
     0
  9
$USERI4
 70
     0
  9
$USERI5
 70
     0
  9
$USERR1
 40
0.0
  9
$USERR2
 40
0.0
  9
$USERR3
 40
0.0
  9
$USERR4
 40
0.0
  9
$USERR5
 40
0.0
  9
$WORLDVIEW
 70
     1
  9
$SHADEDGE
 70
     3
  9
$SHADEDIF
 70
    70
  9
$TILEMODE
 70
     1
  9
$MAXACTVP
 70
    64
  9
$PINSBASE
 10
0.0
 20
0.0
 30
0.0
  9
$PLIMCHECK
 70
     0
  9
$PEXTMIN
 10
1.0000000000E+20
 20
1.0000000000E+20
 30
1.0000000000E+20
  9
$PEXTMAX
 10
-1.0000000000E+20
 20
-1.0000000000E+20
 30
-1.0000000000E+20
  9
$PLIMMIN
 10
0.0
 20
0.0
  9
$PLIMMAX
 10
12.0
 20
9.0
  9
$UNITMODE
 70
     0
  9
$VISRETAIN
 70
     1
  9
$PLINEGEN
 70
     0
  9
$PSLTSCALE
 70
     1
  9
$TREEDEPTH
 70
  3020
  9
$CMLSTYLE
  2
Standard
  9
$CMLJUST
 70
     0
  9
$CMLSCALE
 40
1.0
  9
$PROXYGRAPHICS
 70
     1
  9
$MEASUREMENT
 70
     0
  9
$CELWEIGHT
370
    -1
  9
$ENDCAPS
280
     0
  9
$JOINSTYLE
280
     0
  9
$LWDISPLAY
290
     1
  9
$INSUNITS
 70
     1
  9
$HYPERLINKBASE
  1

  9
$STYLESHEET
  1

  9
$XEDIT
290
     1
  9
$CEPSNTYPE
380
     0
  9
$PSTYLEMODE
290
     1
  9
$FINGERPRINTGUID
  2
{aaded1ba-1380-493d-8516-02e20b46fd7d}
  9
$VERSIONGUID
  2
{FAEB1C32-E019-11D5-929B-00C0DF256EC4}
  9
$EXTNAMES
290
     1
  9
$PSVPSCALE
 40
0.0
  9
$OLESTARTUP
290
     0
  0
ENDSEC
  0
SECTION
  2
CLASSES
  0
CLASS
  1
ACDBDICTIONARYWDFLT
  2
AcDbDictionaryWithDefault
  3
ObjectDBX Classes
 90
        0
280
     0
281
     0
  0
CLASS
  1
VISUALSTYLE
  2
AcDbVisualStyle
  3
ObjectDBX Classes
 90
     4095
280
     0
281
     0
  0
CLASS
  1
MATERIAL
  2
AcDbMaterial
  3
ObjectDBX Classes
 90
     1153
280
     0
281
     0
  0
CLASS
  1
SCALE
  2
AcDbScale
  3
ObjectDBX Classes
 90
     1153
280
     0
281
     0
  0
CLASS
  1
TABLESTYLE
  2
AcDbTableStyle
  3
ObjectDBX Classes
 90
     4095
280
     0
281
     0
  0
CLASS
  1
MLEADERSTYLE
  2
AcDbMLeaderStyle
  3
ACDB_MLEADERSTYLE_CLASS
 90
     4095
280
     0
281
     0
  0
CLASS
  1
SUN
  2
AcDbSun
  3
SCENEOE
 90
     1153
280
     0
281
     0
  0
CLASS
  1
ACDBPLACEHOLDER
  2
AcDbPlaceHolder
  3
ObjectDBX Classes
 90
        0
280
     0
281
     0
  0
CLASS
  1
LAYOUT
  2
AcDbLayout
  3
ObjectDBX Classes
 90
        0
280
     0
281
     0
  0
ENDSEC
  0
SECTION
  2
TABLES
  0
TABLE
  2
VPORT
  5
8
330
0
100
AcDbSymbolTable
 70
     1
  0
VPORT
  5
29
330
8
100
AcDbSymbolTableRecord
100
AcDbViewportTableRecord
  2
*Active
 70
     0
 10
0.0
 20
0.0
 11
1.0
 21
1.0
 12
1.2485768882
 22
2.5809805375
 13
0.0
 23
0.0
 14
0.5
 24
0.5
 15
0.5
 25
0.5
 16
0.0
 26
0.0
 36
1.0
 17
0.0
 27
0.0
 37
0.0
 40
8.9976934906
 41
0.6368086262
 42
50.0
 43
0.0
 44
0.0
 50
0.0
 51
0.0
 71
     0
 72
   100
 73
     1
 74
     3
 75
     0
 76
     0
 77
     0
 78
     0
281
     0
 65
     1
110
0.0
120
0.0
130
0.0
111
1.0
121
0.0
131
0.0
112
0.0
122
1.0
132
0.0
 79
     0
146
0.0
  0
ENDTAB
  0
TABLE
  2
LTYPE
  5
5
330
0
100
AcDbSymbolTable
 70
     6
  0
LTYPE
  5
14
330
5
100
AcDbSymbolTableRecord
100
AcDbLinetypeTableRecord
  2
ByBlock
 70
     0
  3

 72
    65
 73
     0
 40
0.0
  0
LTYPE
  5
15
330
5
100
AcDbSymbolTableRecord
100
AcDbLinetypeTableRecord
  2
ByLayer
 70
     0
  3

 72
    65
 73
     0
 40
0.0
  0
LTYPE
  5
16
330
5
100
AcDbSymbolTableRecord
100
AcDbLinetypeTableRecord
  2
Continuous
 70
     0
  3
Solid line
 72
    65
 73
     0
 40
0.0
  0
LTYPE
  5
6E
330
5
100
AcDbSymbolTableRecord
100
AcDbLinetypeTableRecord
  2
HIDDEN
 70
     0
  3
Hidden __ __ __ __ __ __ __ __ __ __ __ __ __ __
 72
    65
 73
     2
 40
0.075
 49
0.05
 74
     0
 49
-0.025
 74
     0
  0
LTYPE
  5
6F
330
5
100
AcDbSymbolTableRecord
100
AcDbLinetypeTableRecord
  2
PHANTOM
 70
     0
  3
Phantom ______  __  __  ______  __  __  ______
 72
    65
 73
     6
 40
0.5
 49
0.25
 74
     0
 49
-0.05
 74
     0
 49
0.05
 74
     0
 49
-0.05
 74
     0
 49
0.05
 74
     0
 49
-0.05
 74
     0
  0
LTYPE
  5
70
330
5
100
AcDbSymbolTableRecord
100
AcDbLinetypeTableRecord
  2
CENTER
 70
     0
  3
Center ____ _ ____ _ ____ _ ____ _ ____ _ ____
 72
    65
 73
     4
 40
0.4
 49
0.25
 74
     0
 49
-0.05
 74
     0
 49
0.05
 74
     0
 49
-0.05
 74
     0
  0
LTYPE
  5
71
330
5
100
AcDbSymbolTableRecord
100
AcDbLinetypeTableRecord
  2
CENTERX2
 70
     0
  3
Center (2x) ________  __  ________  __  _____
 72
    65
 73
     4
 40
0.8
 49
0.5
 74
     0
 49
-0.1
 74
     0
 49
0.1
 74
     0
 49
-0.1
 74
     0
  0
LTYPE
  5
72
330
5
100
AcDbSymbolTableRecord
100
AcDbLinetypeTableRecord
  2
DOT2
 70
     0
  3
Dot (.5x) ........................................
 72
    65
 73
     2
 40
0.025
 49
0.0
 74
     0
 49
-0.025
 74
     0
  0
ENDTAB
  0
TABLE
  2
LAYER
  5
2
330
0
100
AcDbSymbolTable
 70
     1
  0
LAYER
  5
10
330
2
100
AcDbSymbolTableRecord
100
AcDbLayerTableRecord
  2
0
 70
     0
 62
     7
  6
Continuous
370
    -3
390
F
  0
ENDTAB
  0
TABLE
  2
STYLE
  5
3
330
0
100
AcDbSymbolTable
 70
     1
  0
STYLE
  5
11
330
3
100
AcDbSymbolTableRecord
100
AcDbTextStyleTableRecord
  2
Standard
 70
     0
 40
0.0
 41
1.0
 50
0.0
 71
     0
 42
0.125
  3
txt
  4

  0
ENDTAB
  0
TABLE
  2
VIEW
  5
6
330
0
100
AcDbSymbolTable
 70
     0
  0
ENDTAB
  0
TABLE
  2
UCS
  5
7
330
0
100
AcDbSymbolTable
 70
     0
  0
ENDTAB
  0
TABLE
  2
APPID
  5
9
330
0
100
AcDbSymbolTable
 70
     1
  0
APPID
  5
12
330
9
100
AcDbSymbolTableRecord
100
AcDbRegAppTableRecord
  2
ACAD
 70
     0
  0
ENDTAB
  0
TABLE
  2
DIMSTYLE
  5
A
330
0
100
AcDbSymbolTable
 70
     1
100
AcDbDimStyleTable
  0
DIMSTYLE
105
27
330
A
100
AcDbSymbolTableRecord
100
AcDbDimStyleTableRecord
  2
Standard
 70
     0
178
     0
340
11
  0
ENDTAB
  0
TABLE
  2
BLOCK_RECORD
  5
1
330
0
100
AcDbSymbolTable
 70
     1
  0
BLOCK_RECORD
  5
1F
330
1
100
AcDbSymbolTableRecord
100
AcDbBlockTableRecord
  2
*Model_Space
340
22
  0
BLOCK_RECORD
  5
1B
330
1
100
AcDbSymbolTableRecord
100
AcDbBlockTableRecord
  2
*Paper_Space
340
1E
  0
BLOCK_RECORD
  5
23
330
1
100
AcDbSymbolTableRecord
100
AcDbBlockTableRecord
  2
*Paper_Space0
340
26
  0
ENDTAB
  0
ENDSEC
  0
SECTION
  2
BLOCKS
  0
BLOCK
  5
20
330
1F
100
AcDbEntity
  8
0
100
AcDbBlockBegin
  2
*Model_Space
 70
     0
 10
0.0
 20
0.0
 30
0.0
  3
*Model_Space
  1

  0
ENDBLK
  5
21
330
1F
100
AcDbEntity
  8
0
100
AcDbBlockEnd
  0
BLOCK
  5
1C
330
1B
100
AcDbEntity
 67
     1
  8
0
100
AcDbBlockBegin
  2
*Paper_Space
 70
     0
 10
0.0
 20
0.0
 30
0.0
  3
*Paper_Space
  1

  0
ENDBLK
  5
1D
330
1B
100
AcDbEntity
 67
     1
  8
0
100
AcDbBlockEnd
  0
BLOCK
  5
24
330
23
100
AcDbEntity
  8
0
100
AcDbBlockBegin
  2
*Paper_Space0
 70
     0
 10
0.0
 20
0.0
 30
0.0
  3
*Paper_Space0
  1

  0
ENDBLK
  5
25
330
23
100
AcDbEntity
  8
0
100
AcDbBlockEnd
  0
ENDSEC
  0
SECTION
  2
ENTITIES
  0
SPLINE
  5
73
330
1F
100
AcDbEntity
  8
0
  6
Continuous
 62
     7
370
    25
100
AcDbSpline
210
0.0
220
0.0
230
1.0
 70
     8
 71
     3
 72
    23
 73
    19
 74
     0
 42
0.000000001
 43
0.00000001
 40
0.0
 40
0.0
 40
0.0
 40
0.0
 40
0.0637689599577398
 40
0.1252623047603753
 40
0.1854135826663915
 40
0.2468067624960852
 40
0.3094223888496969
 40
0.3725326822170097
 40
0.4377332507368582
 40
0.5057495167426339
 40
0.5440132631112718
 40
0.5883695992066305
 40
0.6403890193945131
 40
0.6978974005877084
 40
0.7632716192950985
 40
0.8349786038393137
 40
0.9138736558434367
 40
1.0
 40
1.0
 40
1.0
 40
1.0
 10
0.903846153846154
 20
0.2693810096153845
 30
0.0
 10
0.903769808991147
 20
0.2713684143799873
 30
0.0
 10
0.9036198436710116
 20
0.2752723027524948
 30
0.0
 10
0.9021317218010854
 20
0.2808925331372477
 30
0.0
 10
0.8997629532278507
 20
0.286094440886121
 30
0.0
 10
0.8965160203051827
 20
0.2908545224912657
 30
0.0
 10
0.8924269304175722
 20
0.2950275386237556
 30
0.0
 10
0.8877343771526295
 20
0.2987060855779665
 30
0.0
 10
0.8823370838848096
 20
0.3016148052647322
 30
0.0
 10
0.8773395964711707
 20
0.3035333657997542
 30
0.0
 10
0.8727930510455402
 20
0.3046812603598256
 30
0.0
 10
0.8686899372400754
 20
0.305536661234265
 30
0.0
 10
0.8639385067494859
 20
0.3061429083863402
 30
0.0
 10
0.8585351725034924
 20
0.3067859414044878
 30
0.0
 10
0.8524937077849685
 20
0.3072029157673224
 30
0.0
 10
0.8457811829977515
 20
0.3075072239391286
 30
0.0
 10
0.8384168764630395
 20
0.3076317313618879
 30
0.0
 10
0.8332832553763527
 20
0.3076715341911212
 30
0.0
 10
0.830603966346154
 20
0.3076923076923076
 30
0.0
  0
SPLINE
  5
74
330
1F
100
AcDbEntity
  8
0
  6
Continuous
 62
     7
370
    25
100
AcDbSpline
210
0.0
220
0.0
230
1.0
 70
     8
 71
     3
 72
    23
 73
    19
 74
     0
 42
0.000000001
 43
0.00000001
 40
0.0
 40
0.0
 40
0.0
 40
0.0
 40
0.1055399964402565
 40
0.2020864154635864
 40
0.2906848989424217
 40
0.3705526096211914
 40
0.4426702615663776
 40
0.5076749275738748
 40
0.5655732034810455
 40
0.6164546657486235
 40
0.6633313570051059
 40
0.7088620244966144
 40
0.7534118003496286
 40
0.7985150107871091
 40
0.8450643214401183
 40
0.8938731190084056
 40
0.9447078060036521
 40
1.0
 40
1.0
 40
1.0
 40
1.0
 10
0.8339092548076924
 20
0.2307692307692307
 30
0.0
 10
0.8371144945211577
 20
0.2308053303331367
 30
0.0
 10
0.8432518398522465
 20
0.2308744532411873
 30
0.0
 10
0.8520781485246641
 20
0.2311950739407329
 30
0.0
 10
0.8600945417617631
 20
0.2319676113963578
 30
0.0
 10
0.8673354446614068
 20
0.2329436835990678
 30
0.0
 10
0.8738372927890614
 20
0.2340706999152554
 30
0.0
 10
0.8795420919532089
 20
0.2356857827223058
 30
0.0
 10
0.8845377444017691
 20
0.2374163848347953
 30
0.0
 10
0.8887650514661767
 20
0.2395670743391319
 30
0.0
 10
0.8923767654890825
 20
0.2420128747707468
 30
0.0
 10
0.895495249381443
 20
0.2447913648602957
 30
0.0
 10
0.8980746826965463
 20
0.2480071133470018
 30
0.0
 10
0.900197687884042
 20
0.2515727300588366
 30
0.0
 10
0.9018491551041116
 20
0.255519751997739
 30
0.0
 10
0.9030545996571768
 20
0.2598048498062159
 30
0.0
 10
0.9037282649023368
 20
0.2644768362602956
 30
0.0
 10
0.9038057723834795
 20
0.2677011430657741
 30
0.0
 10
0.903846153846154
 20
0.2693810096153845
 30
0.0
  0
CIRCLE
  5
78
330
1F
100
AcDbEntity
  8
0
  6
Continuous
 62
     7
370
    25
100
AcDbCircle
 10
0.0
 20
0.0
 30
0.0
 40
0.19
  0
CIRCLE
  5
79
330
1F
100
AcDbEntity
  8
0
  6
Continuous
 62
     7
370
    25
100
AcDbCircle
 10
1.0982003419
 20
2.5681427819
 30
0.0
 40
0.1300000000000003
  0
CIRCLE
  5
7A
330
1F
100
AcDbEntity
  8
0
  6
Continuous
 62
     7
370
    25
100
AcDbCircle
 10
3.5573067073
 20
6.4916146015
 30
0.0
 40
0.1299999999999981
  0
SPLINE
  5
80
330
1F
100
AcDbEntity
  8
0
  6
Continuous
 62
     7
370
    25
100
AcDbSpline
210
0.0
220
0.0
230
1.0
 70
     8
 71
     3
 72
    23
 73
    19
 74
     0
 42
0.000000001
 43
0.00000001
 40
0.0
 40
0.0
 40
0.0
 40
0.0
 40
0.0687412630793657
 40
0.1347890881950344
 40
0.1985360495606907
 40
0.2603856506059207
 40
0.3209615782321968
 40
0.379903849584149
 40
0.4385029357752678
 40
0.4961543439762686
 40
0.5542654832084996
 40
0.6127487608156952
 40
0.6725134425261787
 40
0.7336464018979743
 40
0.7967896194814542
 40
0.8619356990410245
 40
0.9293977347748982
 40
1.0
 40
1.0
 40
1.0
 40
1.0
 10
0.9711538461538464
 20
0.268479567307692
 30
0.0
 10
0.9710848502062268
 20
0.2655234681731383
 30
0.0
 10
0.9709495617280672
 20
0.259727096545509
 30
0.0
 10
0.9702208243847544
 20
0.2512126993740832
 30
0.0
 10
0.9688889214403998
 20
0.2430667197168318
 30
0.0
 10
0.9668715606646686
 20
0.2353130080000116
 30
0.0
 10
0.9645528664853174
 20
0.2278550602419287
 30
0.0
 10
0.9614695980052229
 20
0.2208304802422967
 30
0.0
 10
0.957989824785591
 20
0.2141371056617628
 30
0.0
 10
0.953856999800887
 20
0.2078696168206882
 30
0.0
 10
0.9493214262824688
 20
0.2018888002700888
 30
0.0
 10
0.9440466496889617
 20
0.1964238032797316
 30
0.0
 10
0.9383743945207408
 20
0.1911809029539889
 30
0.0
 10
0.931985802656814
 20
0.1864884967817875
 30
0.0
 10
0.925162489161129
 20
0.1820293012139419
 30
0.0
 10
0.9177688819734212
 20
0.1779880825004533
 30
0.0
 10
0.909853234309874
 20
0.1742632537079351
 30
0.0
 10
0.9042881419948594
 20
0.17218603187497
 30
0.0
 10
0.9014423076923078
 20
0.1711237980769228
 30
0.0
  0
SPLINE
  5
81
330
1F
100
AcDbEntity
  8
0
  6
Continuous
 62
     7
370
    25
100
AcDbSpline
210
0.0
220
0.0
230
1.0
 70
     8
 71
     3
 72
    31
 73
    27
 74
     0
 42
0.000000001
 43
0.00000001
 40
0.0
 40
0.0
 40
0.0
 40
0.0
 40
0.0728890266200386
 40
0.1401861299444948
 40
0.2022774341249596
 40
0.2588951317514629
 40
0.3104829424654779
 40
0.3570952441313356
 40
0.398513566653466
 40
0.4350375108701161
 40
0.4692514858292872
 40
0.5028050278902745
 40
0.5362104463185619
 40
0.5693793599392051
 40
0.602801475048393
 40
0.6366657983367764
 40
0.6709286568940426
 40
0.7058030002293124
 40
0.741189061245877
 40
0.7763043110764611
 40
0.8120043009129346
 40
0.8479689758088954
 40
0.8845217611964793
 40
0.9219741585442048
 40
0.9601981758096079
 40
0.9999999999999999
 40
0.9999999999999999
 40
0.9999999999999999
 40
0.9999999999999999
 10
0.8188100961538463
 20
0.3749999999999999
 30
0.0
 10
0.8239939965602697
 20
0.3749816001286881
 30
0.0
 10
0.8339640972694272
 20
0.374946211993186
 30
0.0
 10
0.8483404379342026
 20
0.3743878809529576
 30
0.0
 10
0.8615470839042625
 20
0.373610917484466
 30
0.0
 10
0.8736035888135179
 20
0.3724252506095703
 30
0.0
 10
0.884504794690468
 20
0.3708531996529346
 30
0.0
 10
0.894261627091336
 20
0.3690000117150841
 30
0.0
 10
0.9028738008335333
 20
0.3668879067475453
 30
0.0
 10
0.9104139477084728
 20
0.3642560573181161
 30
0.0
 10
0.9172185574103124
 20
0.3612873710628419
 30
0.0
 10
0.9235613996744544
 20
0.3578762961198719
 30
0.0
 10
0.9295824070333464
 20
0.3540608158874666
 30
0.0
 10
0.9352413355556727
 20
0.3497405347529804
 30
0.0
 10
0.94058736266077
 20
0.344993173509678
 30
0.0
 10
0.9456305739492887
 20
0.3398139534723215
 30
0.0
 10
0.9502997041712938
 20
0.3341589569881499
 30
0.0
 10
0.9545658418829198
 20
0.3280639164586223
 30
0.0
 10
0.9584540830051478
 20
0.3216520735892291
 30
0.0
 10
0.9618904726529139
 20
0.3149146248778663
 30
0.0
 10
0.9646849504261243
 20
0.3078468848776933
 30
0.0
 10
0.9671541711001338
 20
0.300550997711801
 30
0.0
 10
0.968932670757367
 20
0.2929226672417962
 30
0.0
 10
0.9701695912517794
 20
0.2850361565525
 30
0.0
 10
0.9710752160493855
 20
0.2768637042889526
 30
0.0
 10
0.9711272851456428
 20
0.2713117030738233
 30
0.0
 10
0.9711538461538464
 20
0.268479567307692
 30
0.0
  0
SPLINE
  5
92
330
1F
100
AcDbEntity
  8
0
  6
Continuous
 62
     7
370
    25
100
AcDbSpline
210
0.0
220
0.0
230
1.0
 70
     8
 71
     3
 72
    14
 73
    10
 74
     0
 42
0.000000001
 43
0.00000001
 40
0.0
 40
0.0
 40
0.0
 40
0.0
 40
0.1249999999999993
 40
0.1249999999999993
 40
0.2499999999999986
 40
0.2499999999999986
 40
0.5000000000000001
 40
0.5000000000000001
 40
1.0
 40
1.0
 40
1.0
 40
1.0
 10
0.7640940267175851
 20
-1.239814024557307
 30
0.0
 10
0.7662092530456579
 20
-1.24319403392833
 30
0.0
 10
0.7686947380861854
 20
-1.246327442719935
 30
0.0
 10
0.773703304037947
 20
-1.252532365484428
 30
0.0
 10
0.7763046315038736
 20
-1.255556879612663
 30
0.0
 10
0.7843006592718957
 20
-1.264451157120431
 30
0.0
 10
0.7898909839973539
 20
-1.27014415188516
 30
0.0
 10
0.8071764882288313
 20
-1.286682749065858
 30
0.0
 10
0.8194163518824421
 20
-1.297009880065775
 30
0.0
 10
0.8320667045456893
 20
-1.306765914768244
 30
0.0
  0
SPLINE
  5
99
330
1F
100
AcDbEntity
  8
0
  6
Continuous
 62
     7
370
    25
100
AcDbSpline
210
0.0
220
0.0
230
1.0
 70
     8
 71
     3
 72
    20
 73
    16
 74
     0
 42
0.000000001
 43
0.00000001
 40
0.0
 40
0.0
 40
0.0
 40
0.0
 40
0.1250000000000004
 40
0.1250000000000004
 40
0.2500000000000008
 40
0.2500000000000008
 40
0.5000000000000016
 40
0.5000000000000016
 40
0.7500000000000023
 40
0.7500000000000023
 40
0.8750000000000012
 40
0.8750000000000012
 40
0.9375000000000007
 40
0.9375000000000007
 40
1.0
 40
1.0
 40
1.0
 40
1.0
 10
0.5957521192727784
 20
-1.328587159352425
 30
0.0
 10
0.5974139050241092
 20
-1.332227126171567
 30
0.0
 10
0.5994771738083791
 20
-1.33566981536031
 30
0.0
 10
0.6036491775645505
 20
-1.342498447340197
 30
0.0
 10
0.6058421324709411
 20
-1.345847797116982
 30
0.0
 10
0.6126357355289708
 20
-1.355742173778051
 30
0.0
 10
0.6174542173996576
 20
-1.362136339146248
 30
0.0
 10
0.6274819264393446
 20
-1.374612063535962
 30
0.0
 10
0.6327246970491395
 20
-1.380718827590145
 30
0.0
 10
0.6407234815435594
 20
-1.389578826816516
 30
0.0
 10
0.6435044429675294
 20
-1.392568169106856
 30
0.0
 10
0.6475943726855925
 20
-1.396875936688387
 30
0.0
 10
0.6489457661731314
 20
-1.398284033474023
 30
0.0
 10
0.6517653460477639
 20
-1.401177711869434
 30
0.0
 10
0.6532347124255256
 20
-1.402664400966865
 30
0.0
 10
0.6546420362809698
 20
-1.404077260168118
 30
0.0
  0
SPLINE
  5
9F
330
1F
100
AcDbEntity
  8
0
  6
Continuous
 62
     7
370
    25
100
AcDbSpline
210
0.0
220
0.0
230
1.0
 70
     8
 71
     3
 72
    20
 73
    16
 74
     0
 42
0.000000001
 43
0.00000001
 40
0.0
 40
0.0
 40
0.0
 40
0.0
 40
0.0624999999999984
 40
0.0624999999999984
 40
0.1249999999999968
 40
0.1249999999999968
 40
0.2499999999999935
 40
0.2499999999999935
 40
0.4999999999999956
 40
0.4999999999999956
 40
0.7499999999999976
 40
0.7499999999999976
 40
0.8749999999999988
 40
0.8749999999999988
 40
1.0
 40
1.0
 40
1.0
 40
1.0
 10
0.5345659056175528
 20
-1.45411084758113
 30
0.0
 10
0.5345628310622218
 20
-1.45211934374527
 30
0.0
 10
0.5345516266141651
 20
-1.450023576230894
 30
0.0
 10
0.5345015628170899
 20
-1.445961474641337
 30
0.0
 10
0.5344625288279351
 20
-1.444000686880884
 30
0.0
 10
0.5343109767461343
 20
-1.438050848785474
 30
0.0
 10
0.5341653025938162
 20
-1.433954996408493
 30
0.0
 10
0.533560307066304
 20
-1.421996913004112
 30
0.0
 10
0.5329510057239635
 20
-1.413948159282104
 30
0.0
 10
0.5312210253007033
 20
-1.397984627846983
 30
0.0
 10
0.5301061613769447
 20
-1.390031568669695
 30
0.0
 10
0.5279101143950921
 20
-1.378194270023569
 30
0.0
 10
0.5270908575372493
 20
-1.374262885711935
 30
0.0
 10
0.5252080660287914
 20
-1.366459755340801
 30
0.0
 10
0.5242304070892156
 20
-1.362554147324266
 30
0.0
 10
0.5228272836577805
 20
-1.358793615297985
 30
0.0
  0
SPLINE
  5
A3
330
1F
100
AcDbEntity
  8
0
  6
Continuous
 62
     7
370
    25
100
AcDbSpline
210
0.0
220
0.0
230
1.0
 70
     8
 71
     3
 72
    20
 73
    16
 74
     0
 42
0.000000001
 43
0.00000001
 40
0.0
 40
0.0
 40
0.0
 40
0.0
 40
0.1249999999999983
 40
0.1249999999999983
 40
0.2499999999999965
 40
0.2499999999999965
 40
0.499999999999993
 40
0.499999999999993
 40
0.7499999999999896
 40
0.7499999999999896
 40
0.8749999999999913
 40
0.8749999999999913
 40
0.9374999999999957
 40
0.9374999999999957
 40
1.0
 40
1.0
 40
1.0
 40
1.0
 10
0.4172631809265163
 20
-1.394627799503258
 30
0.0
 10
0.4184400474029918
 20
-1.398467917548662
 30
0.0
 10
0.4200432126186419
 20
-1.402163971788357
 30
0.0
 10
0.4233021880823565
 20
-1.40950546330219
 30
0.0
 10
0.4250468411963803
 20
-1.413125460147852
 30
0.0
 10
0.430514907074753
 20
-1.423860190907763
 30
0.0
 10
0.4344749977428565
 20
-1.430852682860156
 30
0.0
 10
0.442827291476459
 20
-1.444579042608287
 30
0.0
 10
0.4472469351884114
 20
-1.451339150978901
 30
0.0
 10
0.4540521115927367
 20
-1.461200245829958
 30
0.0
 10
0.4564321655779923
 20
-1.464540708913595
 30
0.0
 10
0.4599359536011803
 20
-1.469355012643397
 30
0.0
 10
0.4611001236828839
 20
-1.470935931600374
 30
0.0
 10
0.4635364971814583
 20
-1.474192500560198
 30
0.0
 10
0.4648041814814403
 20
-1.475862630086739
 30
0.0
 10
0.4660138803595612
 20
-1.47744389766444
 30
0.0
  0
SPLINE
  5
A9
330
1F
100
AcDbEntity
  8
0
  6
Continuous
 62
     7
370
    25
100
AcDbSpline
210
0.0
220
0.0
230
1.0
 70
     8
 71
     3
 72
    20
 73
    16
 74
     0
 42
0.000000001
 43
0.00000001
 40
0.0
 40
0.0
 40
0.0
 40
0.0
 40
0.0625000000000007
 40
0.0625000000000007
 40
0.1250000000000014
 40
0.1250000000000014
 40
0.2500000000000024
 40
0.2500000000000024
 40
0.5000000000000046
 40
0.5000000000000046
 40
0.7500000000000066
 40
0.7500000000000066
 40
0.8750000000000033
 40
0.8750000000000033
 40
1.0
 40
1.0
 40
1.0
 40
1.0
 10
0.3401680673861083
 20
-1.511461186793511
 30
0.0
 10
0.3404255666361926
 20
-1.509489906493354
 30
0.0
 10
0.3406898416277596
 20
-1.507406289431189
 30
0.0
 10
0.3411769449072481
 20
-1.503345420797349
 30
0.0
 10
0.3413973019065317
 20
-1.501383251951219
 30
0.0
 10
0.3420288860288752
 20
-1.495449270523295
 30
0.0
 10
0.3424235490412043
 20
-1.491351457397728
 30
0.0
 10
0.3433959085067609
 20
-1.479369718902379
 30
0.0
 10
0.3438482197127839
 20
-1.471281893317953
 30
0.0
 10
0.3442264943053905
 20
-1.455165017391918
 30
0.0
 10
0.3441624590716265
 20
-1.447103586102428
 30
0.0
 10
0.3435320795928399
 20
-1.435033751936587
 30
0.0
 10
0.3432330716502737
 20
-1.431013268976077
 30
0.0
 10
0.3423835993798772
 20
-1.422999675991936
 30
0.0
 10
0.3419232890934482
 20
-1.418984048608571
 30
0.0
 10
0.3410194937144601
 20
-1.415057233919699
 30
0.0
  0
SPLINE
  5
AD
330
1F
100
AcDbEntity
  8
0
  6
Continuous
 62
     7
370
    25
100
AcDbSpline
210
0.0
220
0.0
230
1.0
 70
     8
 71
     3
 72
    20
 73
    16
 74
     0
 42
0.000000001
 43
0.00000001
 40
0.0
 40
0.0
 40
0.0
 40
0.0
 40
0.1249999999999969
 40
0.1249999999999969
 40
0.2499999999999937
 40
0.2499999999999937
 40
0.4999999999999958
 40
0.4999999999999958
 40
0.7499999999999978
 40
0.7499999999999978
 40
0.8749999999999989
 40
0.8749999999999989
 40
0.9374999999999994
 40
0.9374999999999994
 40
1.0
 40
1.0
 40
1.0
 40
1.0
 10
0.231681206900385
 20
-1.436805971346901
 30
0.0
 10
0.2323493879648925
 20
-1.440782433665282
 30
0.0
 10
0.2334617547535234
 20
-1.444671134750489
 30
0.0
 10
0.2357454978943695
 20
-1.452404943789186
 30
0.0
 10
0.2370088880295372
 20
-1.456236339517423
 30
0.0
 10
0.2410488458609507
 20
-1.467636096317161
 30
0.0
 10
0.2440772317901862
 20
-1.475113136738555
 30
0.0
 10
0.2506002114086698
 20
-1.489868064140905
 30
0.0
 10
0.2541159490241966
 20
-1.497171244148088
 30
0.0
 10
0.2596045195957526
 20
-1.507875716313398
 30
0.0
 10
0.2615391330993021
 20
-1.51151301761802
 30
0.0
 10
0.2643953959604597
 20
-1.516755806822262
 30
0.0
 10
0.2653513141405665
 20
-1.518486296909403
 30
0.0
 10
0.2673581669647274
 20
-1.522055472147393
 30
0.0
 10
0.2684001218253043
 20
-1.523879677360109
 30
0.0
 10
0.2693922596963801
 20
-1.525601752453151
 30
0.0
  0
SPLINE
  5
B3
330
1F
100
AcDbEntity
  8
0
  6
Continuous
 62
     7
370
    25
100
AcDbSpline
210
0.0
220
0.0
230
1.0
 70
     8
 71
     3
 72
    20
 73
    16
 74
     0
 42
0.000000001
 43
0.00000001
 40
0.0
 40
0.0
 40
0.0
 40
0.0
 40
0.0625000000000001
 40
0.0625000000000001
 40
0.1250000000000001
 40
0.1250000000000001
 40
0.2500000000000001
 40
0.2500000000000001
 40
0.5
 40
0.5
 40
0.75
 40
0.75
 40
0.875
 40
0.875
 40
1.0
 40
1.0
 40
1.0
 40
1.0
 10
0.1398967301747568
 20
-1.542947850625718
 30
0.0
 10
0.1404095223741066
 20
-1.541030650123344
 30
0.0
 10
0.1409451190510951
 20
-1.538998002744967
 30
0.0
 10
0.1419682029522691
 20
-1.535009521386584
 30
0.0
 10
0.1424481862407013
 20
-1.533078532980817
 30
0.0
 10
0.1438567363540065
 20
-1.527261559567477
 30
0.0
 10
0.1447894215109916
 20
-1.52323415989413
 30
0.0
 10
0.1473358153233515
 20
-1.511433854748121
 30
0.0
 10
0.1488495117946519
 20
-1.503446776715686
 30
0.0
 10
0.1513469886859988
 20
-1.487452700081178
 30
0.0
 10
0.1523432189913019
 20
-1.479420606330988
 30
0.0
 10
0.1533019117223331
 20
-1.467323593155005
 30
0.0
 10
0.1535324746260825
 20
-1.463282283939165
 30
0.0
 10
0.1537391819715185
 20
-1.455193906077094
 30
0.0
 10
0.1538082774245062
 20
-1.451136206602731
 30
0.0
 10
0.1534232187182124
 20
-1.447108830947248
 30
0.0
  0
SPLINE
  5
B7
330
1F
100
AcDbEntity
  8
0
  6
Continuous
 62
     7
370
    25
100
AcDbSpline
210
0.0
220
0.0
230
1.0
 70
     8
 71
     3
 72
    20
 73
    16
 74
     0
 42
0.000000001
 43
0.00000001
 40
0.0
 40
0.0
 40
0.0
 40
0.0
 40
0.125
 40
0.125
 40
0.25
 40
0.25
 40
0.4999999999999999
 40
0.4999999999999999
 40
0.7499999999999999
 40
0.7499999999999999
 40
0.8749999999999999
 40
0.8749999999999999
 40
0.9375
 40
0.9375
 40
1.0
 40
1.0
 40
1.0
 40
1.0
 10
0.0421815562230141
 20
-1.45439999466911
 30
0.0
 10
0.0423255684889426
 20
-1.458445949660653
 30
0.0
 10
0.0429242975733379
 20
-1.462462652609817
 30
0.0
 10
0.0441862018879135
 20
-1.470460281237736
 30
0.0
 10
0.0449430285382309
 20
-1.474439612225848
 30
0.0
 10
0.047474968694573
 20
-1.486315965584813
 30
0.0
 10
0.0495130416303653
 20
-1.49415443523429
 30
0.0
 10
0.0540814147906106
 20
-1.509696183213154
 30
0.0
 10
0.0566268817412931
 20
-1.517421703698691
 30
0.0
 10
0.0606959922439981
 20
-1.528796529578523
 30
0.0
 10
0.0621477666672363
 20
-1.532670148705873
 30
0.0
 10
0.0643052839486047
 20
-1.538256207117387
 30
0.0
 10
0.0650344975960659
 20
-1.540110464363225
 30
0.0
 10
0.0665716708396716
 20
-1.543935342087997
 30
0.0
 10
0.0673681802339548
 20
-1.545880609737084
 30
0.0
 10
0.0681267998497504
 20
-1.547713897357335
 30
0.0
  0
SPLINE
  5
BD
330
1F
100
AcDbEntity
  8
0
  6
Continuous
 62
     7
370
    25
100
AcDbSpline
210
0.0
220
0.0
230
1.0
 70
     8
 71
     3
 72
    20
 73
    16
 74
     0
 42
0.000000001
 43
0.00000001
 40
0.0
 40
0.0
 40
0.0
 40
0.0
 40
0.0625
 40
0.0625
 40
0.1250000000000001
 40
0.1250000000000001
 40
0.2500000000000001
 40
0.2500000000000001
 40
0.5000000000000001
 40
0.5000000000000001
 40
0.7500000000000001
 40
0.7500000000000001
 40
0.8750000000000001
 40
0.8750000000000001
 40
1.0
 40
1.0
 40
1.0
 40
1.0
 10
-0.0628205527215341
 20
-1.548012365519498
 30
0.0
 10
-0.0620619702995771
 20
-1.546181702459836
 30
0.0
 10
-0.0612650814026458
 20
-1.544237992852719
 30
0.0
 10
-0.0597170347773894
 20
-1.540393539190731
 30
0.0
 10
-0.0589811762895745
 20
-1.538526670279349
 30
0.0
 10
-0.0568146722563695
 20
-1.532926554231552
 30
0.0
 10
-0.0553563688530002
 20
-1.529041757144909
 30
0.0
 10
-0.0512658709751196
 20
-1.517627414991193
 30
0.0
 10
-0.048709668420019
 20
-1.509880710711679
 30
0.0
 10
-0.0441183804401833
 20
-1.494286953966191
 30
0.0
 10
-0.0420705412160825
 20
-1.48642306144373
 30
0.0
 10
-0.0395263281874842
 20
-1.474507199819949
 30
0.0
 10
-0.0387658314679629
 20
-1.470514529680786
 30
0.0
 10
-0.037497870183479
 20
-1.462489979382092
 30
0.0
 10
-0.0368962189665708
 20
-1.45845970603893
 30
0.0
 10
-0.0367517170542643
 20
-1.454399994669109
 30
0.0
  0
SPLINE
  5
C1
330
1F
100
AcDbEntity
  8
0
  6
Continuous
 62
     7
370
    25
100
AcDbSpline
210
0.0
220
0.0
230
1.0
 70
     8
 71
     3
 72
    20
 73
    16
 74
     0
 42
0.000000001
 43
0.00000001
 40
0.0
 40
0.0
 40
0.0
 40
0.0
 40
0.1250000000000011
 40
0.1250000000000011
 40
0.2500000000000021
 40
0.2500000000000021
 40
0.5000000000000042
 40
0.5000000000000042
 40
0.7500000000000063
 40
0.7500000000000063
 40
0.8750000000000032
 40
0.8750000000000032
 40
0.9375000000000017
 40
0.9375000000000017
 40
1.0
 40
1.0
 40
1.0
 40
1.0
 10
-0.147993379543276
 20
-1.447108830852858
 30
0.0
 10
-0.1483802766290621
 20
-1.451155434342154
 30
0.0
 10
-0.1483096013675815
 20
-1.455232548433989
 30
0.0
 10
-0.148099398353969
 20
-1.463359489647682
 30
0.0
 10
-0.1478661727466665
 20
-1.467420028751262
 30
0.0
 10
-0.1468976419778047
 20
-1.479574254532029
 30
0.0
 10
-0.1458924809664433
 20
-1.487643506011513
 30
0.0
 10
-0.1433726504316132
 20
-1.503714134953456
 30
0.0
 10
-0.1418478987128682
 20
-1.511732649403551
 30
0.0
 10
-0.1392789868657887
 20
-1.52359185161229
 30
0.0
 10
-0.1383392672767801
 20
-1.527635993198238
 30
0.0
 10
-0.1369207868254279
 20
-1.533474178323793
 30
0.0
 10
-0.1364338705638454
 20
-1.535423924289497
 30
0.0
 10
-0.1353992482362693
 20
-1.539441620511642
 30
0.0
 10
-0.134862836949727
 20
-1.541472174029084
 30
0.0
 10
-0.1343496125009617
 20
-1.543385727259993
 30
0.0
  0
SPLINE
  5
C7
330
1F
100
AcDbEntity
  8
0
  6
Continuous
 62
     7
370
    25
100
AcDbSpline
210
0.0
220
0.0
230
1.0
 70
     8
 71
     3
 72
    20
 73
    16
 74
     0
 42
0.000000001
 43
0.00000001
 40
0.0
 40
0.0
 40
0.0
 40
0.0
 40
0.0625000000000017
 40
0.0625000000000017
 40
0.1250000000000034
 40
0.1250000000000034
 40
0.2500000000000063
 40
0.2500000000000063
 40
0.5000000000000041
 40
0.5000000000000041
 40
0.7500000000000019
 40
0.7500000000000019
 40
0.875000000000001
 40
0.875000000000001
 40
1.0
 40
1.0
 40
1.0
 40
1.0
 10
-0.2645093088798848
 20
-1.526549209114285
 30
0.0
 10
-0.2635182918954921
 20
-1.524835664570661
 30
0.0
 10
-0.262475723295836
 20
-1.52301681235906
 30
0.0
 10
-0.2604238900581612
 20
-1.519387006841951
 30
0.0
 10
-0.2594401487783081
 20
-1.517617209335353
 30
0.0
 10
-0.2565473617759784
 20
-1.512330971900314
 30
0.0
 10
-0.254585974027341
 20
-1.508659167706506
 30
0.0
 10
-0.2490080856397021
 20
-1.497831404284633
 30
0.0
 10
-0.2454469561922895
 20
-1.490461872311364
 30
0.0
 10
-0.2388240654308215
 20
-1.475542479778879
 30
0.0
 10
-0.235751653467377
 20
-1.467984403635133
 30
0.0
 10
-0.2316530306152682
 20
-1.456457434563068
 30
0.0
 10
-0.2303714238852117
 20
-1.452582879561423
 30
0.0
 10
-0.2280554474662981
 20
-1.444761367176155
 30
0.0
 10
-0.2269272726457373
 20
-1.440828399586838
 30
0.0
 10
-0.2262513677254485
 20
-1.43680597125251
 30
0.0
  0
SPLINE
  5
CB
330
1F
100
AcDbEntity
  8
0
  6
Continuous
 62
     7
370
    25
100
AcDbSpline
210
0.0
220
0.0
230
1.0
 70
     8
 71
     3
 72
    20
 73
    16
 74
     0
 42
0.000000001
 43
0.00000001
 40
0.0
 40
0.0
 40
0.0
 40
0.0
 40
0.1250000000000032
 40
0.1250000000000032
 40
0.2500000000000063
 40
0.2500000000000063
 40
0.5000000000000042
 40
0.5000000000000042
 40
0.7500000000000021
 40
0.7500000000000021
 40
0.8750000000000052
 40
0.8750000000000052
 40
0.9375000000000027
 40
0.9375000000000027
 40
1.0
 40
1.0
 40
1.0
 40
1.0
 10
-0.3355896545210698
 20
-1.415057233732535
 30
0.0
 10
-0.3365051279102783
 20
-1.419034787098679
 30
0.0
 10
-0.33696804684465
 20
-1.423102854997128
 30
0.0
 10
-0.3378217447981263
 20
-1.431220736626417
 30
0.0
 10
-0.3381204024597609
 20
-1.435293546941415
 30
0.0
 10
-0.338744618824376
 20
-1.447519742064235
 30
0.0
 10
-0.3387978592192225
 20
-1.455683623223341
 30
0.0
 10
-0.3383867804714337
 20
-1.47201293324445
 30
0.0
 10
-0.3379159875424789
 20
-1.480188642153429
 30
0.0
 10
-0.3369041534945448
 20
-1.492335808379339
 30
0.0
 10
-0.3364966136866198
 20
-1.496480641161777
 30
0.0
 10
-0.3358458981311283
 20
-1.502475142901171
 30
0.0
 10
-0.3356136371962993
 20
-1.504489728885713
 30
0.0
 10
-0.3351060464849239
 20
-1.508632305242831
 30
0.0
 10
-0.3348388442109774
 20
-1.510710694957947
 30
0.0
 10
-0.3345788406593591
 20
-1.512672781198969
 30
0.0
  0
SPLINE
  5
D1
330
1F
100
AcDbEntity
  8
0
  6
Continuous
 62
     7
370
    25
100
AcDbSpline
210
0.0
220
0.0
230
1.0
 70
     8
 71
     3
 72
    18
 73
    14
 74
     0
 42
0.000000001
 43
0.00000001
 40
0.0
 40
0.0
 40
0.0
 40
0.0
 40
0.125
 40
0.125
 40
0.25
 40
0.25
 40
0.5
 40
0.5
 40
0.75
 40
0.75
 40
0.875
 40
0.875
 40
1.0
 40
1.0
 40
1.0
 40
1.0
 10
-0.4617079708631817
 20
-1.478908889011243
 30
0.0
 10
-0.4592947385415872
 20
-1.475772766138926
 30
0.0
 10
-0.4566819737813939
 20
-1.472318705813472
 30
0.0
 10
-0.4519152512187272
 20
-1.465812503595139
 30
0.0
 10
-0.449483113074383
 20
-1.462420593666272
 30
0.0
 10
-0.4425012207126091
 20
-1.452372750825376
 30
0.0
 10
-0.437991006550222
 20
-1.445511617742902
 30
0.0
 10
-0.4294353413186102
 20
-1.431532123066203
 30
0.0
 10
-0.4253837294545724
 20
-1.424413735337332
 30
0.0
 10
-0.4197894843103109
 20
-1.413479082211158
 30
0.0
 10
-0.4180048461764859
 20
-1.409790888235724
 30
0.0
 10
-0.4146726212277873
 20
-1.402309758426621
 30
0.0
 10
-0.4130332561793438
 20
-1.398543122940284
 30
0.0
 10
-0.4118333417331257
 20
-1.394627799316093
 30
0.0
  0
SPLINE
  5
D5
330
1F
100
AcDbEntity
  8
0
  6
Continuous
 62
     7
370
    25
100
AcDbSpline
210
0.0
220
0.0
230
1.0
 70
     8
 71
     3
 72
    18
 73
    14
 74
     0
 42
0.000000001
 43
0.00000001
 40
0.0
 40
0.0
 40
0.0
 40
0.0
 40
0.1249999999999969
 40
0.1249999999999969
 40
0.2499999999999938
 40
0.2499999999999938
 40
0.4999999999999959
 40
0.4999999999999959
 40
0.7499999999999979
 40
0.7499999999999979
 40
0.874999999999999
 40
0.874999999999999
 40
1.0
 40
1.0
 40
1.0
 40
1.0
 10
-0.5173974444339848
 20
-1.358793615021249
 30
0.0
 10
-0.5188299055366824
 20
-1.362632775377648
 30
0.0
 10
-0.519822766093818
 20
-1.366621639698853
 30
0.0
 10
-0.5217342515315299
 20
-1.374590544439229
 30
0.0
 10
-0.5225639575079072
 20
-1.378605625303072
 30
0.0
 10
-0.524783050679646
 20
-1.390694105589434
 30
0.0
 10
-0.5259022162947032
 20
-1.398813177397748
 30
0.0
 10
-0.5276244653268154
 20
-1.415123061392485
 30
0.0
 10
-0.5282227185121706
 20
-1.423316176975388
 30
0.0
 10
-0.5287994258680913
 20
-1.435547123783921
 30
0.0
 10
-0.5289344306818171
 20
-1.439720275631341
 30
0.0
 10
-0.5291126669674305
 20
-1.447789089930657
 30
0.0
 10
-0.5291420327952404
 20
-1.452123907152956
 30
0.0
 10
-0.5291362311729222
 20
-1.45608101329791
 30
0.0
  0
SPLINE
  5
DB
330
1F
100
AcDbEntity
  8
0
  6
Continuous
 62
     7
370
    25
100
AcDbSpline
210
0.0
220
0.0
230
1.0
 70
     8
 71
     3
 72
    18
 73
    14
 74
     0
 42
0.000000001
 43
0.00000001
 40
0.0
 40
0.0
 40
0.0
 40
0.0
 40
0.1249999999999982
 40
0.1249999999999982
 40
0.2499999999999964
 40
0.2499999999999964
 40
0.4999999999999962
 40
0.4999999999999962
 40
0.7499999999999987
 40
0.7499999999999987
 40
0.8749999999999993
 40
0.8749999999999993
 40
1.0
 40
1.0
 40
1.0
 40
1.0
 10
-0.6510277938644308
 20
-1.405893089231131
 30
0.0
 10
-0.648223350113394
 20
-1.403099762822902
 30
0.0
 10
-0.6451651019007558
 20
-1.400003297217815
 30
0.0
 10
-0.639563342183918
 20
-1.394155106143016
 30
0.0
 10
-0.6367019299743802
 20
-1.391104940396541
 30
0.0
 10
-0.6284254853872648
 20
-1.382019429472183
 30
0.0
 10
-0.6230394671419375
 20
-1.375789785315098
 30
0.0
 10
-0.6126855390613892
 20
-1.363002095260756
 30
0.0
 10
-0.6077180345304284
 20
-1.356450984714483
 30
0.0
 10
-0.60071421658217
 20
-1.346303927911296
 30
0.0
 10
-0.5984537713965926
 20
-1.342867833110711
 30
0.0
 10
-0.5941554587835215
 20
-1.335860016401127
 30
0.0
 10
-0.5920294828478289
 20
-1.332326607158203
 30
0.0
 10
-0.5903222800489822
 20
-1.328587159075688
 30
0.0
  0
SPLINE
  5
DF
330
1F
100
AcDbEntity
  8
0
  6
Continuous
 62
     7
370
    25
100
AcDbSpline
210
0.0
220
0.0
230
1.0
 70
     8
 71
     3
 72
    18
 73
    14
 74
     0
 42
0.000000001
 43
0.00000001
 40
0.0
 40
0.0
 40
0.0
 40
0.0
 40
0.1249999999999991
 40
0.1249999999999991
 40
0.2499999999999981
 40
0.2499999999999981
 40
0.4999999999999962
 40
0.4999999999999962
 40
0.7499999999999943
 40
0.7499999999999943
 40
0.8749999999999971
 40
0.8749999999999971
 40
1.0
 40
1.0
 40
1.0
 40
1.0
 10
-0.6903059675899699
 20
-1.279280660834373
 30
0.0
 10
-0.6922345580949089
 20
-1.282913704300949
 30
0.0
 10
-0.69374435361315
 20
-1.286753746195937
 30
0.0
 10
-0.6966888593377755
 20
-1.294434677371061
 30
0.0
 10
-0.698039451336118
 20
-1.298322188257139
 30
0.0
 10
-0.7018276340814953
 20
-1.310063127906638
 30
0.0
 10
-0.7040017124836445
 20
-1.317997052444283
 30
0.0
 10
-0.7078448819269857
 20
-1.334006226358977
 30
0.0
 10
-0.7095085672654761
 20
-1.342075470577784
 30
0.0
 10
-0.7116784815376626
 20
-1.35418139806573
 30
0.0
 10
-0.71235628908296
 20
-1.358309529540731
 30
0.0
 10
-0.7135857901013395
 20
-1.366319416200109
 30
0.0
 10
-0.7141805742001446
 20
-1.370633530896677
 30
0.0
 10
-0.7146890940913855
 20
-1.37455943458802
 30
0.0
  0
SPLINE
  5
E5
330
1F
100
AcDbEntity
  8
0
  6
Continuous
 62
     7
370
    25
100
AcDbSpline
210
0.0
220
0.0
230
1.0
 70
     8
 71
     3
 72
    18
 73
    14
 74
     0
 42
0.000000001
 43
0.00000001
 40
0.0
 40
0.0
 40
0.0
 40
0.0
 40
0.1249999999999976
 40
0.1249999999999976
 40
0.2499999999999953
 40
0.2499999999999953
 40
0.4999999999999959
 40
0.4999999999999959
 40
0.7499999999999964
 40
0.7499999999999964
 40
0.8749999999999982
 40
0.8749999999999982
 40
1.0
 40
1.0
 40
1.0
 40
1.0
 10
-0.8292118043975978
 20
-1.308741891783087
 30
0.0
 10
-0.8260619731998698
 20
-1.306337926866155
 30
0.0
 10
-0.8226129085580899
 20
-1.303660458316766
 30
0.0
 10
-0.8162659751617215
 20
-1.298576479796198
 30
0.0
 10
-0.8130249679242693
 20
-1.295923477524351
 30
0.0
 10
-0.803588275073849
 20
-1.287968010717749
 30
0.0
 10
-0.7974159956985598
 20
-1.28248240938881
 30
0.0
 10
-0.7854322754320768
 20
-1.271119727622066
 30
0.0
 10
-0.7796293343672986
 20
-1.265254670593663
 30
0.0
 10
-0.771328265392239
 20
-1.256078507931971
 30
0.0
 10
-0.7686280828118799
 20
-1.252956455991787
 30
0.0
 10
-0.7634317254050137
 20
-1.246547888501064
 30
0.0
 10
-0.7608527187725995
 20
-1.243311170706429
 30
0.0
 10
-0.7586641874519519
 20
-1.239814024195733
 30
0.0
  0
SPLINE
  5
E9
330
1F
100
AcDbEntity
  8
0
  6
Continuous
 62
     7
370
    25
100
AcDbSpline
210
0.0
220
0.0
230
1.0
 70
     8
 71
     3
 72
    18
 73
    14
 74
     0
 42
0.000000001
 43
0.00000001
 40
0.0
 40
0.0
 40
0.0
 40
0.0
 40
0.1249999999999971
 40
0.1249999999999971
 40
0.2499999999999942
 40
0.2499999999999942
 40
0.499999999999994
 40
0.499999999999994
 40
0.7499999999999938
 40
0.7499999999999938
 40
0.8749999999999969
 40
0.8749999999999969
 40
1.0
 40
1.0
 40
1.0
 40
1.0
 10
-0.851356711218525
 20
-1.177878859863201
 30
0.0
 10
-0.8537514735308456
 20
-1.181240973321504
 30
0.0
 10
-0.855755857809253
 20
-1.184864401909321
 30
0.0
 10
-0.8596899714849315
 20
-1.192121853143073
 30
0.0
 10
-0.8615419217928975
 20
-1.195813395354002
 30
0.0
 10
-0.8668452882440101
 20
-1.207000650697223
 30
0.0
 10
-0.8700444873617809
 20
-1.214610714311005
 30
0.0
 10
-0.8759584842629435
 20
-1.230039757058306
 30
0.0
 10
-0.8786651006287745
 20
-1.237844910027143
 30
0.0
 10
-0.8824050759558617
 20
-1.249615943640805
 30
0.0
 10
-0.8836158059477026
 20
-1.253626345107569
 30
0.0
 10
-0.8858846564999826
 20
-1.261441266790542
 30
0.0
 10
-0.8870384879009061
 20
-1.265654127270617
 30
0.0
 10
-0.8880539427666189
 20
-1.269485172252219
 30
0.0
  0
SPLINE
  5
EF
330
1F
100
AcDbEntity
  8
0
  6
Continuous
 62
     7
370
    25
100
AcDbSpline
210
0.0
220
0.0
230
1.0
 70
     8
 71
     3
 72
    18
 73
    14
 74
     0
 42
0.000000001
 43
0.00000001
 40
0.0
 40
0.0
 40
0.0
 40
0.0
 40
0.1249999999999982
 40
0.1249999999999982
 40
0.2499999999999963
 40
0.2499999999999963
 40
0.4999999999999984
 40
0.4999999999999984
 40
0.7500000000000006
 40
0.7500000000000006
 40
0.8750000000000002
 40
0.8750000000000002
 40
1.0
 40
1.0
 40
1.0
 40
1.0
 10
-0.9931917155676567
 20
-1.18911322438779
 30
0.0
 10
-0.9897478301097857
 20
-1.187139519596557
 30
0.0
 10
-0.9859710387628015
 20
-1.184933154974066
 30
0.0
 10
-0.9789830991494309
 20
-1.180707859867253
 30
0.0
 10
-0.9754192170498709
 20
-1.178499864191363
 30
0.0
 10
-0.9649795673818913
 20
-1.171823744270526
 30
0.0
 10
-0.9581253188647693
 20
-1.167181983892267
 30
0.0
 10
-0.9447117012075121
 20
-1.157453916277446
 30
0.0
 10
-0.9381697465623281
 20
-1.152382424699141
 30
0.0
 10
-0.9287084308270056
 20
-1.144344716571672
 30
0.0
 10
-0.9256129247698467
 20
-1.141593593639923
 30
0.0
 10
-0.919603535427067
 20
-1.135900669027685
 30
0.0
 10
-0.9166136332698576
 20
-1.133019396465156
 30
0.0
 10
-0.9139786872331742
 20
-1.129827327626588
 30
0.0
  0
SPLINE
  5
F3
330
1F
100
AcDbEntity
  8
0
  6
Continuous
 62
     7
370
    25
100
AcDbSpline
210
0.0
220
0.0
230
1.0
 70
     8
 71
     3
 72
    18
 73
    14
 74
     0
 42
0.000000001
 43
0.00000001
 40
0.0
 40
0.0
 40
0.0
 40
0.0
 40
0.125
 40
0.125
 40
0.25
 40
0.25
 40
0.5
 40
0.5
 40
0.75
 40
0.75
 40
0.875
 40
0.875
 40
1.0
 40
1.0
 40
1.0
 40
1.0
 10
-0.9977940524444633
 20
-1.056323225036239
 30
0.0
 10
-1.000616297467089
 20
-1.059353795977148
 30
0.0
 10
-1.003083791639189
 20
-1.06269596122419
 30
0.0
 10
-1.007945847011175
 20
-1.069400535752548
 30
0.0
 10
-1.010270414184568
 20
-1.072830465486666
 30
0.0
 10
-1.017007300003884
 20
-1.083265506731223
 30
0.0
 10
-1.02118316994877
 20
-1.090417231100772
 30
0.0
 10
-1.029080246337508
 20
-1.10499383897248
 30
0.0
 10
-1.032788574161525
 20
-1.112398308768831
 30
0.0
 10
-1.038047136761352
 20
-1.123627356914943
 30
0.0
 10
-1.039771038265776
 20
-1.127449491908006
 30
0.0
 10
-1.043049533746
 20
-1.13493444924644
 30
0.0
 10
-1.044744029605338
 20
-1.138967682046029
 30
0.0
 10
-1.046251508448157
 20
-1.142641118787261
 30
0.0
  0
SPLINE
  5
F9
330
1F
100
AcDbEntity
  8
0
  6
Continuous
 62
     7
370
    25
100
AcDbSpline
210
0.0
220
0.0
230
1.0
 70
     8
 71
     3
 72
    18
 73
    14
 74
     0
 42
0.000000001
 43
0.00000001
 40
0.0
 40
0.0
 40
0.0
 40
0.0
 40
0.1250000000000004
 40
0.1250000000000004
 40
0.2500000000000009
 40
0.2500000000000009
 40
0.5000000000000018
 40
0.5000000000000018
 40
0.7500000000000027
 40
0.7500000000000027
 40
0.8750000000000013
 40
0.8750000000000013
 40
1.0
 40
1.0
 40
1.0
 40
1.0
 10
-1.14014176056617
 20
-1.049054831463753
 30
0.0
 10
-1.13646039685148
 20
-1.047546070570995
 30
0.0
 10
-1.132425170298452
 20
-1.045852345734303
 30
0.0
 10
-1.124913534468978
 20
-1.042566417791474
 30
0.0
 10
-1.121089201388842
 20
-1.040842807115381
 30
0.0
 10
-1.109824335573147
 20
-1.035573424861448
 30
0.0
 10
-1.102405334478758
 20
-1.031860550900618
 30
0.0
 10
-1.087789803062494
 20
-1.023948546953107
 30
0.0
 10
-1.08061964725888
 20
-1.019764566993921
 30
0.0
 10
-1.070157577898135
 20
-1.013013576977105
 30
0.0
 10
-1.066718802921655
 20
-1.010684009157365
 30
0.0
 10
-1.059997045562151
 20
-1.00581113570955
 30
0.0
 10
-1.056646287458613
 20
-1.003338119078717
 30
0.0
 10
-1.053608305240077
 20
-1.000508972240624
 30
0.0
  0
SPLINE
  5
FD
330
1F
100
AcDbEntity
  8
0
  6
Continuous
 62
     7
370
    25
100
AcDbSpline
210
0.0
220
0.0
230
1.0
 70
     8
 71
     3
 72
    18
 73
    14
 74
     0
 42
0.000000001
 43
0.00000001
 40
0.0
 40
0.0
 40
0.0
 40
0.0
 40
0.1249999999999996
 40
0.1249999999999996
 40
0.2499999999999991
 40
0.2499999999999991
 40
0.4999999999999982
 40
0.4999999999999982
 40
0.7499999999999973
 40
0.7499999999999973
 40
0.8749999999999987
 40
0.8749999999999987
 40
1.0
 40
1.0
 40
1.0
 40
1.0
 10
-1.127112407759309
 20
-0.9166936069669663
 30
0.0
 10
-1.1303152863469
 20
-0.9193374760898295
 30
0.0
 10
-1.13320568936019
 20
-0.922338171886943
 30
0.0
 10
-1.138916563079621
 20
-0.9283691855344101
 30
0.0
 10
-1.141676146042534
 20
-0.9314759258619152
 30
0.0
 10
-1.149738091233049
 20
-0.9409717820570125
 30
0.0
 10
-1.154824041373074
 20
-0.9475375633830462
 30
0.0
 10
-1.164579625238249
 20
-0.9610018962867496
 30
0.0
 10
-1.169230250951123
 20
-0.9678752667300664
 30
0.0
 10
-1.175927685265617
 20
-0.9783621047995836
 30
0.0
 10
-1.178135688157478
 20
-0.9819290726352613
 30
0.0
 10
-1.18237598649833
 20
-0.9889522491490432
 30
0.0
 10
-1.184581678573179
 20
-0.9927319625809093
 30
0.0
 10
-1.186558562036592
 20
-0.9961864701614498
 30
0.0
  0
SPLINE
  5
103
330
1F
100
AcDbEntity
  8
0
  6
Continuous
 62
     7
370
    25
100
AcDbSpline
210
0.0
220
0.0
230
1.0
 70
     8
 71
     3
 72
    18
 73
    14
 74
     0
 42
0.000000001
 43
0.00000001
 40
0.0
 40
0.0
 40
0.0
 40
0.0
 40
0.1250000000000032
 40
0.1250000000000032
 40
0.2500000000000063
 40
0.2500000000000063
 40
0.5000000000000048
 40
0.5000000000000048
 40
0.7500000000000033
 40
0.7500000000000033
 40
0.8750000000000017
 40
0.8750000000000017
 40
1.0
 40
1.0
 40
1.0
 40
1.0
 10
-1.267528432290572
 20
-0.8909692131868726
 30
0.0
 10
-1.263671060094417
 20
-0.8899531192376363
 30
0.0
 10
-1.259450540285713
 20
-0.8888024168453406
 30
0.0
 10
-1.251544176210499
 20
-0.8865206752454893
 30
0.0
 10
-1.247526084390838
 20
-0.8853117642151936
 30
0.0
 10
-1.235631007589565
 20
-0.8815514631112384
 30
0.0
 10
-1.227775287759014
 20
-0.8788360356824017
 30
0.0
 10
-1.212209828273653
 20
-0.8728893231651047
 30
0.0
 10
-1.20453471966392
 20
-0.8696711606638428
 30
0.0
 10
-1.19325110434454
 20
-0.8643326077305635
 30
0.0
 10
-1.189527856369809
 20
-0.8624678579651263
 30
0.0
 10
-1.182208330445532
 20
-0.8585051984710698
 30
0.0
 10
-1.178553809889488
 20
-0.8564861635864611
 30
0.0
 10
-1.17516393999592
 20
-0.854071630952316
 30
0.0
  0
SPLINE
  5
107
330
1F
100
AcDbEntity
  8
0
  6
Continuous
 62
     7
370
    25
100
AcDbSpline
210
0.0
220
0.0
230
1.0
 70
     8
 71
     3
 72
    20
 73
    16
 74
     0
 42
0.000000001
 43
0.00000001
 40
0.0
 40
0.0
 40
0.0
 40
0.0
 40
0.1250000000000015
 40
0.1250000000000015
 40
0.250000000000003
 40
0.250000000000003
 40
0.4999999999999999
 40
0.4999999999999999
 40
0.7499999999999968
 40
0.7499999999999968
 40
0.8749999999999968
 40
0.8749999999999968
 40
0.9374999999999984
 40
0.9374999999999984
 40
1.0
 40
1.0
 40
1.0
 40
1.0
 10
-1.237099104249803
 20
-0.7613791071331908
 30
0.0
 10
-1.240628380362757
 20
-0.7635877453154276
 30
0.0
 10
-1.243893386801426
 20
-0.7661924651804575
 30
0.0
 10
-1.250357708890348
 20
-0.7714404583031053
 30
0.0
 10
-1.253506408802639
 20
-0.7741677729665015
 30
0.0
 10
-1.262759743007319
 20
-0.7825528806997558
 30
0.0
 10
-1.268671971676346
 20
-0.7884145866195421
 30
0.0
 10
-1.280126338725537
 20
-0.8005245607696367
 30
0.0
 10
-1.285642535197524
 20
-0.8067450735167255
 30
0.0
 10
-1.293671651257598
 20
-0.8163005266436928
 30
0.0
 10
-1.296326142170818
 20
-0.8195503265554284
 30
0.0
 10
-1.300178147069765
 20
-0.8243767362023582
 30
0.0
 10
-1.301492942353307
 20
-0.8260504763629307
 30
0.0
 10
-1.304104110361576
 20
-0.8294149852770308
 30
0.0
 10
-1.305347755914561
 20
-0.8310323608683851
 30
0.0
 10
-1.306555607245117
 20
-0.8326205793703346
 30
0.0
  0
SPLINE
  5
10D
330
1F
100
AcDbEntity
  8
0
  6
Continuous
 62
     7
370
    25
100
AcDbSpline
210
0.0
220
0.0
230
1.0
 70
     8
 71
     3
 72
    20
 73
    16
 74
     0
 42
0.000000001
 43
0.00000001
 40
0.0
 40
0.0
 40
0.0
 40
0.0
 40
0.0625000000000038
 40
0.0625000000000038
 40
0.1250000000000076
 40
0.1250000000000076
 40
0.250000000000007
 40
0.250000000000007
 40
0.5000000000000051
 40
0.5000000000000051
 40
0.7500000000000032
 40
0.7500000000000032
 40
0.8750000000000016
 40
0.8750000000000016
 40
1.0
 40
1.0
 40
1.0
 40
1.0
 10
-1.37315517659182
 20
-0.717572124243503
 30
0.0
 10
-1.371171374180393
 20
-0.7173203379325208
 30
0.0
 10
-1.369154909169742
 20
-0.7170531453737263
 30
0.0
 10
-1.364931892456851
 20
-0.7164747205455586
 30
0.0
 10
-1.362816051761788
 20
-0.7161725332464083
 30
0.0
 10
-1.356693989277459
 20
-0.7152495215860997
 30
0.0
 10
-1.352551827659836
 20
-0.7145762724993463
 30
0.0
 10
-1.340235054312359
 20
-0.7123997303226605
 30
0.0
 10
-1.332079110054153
 20
-0.7107323971923099
 30
0.0
 10
-1.315834959748295
 20
-0.7068645565042048
 30
0.0
 10
-1.307788290735113
 20
-0.7046731023677958
 30
0.0
 10
-1.295878748218446
 20
-0.700847337408934
 30
0.0
 10
-1.291935486008507
 20
-0.6994823395763494
 30
0.0
 10
-1.284144643649142
 20
-0.6965038106562002
 30
0.0
 10
-1.280249471968458
 20
-0.6949763851475862
 30
0.0
 10
-1.276565740888442
 20
-0.6930208872712078
 30
0.0
  0
SPLINE
  5
111
330
1F
100
AcDbEntity
  8
0
  6
Continuous
 62
     7
370
    25
100
AcDbSpline
210
0.0
220
0.0
230
1.0
 70
     8
 71
     3
 72
    20
 73
    16
 74
     0
 42
0.000000001
 43
0.00000001
 40
0.0
 40
0.0
 40
0.0
 40
0.0
 40
0.1249999999999971
 40
0.1249999999999971
 40
0.2499999999999943
 40
0.2499999999999943
 40
0.4999999999999952
 40
0.4999999999999952
 40
0.7499999999999961
 40
0.7499999999999961
 40
0.8749999999999967
 40
0.8749999999999967
 40
0.9374999999999983
 40
0.9374999999999983
 40
1.0
 40
1.0
 40
1.0
 40
1.0
 10
-1.32587223904492
 20
-0.5930371996883838
 30
0.0
 10
-1.329667253365702
 20
-0.5947697706258964
 30
0.0
 10
-1.333251273388825
 20
-0.5969308766191649
 30
0.0
 10
-1.340359041585739
 20
-0.6012999565055607
 30
0.0
 10
-1.343843428029143
 20
-0.6035981462426457
 30
0.0
 10
-1.354131472334172
 20
-0.6107199847257789
 30
0.0
 10
-1.360770310248376
 20
-0.615771432017918
 30
0.0
 10
-1.373731102198737
 20
-0.6263078003191934
 30
0.0
 10
-1.380020063252692
 20
-0.6317647239758686
 30
0.0
 10
-1.389247683656599
 20
-0.640214796577607
 30
0.0
 10
-1.392303335585141
 20
-0.643091267249917
 30
0.0
 10
-1.396764218594115
 20
-0.6473885060096558
 30
0.0
 10
-1.398292967272763
 20
-0.6488843009138037
 30
0.0
 10
-1.401322909633221
 20
-0.6518830265444835
 30
0.0
 10
-1.402761662999116
 20
-0.653319451717426
 30
0.0
 10
-1.404169558059716
 20
-0.6547406796385646
 30
0.0
  0
SPLINE
  5
117
330
1F
100
AcDbEntity
  8
0
  6
Continuous
 62
     7
370
    25
100
AcDbSpline
210
0.0
220
0.0
230
1.0
 70
     8
 71
     3
 72
    20
 73
    16
 74
     0
 42
0.000000001
 43
0.00000001
 40
0.0
 40
0.0
 40
0.0
 40
0.0
 40
0.0624999999999989
 40
0.0624999999999989
 40
0.1249999999999978
 40
0.1249999999999978
 40
0.2499999999999957
 40
0.2499999999999957
 40
0.4999999999999997
 40
0.4999999999999997
 40
0.7500000000000037
 40
0.7500000000000037
 40
0.8750000000000018
 40
0.8750000000000018
 40
1.0
 40
1.0
 40
1.0
 40
1.0
 10
-1.45520117220835
 20
-0.5318453646441087
 30
0.0
 10
-1.453196821832583
 20
-0.5318553556311179
 30
0.0
 10
-1.451168453433439
 20
-0.5318539789562792
 30
0.0
 10
-1.446903417427759
 20
-0.5318327575714034
 30
0.0
 10
-1.444757969773898
 20
-0.5318100369973345
 30
0.0
 10
-1.438552284450104
 20
-0.5316957511343998
 30
0.0
 10
-1.43435753342757
 20
-0.5315696350571153
 30
0.0
 10
-1.421836877283607
 20
-0.5310218851042307
 30
0.0
 10
-1.413523098615595
 20
-0.5304343011660789
 30
0.0
 10
-1.396885453432861
 20
-0.5287206040561715
 30
0.0
 10
-1.388608185268187
 20
-0.5275979239625742
 30
0.0
 10
-1.376280990818498
 20
-0.5253576310314196
 30
0.0
 10
-1.372186603404298
 20
-0.524518195137712
 30
0.0
 10
-1.364060346434175
 20
-0.5225797957309603
 30
0.0
 10
-1.359992454485197
 20
-0.5215726594820289
 30
0.0
 10
-1.35607869499048
 20
-0.5201123640733858
 30
0.0
  0
SPLINE
  5
11B
330
1F
100
AcDbEntity
  8
0
  6
Continuous
 62
     7
370
    25
100
AcDbSpline
210
0.0
220
0.0
230
1.0
 70
     8
 71
     3
 72
    20
 73
    16
 74
     0
 42
0.000000001
 43
0.00000001
 40
0.0
 40
0.0
 40
0.0
 40
0.0
 40
0.1250000000000008
 40
0.1250000000000008
 40
0.2500000000000017
 40
0.2500000000000017
 40
0.5000000000000033
 40
0.5000000000000033
 40
0.750000000000005
 40
0.750000000000005
 40
0.8750000000000018
 40
0.8750000000000018
 40
0.9375000000000009
 40
0.9375000000000009
 40
1.0
 40
1.0
 40
1.0
 40
1.0
 10
-1.391912879195752
 20
-0.4145482613421215
 30
0.0
 10
-1.395907682972271
 20
-0.4157725337704938
 30
0.0
 10
-1.399748849922135
 20
-0.4174503002811322
 30
0.0
 10
-1.407377419799621
 20
-0.4208602374737722
 30
0.0
 10
-1.411137488657416
 20
-0.4226872202209254
 30
0.0
 10
-1.422283340460671
 20
-0.4284156160448814
 30
0.0
 10
-1.429534990945564
 20
-0.4325648510277968
 30
0.0
 10
-1.443780548683142
 20
-0.4413359107221076
 30
0.0
 10
-1.450734970067174
 20
-0.4459317443151962
 30
0.0
 10
-1.461004130455736
 20
-0.4531215379471329
 30
0.0
 10
-1.464408771949114
 20
-0.4555751621822749
 30
0.0
 10
-1.469403134872055
 20
-0.4592637048758166
 30
0.0
 10
-1.471119857514983
 20
-0.4605524701743681
 30
0.0
 10
-1.474516611622205
 20
-0.4631323117105729
 30
0.0
 10
-1.476126046784233
 20
-0.4643655937149383
 30
0.0
 10
-1.477710581639955
 20
-0.4655941577869247
 30
0.0
  0
SPLINE
  5
121
330
1F
100
AcDbEntity
  8
0
  6
Continuous
 62
     7
370
    25
100
AcDbSpline
210
0.0
220
0.0
230
1.0
 70
     8
 71
     3
 72
    20
 73
    16
 74
     0
 42
0.000000001
 43
0.00000001
 40
0.0
 40
0.0
 40
0.0
 40
0.0
 40
0.0625000000000041
 40
0.0625000000000041
 40
0.1250000000000082
 40
0.1250000000000082
 40
0.2500000000000082
 40
0.2500000000000082
 40
0.5000000000000082
 40
0.5000000000000082
 40
0.7500000000000082
 40
0.7500000000000082
 40
0.8750000000000041
 40
0.8750000000000041
 40
1.0
 40
1.0
 40
1.0
 40
1.0
 10
-1.512253441885137
 20
-0.3369847226008874
 30
0.0
 10
-1.510264119565496
 20
-0.3372571838876277
 30
0.0
 10
-1.508256818296257
 20
-0.3375202902872614
 30
0.0
 10
-1.504024154146755
 20
-0.3380568361187719
 30
0.0
 10
-1.501888600076207
 20
-0.3383155595413845
 30
0.0
 10
-1.495710480741481
 20
-0.3390148645489354
 30
0.0
 10
-1.491535230414672
 20
-0.3394378329969236
 30
0.0
 10
-1.479033280467415
 20
-0.340533010697872
 30
0.0
 10
-1.470707232397348
 20
-0.3410371408139824
 30
0.0
 10
-1.453969557520358
 20
-0.3415127476209724
 30
0.0
 10
-1.445607430291823
 20
-0.3414810869667309
 30
0.0
 10
-1.433079408824972
 20
-0.3408695903633071
 30
0.0
 10
-1.428905861092831
 20
-0.3405718064327141
 30
0.0
 10
-1.420586879790608
 20
-0.3397103333486881
 30
0.0
 10
-1.416417688225605
 20
-0.3392425620503218
 30
0.0
 10
-1.412342313612193
 20
-0.3383045741300648
 30
0.0
  0
SPLINE
  5
125
330
1F
100
AcDbEntity
  8
0
  6
Continuous
 62
     7
370
    25
100
AcDbSpline
210
0.0
220
0.0
230
1.0
 70
     8
 71
     3
 72
    20
 73
    16
 74
     0
 42
0.000000001
 43
0.00000001
 40
0.0
 40
0.0
 40
0.0
 40
0.0
 40
0.1250000000000019
 40
0.1250000000000019
 40
0.2500000000000039
 40
0.2500000000000039
 40
0.5000000000000078
 40
0.5000000000000078
 40
0.7500000000000117
 40
0.7500000000000117
 40
0.8750000000000097
 40
0.8750000000000097
 40
0.9375000000000049
 40
0.9375000000000049
 40
1.0
 40
1.0
 40
1.0
 40
1.0
 10
-1.434091051039394
 20
-0.2289662873159899
 30
0.0
 10
-1.438215682281067
 20
-0.2296593658046308
 30
0.0
 10
-1.442247025195799
 20
-0.2308228635972153
 30
0.0
 10
-1.450263431330347
 20
-0.2332108728743256
 30
0.0
 10
-1.454233733338145
 20
-0.2345331125410571
 30
0.0
 10
-1.466043575226054
 20
-0.2387631061229474
 30
0.0
 10
-1.473782217003426
 20
-0.2419344139293937
 30
0.0
 10
-1.489065661655087
 20
-0.2487801907030772
 30
0.0
 10
-1.496565651017266
 20
-0.2524326444350655
 30
0.0
 10
-1.507698467355064
 20
-0.2582299151906839
 30
0.0
 10
-1.511393998745811
 20
-0.2602185312404247
 30
0.0
 10
-1.51683524760568
 20
-0.2632296199704736
 30
0.0
 10
-1.518709761421445
 20
-0.264286259828715
 30
0.0
 10
-1.522414994481665
 20
-0.2664018780883641
 30
0.0
 10
-1.524168411983694
 20
-0.2674129166405109
 30
0.0
 10
-1.525902377743667
 20
-0.2684261785257162
 30
0.0
  0
SPLINE
  5
12B
330
1F
100
AcDbEntity
  8
0
  6
Continuous
 62
     7
370
    25
100
AcDbSpline
210
0.0
220
0.0
230
1.0
 70
     8
 71
     3
 72
    20
 73
    16
 74
     0
 42
0.000000001
 43
0.00000001
 40
0.0
 40
0.0
 40
0.0
 40
0.0
 40
0.0624999999999999
 40
0.0624999999999999
 40
0.1249999999999998
 40
0.1249999999999998
 40
0.2499999999999998
 40
0.2499999999999998
 40
0.4999999999999998
 40
0.4999999999999998
 40
0.7499999999999999
 40
0.7499999999999999
 40
0.8749999999999999
 40
0.8749999999999999
 40
1.0
 40
1.0
 40
1.0
 40
1.0
 10
-1.543331673082794
 20
-0.1363440371493485
 30
0.0
 10
-1.541393114936982
 20
-0.1368745777977754
 30
0.0
 10
-1.539439321201992
 20
-0.137397028368353
 30
0.0
 10
-1.535312372117648
 20
-0.13848197758986
 30
0.0
 10
-1.533226110533239
 20
-0.1390182319530048
 30
0.0
 10
-1.527186729506552
 20
-0.1405200606757903
 30
0.0
 10
-1.523102511658654
 20
-0.1414846253735004
 30
0.0
 10
-1.510841944241671
 20
-0.1442054872156021
 30
0.0
 10
-1.502649552602529
 20
-0.145793321080009
 30
0.0
 10
-1.486107656182995
 20
-0.1484523967927161
 30
0.0
 10
-1.477808261292345
 20
-0.1495136358452839
 30
0.0
 10
-1.465300441178169
 20
-0.1505438708498618
 30
0.0
 10
-1.461121334579158
 20
-0.1507937315129303
 30
0.0
 10
-1.452756260327441
 20
-0.1510259251913841
 30
0.0
 10
-1.448559254468697
 20
-0.1511065490223928
 30
0.0
 10
-1.444393910639741
 20
-0.1507082991338174
 30
0.0
  0
SPLINE
  5
12F
330
1F
100
AcDbEntity
  8
0
  6
Continuous
 62
     7
370
    25
100
AcDbSpline
210
0.0
220
0.0
230
1.0
 70
     8
 71
     3
 72
    20
 73
    16
 74
     0
 42
0.000000001
 43
0.00000001
 40
0.0
 40
0.0
 40
0.0
 40
0.0
 40
0.1250000000000011
 40
0.1250000000000011
 40
0.2500000000000022
 40
0.2500000000000022
 40
0.4999999999999964
 40
0.4999999999999964
 40
0.7499999999999906
 40
0.7499999999999906
 40
0.8749999999999915
 40
0.8749999999999915
 40
0.9374999999999958
 40
0.9374999999999958
 40
1.0
 40
1.0
 40
1.0
 40
1.0
 10
-1.451685074361603
 20
-0.0394666366386394
 30
0.0
 10
-1.455866942839014
 20
-0.0396154866274565
 30
0.0
 10
-1.46001769443347
 20
-0.0402432781800137
 30
0.0
 10
-1.468281244541791
 20
-0.0415654260418634
 30
0.0
 10
-1.472392156644886
 20
-0.0423586798370855
 30
0.0
 10
-1.484659008888646
 20
-0.0450128604792729
 30
0.0
 10
-1.492749212183439
 20
-0.0471484380418039
 30
0.0
 10
-1.508803177469382
 20
-0.0519442139584285
 30
0.0
 10
-1.516718462797392
 20
-0.054587909136737
 30
0.0
 10
-1.528519587434936
 20
-0.0588861362435992
 30
0.0
 10
-1.532442952619779
 20
-0.0603755622047161
 30
0.0
 10
-1.538235013337131
 20
-0.0626530459961778
 30
0.0
 10
-1.54023362185944
 20
-0.0634571234836955
 30
0.0
 10
-1.544183680920665
 20
-0.0650715076072556
 30
0.0
 10
-1.546052424896045
 20
-0.0658444608074718
 30
0.0
 10
-1.547905277271086
 20
-0.0666235688524933
 30
0.0
  0
SPLINE
  5
135
330
1F
100
AcDbEntity
  8
0
  6
Continuous
 62
     7
370
    25
100
AcDbSpline
210
0.0
220
0.0
230
1.0
 70
     8
 71
     3
 72
    20
 73
    16
 74
     0
 42
0.000000001
 43
0.00000001
 40
0.0
 40
0.0
 40
0.0
 40
0.0
 40
0.0625000000000015
 40
0.0625000000000015
 40
0.1250000000000029
 40
0.1250000000000029
 40
0.2500000000000058
 40
0.2500000000000058
 40
0.5000000000000038
 40
0.5000000000000038
 40
0.7500000000000019
 40
0.7500000000000019
 40
0.8750000000000009
 40
0.8750000000000009
 40
1.0
 40
1.0
 40
1.0
 40
1.0
 10
-1.547905277271083
 20
0.0666235688524917
 30
0.0
 10
-1.546052424896043
 20
0.0658444608074702
 30
0.0
 10
-1.544183680920661
 20
0.065071507607254
 30
0.0
 10
-1.540233621859437
 20
0.0634571234836939
 30
0.0
 10
-1.538235013337127
 20
0.0626530459961767
 30
0.0
 10
-1.532442952619776
 20
0.060375562204715
 30
0.0
 10
-1.528519587434933
 20
0.0588861362435981
 30
0.0
 10
-1.516718462797389
 20
0.0545879091367364
 30
0.0
 10
-1.508803177469381
 20
0.0519442139584279
 30
0.0
 10
-1.492749212183438
 20
0.0471484380418033
 30
0.0
 10
-1.484659008888641
 20
0.0450128604792724
 30
0.0
 10
-1.472392156644887
 20
0.0423586798370849
 30
0.0
 10
-1.468281244541789
 20
0.0415654260418634
 30
0.0
 10
-1.46001769443347
 20
0.0402432781800137
 30
0.0
 10
-1.455866942839013
 20
0.0396154866274565
 30
0.0
 10
-1.451685074361603
 20
0.0394666366386394
 30
0.0
  0
SPLINE
  5
139
330
1F
100
AcDbEntity
  8
0
  6
Continuous
 62
     7
370
    25
100
AcDbSpline
210
0.0
220
0.0
230
1.0
 70
     8
 71
     3
 72
    20
 73
    16
 74
     0
 42
0.000000001
 43
0.00000001
 40
0.0
 40
0.0
 40
0.0
 40
0.0
 40
0.1250000000000011
 40
0.1250000000000011
 40
0.2500000000000022
 40
0.2500000000000022
 40
0.4999999999999962
 40
0.4999999999999962
 40
0.7499999999999901
 40
0.7499999999999901
 40
0.8749999999999911
 40
0.8749999999999911
 40
0.9374999999999956
 40
0.9374999999999956
 40
1.0
 40
1.0
 40
1.0
 40
1.0
 10
-1.444393910545354
 20
0.1507082991276505
 30
0.0
 10
-1.448559254378845
 20
0.15110654901666
 30
0.0
 10
-1.452756260242171
 20
0.1510259251852645
 30
0.0
 10
-1.461121334502983
 20
0.1507937315059578
 30
0.0
 10
-1.465300441106518
 20
0.1505438708422479
 30
0.0
 10
-1.477808261234213
 20
0.1495136358352809
 30
0.0
 10
-1.486107656133692
 20
0.148452396780537
 30
0.0
 10
-1.502649552571146
 20
0.1457933210624814
 30
0.0
 10
-1.510841944216665
 20
0.1442054871957148
 30
0.0
 10
-1.523102511649745
 20
0.1414846253475279
 30
0.0
 10
-1.527186729497428
 20
0.1405200606493791
 30
0.0
 10
-1.533226110534338
 20
0.1390182319226159
 30
0.0
 10
-1.53531237212392
 20
0.1384819775575906
 30
0.0
 10
-1.539439321209192
 20
0.1373970283351223
 30
0.0
 10
-1.541393114940428
 20
0.1368745777653169
 30
0.0
 10
-1.543331673089742
 20
0.1363440371154498
 30
0.0
  0
SPLINE
  5
13F
330
1F
100
AcDbEntity
  8
0
  6
Continuous
 62
     7
370
    25
100
AcDbSpline
210
0.0
220
0.0
230
1.0
 70
     8
 71
     3
 72
    20
 73
    16
 74
     0
 42
0.000000001
 43
0.00000001
 40
0.0
 40
0.0
 40
0.0
 40
0.0
 40
0.0625000000000017
 40
0.0625000000000017
 40
0.1250000000000034
 40
0.1250000000000034
 40
0.2500000000000063
 40
0.2500000000000063
 40
0.5000000000000043
 40
0.5000000000000043
 40
0.7500000000000023
 40
0.7500000000000023
 40
0.8750000000000011
 40
0.8750000000000011
 40
1.0
 40
1.0
 40
1.0
 40
1.0
 10
-1.525902377739283
 20
0.2684261785721458
 30
0.0
 10
-1.524168411976418
 20
0.2674129166847193
 30
0.0
 10
-1.5224149944778
 20
0.2664018781342841
 30
0.0
 10
-1.518709761416841
 20
0.2642862598734156
 30
0.0
 10
-1.516835247596577
 20
0.2632296200120291
 30
0.0
 10
-1.511393998727985
 20
0.2602185312755756
 30
0.0
 10
-1.50769846733753
 20
0.2582299152254535
 30
0.0
 10
-1.49656565098587
 20
0.2524326444598723
 30
0.0
 10
-1.489065661618186
 20
0.2487801907239857
 30
0.0
 10
-1.473782216950717
 20
0.2419344139405708
 30
0.0
 10
-1.46604357516545
 20
0.238763106129771
 30
0.0
 10
-1.454233733265178
 20
0.2345331125421181
 30
0.0
 10
-1.450263431253209
 20
0.2332108728736099
 30
0.0
 10
-1.442247025110167
 20
0.2308228635933451
 30
0.0
 10
-1.438215682191139
 20
0.2296593657992127
 30
0.0
 10
-1.434091050945006
 20
0.228966287309823
 30
0.0
  0
SPLINE
  5
143
330
1F
100
AcDbEntity
  8
0
  6
Continuous
 62
     7
370
    25
100
AcDbSpline
210
0.0
220
0.0
230
1.0
 70
     8
 71
     3
 72
    20
 73
    16
 74
     0
 42
0.000000001
 43
0.00000001
 40
0.0
 40
0.0
 40
0.0
 40
0.0
 40
0.1249999999999969
 40
0.1249999999999969
 40
0.2499999999999938
 40
0.2499999999999938
 40
0.4999999999999959
 40
0.4999999999999959
 40
0.7499999999999979
 40
0.7499999999999979
 40
0.8749999999999949
 40
0.8749999999999949
 40
0.9374999999999974
 40
0.9374999999999974
 40
1.0
 40
1.0
 40
1.0
 40
1.0
 10
-1.412342313425031
 20
0.3383045741054451
 30
0.0
 10
-1.416417688047289
 20
0.3392425620277376
 30
0.0
 10
-1.420586879621421
 20
0.3397103333265303
 30
0.0
 10
-1.428905860941819
 20
0.3405718064112376
 30
0.0
 10
-1.433079408683053
 20
0.3408695903417397
 30
0.0
 10
-1.445607430177194
 20
0.3414810869439647
 30
0.0
 10
-1.453969557423713
 20
0.3415127475962074
 30
0.0
 10
-1.470707232337463
 20
0.3410371407833204
 30
0.0
 10
-1.47903328042072
 20
0.3405330106642145
 30
0.0
 10
-1.491535230401294
 20
0.3394378329554484
 30
0.0
 10
-1.495710480727872
 20
0.3390148645065267
 30
0.0
 10
-1.501888600083638
 20
0.3383155594938126
 30
0.0
 10
-1.504024154164945
 20
0.3380568360688225
 30
0.0
 10
-1.508256818316817
 20
0.3375202902356114
 30
0.0
 10
-1.510264119578416
 20
0.3372571838365318
 30
0.0
 10
-1.51225344190506
 20
0.3369847225479065
 30
0.0
  0
SPLINE
  5
147
330
1F
100
AcDbEntity
  8
0
  6
Continuous
 62
     7
370
    25
100
AcDbSpline
210
0.0
220
0.0
230
1.0
 70
     8
 71
     3
 72
    20
 73
    16
 74
     0
 42
0.000000001
 43
0.00000001
 40
0.0
 40
0.0
 40
0.0
 40
0.0
 40
0.0625000000000003
 40
0.0625000000000003
 40
0.1250000000000006
 40
0.1250000000000006
 40
0.2500000000000001
 40
0.2500000000000001
 40
0.5
 40
0.5
 40
0.75
 40
0.75
 40
0.875
 40
0.875
 40
1.0
 40
1.0
 40
1.0
 40
1.0
 10
-1.477710581615448
 20
0.465594157888421
 30
0.0
 10
-1.476126046755011
 20
0.4643655938116479
 30
0.0
 10
-1.474516611599256
 20
0.4631323118115431
 30
0.0
 10
-1.471119857490498
 20
0.4605524702724348
 30
0.0
 10
-1.469403134839492
 20
0.4592637049664992
 30
0.0
 10
-1.46440877190135
 20
0.455575162258361
 30
0.0
 10
-1.461004130408522
 20
0.4531215380224522
 30
0.0
 10
-1.450734969995422
 20
0.4459317443674699
 30
0.0
 10
-1.443780548601612
 20
0.4413359107653331
 30
0.0
 10
-1.429534990835562
 20
0.4325648510478789
 30
0.0
 10
-1.422283340336312
 20
0.4284156160544073
 30
0.0
 10
-1.41113748851036
 20
0.4226872202159848
 30
0.0
 10
-1.407377419644851
 20
0.4208602374642758
 30
0.0
 10
-1.399748849751524
 20
0.4174503002632662
 30
0.0
 10
-1.395907682793659
 20
0.4157725337484937
 30
0.0
 10
-1.39191287900859
 20
0.4145482613175011
 30
0.0
  0
SPLINE
  5
14B
330
1F
100
AcDbEntity
  8
0
  6
Continuous
 62
     7
370
    25
100
AcDbSpline
210
0.0
220
0.0
230
1.0
 70
     8
 71
     3
 72
    20
 73
    16
 74
     0
 42
0.000000001
 43
0.00000001
 40
0.0
 40
0.0
 40
0.0
 40
0.0
 40
0.1250000000000031
 40
0.1250000000000031
 40
0.2500000000000062
 40
0.2500000000000062
 40
0.5000000000000042
 40
0.5000000000000042
 40
0.7500000000000022
 40
0.7500000000000022
 40
0.8750000000000053
 40
0.8750000000000053
 40
0.9375000000000027
 40
0.9375000000000027
 40
1.0
 40
1.0
 40
1.0
 40
1.0
 10
-1.356078694713748
 20
0.5201123640183615
 30
0.0
 10
-1.359992454221069
 20
0.5215726594317099
 30
0.0
 10
-1.364060346183417
 20
0.522579795683042
 30
0.0
 10
-1.372186603180142
 20
0.5245181950943183
 30
0.0
 10
-1.376280990607739
 20
0.5253576309896557
 30
0.0
 10
-1.388608185097818
 20
0.5275979239243398
 30
0.0
 10
-1.396885453289324
 20
0.5287206040184849
 30
0.0
 10
-1.413523098527311
 20
0.530434301126848
 30
0.0
 10
-1.421836877215301
 20
0.5310218850631533
 30
0.0
 10
-1.434357533409704
 20
0.5315696350110031
 30
0.0
 10
-1.438552284432331
 20
0.5316957510868648
 30
0.0
 10
-1.444757969787581
 20
0.5318100369463004
 30
0.0
 10
-1.446903417457893
 20
0.5318327575189519
 30
0.0
 10
-1.451168453468235
 20
0.5318539789017618
 30
0.0
 10
-1.453196821855963
 20
0.5318553555759403
 30
0.0
 10
-1.455201172241606
 20
0.5318453645875406
 30
0.0
  0
SPLINE
  5
151
330
1F
100
AcDbEntity
  8
0
  6
Continuous
 62
     7
370
    25
100
AcDbSpline
210
0.0
220
0.0
230
1.0
 70
     8
 71
     3
 72
    20
 73
    16
 74
     0
 42
0.000000001
 43
0.00000001
 40
0.0
 40
0.0
 40
0.0
 40
0.0
 40
0.0624999999999963
 40
0.0624999999999963
 40
0.1249999999999925
 40
0.1249999999999925
 40
0.249999999999991
 40
0.249999999999991
 40
0.499999999999994
 40
0.499999999999994
 40
0.749999999999997
 40
0.749999999999997
 40
0.8749999999999984
 40
0.8749999999999984
 40
1.0
 40
1.0
 40
1.0
 40
1.0
 10
-1.404169557996127
 20
0.654740679798705
 30
0.0
 10
-1.40276166293027
 20
0.6533194518704306
 30
0.0
 10
-1.40132290957276
 20
0.651883026704965
 30
0.0
 10
-1.398292967209797
 20
0.6488843010688866
 30
0.0
 10
-1.396764218520659
 20
0.6473885061522834
 30
0.0
 10
-1.39230333549278
 20
0.6430912673688407
 30
0.0
 10
-1.389247683564927
 20
0.6402147966952425
 30
0.0
 10
-1.380020063129706
 20
0.6317647240552557
 30
0.0
 10
-1.373731102063217
 20
0.6263078003835016
 30
0.0
 10
-1.360770310075701
 20
0.6157714320429528
 30
0.0
 10
-1.354131472142577
 20
0.6107199847326632
 30
0.0
 10
-1.343843427807186
 20
0.6035981462240545
 30
0.0
 10
-1.340359041353391
 20
0.6012999564788369
 30
0.0
 10
-1.333251273134961
 20
0.5969308765771805
 30
0.0
 10
-1.329667253100933
 20
0.5947697705763364
 30
0.0
 10
-1.325872238768187
 20
0.5930371996333589
 30
0.0
  0
SPLINE
  5
155
330
1F
100
AcDbEntity
  8
0
  6
Continuous
 62
     7
370
    25
100
AcDbSpline
210
0.0
220
0.0
230
1.0
 70
     8
 71
     3
 72
    20
 73
    16
 74
     0
 42
0.000000001
 43
0.00000001
 40
0.0
 40
0.0
 40
0.0
 40
0.0
 40
0.125000000000001
 40
0.125000000000001
 40
0.250000000000002
 40
0.250000000000002
 40
0.500000000000004
 40
0.500000000000004
 40
0.750000000000006
 40
0.750000000000006
 40
0.875000000000003
 40
0.875000000000003
 40
0.9375000000000014
 40
0.9375000000000014
 40
1.0
 40
1.0
 40
1.0
 40
1.0
 10
-1.276565740526874
 20
0.6930208871743463
 30
0.0
 10
-1.280249471622471
 20
0.6949763850589995
 30
0.0
 10
-1.284144643320121
 20
0.6965038105730244
 30
0.0
 10
-1.29193548571329
 20
0.6994823395036128
 30
0.0
 10
-1.295878747940369
 20
0.7008473373406116
 30
0.0
 10
-1.307788290508924
 20
0.7046731023109873
 30
0.0
 10
-1.315834959556868
 20
0.7068645564527034
 30
0.0
 10
-1.332079109934853
 20
0.7107323971482866
 30
0.0
 10
-1.340235054219346
 20
0.7123997302796677
 30
0.0
 10
-1.352551827633041
 20
0.7145762724584396
 30
0.0
 10
-1.356693989251579
 20
0.7152495215434223
 30
0.0
 10
-1.362816051776376
 20
0.7161725332044749
 30
0.0
 10
-1.364931892493288
 20
0.7164747205046242
 30
0.0
 10
-1.369154909214279
 20
0.7170531453310794
 30
0.0
 10
-1.371171374210116
 20
0.7173203378870568
 30
0.0
 10
-1.373155176633174
 20
0.717572124197782
 30
0.0
  0
SPLINE
  5
15B
330
1F
100
AcDbEntity
  8
0
  6
Continuous
 62
     7
370
    25
100
AcDbSpline
210
0.0
220
0.0
230
1.0
 70
     8
 71
     3
 72
    20
 73
    16
 74
     0
 42
0.000000001
 43
0.00000001
 40
0.0
 40
0.0
 40
0.0
 40
0.0
 40
0.0625000000000037
 40
0.0625000000000037
 40
0.1250000000000074
 40
0.1250000000000074
 40
0.2500000000000063
 40
0.2500000000000063
 40
0.5000000000000042
 40
0.5000000000000042
 40
0.7500000000000021
 40
0.7500000000000021
 40
0.875000000000001
 40
0.875000000000001
 40
1.0
 40
1.0
 40
1.0
 40
1.0
 10
-1.306555607121826
 20
0.8326205795867883
 30
0.0
 10
-1.305347755786683
 20
0.8310323610761176
 30
0.0
 10
-1.304104110243242
 20
0.829414985495842
 30
0.0
 10
-1.301492942231423
 20
0.826050476572646
 30
0.0
 10
-1.300178146936364
 20
0.8243767363940979
 30
0.0
 10
-1.296326142017826
 20
0.8195503267144787
 30
0.0
 10
-1.293671651105262
 20
0.816300526800587
 30
0.0
 10
-1.285642535011465
 20
0.8067450736192452
 30
0.0
 10
-1.28012633852584
 20
0.8005245608505669
 30
0.0
 10
-1.268671971435361
 20
0.7884145866435118
 30
0.0
 10
-1.262759742745023
 20
0.7825528806971362
 30
0.0
 10
-1.253506408505523
 20
0.7741677729259041
 30
0.0
 10
-1.250357708581213
 20
0.7714404582502582
 30
0.0
 10
-1.243893386467125
 20
0.7661924651042875
 30
0.0
 10
-1.2406283800157
 20
0.7635877452276432
 30
0.0
 10
-1.237099103888234
 20
0.7613791070363287
 30
0.0
  0
SPLINE
  5
15F
330
1F
100
AcDbEntity
  8
0
  6
Continuous
 62
     7
370
    25
100
AcDbSpline
210
0.0
220
0.0
230
1.0
 70
     8
 71
     3
 72
    18
 73
    14
 74
     0
 42
0.000000001
 43
0.00000001
 40
0.0
 40
0.0
 40
0.0
 40
0.0
 40
0.1250000000000012
 40
0.1250000000000012
 40
0.2500000000000024
 40
0.2500000000000024
 40
0.5000000000000069
 40
0.5000000000000069
 40
0.7500000000000074
 40
0.7500000000000074
 40
0.8750000000000038
 40
0.8750000000000038
 40
1.0
 40
1.0
 40
1.0
 40
1.0
 10
-1.175163939555703
 20
0.8540716308029023
 30
0.0
 10
-1.178553809466823
 20
0.8564861634495545
 30
0.0
 10
-1.182208330042539
 20
0.8585051983434192
 30
0.0
 10
-1.189527856006084
 20
0.8624678578555142
 30
0.0
 10
-1.193251104000864
 20
0.8643326076290339
 30
0.0
 10
-1.204534719381227
 20
0.869671160584541
 30
0.0
 10
-1.212209828032161
 20
0.8728893230977777
 30
0.0
 10
-1.227775287603721
 20
0.8788360356356791
 30
0.0
 10
-1.235631007465985
 20
0.8815514630699827
 30
0.0
 10
-1.247526084346708
 20
0.8853117641869621
 30
0.0
 10
-1.251544176168748
 20
0.8865206752155023
 30
0.0
 10
-1.259450540306862
 20
0.8888024168246457
 30
0.0
 10
-1.263671060109625
 20
0.8899531192124109
 30
0.0
 10
-1.26752843232978
 20
0.8909692131637486
 30
0.0
  0
SPLINE
  5
165
330
1F
100
AcDbEntity
  8
0
  6
Continuous
 62
     7
370
    25
100
AcDbSpline
210
0.0
220
0.0
230
1.0
 70
     8
 71
     3
 72
    18
 73
    14
 74
     0
 42
0.000000001
 43
0.00000001
 40
0.0
 40
0.0
 40
0.0
 40
0.0
 40
0.1250000000000025
 40
0.1250000000000025
 40
0.2500000000000049
 40
0.2500000000000049
 40
0.5000000000000042
 40
0.5000000000000042
 40
0.7500000000000034
 40
0.7500000000000034
 40
0.8750000000000018
 40
0.8750000000000018
 40
1.0
 40
1.0
 40
1.0
 40
1.0
 10
-1.18655856183306
 20
0.9961864704256359
 30
0.0
 10
-1.184581678363573
 20
0.9927319628268068
 30
0.0
 10
-1.182375986291797
 20
0.9889522493944801
 30
0.0
 10
-1.178135687927794
 20
0.9819290728267562
 30
0.0
 10
-1.175927685036425
 20
0.9783621049874365
 30
0.0
 10
-1.169230250690253
 20
0.9678752668477942
 30
0.0
 10
-1.164579624964348
 20
0.9610018963763124
 30
0.0
 10
-1.154824041058541
 20
0.9475375633976681
 30
0.0
 10
-1.149738090897145
 20
0.9409717820363886
 30
0.0
 10
-1.141676145670813
 20
0.9314759257902201
 30
0.0
 10
-1.138916562695399
 20
0.9283691854461094
 30
0.0
 10
-1.133205688949444
 20
0.922338171766674
 30
0.0
 10
-1.130315285922657
 20
0.9193374759536009
 30
0.0
 10
-1.127112407319091
 20
0.9166936068175521
 30
0.0
  0
SPLINE
  5
169
330
1F
100
AcDbEntity
  8
0
  6
Continuous
 62
     7
370
    25
100
AcDbSpline
210
0.0
220
0.0
230
1.0
 70
     8
 71
     3
 72
    18
 73
    14
 74
     0
 42
0.000000001
 43
0.00000001
 40
0.0
 40
0.0
 40
0.0
 40
0.0
 40
0.1249999999999984
 40
0.1249999999999984
 40
0.2499999999999969
 40
0.2499999999999969
 40
0.4999999999999973
 40
0.4999999999999973
 40
0.7499999999999978
 40
0.7499999999999978
 40
0.8749999999999989
 40
0.8749999999999989
 40
1.0
 40
1.0
 40
1.0
 40
1.0
 10
-1.053608304728742
 20
1.000508972028842
 30
0.0
 10
-1.056646286965645
 20
1.003338118884036
 30
0.0
 10
-1.059997045090479
 20
1.005811135528557
 30
0.0
 10
-1.066718802492567
 20
1.010684009003173
 30
0.0
 10
-1.070157577490968
 20
1.013013576835302
 30
0.0
 10
-1.080619646918705
 20
1.019764566887065
 30
0.0
 10
-1.087789802768018
 20
1.023948546866345
 30
0.0
 10
-1.102405334280717
 20
1.031860550850813
 30
0.0
 10
-1.109824335411017
 20
1.035573424822859
 30
0.0
 10
-1.121089201315823
 20
1.040842807103711
 30
0.0
 10
-1.124913534400545
 20
1.042566417778751
 30
0.0
 10
-1.132425170297863
 20
1.045852345740635
 30
0.0
 10
-1.136460396852246
 20
1.047546070574053
 30
0.0
 10
-1.140141760588973
 20
1.049054831470884
 30
0.0
  0
CIRCLE
  5
16F
330
1F
100
AcDbEntity
  8
0
  6
Continuous
 62
     7
370
    25
100
AcDbCircle
 10
-0.5953924651
 20
0.34375
 30
0.0
 40
0.0720000000000084
  0
CIRCLE
  5
170
330
1F
100
AcDbEntity
  8
0
  6
Continuous
 62
     7
370
    25
100
AcDbCircle
 10
-0.5953924651
 20
-0.34375
 30
0.0
 40
0.0720000000000372
  0
CIRCLE
  5
171
330
1F
100
AcDbEntity
  8
0
  6
Continuous
 62
     7
370
    25
100
AcDbCircle
 10
0.0
 20
-0.6875
 30
0.0
 40
0.0720000000000605
  0
CIRCLE
  5
172
330
1F
100
AcDbEntity
  8
0
  6
Continuous
 62
     7
370
    25
100
AcDbCircle
 10
0.5953924651
 20
-0.34375
 30
0.0
 40
0.0720000000000552
  0
CIRCLE
  5
173
330
1F
100
AcDbEntity
  8
0
  6
Continuous
 62
     7
370
    25
100
AcDbCircle
 10
0.5953924651
 20
0.34375
 30
0.0
 40
0.0720000000000295
  0
CIRCLE
  5
174
330
1F
100
AcDbEntity
  8
0
  6
Continuous
 62
     7
370
    25
100
AcDbCircle
 10
0.0
 20
0.6875
 30
0.0
 40
0.0720000000000003
  0
SPLINE
  5
177
330
1F
100
AcDbEntity
  8
0
  6
Continuous
 62
     7
370
    25
100
AcDbSpline
210
0.0
220
0.0
230
1.0
 70
     8
 71
     3
 72
    20
 73
    16
 74
     0
 42
0.000000001
 43
0.00000001
 40
0.0
 40
0.0
 40
0.0
 40
0.0
 40
0.0625000000000025
 40
0.0625000000000025
 40
0.1250000000000051
 40
0.1250000000000051
 40
0.2500000000000094
 40
0.2500000000000094
 40
0.500000000000009
 40
0.500000000000009
 40
0.7500000000000084
 40
0.7500000000000084
 40
0.8750000000000042
 40
0.8750000000000042
 40
1.0
 40
1.0
 40
1.0
 40
1.0
 10
0.7197682984365573
 20
-1.371897379701023
 30
0.0
 10
0.7195038916172581
 20
-1.369920292698723
 30
0.0
 10
0.7192188727983352
 20
-1.367850858287283
 30
0.0
 10
0.7186397374140726
 20
-1.363856899965395
 30
0.0
 10
0.7183453236791193
 20
-1.361929392900638
 30
0.0
 10
0.7174173423236192
 20
-1.356064578581452
 30
0.0
 10
0.7167387682815809
 20
-1.352041768068438
 30
0.0
 10
0.7145791866766722
 20
-1.340309708072523
 30
0.0
 10
0.712926258672066
 20
-1.332437552162327
 30
0.0
 10
0.7091342270237634
 20
-1.316897538550813
 30
0.0
 10
0.7069954834494957
 20
-1.309187133582037
 30
0.0
 10
0.7032830994144726
 20
-1.29778140592835
 30
0.0
 10
0.7019615056118608
 20
-1.29400509319293
 30
0.0
 10
0.699085239809838
 20
-1.286542990411848
 30
0.0
 10
0.697610784378996
 20
-1.282812709509927
 30
0.0
 10
0.6957358068556023
 20
-1.279280661195946
 30
0.0
  0
LINE
  5
17A
330
1F
100
AcDbEntity
  8
0
  6
Continuous
 62
     7
370
    25
100
AcDbLine
 10
0.8076923077
 20
0.2307692308
 30
0.0
 11
0.8339092548
 21
0.2307692308
 31
0.0
  0
LINE
  5
17B
330
1F
100
AcDbEntity
  8
0
  6
Continuous
 62
     7
370
    25
100
AcDbLine
 10
0.8076923077
 20
0.3076923077
 30
0.0
 11
0.8076923077
 21
0.2307692308
 31
0.0
  0
LINE
  5
17C
330
1F
100
AcDbEntity
  8
0
  6
Continuous
 62
     7
370
    25
100
AcDbLine
 10
0.8306039663
 20
0.3076923077
 30
0.0
 11
0.8076923077
 21
0.3076923077
 31
0.0
  0
LINE
  5
17D
330
1F
100
AcDbEntity
  8
0
  6
Continuous
 62
     7
370
    25
100
AcDbLine
 10
0.8076923077
 20
0.1634615385
 30
0.0
 11
0.8076923077
 21
0.0
 31
0.0
  0
LINE
  5
17E
330
1F
100
AcDbEntity
  8
0
  6
Continuous
 62
     7
370
    25
100
AcDbLine
 10
0.8305288462
 20
0.1634615385
 30
0.0
 11
0.8076923077
 21
0.1634615385
 31
0.0
  0
LINE
  5
17F
330
1F
100
AcDbEntity
  8
0
  6
Continuous
 62
     7
370
    25
100
AcDbLine
 10
0.9131610577
 20
0.0
 30
0.0
 11
0.8305288462
 21
0.1634615385
 31
0.0
  0
LINE
  5
180
330
1F
100
AcDbEntity
  8
0
  6
Continuous
 62
     7
370
    25
100
AcDbLine
 10
0.9879807692
 20
0.0
 30
0.0
 11
0.9131610577
 21
0.0
 31
0.0
  0
LINE
  5
181
330
1F
100
AcDbEntity
  8
0
  6
Continuous
 62
     7
370
    25
100
AcDbLine
 10
0.9014423077
 20
0.1711237981
 30
0.0
 11
0.9879807692
 21
0.0
 31
0.0
  0
LINE
  5
182
330
1F
100
AcDbEntity
  8
0
  6
Continuous
 62
     7
370
    25
100
AcDbLine
 10
0.7403846154
 20
0.375
 30
0.0
 11
0.8188100962
 21
0.375
 31
0.0
  0
LINE
  5
183
330
1F
100
AcDbEntity
  8
0
  6
Continuous
 62
     7
370
    25
100
AcDbLine
 10
0.7403846154
 20
0.0
 30
0.0
 11
0.7403846154
 21
0.375
 31
0.0
  0
LINE
  5
184
330
1F
100
AcDbEntity
  8
0
  6
Continuous
 62
     7
370
    25
100
AcDbLine
 10
0.8076923077
 20
0.0
 30
0.0
 11
0.7403846154
 21
0.0
 31
0.0
  0
LINE
  5
185
330
1F
100
AcDbEntity
  8
0
  6
Continuous
 62
     7
370
    25
100
AcDbLine
 10
1.0966617559
 20
-1.7933791514
 30
0.0
 11
1.4268320341
 21
-0.6368332565
 31
0.0
  0
LINE
  5
186
330
1F
100
AcDbEntity
  8
0
  6
Continuous
 62
     7
370
    25
100
AcDbLine
 10
0.8552274808
 20
-1.307666703
 30
0.0
 11
1.0006792862
 21
-1.7939809307
 31
0.0
  0
LINE
  5
187
330
1F
100
AcDbEntity
  8
0
  6
Continuous
 62
     7
370
    25
100
AcDbLine
 10
0.6957358069
 20
-1.2792806612
 30
0.0
 11
0.6905245059
 21
-1.2696597047
 31
0.0
  0
LINE
  5
188
330
1F
100
AcDbEntity
  8
0
  6
Continuous
 62
     7
370
    25
100
AcDbLine
 10
0.5912917403
 20
-1.3185958891
 30
0.0
 11
0.5957521193
 21
-1.3285871594
 31
0.0
  0
LINE
  5
189
330
1F
100
AcDbEntity
  8
0
  6
Continuous
 62
     7
370
    25
100
AcDbLine
 10
0.5228272837
 20
-1.3587936153
 30
0.0
 11
0.518916353
 21
-1.3485747562
 31
0.0
  0
LINE
  5
18A
330
1F
100
AcDbEntity
  8
0
  6
Continuous
 62
     7
370
    25
100
AcDbLine
 10
0.4141450836
 20
-1.3841398097
 30
0.0
 11
0.4172631809
 21
-1.3946277995
 31
0.0
  0
LINE
  5
18B
330
1F
100
AcDbEntity
  8
0
  6
Continuous
 62
     7
370
    25
100
AcDbLine
 10
0.3410194937
 20
-1.4150572339
 30
0.0
 11
0.3384758503
 21
-1.4044153197
 31
0.0
  0
LINE
  5
18C
330
1F
100
AcDbEntity
  8
0
  6
Continuous
 62
     7
370
    25
100
AcDbLine
 10
0.2299587427
 20
-1.4260007144
 30
0.0
 11
0.2316812069
 21
-1.4368059713
 31
0.0
  0
LINE
  5
18D
330
1F
100
AcDbEntity
  8
0
  6
Continuous
 62
     7
370
    25
100
AcDbLine
 10
0.1534232187
 20
-1.4471088309
 30
0.0
 11
0.1522903851
 21
-1.4362259477
 31
0.0
  0
LINE
  5
18E
330
1F
100
AcDbEntity
  8
0
  6
Continuous
 62
     7
370
    25
100
AcDbLine
 10
0.041884197
 20
-1.4434623515
 30
0.0
 11
0.0421815562
 21
-1.4543999947
 31
0.0
  0
LINE
  5
18F
330
1F
100
AcDbEntity
  8
0
  6
Continuous
 62
     7
370
    25
100
AcDbLine
 10
-0.0367517171
 20
-1.4543999947
 30
0.0
 11
-0.0364543578
 21
-1.4434623515
 31
0.0
  0
LINE
  5
190
330
1F
100
AcDbEntity
  8
0
  6
Continuous
 62
     7
370
    25
100
AcDbLine
 10
-0.1468605459
 20
-1.4362259476
 30
0.0
 11
-0.1479933795
 21
-1.4471088309
 31
0.0
  0
LINE
  5
191
330
1F
100
AcDbEntity
  8
0
  6
Continuous
 62
     7
370
    25
100
AcDbLine
 10
-0.2262513677
 20
-1.4368059713
 30
0.0
 11
-0.2245289035
 21
-1.4260007143
 31
0.0
  0
LINE
  5
192
330
1F
100
AcDbEntity
  8
0
  6
Continuous
 62
     7
370
    25
100
AcDbLine
 10
-0.3330460111
 20
-1.4044153195
 30
0.0
 11
-0.3355896545
 21
-1.4150572337
 31
0.0
  0
LINE
  5
193
330
1F
100
AcDbEntity
  8
0
  6
Continuous
 62
     7
370
    25
100
AcDbLine
 10
-0.4118333417
 20
-1.3946277993
 30
0.0
 11
-0.4087152444
 21
-1.3841398095
 31
0.0
  0
LINE
  5
194
330
1F
100
AcDbEntity
  8
0
  6
Continuous
 62
     7
370
    25
100
AcDbLine
 10
-0.5134865137
 20
-1.3485747559
 30
0.0
 11
-0.5173974444
 21
-1.358793615
 31
0.0
  0
LINE
  5
195
330
1F
100
AcDbEntity
  8
0
  6
Continuous
 62
     7
370
    25
100
AcDbLine
 10
-0.59032228
 20
-1.3285871591
 30
0.0
 11
-0.5858619011
 21
-1.3185958889
 31
0.0
  0
LINE
  5
196
330
1F
100
AcDbEntity
  8
0
  6
Continuous
 62
     7
370
    25
100
AcDbLine
 10
-0.6850946667
 20
-1.2696597044
 30
0.0
 11
-0.6903059676
 21
-1.2792806608
 31
0.0
  0
LINE
  5
197
330
1F
100
AcDbEntity
  8
0
  6
Continuous
 62
     7
370
    25
100
AcDbLine
 10
-0.7586641875
 20
-1.2398140242
 30
0.0
 11
-0.7529378452
 21
-1.230490427
 31
0.0
  0
LINE
  5
198
330
1F
100
AcDbEntity
  8
0
  6
Continuous
 62
     7
370
    25
100
AcDbLine
 10
-0.8449342069
 20
-1.1690204233
 30
0.0
 11
-0.8513567112
 21
-1.1778788599
 31
0.0
  0
LINE
  5
199
330
1F
100
AcDbEntity
  8
0
  6
Continuous
 62
     7
370
    25
100
AcDbLine
 10
-0.9139786872
 20
-1.1298273276
 30
0.0
 11
-0.907084361
 21
-1.1213309327
 31
0.0
  0
LINE
  5
19A
330
1F
100
AcDbEntity
  8
0
  6
Continuous
 62
     7
370
    25
100
AcDbLine
 10
-0.9902702355
 20
-1.0483788786
 30
0.0
 11
-0.9977940524
 21
-1.056323225
 31
0.0
  0
LINE
  5
19B
330
1F
100
AcDbEntity
  8
0
  6
Continuous
 62
     7
370
    25
100
AcDbLine
 10
-1.0536083052
 20
-1.0005089722
 30
0.0
 11
-1.0456639588
 21
-0.9929851553
 31
0.0
  0
LINE
  5
19C
330
1F
100
AcDbEntity
  8
0
  6
Continuous
 62
     7
370
    25
100
AcDbLine
 10
-1.1186160129
 20
-0.9097992807
 30
0.0
 11
-1.1271124078
 21
-0.916693607
 31
0.0
  0
LINE
  5
19D
330
1F
100
AcDbEntity
  8
0
  6
Continuous
 62
     7
370
    25
100
AcDbLine
 10
-1.17516394
 20
-0.854071631
 30
0.0
 11
-1.1663055034
 21
-0.8476491266
 31
0.0
  0
LINE
  5
19E
330
1F
100
AcDbEntity
  8
0
  6
Continuous
 62
     7
370
    25
100
AcDbLine
 10
-1.227775507
 20
-0.7556527649
 30
0.0
 11
-1.2370991042
 21
-0.7613791071
 31
0.0
  0
LINE
  5
19F
330
1F
100
AcDbEntity
  8
0
  6
Continuous
 62
     7
370
    25
100
AcDbLine
 10
-1.2765657409
 20
-0.6930208873
 30
0.0
 11
-1.2669447844
 21
-0.6878095864
 31
0.0
  0
LINE
  5
1A0
330
1F
100
AcDbEntity
  8
0
  6
Continuous
 62
     7
370
    25
100
AcDbLine
 10
-1.3158809688
 20
-0.5885768207
 30
0.0
 11
-1.325872239
 21
-0.5930371997
 31
0.0
  0
LINE
  5
1A1
330
1F
100
AcDbEntity
  8
0
  6
Continuous
 62
     7
370
    25
100
AcDbLine
 10
-1.356078695
 20
-0.5201123641
 30
0.0
 11
-1.3458598359
 21
-0.5162014334
 31
0.0
  0
LINE
  5
1A2
330
1F
100
AcDbEntity
  8
0
  6
Continuous
 62
     7
370
    25
100
AcDbLine
 10
-1.3814248894
 20
-0.411430164
 30
0.0
 11
-1.3919128792
 21
-0.4145482613
 31
0.0
  0
LINE
  5
1A3
330
1F
100
AcDbEntity
  8
0
  6
Continuous
 62
     7
370
    25
100
AcDbLine
 10
-1.4123423136
 20
-0.3383045741
 30
0.0
 11
-1.4017003994
 21
-0.3357609307
 31
0.0
  0
LINE
  5
1A4
330
1F
100
AcDbEntity
  8
0
  6
Continuous
 62
     7
370
    25
100
AcDbLine
 10
-1.4232857941
 20
-0.2272438231
 30
0.0
 11
-1.434091051
 21
-0.2289662873
 31
0.0
  0
LINE
  5
1A5
330
1F
100
AcDbEntity
  8
0
  6
Continuous
 62
     7
370
    25
100
AcDbLine
 10
-1.4443939106
 20
-0.1507082991
 30
0.0
 11
-1.4335110273
 21
-0.1495754655
 31
0.0
  0
LINE
  5
1A6
330
1F
100
AcDbEntity
  8
0
  6
Continuous
 62
     7
370
    25
100
AcDbLine
 10
-1.4407474312
 20
-0.0391692774
 30
0.0
 11
-1.4516850744
 21
-0.0394666366
 31
0.0
  0
LINE
  5
1A7
330
1F
100
AcDbEntity
  8
0
  6
Continuous
 62
     7
370
    25
100
AcDbLine
 10
-1.4516850744
 20
0.0394666366
 30
0.0
 11
-1.4407474312
 21
0.0391692774
 31
0.0
  0
LINE
  5
1A8
330
1F
100
AcDbEntity
  8
0
  6
Continuous
 62
     7
370
    25
100
AcDbLine
 10
-1.4335110273
 20
0.1495754655
 30
0.0
 11
-1.4443939105
 21
0.1507082991
 31
0.0
  0
LINE
  5
1A9
330
1F
100
AcDbEntity
  8
0
  6
Continuous
 62
     7
370
    25
100
AcDbLine
 10
-1.4340910509
 20
0.2289662873
 30
0.0
 11
-1.423285794
 21
0.2272438231
 31
0.0
  0
LINE
  5
1AA
330
1F
100
AcDbEntity
  8
0
  6
Continuous
 62
     7
370
    25
100
AcDbLine
 10
-1.4017003992
 20
0.3357609307
 30
0.0
 11
-1.4123423134
 21
0.3383045741
 31
0.0
  0
LINE
  5
1AB
330
1F
100
AcDbEntity
  8
0
  6
Continuous
 62
     7
370
    25
100
AcDbLine
 10
-1.3458598356
 20
0.5162014333
 30
0.0
 11
-1.3560786947
 21
0.520112364
 31
0.0
  0
LINE
  5
1AC
330
1F
100
AcDbEntity
  8
0
  6
Continuous
 62
     7
370
    25
100
AcDbLine
 10
-1.3258722388
 20
0.5930371996
 30
0.0
 11
-1.3158809686
 21
0.5885768207
 31
0.0
  0
LINE
  5
1AD
330
1F
100
AcDbEntity
  8
0
  6
Continuous
 62
     7
370
    25
100
AcDbLine
 10
-1.2669447841
 20
0.6878095863
 30
0.0
 11
-1.2765657405
 21
0.6930208872
 31
0.0
  0
LINE
  5
1AE
330
1F
100
AcDbEntity
  8
0
  6
Continuous
 62
     7
370
    25
100
AcDbLine
 10
-1.2370991039
 20
0.761379107
 30
0.0
 11
-1.2277755067
 21
0.7556527648
 31
0.0
  0
LINE
  5
1AF
330
1F
100
AcDbEntity
  8
0
  6
Continuous
 62
     7
370
    25
100
AcDbLine
 10
-1.166305503
 20
0.8476491265
 30
0.0
 11
-1.1751639396
 21
0.8540716308
 31
0.0
  0
LINE
  5
1B0
330
1F
100
AcDbEntity
  8
0
  6
Continuous
 62
     7
370
    25
100
AcDbLine
 10
-1.1271124073
 20
0.9166936068
 30
0.0
 11
-1.1186160124
 21
0.9097992806
 31
0.0
  0
LINE
  5
1B1
330
1F
100
AcDbEntity
  8
0
  6
Continuous
 62
     7
370
    25
100
AcDbLine
 10
-1.0456639583
 20
0.9929851551
 30
0.0
 11
-1.0536083047
 21
1.000508972
 31
0.0
  0
LINE
  5
1B2
330
1F
100
AcDbEntity
  8
0
  6
Continuous
 62
     7
370
    25
100
AcDbLine
 10
-1.0106713593
 20
1.0012514908
 30
0.0
 11
-1.0182278026
 21
0.9935450065
 31
0.0
  0
LINE
  5
1B3
330
1F
100
AcDbEntity
  8
0
  6
Continuous
 62
     7
370
    25
100
AcDbLine
 10
-0.1855827896
 20
1.075544809
 30
0.0
 11
-0.8328310883
 21
1.075544809
 31
0.0
  0
LINE
  5
1B4
330
1F
100
AcDbEntity
  8
0
  6
Continuous
 62
     7
370
    25
100
AcDbLine
 10
0.7583676845
 20
-1.2304904273
 30
0.0
 11
0.7640940267
 21
-1.2398140246
 31
0.0
  0
LINE
  5
1B5
330
1F
100
AcDbEntity
  8
0
  6
Continuous
 62
     7
370
    25
100
AcDbLine
 10
-1.391912879
 20
0.4145482613
 30
0.0
 11
-1.3814248892
 21
0.411430164
 31
0.0
  0
ARC
  5
1B6
330
1F
100
AcDbEntity
  8
0
  6
Continuous
 62
     7
370
    25
100
AcDbCircle
 10
-0.1855827896
 20
1.575544809
 30
0.0
 40
0.4999999999999869
100
AcDbArc
 50
270.0
 51
354.8826152813
  0
ARC
  5
1B7
330
1F
100
AcDbEntity
  8
0
  6
Continuous
 62
     7
370
    25
100
AcDbCircle
 10
10.272564706
 20
0.6389814317
 30
0.0
 40
9.99999999999935
100
AcDbArc
 50
152.8143959828
 51
174.8826152813
  0
ARC
  5
1B8
330
1F
100
AcDbEntity
  8
0
  6
Continuous
 62
     7
370
    25
100
AcDbCircle
 10
3.1563151508
 20
4.2939769539
 30
0.0
 40
1.999999999999985
100
AcDbArc
 50
134.542061846
 51
152.8143959828
  0
ARC
  5
1B9
330
1F
100
AcDbEntity
  8
0
  6
Continuous
 62
     7
370
    25
100
AcDbCircle
 10
7.6279485187
 20
-0.2497131789
 30
0.0
 40
8.375000000000036
100
AcDbArc
 50
121.125
 51
134.542061846
  0
ARC
  5
1BA
330
1F
100
AcDbEntity
  8
0
  6
Continuous
 62
     7
370
    25
100
AcDbCircle
 10
3.5573067073
 20
6.4916146015
 30
0.0
 40
0.5000000000000012
100
AcDbArc
 50
278.3344031497
 51
121.125
  0
ARC
  5
1BB
330
1F
100
AcDbEntity
  8
0
  6
Continuous
 62
     7
370
    25
100
AcDbCircle
 10
3.7384946247
 20
5.2548159362
 30
0.0
 40
0.750000000000013
100
AcDbArc
 50
98.3344031497
 51
144.7616371354
  0
ARC
  5
1BC
330
1F
100
AcDbEntity
  8
0
  6
Continuous
 62
     7
370
    25
100
AcDbCircle
 10
10.272564706
 20
0.6389814317
 30
0.0
 40
8.750000000000025
100
AcDbArc
 50
144.7616371354
 51
181.5052438437
  0
ARC
  5
1BD
330
1F
100
AcDbEntity
  8
0
  6
Continuous
 62
     7
370
    25
100
AcDbCircle
 10
2.5252390371
 20
0.4354010281
 30
0.0
 40
1.000000000000518
100
AcDbArc
 50
181.5052438437
 51
189.7827372632
  0
ARC
  5
1BE
330
1F
100
AcDbEntity
  8
0
  6
Continuous
 62
     7
370
    25
100
AcDbCircle
 10
0.0
 20
0.0
 30
0.0
 40
1.562500000000002
100
AcDbArc
 50
335.9475168039
 51
9.7827372632
  0
ARC
  5
1BF
330
1F
100
AcDbEntity
  8
0
  6
Continuous
 62
     7
370
    25
100
AcDbCircle
 10
1.0485825793
 20
-1.7796535265
 30
0.0
 40
0.0499999999999998
100
AcDbArc
 50
196.6514071522
 51
344.0670356828
  0
ARC
  5
1C0
330
1F
100
AcDbEntity
  8
0
  6
Continuous
 62
     7
370
    25
100
AcDbCircle
 10
0.844280569
 20
-1.2909285692
 30
0.0
 40
0.020000000000018
100
AcDbArc
 50
232.3603555582
 51
303.1850990874
  0
ARC
  5
1C1
330
1F
100
AcDbEntity
  8
0
  6
Continuous
 62
     7
370
    25
100
AcDbCircle
 10
0.7417197116
 20
-1.2407152352
 30
0.0
 40
0.0195371875633509
100
AcDbArc
 50
31.5573039085
 51
120.7806817329
  0
ARC
  5
1C2
330
1F
100
AcDbEntity
  8
0
  6
Continuous
 62
     7
370
    25
100
AcDbCircle
 10
0.7077034358
 20
-1.2603545412
 30
0.0
 40
0.0195371875633509
100
AcDbArc
 50
119.2193182671
 51
208.4426960915
  0
ARC
  5
1C3
330
1F
100
AcDbEntity
  8
0
  6
Continuous
 62
     7
370
    25
100
AcDbCircle
 10
0.6999447865
 20
-1.374548488
 30
0.0
 40
0.0199999999999904
100
AcDbArc
 50
296.9860118948
 51
7.617285001
  0
ARC
  5
1C4
330
1F
100
AcDbEntity
  8
0
  6
Continuous
 62
     7
370
    25
100
AcDbCircle
 10
0.0
 20
0.0
 30
0.0
 40
1.562500000000943
100
AcDbArc
 50
295.6955795447
 51
296.9860118948
  0
ARC
  5
1C5
330
1F
100
AcDbEntity
  8
0
  6
Continuous
 62
     7
370
    25
100
AcDbCircle
 10
0.6688119022
 20
-1.3899629094
 30
0.0
 40
0.0199999999999984
100
AcDbArc
 50
224.8875422125
 51
295.6955795448
  0
ARC
  5
1C6
330
1F
100
AcDbEntity
  8
0
  6
Continuous
 62
     7
370
    25
100
AcDbCircle
 10
0.5734515879
 20
-1.3265602259
 30
0.0
 40
0.0195371875633514
100
AcDbArc
 50
24.0573039085
 51
113.2806817329
  0
ARC
  5
1C7
330
1F
100
AcDbEntity
  8
0
  6
Continuous
 62
     7
370
    25
100
AcDbCircle
 10
0.0037538745
 20
-0.0025082595
 30
0.0
 40
1.421874999999501
100
AcDbArc
 50
291.7193182671
 51
293.2806817329
  0
ARC
  5
1C8
330
1F
100
AcDbEntity
  8
0
  6
Continuous
 62
     7
370
    25
100
AcDbCircle
 10
0.5371628822
 20
-1.3415914999
 30
0.0
 40
0.0195371875633503
100
AcDbArc
 50
111.7193182671
 51
200.9426960915
  0
ARC
  5
1C9
330
1F
100
AcDbEntity
  8
0
  6
Continuous
 62
     7
370
    25
100
AcDbCircle
 10
0.5145659295
 20
-1.4541417243
 30
0.0
 40
0.0200000000000004
100
AcDbArc
 50
289.4869515369
 51
0.0884552175
  0
ARC
  5
1CA
330
1F
100
AcDbEntity
  8
0
  6
Continuous
 62
     7
370
    25
100
AcDbCircle
 10
0.0
 20
0.0
 30
0.0
 40
1.56249999999066
100
AcDbArc
 50
288.2047715103
 51
289.4869515369
  0
ARC
  5
1CB
330
1F
100
AcDbEntity
  8
0
  6
Continuous
 62
     7
370
    25
100
AcDbCircle
 10
0.4818986409
 20
-1.4652917627
 30
0.0
 40
0.0200000000000037
100
AcDbArc
 50
217.4166556176
 51
288.2047715103
  0
ARC
  5
1CC
330
1F
100
AcDbEntity
  8
0
  6
Continuous
 62
     7
370
    25
100
AcDbCircle
 10
0.3954180016
 20
-1.3897074033
 30
0.0
 40
0.019537187563351
100
AcDbArc
 50
16.5573039085
 51
105.7806817329
  0
ARC
  5
1CD
330
1F
100
AcDbEntity
  8
0
  6
Continuous
 62
     7
370
    25
100
AcDbCircle
 10
0.0034175926
 20
-0.0026224117
 30
0.0
 40
1.421874999999389
100
AcDbArc
 50
284.2193182671
 51
285.7806817329
  0
ARC
  5
1CE
330
1F
100
AcDbEntity
  8
0
  6
Continuous
 62
     7
370
    25
100
AcDbCircle
 10
0.3574777759
 20
-1.3998734561
 30
0.0
 40
0.0195371875633514
100
AcDbArc
 50
104.2193182671
 51
193.4426960915
  0
ARC
  5
1CF
330
1F
100
AcDbEntity
  8
0
  6
Continuous
 62
     7
370
    25
100
AcDbCircle
 10
0.3203365443
 20
-1.5088706864
 30
0.0
 40
0.0199999999999896
100
AcDbArc
 50
281.9860546191
 51
352.5578542122
  0
ARC
  5
1D0
330
1F
100
AcDbEntity
  8
0
  6
Continuous
 62
     7
370
    25
100
AcDbCircle
 10
0.0
 20
0.0
 30
0.0
 40
1.562500000003053
100
AcDbArc
 50
280.712519101
 51
281.9860546192
  0
ARC
  5
1D1
330
1F
100
AcDbEntity
  8
0
  6
Continuous
 62
     7
370
    25
100
AcDbCircle
 10
0.2867219228
 20
-1.5156176262
 30
0.0
 40
0.0200000000000139
100
AcDbArc
 50
209.9475038049
 51
280.712519101
  0
ARC
  5
1D2
330
1F
100
AcDbEntity
  8
0
  6
Continuous
 62
     7
370
    25
100
AcDbCircle
 10
0.2106651567
 20
-1.4290763017
 30
0.0
 40
0.0195371875633513
100
AcDbArc
 50
9.0573039085
 51
98.2806817329
  0
ARC
  5
1D3
330
1F
100
AcDbEntity
  8
0
  6
Continuous
 62
     7
370
    25
100
AcDbCircle
 10
0.0030692878
 20
-0.0026916938
 30
0.0
 40
1.421874999998474
100
AcDbArc
 50
276.7193182671
 51
278.2806817329
  0
ARC
  5
1D4
330
1F
100
AcDbEntity
  8
0
  6
Continuous
 62
     7
370
    25
100
AcDbCircle
 10
0.1717225787
 20
-1.4342031894
 30
0.0
 40
0.0195371875633518
100
AcDbArc
 50
96.7193182671
 51
185.9426960915
  0
ARC
  5
1D5
330
1F
100
AcDbEntity
  8
0
  6
Continuous
 62
     7
370
    25
100
AcDbCircle
 10
0.1205758974
 20
-1.5377801218
 30
0.0
 40
0.0199999999999985
100
AcDbArc
 50
274.4833355409
 51
345.0256591643
  0
ARC
  5
1D6
330
1F
100
AcDbEntity
  8
0
  6
Continuous
 62
     7
370
    25
100
AcDbCircle
 10
0.0
 20
0.0
 30
0.0
 40
1.562499999984071
100
AcDbArc
 50
273.2186908931
 51
274.4833355409
  0
ARC
  5
1D7
330
1F
100
AcDbEntity
  8
0
  6
Continuous
 62
     7
370
    25
100
AcDbCircle
 10
0.086607073
 20
-1.5400667079
 30
0.0
 40
0.019999999999996
100
AcDbArc
 50
202.4799104896
 51
273.2186908931
  0
ARC
  5
1D8
330
1F
100
AcDbEntity
  8
0
  6
Continuous
 62
     7
370
    25
100
AcDbCircle
 10
0.0223542256
 20
-1.4439933084
 30
0.0
 40
0.0195371875633521
100
AcDbArc
 50
1.5573039085
 51
90.7806817329
  0
ARC
  5
1D9
330
1F
100
AcDbEntity
  8
0
  6
Continuous
 62
     7
370
    25
100
AcDbCircle
 10
0.0027149196
 20
-0.0027149203
 30
0.0
 40
1.421874999999388
100
AcDbArc
 50
269.2193182671
 51
270.7806817329
  0
ARC
  5
1DA
330
1F
100
AcDbEntity
  8
0
  6
Continuous
 62
     7
370
    25
100
AcDbCircle
 10
-0.0169243864
 20
-1.4439933084
 30
0.0
 40
0.0195371875633504
100
AcDbArc
 50
89.2193182671
 51
178.4426960915
  0
ARC
  5
1DB
330
1F
100
AcDbEntity
  8
0
  6
Continuous
 62
     7
370
    25
100
AcDbCircle
 10
-0.0812970836
 20
-1.5403561388
 30
0.0
 40
0.0199999999999998
100
AcDbArc
 50
266.9788402223
 51
337.4920675029
  0
ARC
  5
1DC
330
1F
100
AcDbEntity
  8
0
  6
Continuous
 62
     7
370
    25
100
AcDbCircle
 10
0.0
 20
0.0
 30
0.0
 40
1.562499999993229
100
AcDbArc
 50
265.7231821058
 51
266.9788402223
  0
ARC
  5
1DD
330
1F
100
AcDbEntity
  8
0
  6
Continuous
 62
     7
370
    25
100
AcDbCircle
 10
-0.1150323317
 20
-1.5382047369
 30
0.0
 40
0.0200000000000003
100
AcDbArc
 50
195.0136713385
 51
265.7231821058
  0
ARC
  5
1DE
330
1F
100
AcDbEntity
  8
0
  6
Continuous
 62
     7
370
    25
100
AcDbCircle
 10
-0.1662927395
 20
-1.4342031893
 30
0.0
 40
0.0195371875633506
100
AcDbArc
 50
354.0573039085
 51
83.2806817329
  0
ARC
  5
1DF
330
1F
100
AcDbEntity
  8
0
  6
Continuous
 62
     7
370
    25
100
AcDbCircle
 10
0.0023605514
 20
-0.0026916937
 30
0.0
 40
1.421875000001407
100
AcDbArc
 50
261.7193182671
 51
263.2806817329
  0
ARC
  5
1E0
330
1F
100
AcDbEntity
  8
0
  6
Continuous
 62
     7
370
    25
100
AcDbCircle
 10
-0.2052353175
 20
-1.4290763016
 30
0.0
 40
0.0195371875633516
100
AcDbArc
 50
81.7193182671
 51
170.9426960915
  0
ARC
  5
1E1
330
1F
100
AcDbEntity
  8
0
  6
Continuous
 62
     7
370
    25
100
AcDbCircle
 10
-0.2818223677
 20
-1.5165363177
 30
0.0
 40
0.0200000000000036
100
AcDbArc
 50
259.4726453657
 51
329.9573465359
  0
ARC
  5
1E2
330
1F
100
AcDbEntity
  8
0
  6
Continuous
 62
     7
370
    25
100
AcDbCircle
 10
0.0
 20
0.0
 30
0.0
 40
1.562500000007616
100
AcDbArc
 50
258.2259163277
 51
259.4726453657
  0
ARC
  5
1E3
330
1F
100
AcDbEntity
  8
0
  6
Continuous
 62
     7
370
    25
100
AcDbCircle
 10
-0.3147521605
 20
-1.510045472
 30
0.0
 40
0.0200000000000031
100
AcDbArc
 50
187.5485041867
 51
258.2259163276
  0
ARC
  5
1E4
330
1F
100
AcDbEntity
  8
0
  6
Continuous
 62
     7
370
    25
100
AcDbCircle
 10
-0.3520479367
 20
-1.399873456
 30
0.0
 40
0.0195371875633514
100
AcDbArc
 50
346.5573039085
 51
75.7806817329
  0
ARC
  5
1E5
330
1F
100
AcDbEntity
  8
0
  6
Continuous
 62
     7
370
    25
100
AcDbCircle
 10
0.0020122466
 20
-0.0026224116
 30
0.0
 40
1.421875000003397
100
AcDbArc
 50
254.2193182671
 51
255.7806817329
  0
ARC
  5
1E6
330
1F
100
AcDbEntity
  8
0
  6
Continuous
 62
     7
370
    25
100
AcDbCircle
 10
-0.3899881624
 20
-1.3897074031
 30
0.0
 40
0.0195371875633504
100
AcDbArc
 50
74.2193182671
 51
163.4426960915
  0
ARC
  5
1E7
330
1F
100
AcDbEntity
  8
0
  6
Continuous
 62
     7
370
    25
100
AcDbCircle
 10
-0.4775584229
 20
-1.4667120381
 30
0.0
 40
0.0200000000000048
100
AcDbArc
 50
251.9648571872
 51
322.421881212
  0
ARC
  5
1E8
330
1F
100
AcDbEntity
  8
0
  6
Continuous
 62
     7
370
    25
100
AcDbCircle
 10
0.0
 20
0.0
 30
0.0
 40
1.562500000002089
100
AcDbArc
 50
250.7268467634
 51
251.9648571872
  0
ARC
  5
1E9
330
1F
100
AcDbEntity
  8
0
  6
Continuous
 62
     7
370
    25
100
AcDbCircle
 10
-0.5091362527
 20
-1.4560516908
 30
0.0
 40
0.0200000000000067
100
AcDbArc
 50
180.0840028604
 51
250.7268467634
  0
ARC
  5
1EA
330
1F
100
AcDbEntity
  8
0
  6
Continuous
 62
     7
370
    25
100
AcDbCircle
 10
-0.531733043
 20
-1.3415914997
 30
0.0
 40
0.0195371875633523
100
AcDbArc
 50
339.0573039085
 51
68.2806817329
  0
ARC
  5
1EB
330
1F
100
AcDbEntity
  8
0
  6
Continuous
 62
     7
370
    25
100
AcDbCircle
 10
0.0016759647
 20
-0.0025082592
 30
0.0
 40
1.421874999992714
100
AcDbArc
 50
246.7193182671
 51
248.2806817329
  0
ARC
  5
1EC
330
1F
100
AcDbEntity
  8
0
  6
Continuous
 62
     7
370
    25
100
AcDbCircle
 10
-0.5680217487
 20
-1.3265602256
 30
0.0
 40
0.0195371875633517
100
AcDbArc
 50
66.7193182671
 51
155.9426960915
  0
ARC
  5
1ED
330
1F
100
AcDbEntity
  8
0
  6
Continuous
 62
     7
370
    25
100
AcDbCircle
 10
-0.6651418149
 20
-1.3917228948
 30
0.0
 40
0.0200000000000139
100
AcDbArc
 50
244.4556096304
 51
314.8862089784
  0
ARC
  5
1EE
330
1F
100
AcDbEntity
  8
0
  6
Continuous
 62
     7
370
    25
100
AcDbCircle
 10
0.0
 20
0.0
 30
0.0
 40
1.562499999998977
100
AcDbArc
 50
243.2259569864
 51
244.4556096304
  0
ARC
  5
1EF
330
1F
100
AcDbEntity
  8
0
  6
Continuous
 62
     7
370
    25
100
AcDbCircle
 10
-0.6948547906
 20
-1.3771285597
 30
0.0
 40
0.0199999999999809
100
AcDbArc
 50
172.619605588
 51
243.2259569864
  0
ARC
  5
1F0
330
1F
100
AcDbEntity
  8
0
  6
Continuous
 62
     7
370
    25
100
AcDbCircle
 10
-0.7022735965
 20
-1.2603545409
 30
0.0
 40
0.0195371875633514
100
AcDbArc
 50
331.5573039085
 51
60.7806817329
  0
ARC
  5
1F1
330
1F
100
AcDbEntity
  8
0
  6
Continuous
 62
     7
370
    25
100
AcDbCircle
 10
0.0013574597
 20
-0.0023511898
 30
0.0
 40
1.421875000003895
100
AcDbArc
 50
239.2193182671
 51
240.7806817329
  0
ARC
  5
1F2
330
1F
100
AcDbEntity
  8
0
  6
Continuous
 62
     7
370
    25
100
AcDbCircle
 10
-0.7362898723
 20
-1.2407152349
 30
0.0
 40
0.0195371875633511
100
AcDbArc
 50
59.2193182671
 51
148.4426960915
  0
ARC
  5
1F3
330
1F
100
AcDbEntity
  8
0
  6
Continuous
 62
     7
370
    25
100
AcDbCircle
 10
-0.8413457377
 20
-1.2928432232
 30
0.0
 40
0.0199999999999931
100
AcDbArc
 50
236.9450620811
 51
307.3510315736
  0
ARC
  5
1F4
330
1F
100
AcDbEntity
  8
0
  6
Continuous
 62
     7
370
    25
100
AcDbCircle
 10
0.0
 20
0.0
 30
0.0
 40
1.562500000008128
100
AcDbArc
 50
235.7232612009
 51
236.9450620811
  0
ARC
  5
1F5
330
1F
100
AcDbEntity
  8
0
  6
Continuous
 62
     7
370
    25
100
AcDbCircle
 10
-0.8687215304
 20
-1.2746094118
 30
0.0
 40
0.020000000000006
100
AcDbArc
 50
165.1545876073
 51
235.7232612009
  0
ARC
  5
1F6
330
1F
100
AcDbEntity
  8
0
  6
Continuous
 62
     7
370
    25
100
AcDbCircle
 10
-0.860751601
 20
-1.1575525664
 30
0.0
 40
0.0195371875633521
100
AcDbArc
 50
324.0573039085
 51
53.2806817329
  0
ARC
  5
1F7
330
1F
100
AcDbEntity
  8
0
  6
Continuous
 62
     7
370
    25
100
AcDbCircle
 10
0.0010621811
 20
-0.002153891
 30
0.0
 40
1.42187499999565
100
AcDbArc
 50
231.7193182671
 51
233.2806817329
  0
ARC
  5
1F8
330
1F
100
AcDbEntity
  8
0
  6
Continuous
 62
     7
370
    25
100
AcDbCircle
 10
-0.8919134191
 20
-1.1336412625
 30
0.0
 40
0.0195371875633503
100
AcDbArc
 50
51.7193182671
 51
140.9426960915
  0
ARC
  5
1F9
330
1F
100
AcDbEntity
  8
0
  6
Continuous
 62
     7
370
    25
100
AcDbCircle
 10
-1.0031364037
 20
-1.1717608995
 30
0.0
 40
0.0199999999999985
100
AcDbArc
 50
229.4333966087
 51
299.8171977729
  0
ARC
  5
1FA
330
1F
100
AcDbEntity
  8
0
  6
Continuous
 62
     7
370
    25
100
AcDbCircle
 10
0.0
 20
0.0
 30
0.0
 40
1.562499999998006
100
AcDbArc
 50
228.2188040231
 51
229.4333966087
  0
ARC
  5
1FB
330
1F
100
AcDbEntity
  8
0
  6
Continuous
 62
     7
370
    25
100
AcDbCircle
 10
-1.027748893
 20
-1.1502340905
 30
0.0
 40
0.0200000000000007
100
AcDbArc
 50
157.6880829475
 51
228.2188040231
  0
ARC
  5
1FC
330
1F
100
AcDbEntity
  8
0
  6
Continuous
 62
     7
370
    25
100
AcDbCircle
 10
-1.004455454
 20
-1.0349445467
 30
0.0
 40
0.0195371875633515
100
AcDbArc
 50
316.5573039085
 51
45.7806817329
  0
ARC
  5
1FD
330
1F
100
AcDbEntity
  8
0
  6
Continuous
 62
     7
370
    25
100
AcDbCircle
 10
0.0007951814
 20
-0.0019197384
 30
0.0
 40
1.421875000000841
100
AcDbArc
 50
224.2193182671
 51
225.7806817329
  0
ARC
  5
1FE
330
1F
100
AcDbEntity
  8
0
  6
Continuous
 62
     7
370
    25
100
AcDbCircle
 10
-1.0322296269
 20
-1.0071703738
 30
0.0
 40
0.0195371875633505
100
AcDbArc
 50
44.2193182671
 51
133.4426960915
  0
ARC
  5
1FF
330
1F
100
AcDbEntity
  8
0
  6
Continuous
 62
     7
370
    25
100
AcDbCircle
 10
-1.1477262516
 20
-1.030548738
 30
0.0
 40
0.0199999999999958
100
AcDbArc
 50
221.9208147696
 51
292.2856578987
  0
ARC
  5
200
330
1F
100
AcDbEntity
  8
0
  6
Continuous
 62
     7
370
    25
100
AcDbCircle
 10
0.0
 20
0.0
 30
0.0
 40
1.562499999991964
100
AcDbArc
 50
220.7126597955
 51
221.9208147696
  0
ARC
  5
201
330
1F
100
AcDbEntity
  8
0
  6
Continuous
 62
     7
370
    25
100
AcDbCircle
 10
-1.1691999347
 20
-1.0061201532
 30
0.0
 40
0.0200000000000003
100
AcDbArc
 50
150.2191334316
 51
220.7126597955
  0
ARC
  5
202
330
1F
100
AcDbEntity
  8
0
  6
Continuous
 62
     7
370
    25
100
AcDbCircle
 10
-1.1309263426
 20
-0.8946283388
 30
0.0
 40
0.0195371875633511
100
AcDbArc
 50
309.0573039085
 51
38.2806817329
  0
ARC
  5
203
330
1F
100
AcDbEntity
  8
0
  6
Continuous
 62
     7
370
    25
100
AcDbCircle
 10
0.0005610289
 20
-0.0016527386
 30
0.0
 40
1.42187500000055
100
AcDbArc
 50
216.7193182671
 51
218.2806817329
  0
ARC
  5
204
330
1F
100
AcDbEntity
  8
0
  6
Continuous
 62
     7
370
    25
100
AcDbCircle
 10
-1.1548376466
 20
-0.8634665208
 30
0.0
 40
0.0195371875633505
100
AcDbArc
 50
36.7193182671
 51
125.9426960915
  0
ARC
  5
205
330
1F
100
AcDbEntity
  8
0
  6
Continuous
 62
     7
370
    25
100
AcDbCircle
 10
-1.2726229685
 20
-0.8716289521
 30
0.0
 40
0.0199999999999914
100
AcDbArc
 50
214.4075340263
 51
284.7573979897
  0
ARC
  5
206
330
1F
100
AcDbEntity
  8
0
  6
Continuous
 62
     7
370
    25
100
AcDbCircle
 10
0.0
 20
0.0
 30
0.0
 40
1.562500000007258
100
AcDbArc
 50
213.2049314481
 51
214.4075340264
  0
ARC
  5
207
330
1F
100
AcDbEntity
  8
0
  6
Continuous
 62
     7
370
    25
100
AcDbCircle
 10
-1.2906362526
 20
-0.8447273604
 30
0.0
 40
0.0200000000000006
100
AcDbArc
 50
142.7467561611
 51
213.2049314481
  0
ARC
  5
208
330
1F
100
AcDbEntity
  8
0
  6
Continuous
 62
     7
370
    25
100
AcDbCircle
 10
-1.2380003149
 20
-0.739004792
 30
0.0
 40
0.0195371875633506
100
AcDbArc
 50
301.5573039085
 51
30.7806817329
  0
ARC
  5
209
330
1F
100
AcDbEntity
  8
0
  6
Continuous
 62
     7
370
    25
100
AcDbCircle
 10
0.0003637301
 20
-0.00135746
 30
0.0
 40
1.421875000000513
100
AcDbArc
 50
209.2193182671
 51
210.7806817329
  0
ARC
  5
20A
330
1F
100
AcDbEntity
  8
0
  6
Continuous
 62
     7
370
    25
100
AcDbCircle
 10
-1.2576396209
 20
-0.7049885162
 30
0.0
 40
0.0195371875633499
100
AcDbArc
 50
29.2193182671
 51
118.4426960915
  0
ARC
  5
20B
330
1F
100
AcDbEntity
  8
0
  6
Continuous
 62
     7
370
    25
100
AcDbCircle
 10
-1.3756733959
 20
-0.6977312933
 30
0.0
 40
0.0200000000000079
100
AcDbArc
 50
206.8937838525
 51
277.2333660416
  0
ARC
  5
20C
330
1F
100
AcDbEntity
  8
0
  6
Continuous
 62
     7
370
    25
100
AcDbCircle
 10
0.0
 20
0.0
 30
0.0
 40
1.562499999993521
100
AcDbArc
 50
205.6957489144
 51
206.8937838525
  0
ARC
  5
20D
330
1F
100
AcDbEntity
  8
0
  6
Continuous
 62
     7
370
    25
100
AcDbCircle
 10
-1.3899609323
 20
-0.6688160111
 30
0.0
 40
0.0199999999999898
100
AcDbArc
 50
135.2700168876
 51
205.6957489144
  0
ARC
  5
20E
330
1F
100
AcDbEntity
  8
0
  6
Continuous
 62
     7
370
    25
100
AcDbCircle
 10
-1.3238453056
 20
-0.5707366683
 30
0.0
 40
0.0195371875633511
100
AcDbArc
 50
294.0573039085
 51
23.2806817329
  0
ARC
  5
20F
330
1F
100
AcDbEntity
  8
0
  6
Continuous
 62
     7
370
    25
100
AcDbCircle
 10
0.0002066608
 20
-0.0010389549
 30
0.0
 40
1.421875000000893
100
AcDbArc
 50
201.7193182671
 51
203.2806817329
  0
ARC
  5
210
330
1F
100
AcDbEntity
  8
0
  6
Continuous
 62
     7
370
    25
100
AcDbCircle
 10
-1.3388765796
 20
-0.5344479626
 30
0.0
 40
0.019537187563351
100
AcDbArc
 50
21.7193182671
 51
110.9426960915
  0
ARC
  5
211
330
1F
100
AcDbEntity
  8
0
  6
Continuous
 62
     7
370
    25
100
AcDbCircle
 10
-1.4551014804
 20
-0.5118456131
 30
0.0
 40
0.0200000000000005
100
AcDbArc
 50
199.3798016088
 51
269.7144029035
  0
ARC
  5
212
330
1F
100
AcDbEntity
  8
0
  6
Continuous
 62
     7
370
    25
100
AcDbCircle
 10
0.0
 20
0.0
 30
0.0
 40
1.562500000003364
100
AcDbArc
 50
198.1852671119
 51
199.3798016088
  0
ARC
  5
213
330
1F
100
AcDbEntity
  8
0
  6
Continuous
 62
     7
370
    25
100
AcDbCircle
 10
-1.4654557238
 20
-0.4813998042
 30
0.0
 40
0.0200000000000022
100
AcDbArc
 50
127.7880971837
 51
198.1852671119
  0
ARC
  5
214
330
1F
100
AcDbEntity
  8
0
  6
Continuous
 62
     7
370
    25
100
AcDbCircle
 10
-1.386992483
 20
-0.392703082
 30
0.0
 40
0.0195371875633511
100
AcDbArc
 50
286.5573039085
 51
15.7806817329
  0
ARC
  5
215
330
1F
100
AcDbEntity
  8
0
  6
Continuous
 62
     7
370
    25
100
AcDbCircle
 10
0.0000925086
 20
-0.000702673
 30
0.0
 40
1.421874999998143
100
AcDbArc
 50
194.2193182671
 51
195.7806817329
  0
ARC
  5
216
330
1F
100
AcDbEntity
  8
0
  6
Continuous
 62
     7
370
    25
100
AcDbCircle
 10
-1.3971585358
 20
-0.3547628563
 30
0.0
 40
0.019537187563352
100
AcDbArc
 50
14.2193182671
 51
103.4426960915
  0
ARC
  5
217
330
1F
100
AcDbEntity
  8
0
  6
Continuous
 62
     7
370
    25
100
AcDbCircle
 10
-1.5095395408
 20
-0.3171697096
 30
0.0
 40
0.0200000000000073
100
AcDbArc
 50
191.8658282856
 51
262.2011866649
  0
ARC
  5
218
330
1F
100
AcDbEntity
  8
0
  6
Continuous
 62
     7
370
    25
100
AcDbCircle
 10
0.0
 20
0.0
 30
0.0
 40
1.562500000000104
100
AcDbArc
 50
190.6736634947
 51
191.8658282856
  0
ARC
  5
219
330
1F
100
AcDbEntity
  8
0
  6
Continuous
 62
     7
370
    25
100
AcDbCircle
 10
-1.5158117206
 20
-0.2856940283
 30
0.0
 40
0.0199999999999947
100
AcDbArc
 50
120.3003474472
 51
190.6736634947
  0
ARC
  5
21A
330
1F
100
AcDbEntity
  8
0
  6
Continuous
 62
     7
370
    25
100
AcDbCircle
 10
-1.4263613814
 20
-0.2079502371
 30
0.0
 40
0.0195371875633503
100
AcDbArc
 50
279.0573039085
 51
8.2806817329
  0
ARC
  5
21B
330
1F
100
AcDbEntity
  8
0
  6
Continuous
 62
     7
370
    25
100
AcDbCircle
 10
0.0000232265
 20
-0.0003543682
 30
0.0
 40
1.421875000001432
100
AcDbArc
 50
186.7193182671
 51
188.2806817329
  0
ARC
  5
21C
330
1F
100
AcDbEntity
  8
0
  6
Continuous
 62
     7
370
    25
100
AcDbCircle
 10
-1.4314882691
 20
-0.1690076591
 30
0.0
 40
0.0195371875633498
100
AcDbArc
 50
6.7193182671
 51
95.9426960915
  0
ARC
  5
21D
330
1F
100
AcDbEntity
  8
0
  6
Continuous
 62
     7
370
    25
100
AcDbCircle
 10
-1.5380522572
 20
-0.1170534237
 30
0.0
 40
0.0199999999999975
100
AcDbArc
 50
184.3521042086
 51
254.6941939317
  0
ARC
  5
21E
330
1F
100
AcDbEntity
  8
0
  6
Continuous
 62
     7
370
    25
100
AcDbCircle
 10
0.0
 20
0.0
 30
0.0
 40
1.56250000000392
100
AcDbArc
 50
183.1611351968
 51
184.3521042086
  0
ARC
  5
21F
330
1F
100
AcDbEntity
  8
0
  6
Continuous
 62
     7
370
    25
100
AcDbCircle
 10
-1.5401529309
 20
-0.0850599764
 30
0.0
 40
0.0199999999999873
100
AcDbArc
 50
112.8063231701
 51
183.1611351969
  0
ARC
  5
220
330
1F
100
AcDbEntity
  8
0
  6
Continuous
 62
     7
370
    25
100
AcDbCircle
 10
-1.4412783881
 20
-0.019639306
 30
0.0
 40
0.0195371875633515
100
AcDbArc
 50
271.5573039085
 51
0.7806817329
  0
ARC
  5
221
330
1F
100
AcDbEntity
  8
0
  6
Continuous
 62
     7
370
    25
100
AcDbCircle
 10
0.0
 20
0.0
 30
0.0
 40
1.42187499999729
100
AcDbArc
 50
179.2193182671
 51
180.7806817329
  0
ARC
  5
222
330
1F
100
AcDbEntity
  8
0
  6
Continuous
 62
     7
370
    25
100
AcDbCircle
 10
-1.4412783881
 20
0.019639306
 30
0.0
 40
0.0195371875633515
100
AcDbArc
 50
359.2193182671
 51
88.4426960915
  0
ARC
  5
223
330
1F
100
AcDbEntity
  8
0
  6
Continuous
 62
     7
370
    25
100
AcDbCircle
 10
-1.5401529309
 20
0.0850599764
 30
0.0
 40
0.0200000000000007
100
AcDbArc
 50
176.8388648032
 51
247.1936768299
  0
ARC
  5
224
330
1F
100
AcDbEntity
  8
0
  6
Continuous
 62
     7
370
    25
100
AcDbCircle
 10
0.0
 20
0.0
 30
0.0
 40
1.562500000008193
100
AcDbArc
 50
175.6478957926
 51
176.8388648032
  0
ARC
  5
225
330
1F
100
AcDbEntity
  8
0
  6
Continuous
 62
     7
370
    25
100
AcDbCircle
 10
-1.5380522572
 20
0.1170534236
 30
0.0
 40
0.0200000000000097
100
AcDbArc
 50
105.3058060815
 51
175.6478957926
  0
ARC
  5
226
330
1F
100
AcDbEntity
  8
0
  6
Continuous
 62
     7
370
    25
100
AcDbCircle
 10
-1.431488269
 20
0.1690076591
 30
0.0
 40
0.0195371875633511
100
AcDbArc
 50
264.0573039085
 51
353.2806817329
  0
ARC
  5
227
330
1F
100
AcDbEntity
  8
0
  6
Continuous
 62
     7
370
    25
100
AcDbCircle
 10
0.0000232266
 20
0.0003543682
 30
0.0
 40
1.421874999998945
100
AcDbArc
 50
171.7193182671
 51
173.2806817329
  0
ARC
  5
228
330
1F
100
AcDbEntity
  8
0
  6
Continuous
 62
     7
370
    25
100
AcDbCircle
 10
-1.4263613813
 20
0.2079502371
 30
0.0
 40
0.019537187563351
100
AcDbArc
 50
351.7193182671
 51
80.9426960915
  0
ARC
  5
229
330
1F
100
AcDbEntity
  8
0
  6
Continuous
 62
     7
370
    25
100
AcDbCircle
 10
-1.5158117205
 20
0.2856940284
 30
0.0
 40
0.0199999999999859
100
AcDbArc
 50
169.3263365036
 51
239.6996525398
  0
ARC
  5
22A
330
1F
100
AcDbEntity
  8
0
  6
Continuous
 62
     7
370
    25
100
AcDbCircle
 10
0.0
 20
0.0
 30
0.0
 40
1.562499999995163
100
AcDbArc
 50
168.1341717163
 51
169.3263365036
  0
ARC
  5
22B
330
1F
100
AcDbEntity
  8
0
  6
Continuous
 62
     7
370
    25
100
AcDbCircle
 10
-1.5095395408
 20
0.3171697095
 30
0.0
 40
0.0199999999999995
100
AcDbArc
 50
97.7988133612
 51
168.1341717163
  0
ARC
  5
22C
330
1F
100
AcDbEntity
  8
0
  6
Continuous
 62
     7
370
    25
100
AcDbCircle
 10
-1.3971585357
 20
0.3547628563
 30
0.0
 40
0.0195371875633511
100
AcDbArc
 50
256.5573039085
 51
345.7806817329
  0
ARC
  5
22D
330
1F
100
AcDbEntity
  8
0
  6
Continuous
 62
     7
370
    25
100
AcDbCircle
 10
-1.3869924828
 20
0.392703082
 30
0.0
 40
0.0195371875633504
100
AcDbArc
 50
344.2193182671
 51
73.4426960915
  0
ARC
  5
22E
330
1F
100
AcDbEntity
  8
0
  6
Continuous
 62
     7
370
    25
100
AcDbCircle
 10
-1.4654557238
 20
0.4813998043
 30
0.0
 40
0.0200000000000082
100
AcDbArc
 50
161.8147328844
 51
232.2119027908
  0
ARC
  5
22F
330
1F
100
AcDbEntity
  8
0
  6
Continuous
 62
     7
370
    25
100
AcDbCircle
 10
0.0
 20
0.0
 30
0.0
 40
1.562499999991045
100
AcDbArc
 50
160.6201983934
 51
161.8147328844
  0
ARC
  5
230
330
1F
100
AcDbEntity
  8
0
  6
Continuous
 62
     7
370
    25
100
AcDbCircle
 10
-1.4551014804
 20
0.5118456131
 30
0.0
 40
0.0199999999999935
100
AcDbArc
 50
90.2855971349
 51
160.6201983934
  0
ARC
  5
231
330
1F
100
AcDbEntity
  8
0
  6
Continuous
 62
     7
370
    25
100
AcDbCircle
 10
-1.3388765794
 20
0.5344479626
 30
0.0
 40
0.0195371875633517
100
AcDbArc
 50
249.0573039085
 51
338.2806817329
  0
ARC
  5
232
330
1F
100
AcDbEntity
  8
0
  6
Continuous
 62
     7
370
    25
100
AcDbCircle
 10
0.0002066611
 20
0.0010389549
 30
0.0
 40
1.421874999997023
100
AcDbArc
 50
156.7193182671
 51
158.2806817329
  0
ARC
  5
233
330
1F
100
AcDbEntity
  8
0
  6
Continuous
 62
     7
370
    25
100
AcDbCircle
 10
-1.3238453053
 20
0.5707366683
 30
0.0
 40
0.0195371875633511
100
AcDbArc
 50
336.7193182671
 51
65.9426960915
  0
ARC
  5
234
330
1F
100
AcDbEntity
  8
0
  6
Continuous
 62
     7
370
    25
100
AcDbCircle
 10
-1.3899609322
 20
0.6688160112
 30
0.0
 40
0.0200000000000197
100
AcDbArc
 50
154.3042510794
 51
224.7299830754
  0
ARC
  5
235
330
1F
100
AcDbEntity
  8
0
  6
Continuous
 62
     7
370
    25
100
AcDbCircle
 10
0.0
 20
0.0
 30
0.0
 40
1.56249999999033
100
AcDbArc
 50
153.1062161495
 51
154.3042510794
  0
ARC
  5
236
330
1F
100
AcDbEntity
  8
0
  6
Continuous
 62
     7
370
    25
100
AcDbCircle
 10
-1.375673396
 20
0.6977312933
 30
0.0
 40
0.0199999999999946
100
AcDbArc
 50
82.7666340077
 51
153.1062161495
  0
ARC
  5
237
330
1F
100
AcDbEntity
  8
0
  6
Continuous
 62
     7
370
    25
100
AcDbCircle
 10
-1.2576396206
 20
0.7049885161
 30
0.0
 40
0.0195371875633512
100
AcDbArc
 50
241.5573039085
 51
330.7806817329
  0
ARC
  5
238
330
1F
100
AcDbEntity
  8
0
  6
Continuous
 62
     7
370
    25
100
AcDbCircle
 10
0.0003637305
 20
0.0013574599
 30
0.0
 40
1.421874999997212
100
AcDbArc
 50
149.2193182671
 51
150.7806817329
  0
ARC
  5
239
330
1F
100
AcDbEntity
  8
0
  6
Continuous
 62
     7
370
    25
100
AcDbCircle
 10
-1.2380003146
 20
0.7390047919
 30
0.0
 40
0.0195371875633513
100
AcDbArc
 50
329.2193182671
 51
58.4426960915
  0
ARC
  5
23A
330
1F
100
AcDbEntity
  8
0
  6
Continuous
 62
     7
370
    25
100
AcDbCircle
 10
-1.2906362525
 20
0.8447273606
 30
0.0
 40
0.0200000000000012
100
AcDbArc
 50
146.7950685429
 51
217.2532437922
  0
ARC
  5
23B
330
1F
100
AcDbEntity
  8
0
  6
Continuous
 62
     7
370
    25
100
AcDbCircle
 10
0.0
 20
0.0
 30
0.0
 40
1.562499999998917
100
AcDbArc
 50
145.5924659749
 51
146.7950685429
  0
ARC
  5
23C
330
1F
100
AcDbEntity
  8
0
  6
Continuous
 62
     7
370
    25
100
AcDbCircle
 10
-1.2726229685
 20
0.871628952
 30
0.0
 40
0.0199999999999824
100
AcDbArc
 50
75.242602069
 51
145.592465975
  0
ARC
  5
23D
330
1F
100
AcDbEntity
  8
0
  6
Continuous
 62
     7
370
    25
100
AcDbCircle
 10
-1.1548376461
 20
0.8634665206
 30
0.0
 40
0.0195371875633511
100
AcDbArc
 50
234.0573039085
 51
323.2806817329
  0
ARC
  5
23E
330
1F
100
AcDbEntity
  8
0
  6
Continuous
 62
     7
370
    25
100
AcDbCircle
 10
0.0005610294
 20
0.0016527385
 30
0.0
 40
1.421875000000819
100
AcDbArc
 50
141.7193182671
 51
143.2806817329
  0
ARC
  5
23F
330
1F
100
AcDbEntity
  8
0
  6
Continuous
 62
     7
370
    25
100
AcDbCircle
 10
-1.1309263422
 20
0.8946283386
 30
0.0
 40
0.0195371875633504
100
AcDbArc
 50
321.7193182671
 51
50.9426960915
  0
ARC
  5
240
330
1F
100
AcDbEntity
  8
0
  6
Continuous
 62
     7
370
    25
100
AcDbCircle
 10
-1.1691999345
 20
1.0061201534
 30
0.0
 40
0.0199999999999908
100
AcDbArc
 50
139.2873401923
 51
209.7808665136
  0
ARC
  5
241
330
1F
100
AcDbEntity
  8
0
  6
Continuous
 62
     7
370
    25
100
AcDbCircle
 10
0.0
 20
0.0
 30
0.0
 40
1.562500000002713
100
AcDbArc
 50
138.0791852305
 51
139.2873401923
  0
ARC
  5
242
330
1F
100
AcDbEntity
  8
0
  6
Continuous
 62
     7
370
    25
100
AcDbCircle
 10
-1.1477262516
 20
1.030548738
 30
0.0
 40
0.0200000000000074
100
AcDbArc
 50
67.7143421674
 51
138.0791852304
  0
ARC
  5
243
330
1F
100
AcDbEntity
  8
0
  6
Continuous
 62
     7
370
    25
100
AcDbCircle
 10
-1.0322296264
 20
1.0071703736
 30
0.0
 40
0.0195371875633511
100
AcDbArc
 50
226.5573039085
 51
315.7806817329
  0
ARC
  5
244
330
1F
100
AcDbEntity
  8
0
  6
Continuous
 62
     7
370
    25
100
AcDbCircle
 10
-0.8328310883
 20
0.825544809
 30
0.0
 40
0.2500000000000031
100
AcDbArc
 50
90.0
 51
135.3457650282
  0
ARC
  5
245
330
1F
100
AcDbEntity
  8
0
  6
Continuous
 62
     7
370
    25
100
AcDbCircle
 10
0.0040723796
 20
-0.0023511902
 30
0.0
 40
1.42187499999962
100
AcDbArc
 50
299.2193182671
 51
300.7806817329
  0
ARC
  5
246
330
1F
100
AcDbEntity
  8
0
  6
Continuous
 62
     7
370
    25
100
AcDbCircle
 10
0.0000925087
 20
0.000702673
 30
0.0
 40
1.421874999999824
100
AcDbArc
 50
164.2193182671
 51
165.7806817329
  0
ENDSEC
  0
SECTION
  2
OBJECTS
  0
DICTIONARY
  5
C
330
0
100
AcDbDictionary
281
     1
  3
ACAD_GROUP
350
D
  3
ACAD_LAYOUT
350
1A
  3
ACAD_MLINESTYLE
350
17
  3
ACAD_PLOTSETTINGS
350
19
  3
ACAD_PLOTSTYLENAME
350
E
  3
ACAD_SCALELIST
350
47
  0
DICTIONARY
  5
D
102
{ACAD_REACTORS
330
C
102
}
330
C
100
AcDbDictionary
281
     1
  0
DICTIONARY
  5
1A
102
{ACAD_REACTORS
330
C
102
}
330
C
100
AcDbDictionary
281
     1
  3
Layout1
350
1E
  3
Layout2
350
26
  3
Model
350
22
  0
DICTIONARY
  5
17
102
{ACAD_REACTORS
330
C
102
}
330
C
100
AcDbDictionary
281
     1
  3
Standard
350
18
  0
DICTIONARY
  5
19
102
{ACAD_REACTORS
330
C
102
}
330
C
100
AcDbDictionary
281
     1
  0
ACDBDICTIONARYWDFLT
  5
E
102
{ACAD_REACTORS
330
C
102
}
330
C
100
AcDbDictionary
281
     1
  3
Normal
350
F
100
AcDbDictionaryWithDefault
340
F
  0
DICTIONARY
  5
47
102
{ACAD_REACTORS
330
C
102
}
330
C
100
AcDbDictionary
281
     1
  3
A0
350
48
  3
A1
350
49
  3
A2
350
4A
  3
A3
350
4B
  3
A4
350
4C
  3
A5
350
4D
  3
A6
350
4E
  3
A7
350
4F
  3
A8
350
50
  3
A9
350
51
  3
B0
350
52
  3
B1
350
53
  3
B2
350
54
  3
B3
350
55
  3
B4
350
56
  3
B5
350
57
  3
B6
350
58
  3
B7
350
59
  3
B8
350
5A
  3
B9
350
5B
  3
C0
350
5C
  3
C1
350
5D
  3
C2
350
5E
  3
C3
350
5F
  3
C4
350
60
  3
C5
350
61
  3
C6
350
62
  3
C7
350
63
  3
C8
350
64
  3
C9
350
65
  3
D0
350
66
  3
D1
350
67
  3
D2
350
68
  0
LAYOUT
  5
1E
102
{ACAD_REACTORS
330
1A
102
}
330
1A
100
AcDbPlotSettings
  1

  2
none_device
  4

  6

 40
0.0
 41
0.0
 42
0.0
 43
0.0
 44
0.0
 45
0.0
 46
0.0
 47
0.0
 48
0.0
 49
0.0
140
0.0
141
0.0
142
1.0
143
1.0
 70
   688
 72
     0
 73
     0
 74
     5
  7

 75
    16
147
1.0
148
0.0
149
0.0
100
AcDbLayout
  1
Layout1
 70
     1
 71
     1
 10
0.0
 20
0.0
 11
12.0
 21
9.0
 12
0.0
 22
0.0
 32
0.0
 14
1.0000000000E+20
 24
1.0000000000E+20
 34
1.0000000000E+20
 15
-1.0000000000E+20
 25
-1.0000000000E+20
 35
-1.0000000000E+20
146
0.0
 13
0.0
 23
0.0
 33
0.0
 16
1.0
 26
0.0
 36
0.0
 17
0.0
 27
1.0
 37
0.0
 76
     0
330
1B
  0
LAYOUT
  5
26
102
{ACAD_REACTORS
330
1A
102
}
330
1A
100
AcDbPlotSettings
  1

  2
none_device
  4

  6

 40
0.0
 41
0.0
 42
0.0
 43
0.0
 44
0.0
 45
0.0
 46
0.0
 47
0.0
 48
0.0
 49
0.0
140
0.0
141
0.0
142
1.0
143
1.0
 70
   688
 72
     0
 73
     0
 74
     5
  7

 75
    16
147
1.0
148
0.0
149
0.0
100
AcDbLayout
  1
Layout2
 70
     1
 71
     2
 10
0.0
 20
0.0
 11
0.0
 21
0.0
 12
0.0
 22
0.0
 32
0.0
 14
0.0
 24
0.0
 34
0.0
 15
0.0
 25
0.0
 35
0.0
146
0.0
 13
0.0
 23
0.0
 33
0.0
 16
1.0
 26
0.0
 36
0.0
 17
0.0
 27
1.0
 37
0.0
 76
     0
330
23
  0
LAYOUT
  5
22
102
{ACAD_REACTORS
330
1A
102
}
330
1A
100
AcDbPlotSettings
  1

  2
none_device
  4
ANSI_A_(11.00_x_8.50_Inches)
  6

 40
6.35
 41
19.05
 42
6.35000508
 43
19.05000254
 44
279.4
 45
215.9
 46
103.0967426228
 47
26.3623507346
 48
0.0
 49
0.0
140
0.0
141
0.0
142
0.9539444758
143
1.0
 70
  1696
 72
     0
 73
     0
 74
     0
  7

 75
     0
147
0.5913241897
148
-39.4088153714
149
0.0
100
AcDbLayout
  1
Model
 70
     1
 71
     0
 10
0.0
 20
0.0
 11
12.0
 21
9.0
 12
0.0
 22
0.0
 32
0.0
 14
-1.5601529309
 24
-1.8296535265
 34
0.0
 15
4.0573067073
 25
6.9916146015
 35
0.0
146
0.0
 13
0.0
 23
0.0
 33
0.0
 16
1.0
 26
0.0
 36
0.0
 17
0.0
 27
1.0
 37
0.0
 76
     0
330
1F
331
29
  0
MLINESTYLE
  5
18
102
{ACAD_REACTORS
330
17
102
}
330
17
100
AcDbMlineStyle
  2
Standard
 70
     0
  3

 62
   256
 51
90.0
 52
90.0
 71
     2
 49
0.5
 62
   256
  6
BYLAYER
 49
-0.5
 62
   256
  6
BYLAYER
  0
ACDBPLACEHOLDER
  5
F
102
{ACAD_REACTORS
330
E
102
}
330
E
  0
SCALE
  5
48
102
{ACAD_REACTORS
330
47
102
}
330
47
100
AcDbScale
 70
     0
300
1:1
140
1.0
141
1.0
290
     1
  0
SCALE
  5
49
102
{ACAD_REACTORS
330
47
102
}
330
47
100
AcDbScale
 70
     0
300
1:2
140
1.0
141
2.0
290
     0
  0
SCALE
  5
4A
102
{ACAD_REACTORS
330
47
102
}
330
47
100
AcDbScale
 70
     0
300
1:4
140
1.0
141
4.0
290
     0
  0
SCALE
  5
4B
102
{ACAD_REACTORS
330
47
102
}
330
47
100
AcDbScale
 70
     0
300
1:5
140
1.0
141
5.0
290
     0
  0
SCALE
  5
4C
102
{ACAD_REACTORS
330
47
102
}
330
47
100
AcDbScale
 70
     0
300
1:8
140
1.0
141
8.0
290
     0
  0
SCALE
  5
4D
102
{ACAD_REACTORS
330
47
102
}
330
47
100
AcDbScale
 70
     0
300
1:10
140
1.0
141
10.0
290
     0
  0
SCALE
  5
4E
102
{ACAD_REACTORS
330
47
102
}
330
47
100
AcDbScale
 70
     0
300
1:16
140
1.0
141
16.0
290
     0
  0
SCALE
  5
4F
102
{ACAD_REACTORS
330
47
102
}
330
47
100
AcDbScale
 70
     0
300
1:20
140
1.0
141
20.0
290
     0
  0
SCALE
  5
50
102
{ACAD_REACTORS
330
47
102
}
330
47
100
AcDbScale
 70
     0
300
1:30
140
1.0
141
30.0
290
     0
  0
SCALE
  5
51
102
{ACAD_REACTORS
330
47
102
}
330
47
100
AcDbScale
 70
     0
300
1:40
140
1.0
141
40.0
290
     0
  0
SCALE
  5
52
102
{ACAD_REACTORS
330
47
102
}
330
47
100
AcDbScale
 70
     0
300
1:50
140
1.0
141
50.0
290
     0
  0
SCALE
  5
53
102
{ACAD_REACTORS
330
47
102
}
330
47
100
AcDbScale
 70
     0
300
1:100
140
1.0
141
100.0
290
     0
  0
SCALE
  5
54
102
{ACAD_REACTORS
330
47
102
}
330
47
100
AcDbScale
 70
     0
300
2:1
140
2.0
141
1.0
290
     0
  0
SCALE
  5
55
102
{ACAD_REACTORS
330
47
102
}
330
47
100
AcDbScale
 70
     0
300
4:1
140
4.0
141
1.0
290
     0
  0
SCALE
  5
56
102
{ACAD_REACTORS
330
47
102
}
330
47
100
AcDbScale
 70
     0
300
8:1
140
8.0
141
1.0
290
     0
  0
SCALE
  5
57
102
{ACAD_REACTORS
330
47
102
}
330
47
100
AcDbScale
 70
     0
300
10:1
140
10.0
141
1.0
290
     0
  0
SCALE
  5
58
102
{ACAD_REACTORS
330
47
102
}
330
47
100
AcDbScale
 70
     0
300
100:1
140
100.0
141
1.0
290
     0
  0
SCALE
  5
59
102
{ACAD_REACTORS
330
47
102
}
330
47
100
AcDbScale
 70
     0
300
1/128" = 1'-0"
140
0.0078125
141
12.0
290
     0
  0
SCALE
  5
5A
102
{ACAD_REACTORS
330
47
102
}
330
47
100
AcDbScale
 70
     0
300
1/64" = 1'-0"
140
0.015625
141
12.0
290
     0
  0
SCALE
  5
5B
102
{ACAD_REACTORS
330
47
102
}
330
47
100
AcDbScale
 70
     0
300
1/32" = 1'-0"
140
0.03125
141
12.0
290
     0
  0
SCALE
  5
5C
102
{ACAD_REACTORS
330
47
102
}
330
47
100
AcDbScale
 70
     0
300
1/16" = 1'-0"
140
0.0625
141
12.0
290
     0
  0
SCALE
  5
5D
102
{ACAD_REACTORS
330
47
102
}
330
47
100
AcDbScale
 70
     0
300
3/32" = 1'-0"
140
0.09375
141
12.0
290
     0
  0
SCALE
  5
5E
102
{ACAD_REACTORS
330
47
102
}
330
47
100
AcDbScale
 70
     0
300
1/8" = 1'-0"
140
0.125
141
12.0
290
     0
  0
SCALE
  5
5F
102
{ACAD_REACTORS
330
47
102
}
330
47
100
AcDbScale
 70
     0
300
3/16" = 1'-0"
140
0.1875
141
12.0
290
     0
  0
SCALE
  5
60
102
{ACAD_REACTORS
330
47
102
}
330
47
100
AcDbScale
 70
     0
300
1/4" = 1'-0"
140
0.25
141
12.0
290
     0
  0
SCALE
  5
61
102
{ACAD_REACTORS
330
47
102
}
330
47
100
AcDbScale
 70
     0
300
3/8" = 1'-0"
140
0.375
141
12.0
290
     0
  0
SCALE
  5
62
102
{ACAD_REACTORS
330
47
102
}
330
47
100
AcDbScale
 70
     0
300
1/2" = 1'-0"
140
0.5
141
12.0
290
     0
  0
SCALE
  5
63
102
{ACAD_REACTORS
330
47
102
}
330
47
100
AcDbScale
 70
     0
300
3/4" = 1'-0"
140
0.75
141
12.0
290
     0
  0
SCALE
  5
64
102
{ACAD_REACTORS
330
47
102
}
330
47
100
AcDbScale
 70
     0
300
1" = 1'-0"
140
1.0
141
12.0
290
     0
  0
SCALE
  5
65
102
{ACAD_REACTORS
330
47
102
}
330
47
100
AcDbScale
 70
     0
300
1-1/2" = 1'-0"
140
1.5
141
12.0
290
     0
  0
SCALE
  5
66
102
{ACAD_REACTORS
330
47
102
}
330
47
100
AcDbScale
 70
     0
300
3" = 1'-0"
140
3.0
141
12.0
290
     0
  0
SCALE
  5
67
102
{ACAD_REACTORS
330
47
102
}
330
47
100
AcDbScale
 70
     0
300
6" = 1'-0"
140
6.0
141
12.0
290
     0
  0
SCALE
  5
68
102
{ACAD_REACTORS
330
47
102
}
330
47
100
AcDbScale
 70
     0
300
1'-0" = 1'-0"
140
12.0
141
12.0
290
     0
  0
ENDSEC
  0
EOF
