  0
SECTION
  2
HEADER
  9
$ACADVER
  1
AC1015
  9
$ACADMAINTVER
 70
     6
  9
$DWGCODEPAGE
  3
ANSI_1252
  9
$INSBASE
 10
0.0
 20
0.0
 30
0.0
  9
$EXTMIN
 10
-3.6251183319
 20
-1.5603561388
 30
0.0
  9
$EXTMAX
 10
1.5601529309
 20
7.2103745467
 30
0.0
  9
$LIMMIN
 10
0.0
 20
0.0
  9
$LIMMAX
 10
12.0
 20
9.0
  9
$ORTHOMODE
 70
     0
  9
$REGENMODE
 70
     1
  9
$FILLMODE
 70
     1
  9
$QTEXTMODE
 70
     0
  9
$MIRRTEXT
 70
     1
  9
$LTSCALE
 40
1.0
  9
$ATTMODE
 70
     1
  9
$TEXTSIZE
 40
0.125
  9
$TRACEWID
 40
0.05
  9
$TEXTSTYLE
  7
Standard
  9
$CLAYER
  8
0
  9
$CELTYPE
  6
ByLayer
  9
$CECOLOR
 62
   256
  9
$CELTSCALE
 40
1.0
  9
$DISPSILH
 70
     0
  9
$DIMSCALE
 40
1.0
  9
$DIMASZ
 40
0.13
  9
$DIMEXO
 40
0.05
  9
$DIMDLI
 40
0.38
  9
$DIMRND
 40
0.0
  9
$DIMDLE
 40
0.0
  9
$DIMEXE
 40
0.125
  9
$DIMTP
 40
0.0
  9
$DIMTM
 40
0.0
  9
$DIMTXT
 40
0.125
  9
$DIMCEN
 40
0.09
  9
$DIMTSZ
 40
0.0
  9
$DIMTOL
 70
     0
  9
$DIMLIM
 70
     0
  9
$DIMTIH
 70
     1
  9
$DIMTOH
 70
     1
  9
$DIMSE1
 70
     0
  9
$DIMSE2
 70
     0
  9
$DIMTAD
 70
     0
  9
$DIMZIN
 70
     1
  9
$DIMBLK
  1

  9
$DIMASO
 70
     1
  9
$DIMSHO
 70
     1
  9
$DIMPOST
  1

  9
$DIMAPOST
  1

  9
$DIMALT
 70
     0
  9
$DIMALTD
 70
     2
  9
$DIMALTF
 40
25.4
  9
$DIMLFAC
 40
1.0
  9
$DIMTOFL
 70
     0
  9
$DIMTVP
 40
0.0
  9
$DIMTIX
 70
     0
  9
$DIMSOXD
 70
     0
  9
$DIMSAH
 70
     0
  9
$DIMBLK1
  1

  9
$DIMBLK2
  1

  9
$DIMSTYLE
  2
Standard
  9
$DIMCLRD
 70
     0
  9
$DIMCLRE
 70
     0
  9
$DIMCLRT
 70
     0
  9
$DIMTFAC
 40
1.0
  9
$DIMGAP
 40
0.06
  9
$DIMJUST
 70
     0
  9
$DIMSD1
 70
     0
  9
$DIMSD2
 70
     0
  9
$DIMTOLJ
 70
     1
  9
$DIMTZIN
 70
     1
  9
$DIMALTZ
 70
     0
  9
$DIMALTTZ
 70
     0
  9
$DIMUPT
 70
     0
  9
$DIMDEC
 70
     3
  9
$DIMTDEC
 70
     3
  9
$DIMALTU
 70
     2
  9
$DIMALTTD
 70
     2
  9
$DIMTXSTY
  7
Standard
  9
$DIMAUNIT
 70
     0
  9
$DIMADEC
 70
     2
  9
$DIMALTRND
 40
0.0
  9
$DIMAZIN
 70
     0
  9
$DIMDSEP
 70
    46
  9
$DIMATFIT
 70
     3
  9
$DIMFRAC
 70
     0
  9
$DIMLDRBLK
  1

  9
$DIMLUNIT
 70
     2
  9
$DIMLWD
 70
    -2
  9
$DIMLWE
 70
    -2
  9
$DIMTMOVE
 70
     0
  9
$LUNITS
 70
     2
  9
$LUPREC
 70
     3
  9
$SKETCHINC
 40
0.1
  9
$FILLETRAD
 40
0.5
  9
$AUNITS
 70
     0
  9
$AUPREC
 70
     2
  9
$MENU
  1
.
  9
$ELEVATION
 40
0.0
  9
$PELEVATION
 40
0.0
  9
$THICKNESS
 40
0.0
  9
$LIMCHECK
 70
     0
  9
$CHAMFERA
 40
0.0
  9
$CHAMFERB
 40
0.0
  9
$CHAMFERC
 40
0.0
  9
$CHAMFERD
 40
0.0
  9
$SKPOLY
 70
     0
  9
$TDCREATE
 40
2458953.607897963
  9
$TDUCREATE
 40
2458953.774564629
  9
$TDUPDATE
 40
2458953.607936134
  9
$TDUUPDATE
 40
2458953.774602801
  9
$TDINDWG
 40
0.0000000116
  9
$TDUSRTIMER
 40
0.0000000116
  9
$USRTIMER
 70
     1
  9
$ANGBASE
 50
0.0
  9
$ANGDIR
 70
     0
  9
$PDMODE
 70
     0
  9
$PDSIZE
 40
-1.0
  9
$PLINEWID
 40
0.0
  9
$SPLFRAME
 70
     0
  9
$SPLINETYPE
 70
     6
  9
$SPLINESEGS
 70
     8
  9
$HANDSEED
  5
16E
  9
$SURFTAB1
 70
     6
  9
$SURFTAB2
 70
     6
  9
$SURFTYPE
 70
     6
  9
$SURFU
 70
     6
  9
$SURFV
 70
     6
  9
$UCSBASE
  2

  9
$UCSNAME
  2

  9
$UCSORG
 10
0.0
 20
0.0
 30
0.0
  9
$UCSXDIR
 10
1.0
 20
0.0
 30
0.0
  9
$UCSYDIR
 10
0.0
 20
1.0
 30
0.0
  9
$UCSORTHOREF
  2

  9
$UCSORTHOVIEW
 70
     0
  9
$UCSORGTOP
 10
0.0
 20
0.0
 30
0.0
  9
$UCSORGBOTTOM
 10
0.0
 20
0.0
 30
0.0
  9
$UCSORGLEFT
 10
0.0
 20
0.0
 30
0.0
  9
$UCSORGRIGHT
 10
0.0
 20
0.0
 30
0.0
  9
$UCSORGFRONT
 10
0.0
 20
0.0
 30
0.0
  9
$UCSORGBACK
 10
0.0
 20
0.0
 30
0.0
  9
$PUCSBASE
  2

  9
$PUCSNAME
  2

  9
$PUCSORG
 10
0.0
 20
0.0
 30
0.0
  9
$PUCSXDIR
 10
1.0
 20
0.0
 30
0.0
  9
$PUCSYDIR
 10
0.0
 20
1.0
 30
0.0
  9
$PUCSORTHOREF
  2

  9
$PUCSORTHOVIEW
 70
     0
  9
$PUCSORGTOP
 10
0.0
 20
0.0
 30
0.0
  9
$PUCSORGBOTTOM
 10
0.0
 20
0.0
 30
0.0
  9
$PUCSORGLEFT
 10
0.0
 20
0.0
 30
0.0
  9
$PUCSORGRIGHT
 10
0.0
 20
0.0
 30
0.0
  9
$PUCSORGFRONT
 10
0.0
 20
0.0
 30
0.0
  9
$PUCSORGBACK
 10
0.0
 20
0.0
 30
0.0
  9
$USERI1
 70
     0
  9
$USERI2
 70
     0
  9
$USERI3
 70
     0
  9
$USERI4
 70
     0
  9
$USERI5
 70
     0
  9
$USERR1
 40
0.0
  9
$USERR2
 40
0.0
  9
$USERR3
 40
0.0
  9
$USERR4
 40
0.0
  9
$USERR5
 40
0.0
  9
$WORLDVIEW
 70
     1
  9
$SHADEDGE
 70
     3
  9
$SHADEDIF
 70
    70
  9
$TILEMODE
 70
     1
  9
$MAXACTVP
 70
    64
  9
$PINSBASE
 10
0.0
 20
0.0
 30
0.0
  9
$PLIMCHECK
 70
     0
  9
$PEXTMIN
 10
1.0000000000E+20
 20
1.0000000000E+20
 30
1.0000000000E+20
  9
$PEXTMAX
 10
-1.0000000000E+20
 20
-1.0000000000E+20
 30
-1.0000000000E+20
  9
$PLIMMIN
 10
0.0
 20
0.0
  9
$PLIMMAX
 10
12.0
 20
9.0
  9
$UNITMODE
 70
     0
  9
$VISRETAIN
 70
     1
  9
$PLINEGEN
 70
     0
  9
$PSLTSCALE
 70
     1
  9
$TREEDEPTH
 70
  3020
  9
$CMLSTYLE
  2
Standard
  9
$CMLJUST
 70
     0
  9
$CMLSCALE
 40
1.0
  9
$PROXYGRAPHICS
 70
     1
  9
$MEASUREMENT
 70
     0
  9
$CELWEIGHT
370
    -1
  9
$ENDCAPS
280
     0
  9
$JOINSTYLE
280
     0
  9
$LWDISPLAY
290
     1
  9
$INSUNITS
 70
     1
  9
$HYPERLINKBASE
  1

  9
$STYLESHEET
  1

  9
$XEDIT
290
     1
  9
$CEPSNTYPE
380
     0
  9
$PSTYLEMODE
290
     1
  9
$FINGERPRINTGUID
  2
{0232971d-b67b-4e2a-a741-1e2c49884c4d}
  9
$VERSIONGUID
  2
{FAEB1C32-E019-11D5-929B-00C0DF256EC4}
  9
$EXTNAMES
290
     1
  9
$PSVPSCALE
 40
0.0
  9
$OLESTARTUP
290
     0
  0
ENDSEC
  0
SECTION
  2
CLASSES
  0
CLASS
  1
ACDBDICTIONARYWDFLT
  2
AcDbDictionaryWithDefault
  3
ObjectDBX Classes
 90
        0
280
     0
281
     0
  0
CLASS
  1
VISUALSTYLE
  2
AcDbVisualStyle
  3
ObjectDBX Classes
 90
     4095
280
     0
281
     0
  0
CLASS
  1
MATERIAL
  2
AcDbMaterial
  3
ObjectDBX Classes
 90
     1153
280
     0
281
     0
  0
CLASS
  1
SCALE
  2
AcDbScale
  3
ObjectDBX Classes
 90
     1153
280
     0
281
     0
  0
CLASS
  1
TABLESTYLE
  2
AcDbTableStyle
  3
ObjectDBX Classes
 90
     4095
280
     0
281
     0
  0
CLASS
  1
MLEADERSTYLE
  2
AcDbMLeaderStyle
  3
ACDB_MLEADERSTYLE_CLASS
 90
     4095
280
     0
281
     0
  0
CLASS
  1
SUN
  2
AcDbSun
  3
SCENEOE
 90
     1153
280
     0
281
     0
  0
CLASS
  1
ACDBPLACEHOLDER
  2
AcDbPlaceHolder
  3
ObjectDBX Classes
 90
        0
280
     0
281
     0
  0
CLASS
  1
LAYOUT
  2
AcDbLayout
  3
ObjectDBX Classes
 90
        0
280
     0
281
     0
  0
ENDSEC
  0
SECTION
  2
TABLES
  0
TABLE
  2
VPORT
  5
8
330
0
100
AcDbSymbolTable
 70
     1
  0
VPORT
  5
29
330
8
100
AcDbSymbolTableRecord
100
AcDbViewportTableRecord
  2
*Active
 70
     0
 10
0.0
 20
0.0
 11
1.0
 21
1.0
 12
-1.0324827005
 22
2.825009204
 13
0.0
 23
0.0
 14
0.5
 24
0.5
 15
0.5
 25
0.5
 16
0.0
 26
0.0
 36
1.0
 17
0.0
 27
0.0
 37
0.0
 40
8.9461452991
 41
0.5912017423
 42
50.0
 43
0.0
 44
0.0
 50
0.0
 51
0.0
 71
     0
 72
   100
 73
     1
 74
     3
 75
     0
 76
     0
 77
     0
 78
     0
281
     0
 65
     1
110
0.0
120
0.0
130
0.0
111
1.0
121
0.0
131
0.0
112
0.0
122
1.0
132
0.0
 79
     0
146
0.0
  0
ENDTAB
  0
TABLE
  2
LTYPE
  5
5
330
0
100
AcDbSymbolTable
 70
     6
  0
LTYPE
  5
14
330
5
100
AcDbSymbolTableRecord
100
AcDbLinetypeTableRecord
  2
ByBlock
 70
     0
  3

 72
    65
 73
     0
 40
0.0
  0
LTYPE
  5
15
330
5
100
AcDbSymbolTableRecord
100
AcDbLinetypeTableRecord
  2
ByLayer
 70
     0
  3

 72
    65
 73
     0
 40
0.0
  0
LTYPE
  5
16
330
5
100
AcDbSymbolTableRecord
100
AcDbLinetypeTableRecord
  2
Continuous
 70
     0
  3
Solid line
 72
    65
 73
     0
 40
0.0
  0
LTYPE
  5
6E
330
5
100
AcDbSymbolTableRecord
100
AcDbLinetypeTableRecord
  2
HIDDEN
 70
     0
  3
Hidden __ __ __ __ __ __ __ __ __ __ __ __ __ __
 72
    65
 73
     2
 40
0.075
 49
0.05
 74
     0
 49
-0.025
 74
     0
  0
LTYPE
  5
6F
330
5
100
AcDbSymbolTableRecord
100
AcDbLinetypeTableRecord
  2
PHANTOM
 70
     0
  3
Phantom ______  __  __  ______  __  __  ______
 72
    65
 73
     6
 40
0.5
 49
0.25
 74
     0
 49
-0.05
 74
     0
 49
0.05
 74
     0
 49
-0.05
 74
     0
 49
0.05
 74
     0
 49
-0.05
 74
     0
  0
LTYPE
  5
70
330
5
100
AcDbSymbolTableRecord
100
AcDbLinetypeTableRecord
  2
CENTER
 70
     0
  3
Center ____ _ ____ _ ____ _ ____ _ ____ _ ____
 72
    65
 73
     4
 40
0.4
 49
0.25
 74
     0
 49
-0.05
 74
     0
 49
0.05
 74
     0
 49
-0.05
 74
     0
  0
LTYPE
  5
71
330
5
100
AcDbSymbolTableRecord
100
AcDbLinetypeTableRecord
  2
CENTERX2
 70
     0
  3
Center (2x) ________  __  ________  __  _____
 72
    65
 73
     4
 40
0.8
 49
0.5
 74
     0
 49
-0.1
 74
     0
 49
0.1
 74
     0
 49
-0.1
 74
     0
  0
LTYPE
  5
72
330
5
100
AcDbSymbolTableRecord
100
AcDbLinetypeTableRecord
  2
DOT2
 70
     0
  3
Dot (.5x) ........................................
 72
    65
 73
     2
 40
0.025
 49
0.0
 74
     0
 49
-0.025
 74
     0
  0
ENDTAB
  0
TABLE
  2
LAYER
  5
2
330
0
100
AcDbSymbolTable
 70
     1
  0
LAYER
  5
10
330
2
100
AcDbSymbolTableRecord
100
AcDbLayerTableRecord
  2
0
 70
     0
 62
     7
  6
Continuous
370
    -3
390
F
  0
ENDTAB
  0
TABLE
  2
STYLE
  5
3
330
0
100
AcDbSymbolTable
 70
     1
  0
STYLE
  5
11
330
3
100
AcDbSymbolTableRecord
100
AcDbTextStyleTableRecord
  2
Standard
 70
     0
 40
0.0
 41
1.0
 50
0.0
 71
     0
 42
0.125
  3
txt
  4

  0
ENDTAB
  0
TABLE
  2
VIEW
  5
6
330
0
100
AcDbSymbolTable
 70
     0
  0
ENDTAB
  0
TABLE
  2
UCS
  5
7
330
0
100
AcDbSymbolTable
 70
     0
  0
ENDTAB
  0
TABLE
  2
APPID
  5
9
330
0
100
AcDbSymbolTable
 70
     1
  0
APPID
  5
12
330
9
100
AcDbSymbolTableRecord
100
AcDbRegAppTableRecord
  2
ACAD
 70
     0
  0
ENDTAB
  0
TABLE
  2
DIMSTYLE
  5
A
330
0
100
AcDbSymbolTable
 70
     1
100
AcDbDimStyleTable
  0
DIMSTYLE
105
27
330
A
100
AcDbSymbolTableRecord
100
AcDbDimStyleTableRecord
  2
Standard
 70
     0
178
     0
340
11
  0
ENDTAB
  0
TABLE
  2
BLOCK_RECORD
  5
1
330
0
100
AcDbSymbolTable
 70
     1
  0
BLOCK_RECORD
  5
1F
330
1
100
AcDbSymbolTableRecord
100
AcDbBlockTableRecord
  2
*Model_Space
340
22
  0
BLOCK_RECORD
  5
1B
330
1
100
AcDbSymbolTableRecord
100
AcDbBlockTableRecord
  2
*Paper_Space
340
1E
  0
BLOCK_RECORD
  5
23
330
1
100
AcDbSymbolTableRecord
100
AcDbBlockTableRecord
  2
*Paper_Space0
340
26
  0
ENDTAB
  0
ENDSEC
  0
SECTION
  2
BLOCKS
  0
BLOCK
  5
20
330
1F
100
AcDbEntity
  8
0
100
AcDbBlockBegin
  2
*Model_Space
 70
     0
 10
0.0
 20
0.0
 30
0.0
  3
*Model_Space
  1

  0
ENDBLK
  5
21
330
1F
100
AcDbEntity
  8
0
100
AcDbBlockEnd
  0
BLOCK
  5
1C
330
1B
100
AcDbEntity
 67
     1
  8
0
100
AcDbBlockBegin
  2
*Paper_Space
 70
     0
 10
0.0
 20
0.0
 30
0.0
  3
*Paper_Space
  1

  0
ENDBLK
  5
1D
330
1B
100
AcDbEntity
 67
     1
  8
0
100
AcDbBlockEnd
  0
BLOCK
  5
24
330
23
100
AcDbEntity
  8
0
100
AcDbBlockBegin
  2
*Paper_Space0
 70
     0
 10
0.0
 20
0.0
 30
0.0
  3
*Paper_Space0
  1

  0
ENDBLK
  5
25
330
23
100
AcDbEntity
  8
0
100
AcDbBlockEnd
  0
ENDSEC
  0
SECTION
  2
ENTITIES
  0
ARC
  5
73
330
1F
100
AcDbEntity
  8
0
  6
Continuous
 62
     7
370
    25
100
AcDbCircle
 10
0.0
 20
0.0
 30
0.0
 40
1.5625
100
AcDbArc
 50
166.4672627368
 51
196.0546806282
  0
ARC
  5
74
330
1F
100
AcDbEntity
  8
0
  6
Continuous
 62
     7
370
    25
100
AcDbCircle
 10
-1.4414973027
 20
-0.4148319255
 30
0.0
 40
0.0625
100
AcDbArc
 50
196.0546806282
 51
288.4426960915
  0
LINE
  5
75
330
1F
100
AcDbEntity
  8
0
  6
Continuous
 62
     7
370
    25
100
AcDbLine
 10
-1.4107580076
 20
-0.47046463
 30
0.0
 11
-1.4217250502
 21
-0.4741219586
 31
0.0
  0
ARC
  5
76
330
1F
100
AcDbEntity
  8
0
  6
Continuous
 62
     7
370
    25
100
AcDbCircle
 10
-1.3909857551
 20
-0.5297546632
 30
0.0
 40
0.0625000000000001
100
AcDbArc
 50
20.8492539229
 51
108.4426960915
  0
ARC
  5
77
330
1F
100
AcDbEntity
  8
0
  6
Continuous
 62
     7
370
    25
100
AcDbCircle
 10
0.0
 20
0.0
 30
0.0
 40
1.425949318622793
100
AcDbArc
 50
200.8492539229
 51
239.9055273062
  0
ARC
  5
78
330
1F
100
AcDbEntity
  8
0
  6
Continuous
 62
     7
370
    25
100
AcDbCircle
 10
-0.0040723796
 20
-0.0023511902
 30
0.0
 40
1.421875000000002
100
AcDbArc
 50
240.0
 51
240.7806817329
  0
ARC
  5
79
330
1F
100
AcDbEntity
  8
0
  6
Continuous
 62
     7
370
    25
100
AcDbCircle
 10
-0.7077034358
 20
-1.2603545412
 30
0.0
 40
0.0195371875633509
100
AcDbArc
 50
331.5573039085
 51
60.7806817329
  0
LINE
  5
7A
330
1F
100
AcDbEntity
  8
0
  6
Continuous
 62
     7
370
    25
100
AcDbLine
 10
-0.6957358069
 20
-1.2792806612
 30
0.0
 11
-0.6905245059
 21
-1.2696597047
 31
0.0
  0
SPLINE
  5
7B
330
1F
100
AcDbEntity
  8
0
  6
Continuous
 62
     7
370
    25
100
AcDbSpline
210
0.0
220
0.0
230
1.0
 70
     8
 71
     4
 72
    30
 73
    25
 74
     0
 42
0.000000001
 43
0.00000001
 40
0.1468992841025787
 40
0.1468992841025787
 40
0.1468992841025787
 40
0.1468992841025787
 40
0.1468992841025787
 40
0.1641972261336471
 40
0.2189295268191453
 40
0.2736619316695276
 40
0.3283942982642787
 40
0.3831266318023283
 40
0.4378589770028988
 40
0.4925912529856677
 40
0.5473235620026173
 40
0.6020558817592608
 40
0.652783568933083
 40
0.6801499008181584
 40
0.7075159582806415
 40
0.7348820599390721
 40
0.7622484179955665
 40
0.789614737865057
 40
0.8169803882616113
 40
0.8442360645756393
 40
0.8624807742783243
 40
0.894007225739611
 40
0.9037141653194946
 40
0.9090909141271956
 40
0.9090909141271956
 40
0.9090909141271956
 40
0.9090909141271956
 40
0.9090909141271956
 10
-0.7197682984365571
 20
-1.371897379701023
 30
0.0
 10
-0.7196962898709521
 20
-1.371358939733819
 30
0.0
 10
-0.719390955498371
 20
-1.369093232557569
 30
0.0
 10
-0.7188147531529884
 20
-1.364947647396619
 30
0.0
 10
-0.717985345230944
 20
-1.359564988456426
 30
0.0
 10
-0.7168381845660274
 20
-1.352571041497269
 30
0.0
 10
-0.7156231629720922
 20
-1.345908222026819
 30
0.0
 10
-0.7142853972041344
 20
-1.339073499110086
 30
0.0
 10
-0.7128504989213076
 20
-1.332378485589122
 30
0.0
 10
-0.7112934013792417
 20
-1.325635924737968
 30
0.0
 10
-0.7096494656882835
 20
-1.319091975896648
 30
0.0
 10
-0.7081024664097273
 20
-1.313381606967775
 30
0.0
 10
-0.7066987983899943
 20
-1.308544844909921
 30
0.0
 10
-0.7054746259564263
 20
-1.304543469369745
 30
0.0
 10
-0.7044258749526429
 20
-1.30126311152114
 30
0.0
 10
-0.7033338609346352
 20
-1.297993578004957
 30
0.0
 10
-0.7021957550992174
 20
-1.294741922824312
 30
0.0
 10
-0.7010083425289145
 20
-1.291510250546067
 30
0.0
 10
-0.6998685742999297
 20
-1.28856835654947
 30
0.0
 10
-0.6986271560193419
 20
-1.285525337087639
 30
0.0
 10
-0.6975390370170809
 20
-1.283021180603988
 30
0.0
 10
-0.6966845171390665
 20
-1.281166819159904
 30
0.0
 10
-0.6960338910917798
 20
-1.279851578688792
 30
0.0
 10
-0.6958151670802459
 20
-1.279430158533462
 30
0.0
 10
-0.6957358068556023
 20
-1.279280661195946
 30
0.0
  0
ARC
  5
7C
330
1F
100
AcDbEntity
  8
0
  6
Continuous
 62
     7
370
    25
100
AcDbCircle
 10
-0.6999447865
 20
-1.374548488
 30
0.0
 40
0.0200000000000054
100
AcDbArc
 50
172.3827149991
 51
243.0139881052
  0
ARC
  5
7D
330
1F
100
AcDbEntity
  8
0
  6
Continuous
 62
     7
370
    25
100
AcDbCircle
 10
0.0
 20
0.0
 30
0.0
 40
1.5625
100
AcDbArc
 50
243.0139881052
 51
244.3044204553
  0
ARC
  5
7E
330
1F
100
AcDbEntity
  8
0
  6
Continuous
 62
     7
370
    25
100
AcDbCircle
 10
-0.6688119022
 20
-1.3899629094
 30
0.0
 40
0.0200000000000002
100
AcDbArc
 50
244.3044204553
 51
315.1124577875
  0
SPLINE
  5
7F
330
1F
100
AcDbEntity
  8
0
  6
Continuous
 62
     7
370
    25
100
AcDbSpline
210
0.0
220
0.0
230
1.0
 70
     8
 71
     4
 72
    30
 73
    25
 74
     0
 42
0.000000001
 43
0.00000001
 40
0.0
 40
0.0
 40
0.0
 40
0.0
 40
0.0
 40
0.005376748807701
 40
0.0150836883875846
 40
0.0466101398488713
 40
0.0648548495515563
 40
0.0921105258655842
 40
0.1194761762621386
 40
0.146842496131629
 40
0.1742088541881235
 40
0.201574955846554
 40
0.2289410133090372
 40
0.2563073451941125
 40
0.3070350323679347
 40
0.3617673521245782
 40
0.4164996611415279
 40
0.4712319371242968
 40
0.5259642823248672
 40
0.5806966158629169
 40
0.635428982457668
 40
0.6901613873080502
 40
0.7448936879935485
 40
0.7626677483626427
 40
0.7626677483626427
 40
0.7626677483626427
 40
0.7626677483626427
 40
0.7626677483626427
 10
-0.5957521192727784
 20
-1.328587159352425
 30
0.0
 10
-0.595822412041101
 20
-1.328741128264552
 30
0.0
 10
-0.5960235963871782
 20
-1.329171198025676
 30
0.0
 10
-0.5966709707659242
 20
-1.330488042042256
 30
0.0
 10
-0.5976219358696393
 20
-1.332294841964423
 30
0.0
 10
-0.598946211901808
 20
-1.33468253868895
 30
0.0
 10
-0.6006046739899346
 20
-1.337519894904638
 30
0.0
 10
-0.602244788483102
 20
-1.340215045429622
 30
0.0
 10
-0.6040857955066535
 20
-1.343124400592768
 30
0.0
 10
-0.6059726720709607
 20
-1.346006802913314
 30
0.0
 10
-0.6079017913931191
 20
-1.348863521777649
 30
0.0
 10
-0.609865835089923
 20
-1.351692507221211
 30
0.0
 10
-0.6122951107804693
 20
-1.355099591602313
 30
0.0
 10
-0.6152778731657154
 20
-1.359157630496543
 30
0.0
 10
-0.6188664599382425
 20
-1.363861199890921
 30
0.0
 10
-0.6230573589697719
 20
-1.369149125410568
 30
0.0
 10
-0.627458691218338
 20
-1.374489064925652
 30
0.0
 10
-0.6318966918293536
 20
-1.379703112269566
 30
0.0
 10
-0.6365046618847282
 20
-1.384925148899772
 30
0.0
 10
-0.6410509736855668
 20
-1.389945157841906
 30
0.0
 10
-0.6459012977017565
 20
-1.395112906732535
 30
0.0
 10
-0.649676614526803
 20
-1.399057997558458
 30
0.0
 10
-0.6526269562575983
 20
-1.402050874810763
 30
0.0
 10
-0.6542484621320289
 20
-1.40368213799666
 30
0.0
 10
-0.6546420362809697
 20
-1.404077260168117
 30
0.0
  0
LINE
  5
80
330
1F
100
AcDbEntity
  8
0
  6
Continuous
 62
     7
370
    25
100
AcDbLine
 10
-0.5912917403
 20
-1.3185958891
 30
0.0
 11
-0.5957521193
 21
-1.3285871594
 31
0.0
  0
ARC
  5
81
330
1F
100
AcDbEntity
  8
0
  6
Continuous
 62
     7
370
    25
100
AcDbCircle
 10
-0.5734515879
 20
-1.3265602259
 30
0.0
 40
0.019537187563351
100
AcDbArc
 50
66.7193182671
 51
155.9426960915
  0
ARC
  5
82
330
1F
100
AcDbEntity
  8
0
  6
Continuous
 62
     7
370
    25
100
AcDbCircle
 10
-0.0037538745
 20
-0.0025082595
 30
0.0
 40
1.421875000000002
100
AcDbArc
 50
246.7193182671
 51
248.2806817329
  0
ARC
  5
83
330
1F
100
AcDbEntity
  8
0
  6
Continuous
 62
     7
370
    25
100
AcDbCircle
 10
-0.5371628822
 20
-1.3415914999
 30
0.0
 40
0.0195371875633511
100
AcDbArc
 50
339.0573039085
 51
68.2806817329
  0
LINE
  5
84
330
1F
100
AcDbEntity
  8
0
  6
Continuous
 62
     7
370
    25
100
AcDbLine
 10
-0.5228272837
 20
-1.3587936153
 30
0.0
 11
-0.518916353
 21
-1.3485747562
 31
0.0
  0
SPLINE
  5
85
330
1F
100
AcDbEntity
  8
0
  6
Continuous
 62
     7
370
    25
100
AcDbSpline
210
0.0
220
0.0
230
1.0
 70
     8
 71
     4
 72
    30
 73
    25
 74
     0
 42
0.000000001
 43
0.00000001
 40
0.1440578326978259
 40
0.1440578326978259
 40
0.1440578326978259
 40
0.1440578326978259
 40
0.1440578326978259
 40
0.1641972261336471
 40
0.2189295268191453
 40
0.2736619316695276
 40
0.3283942982642787
 40
0.3831266318023283
 40
0.4378589770028988
 40
0.4925912529856677
 40
0.5473235620026173
 40
0.6020558817592608
 40
0.652783568933083
 40
0.6801499008181584
 40
0.7075159582806415
 40
0.7348820599390721
 40
0.7622484179955665
 40
0.789614737865057
 40
0.8169803882616113
 40
0.8442360645756393
 40
0.8624807742783243
 40
0.894007225739611
 40
0.9037141653194946
 40
0.9090909141271956
 40
0.9090909141271956
 40
0.9090909141271956
 40
0.9090909141271956
 40
0.9090909141271956
 10
-0.5345659056175527
 20
-1.45411084758113
 30
0.0
 10
-0.5345649343704635
 20
-1.45348173471917
 30
0.0
 10
-0.5345584917564288
 20
-1.451113268980349
 30
0.0
 10
-0.5345288753990881
 20
-1.446825359369696
 30
0.0
 10
-0.5344072666156934
 20
-1.441295246532029
 30
0.0
 10
-0.5341828133344595
 20
-1.434211399245195
 30
0.0
 10
-0.5338478588736217
 20
-1.427446988976835
 30
0.0
 10
-0.5334136482344585
 20
-1.420496124590351
 30
0.0
 10
-0.5328649003271089
 20
-1.413671096029083
 30
0.0
 10
-0.5322012047640828
 20
-1.406782976707625
 30
0.0
 10
-0.5314254898951937
 20
-1.400080435589811
 30
0.0
 10
-0.5306370781223778
 20
-1.394216995733534
 30
0.0
 10
-0.5298767428112248
 20
-1.389238397403829
 30
0.0
 10
-0.52918532765543
 20
-1.385111467619721
 30
0.0
 10
-0.5285737214809658
 20
-1.381722284212143
 30
0.0
 10
-0.5279178095544673
 20
-1.378338185576812
 30
0.0
 10
-0.5272138665413849
 20
-1.374965796135962
 30
0.0
 10
-0.5264584303272096
 20
-1.371606782820656
 30
0.0
 10
-0.5257124071947165
 20
-1.368541287528081
 30
0.0
 10
-0.5248788031628164
 20
-1.365362263918471
 30
0.0
 10
-0.5241268511799958
 20
-1.362737502810632
 30
0.0
 10
-0.5235216845762928
 20
-1.360787468459911
 30
0.0
 10
-0.5230482980555823
 20
-1.359398556312845
 30
0.0
 10
-0.522886451626488
 20
-1.358952192252991
 30
0.0
 10
-0.5228272836577805
 20
-1.358793615297985
 30
0.0
  0
ARC
  5
86
330
1F
100
AcDbEntity
  8
0
  6
Continuous
 62
     7
370
    25
100
AcDbCircle
 10
-0.5145659295
 20
-1.4541417243
 30
0.0
 40
0.0199999999999999
100
AcDbArc
 50
179.9115447825
 51
250.5130484631
  0
ARC
  5
87
330
1F
100
AcDbEntity
  8
0
  6
Continuous
 62
     7
370
    25
100
AcDbCircle
 10
0.0
 20
0.0
 30
0.0
 40
1.5625
100
AcDbArc
 50
250.5130484631
 51
251.7952284897
  0
ARC
  5
88
330
1F
100
AcDbEntity
  8
0
  6
Continuous
 62
     7
370
    25
100
AcDbCircle
 10
-0.4818986409
 20
-1.4652917627
 30
0.0
 40
0.0200000000000012
100
AcDbArc
 50
251.7952284897
 51
322.5833443824
  0
SPLINE
  5
89
330
1F
100
AcDbEntity
  8
0
  6
Continuous
 62
     7
370
    25
100
AcDbSpline
210
0.0
220
0.0
230
1.0
 70
     8
 71
     4
 72
    30
 73
    25
 74
     0
 42
0.000000001
 43
0.00000001
 40
0.0
 40
0.0
 40
0.0
 40
0.0
 40
0.0
 40
0.005376748807701
 40
0.0150836883875846
 40
0.0466101398488713
 40
0.0648548495515563
 40
0.0921105258655842
 40
0.1194761762621386
 40
0.146842496131629
 40
0.1742088541881235
 40
0.201574955846554
 40
0.2289410133090372
 40
0.2563073451941125
 40
0.3070350323679347
 40
0.3617673521245782
 40
0.4164996611415279
 40
0.4712319371242968
 40
0.5259642823248672
 40
0.5806966158629169
 40
0.635428982457668
 40
0.6901613873080502
 40
0.7448936879935485
 40
0.7655354438128749
 40
0.7655354438128749
 40
0.7655354438128749
 40
0.7655354438128749
 40
0.7655354438128749
 10
-0.4172631809265163
 20
-1.394627799503258
 30
0.0
 10
-0.4173127753546412
 20
-1.394789626237387
 30
0.0
 10
-0.4174561031724397
 20
-1.395242276518714
 30
0.0
 10
-0.4179260565384007
 20
-1.396632354064781
 30
0.0
 10
-0.4186330512898809
 20
-1.398547822417066
 30
0.0
 10
-0.4196343409953862
 20
-1.401087944773045
 30
0.0
 10
-0.4209082654076368
 20
-1.404117499754281
 30
0.0
 10
-0.4221825607584666
 20
-1.407003670792503
 30
0.0
 10
-0.4236280706604584
 20
-1.410128435655549
 30
0.0
 10
-0.4251225757348403
 20
-1.413232465437795
 30
0.0
 10
-0.4266623145381664
 20
-1.416316545275689
 30
0.0
 10
-0.4282402988710821
 20
-1.419377687501708
 30
0.0
 10
-0.4302040780204969
 20
-1.423072707909358
 30
0.0
 10
-0.4326316420953035
 20
-1.427485358334741
 30
0.0
 10
-0.4355755890076287
 20
-1.432617092607781
 30
0.0
 10
-0.4390404215341522
 20
-1.438406801284127
 30
0.0
 10
-0.4427070978036024
 20
-1.444275546015505
 30
0.0
 10
-0.4464265609583117
 20
-1.450024261782414
 30
0.0
 10
-0.4503134966341027
 20
-1.45580308395053
 30
0.0
 10
-0.4541656714551201
 20
-1.461373558788267
 30
0.0
 10
-0.4582999736919262
 20
-1.467130191195619
 30
0.0
 10
-0.4615789260192564
 20
-1.471603713743416
 30
0.0
 10
-0.4641768901052591
 20
-1.47503792800771
 30
0.0
 10
-0.4656224632034951
 20
-1.476932253593806
 30
0.0
 10
-0.4660138803595612
 20
-1.47744389766444
 30
0.0
  0
LINE
  5
8A
330
1F
100
AcDbEntity
  8
0
  6
Continuous
 62
     7
370
    25
100
AcDbLine
 10
-0.4141450836
 20
-1.3841398097
 30
0.0
 11
-0.4172631809
 21
-1.3946277995
 31
0.0
  0
ARC
  5
8B
330
1F
100
AcDbEntity
  8
0
  6
Continuous
 62
     7
370
    25
100
AcDbCircle
 10
-0.3954180016
 20
-1.3897074033
 30
0.0
 40
0.019537187563351
100
AcDbArc
 50
74.2193182671
 51
163.4426960915
  0
ARC
  5
8C
330
1F
100
AcDbEntity
  8
0
  6
Continuous
 62
     7
370
    25
100
AcDbCircle
 10
-0.0034175926
 20
-0.0026224117
 30
0.0
 40
1.421875000000002
100
AcDbArc
 50
254.2193182671
 51
255.7806817329
  0
ARC
  5
8D
330
1F
100
AcDbEntity
  8
0
  6
Continuous
 62
     7
370
    25
100
AcDbCircle
 10
-0.3574777759
 20
-1.3998734561
 30
0.0
 40
0.0195371875633513
100
AcDbArc
 50
346.5573039085
 51
75.7806817329
  0
LINE
  5
8E
330
1F
100
AcDbEntity
  8
0
  6
Continuous
 62
     7
370
    25
100
AcDbLine
 10
-0.3410194937
 20
-1.4150572339
 30
0.0
 11
-0.3384758503
 21
-1.4044153197
 31
0.0
  0
SPLINE
  5
8F
330
1F
100
AcDbEntity
  8
0
  6
Continuous
 62
     7
370
    25
100
AcDbSpline
210
0.0
220
0.0
230
1.0
 70
     8
 71
     4
 72
    30
 73
    25
 74
     0
 42
0.000000001
 43
0.00000001
 40
0.1410633860352924
 40
0.1410633860352924
 40
0.1410633860352924
 40
0.1410633860352924
 40
0.1410633860352924
 40
0.1641972261336471
 40
0.2189295268191453
 40
0.2736619316695276
 40
0.3283942982642787
 40
0.3831266318023283
 40
0.4378589770028988
 40
0.4925912529856677
 40
0.5473235620026173
 40
0.6020558817592608
 40
0.652783568933083
 40
0.6801499008181584
 40
0.7075159582806415
 40
0.7348820599390721
 40
0.7622484179955665
 40
0.789614737865057
 40
0.8169803882616113
 40
0.8442360645756393
 40
0.8624807742783243
 40
0.894007225739611
 40
0.9037141653194946
 40
0.9090909141271956
 40
0.9090909141271956
 40
0.9090909141271956
 40
0.9090909141271956
 40
0.9090909141271956
 10
-0.3401680673861083
 20
-1.511461186793511
 30
0.0
 10
-0.3402611413386792
 20
-1.510748661032366
 30
0.0
 10
-0.340575643707578
 20
-1.508315141883506
 30
0.0
 10
-0.3411207612852873
 20
-1.503952541447362
 30
0.0
 10
-0.3417317845359564
 20
-1.498364543343118
 30
0.0
 10
-0.3424338790962773
 20
-1.4913120023197
 30
0.0
 10
-0.3429847229322288
 20
-1.484561742188568
 30
0.0
 10
-0.3434614968862821
 20
-1.477613667549132
 30
0.0
 10
-0.3438082885832462
 20
-1.470775402078498
 30
0.0
 10
-0.3440493510143548
 20
-1.463859581918074
 30
0.0
 10
-0.34415512966401
 20
-1.457113130860585
 30
0.0
 10
-0.3441387953409561
 20
-1.451196945158498
 30
0.0
 10
-0.3440348022863619
 20
-1.446161695754693
 30
0.0
 10
-0.3438879747133524
 20
-1.441979824639459
 30
0.0
 10
-0.343723978119422
 20
-1.438539805540672
 30
0.0
 10
-0.343515391119348
 20
-1.435099044652093
 30
0.0
 10
-0.3432576555887246
 20
-1.431663623469374
 30
0.0
 10
-0.3429471214537483
 20
-1.428234742766126
 30
0.0
 10
-0.3426076080803802
 20
-1.425098097651944
 30
0.0
 10
-0.3421960814932726
 20
-1.421837463869907
 30
0.0
 10
-0.3417931626367987
 20
-1.419137008528156
 30
0.0
 10
-0.3414477038757802
 20
-1.417124666899191
 30
0.0
 10
-0.3411596566562629
 20
-1.415685847748086
 30
0.0
 10
-0.3410574570468822
 20
-1.415222177196528
 30
0.0
 10
-0.3410194937144601
 20
-1.415057233919699
 30
0.0
  0
ARC
  5
90
330
1F
100
AcDbEntity
  8
0
  6
Continuous
 62
     7
370
    25
100
AcDbCircle
 10
-0.3203365443
 20
-1.5088706864
 30
0.0
 40
0.0200000000000068
100
AcDbArc
 50
187.4421457878
 51
258.0139453808
  0
ARC
  5
91
330
1F
100
AcDbEntity
  8
0
  6
Continuous
 62
     7
370
    25
100
AcDbCircle
 10
0.0
 20
0.0
 30
0.0
 40
1.5625
100
AcDbArc
 50
258.0139453808
 51
259.287480899
  0
ARC
  5
92
330
1F
100
AcDbEntity
  8
0
  6
Continuous
 62
     7
370
    25
100
AcDbCircle
 10
-0.2867219228
 20
-1.5156176262
 30
0.0
 40
0.020000000000005
100
AcDbArc
 50
259.287480899
 51
330.0524961951
  0
SPLINE
  5
93
330
1F
100
AcDbEntity
  8
0
  6
Continuous
 62
     7
370
    25
100
AcDbSpline
210
0.0
220
0.0
230
1.0
 70
     8
 71
     4
 72
    30
 73
    25
 74
     0
 42
0.000000001
 43
0.00000001
 40
0.0
 40
0.0
 40
0.0
 40
0.0
 40
0.0
 40
0.005376748807701
 40
0.0150836883875846
 40
0.0466101398488713
 40
0.0648548495515563
 40
0.0921105258655842
 40
0.1194761762621386
 40
0.146842496131629
 40
0.1742088541881235
 40
0.201574955846554
 40
0.2289410133090372
 40
0.2563073451941125
 40
0.3070350323679347
 40
0.3617673521245782
 40
0.4164996611415279
 40
0.4712319371242968
 40
0.5259642823248672
 40
0.5806966158629169
 40
0.635428982457668
 40
0.6901613873080502
 40
0.7448936879935485
 40
0.7685476447784312
 40
0.7685476447784312
 40
0.7685476447784312
 40
0.7685476447784312
 40
0.7685476447784312
 10
-0.2316812069003849
 20
-1.436805971346901
 30
0.0
 10
-0.2317092544138969
 20
-1.436972887002745
 30
0.0
 10
-0.2317922733247163
 20
-1.437440372832461
 30
0.0
 10
-0.2320767646455049
 20
-1.438879899295801
 30
0.0
 10
-0.2325276921685364
 20
-1.440871261883628
 30
0.0
 10
-0.2331888632029072
 20
-1.443520347673293
 30
0.0
 10
-0.2340564527393897
 20
-1.446690264894396
 30
0.0
 10
-0.2349431254011275
 20
-1.449718073259195
 30
0.0
 10
-0.2359684051063659
 20
-1.453004782228987
 30
0.0
 10
-0.2370449672946446
 20
-1.456277328662759
 30
0.0
 10
-0.2381689802213172
 20
-1.459536000013117
 30
0.0
 10
-0.2393339054409086
 20
-1.462776922029396
 30
0.0
 10
-0.2407985872434831
 20
-1.466696655639966
 30
0.0
 10
-0.2426294167134823
 20
-1.471388415924306
 30
0.0
 10
-0.2448783520177192
 20
-1.476860509679811
 30
0.0
 10
-0.247557833794075
 20
-1.483052937992193
 30
0.0
 10
-0.2504271162368444
 20
-1.489350072090387
 30
0.0
 10
-0.2533644008894402
 20
-1.495535094159675
 30
0.0
 10
-0.2564637956385728
 20
-1.501771824616211
 30
0.0
 10
-0.2595559217005566
 20
-1.507797452980651
 30
0.0
 10
-0.262903463100462
 20
-1.514044471328195
 30
0.0
 10
-0.2656139138907333
 20
-1.518986964566948
 30
0.0
 10
-0.2677965792241171
 20
-1.522825177659552
 30
0.0
 10
-0.269025833700753
 20
-1.524965738952499
 30
0.0
 10
-0.2693922596963801
 20
-1.525601752453151
 30
0.0
  0
LINE
  5
94
330
1F
100
AcDbEntity
  8
0
  6
Continuous
 62
     7
370
    25
100
AcDbLine
 10
-0.2299587427
 20
-1.4260007144
 30
0.0
 11
-0.2316812069
 21
-1.4368059713
 31
0.0
  0
ARC
  5
95
330
1F
100
AcDbEntity
  8
0
  6
Continuous
 62
     7
370
    25
100
AcDbCircle
 10
-0.2106651567
 20
-1.4290763017
 30
0.0
 40
0.0195371875633511
100
AcDbArc
 50
81.7193182671
 51
170.9426960915
  0
ARC
  5
96
330
1F
100
AcDbEntity
  8
0
  6
Continuous
 62
     7
370
    25
100
AcDbCircle
 10
-0.0030692878
 20
-0.0026916938
 30
0.0
 40
1.421875000000003
100
AcDbArc
 50
261.7193182671
 51
263.2806817329
  0
ARC
  5
97
330
1F
100
AcDbEntity
  8
0
  6
Continuous
 62
     7
370
    25
100
AcDbCircle
 10
-0.1717225787
 20
-1.4342031894
 30
0.0
 40
0.0195371875633513
100
AcDbArc
 50
354.0573039085
 51
83.2806817329
  0
LINE
  5
98
330
1F
100
AcDbEntity
  8
0
  6
Continuous
 62
     7
370
    25
100
AcDbLine
 10
-0.1534232187
 20
-1.4471088309
 30
0.0
 11
-0.1522903851
 21
-1.4362259477
 31
0.0
  0
SPLINE
  5
99
330
1F
100
AcDbEntity
  8
0
  6
Continuous
 62
     7
370
    25
100
AcDbSpline
210
0.0
220
0.0
230
1.0
 70
     8
 71
     4
 72
    30
 73
    25
 74
     0
 42
0.000000001
 43
0.00000001
 40
0.1379641474284229
 40
0.1379641474284229
 40
0.1379641474284229
 40
0.1379641474284229
 40
0.1379641474284229
 40
0.1641972261336471
 40
0.2189295268191453
 40
0.2736619316695276
 40
0.3283942982642787
 40
0.3831266318023283
 40
0.4378589770028988
 40
0.4925912529856677
 40
0.5473235620026173
 40
0.6020558817592608
 40
0.652783568933083
 40
0.6801499008181584
 40
0.7075159582806415
 40
0.7348820599390721
 40
0.7622484179955665
 40
0.789614737865057
 40
0.8169803882616113
 40
0.8442360645756393
 40
0.8624807742783243
 40
0.894007225739611
 40
0.9037141653194946
 40
0.9090909141271956
 40
0.9090909141271956
 40
0.9090909141271956
 40
0.9090909141271956
 40
0.9090909141271956
 10
-0.1398967301747569
 20
-1.542947850625718
 30
0.0
 10
-0.1401060672441866
 20
-1.542165192201534
 30
0.0
 10
-0.140758593231067
 20
-1.53971004725339
 30
0.0
 10
-0.1418983645252082
 20
-1.535347183392876
 30
0.0
 10
-0.1432556299098522
 20
-1.529796407398658
 30
0.0
 10
-0.1448722592791434
 20
-1.522895843570899
 30
0.0
 10
-0.1462994763211283
 20
-1.516275232399367
 30
0.0
 10
-0.1476790771338577
 20
-1.509448830990429
 30
0.0
 10
-0.1489154747330515
 20
-1.502714333228557
 30
0.0
 10
-0.1500571705132633
 20
-1.495889143829539
 30
0.0
 10
-0.1510426327794399
 20
-1.48921421648044
 30
0.0
 10
-0.1517986553909442
 20
-1.483346512510181
 30
0.0
 10
-0.1523527839429051
 20
-1.47834076654561
 30
0.0
 10
-0.1527530562131635
 20
-1.474175507073465
 30
0.0
 10
-0.1530394752269572
 20
-1.470743511964002
 30
0.0
 10
-0.1532817821347105
 20
-1.467304961194939
 30
0.0
 10
-0.1534746640129329
 20
-1.463865289279265
 30
0.0
 10
-0.1536143452823011
 20
-1.460425210287573
 30
0.0
 10
-0.1536871508360075
 20
-1.457271084219331
 30
0.0
 10
-0.1537047430276944
 20
-1.453984630612896
 30
0.0
 10
-0.1536577513509118
 20
-1.451254686576838
 30
0.0
 10
-0.153577911327758
 20
-1.449214469392828
 30
0.0
 10
-0.1534801319772215
 20
-1.447750361832275
 30
0.0
 10
-0.1534393278512061
 20
-1.447277318320704
 30
0.0
 10
-0.1534232187182124
 20
-1.447108830947248
 30
0.0
  0
ARC
  5
9A
330
1F
100
AcDbEntity
  8
0
  6
Continuous
 62
     7
370
    25
100
AcDbCircle
 10
-0.1205758974
 20
-1.5377801218
 30
0.0
 40
0.0200000000000001
100
AcDbArc
 50
194.9743408357
 51
265.5166644591
  0
ARC
  5
9B
330
1F
100
AcDbEntity
  8
0
  6
Continuous
 62
     7
370
    25
100
AcDbCircle
 10
0.0
 20
0.0
 30
0.0
 40
1.5625
100
AcDbArc
 50
265.5166644591
 51
266.7813091069
  0
ARC
  5
9C
330
1F
100
AcDbEntity
  8
0
  6
Continuous
 62
     7
370
    25
100
AcDbCircle
 10
-0.086607073
 20
-1.5400667079
 30
0.0
 40
0.0199999999999999
100
AcDbArc
 50
266.7813091069
 51
337.5200895104
  0
SPLINE
  5
9D
330
1F
100
AcDbEntity
  8
0
  6
Continuous
 62
     7
370
    25
100
AcDbSpline
210
0.0
220
0.0
230
1.0
 70
     8
 71
     4
 72
    30
 73
    25
 74
     0
 42
0.000000001
 43
0.00000001
 40
0.0
 40
0.0
 40
0.0
 40
0.0
 40
0.0
 40
0.005376748807701
 40
0.0150836883875846
 40
0.0466101398488713
 40
0.0648548495515563
 40
0.0921105258655842
 40
0.1194761762621386
 40
0.146842496131629
 40
0.1742088541881235
 40
0.201574955846554
 40
0.2289410133090372
 40
0.2563073451941125
 40
0.3070350323679347
 40
0.3617673521245782
 40
0.4164996611415279
 40
0.4712319371242968
 40
0.5259642823248672
 40
0.5806966158629169
 40
0.635428982457668
 40
0.6901613873080502
 40
0.7448936879935485
 40
0.7716558024041242
 40
0.7716558024041242
 40
0.7716558024041242
 40
0.7716558024041242
 40
0.7716558024041242
 10
-0.0421815562230141
 20
-1.454399994669111
 30
0.0
 10
-0.0421875769211807
 20
-1.454569143273519
 30
0.0
 10
-0.0422088664484396
 20
-1.455043465839469
 30
0.0
 10
-0.0423030279986813
 20
-1.45650781052318
 30
0.0
 10
-0.0424901727983242
 20
-1.458540994580563
 30
0.0
 10
-0.0427999123418512
 20
-1.461253717211587
 30
0.0
 10
-0.0432463223050551
 20
-1.464509758510037
 30
0.0
 10
-0.0437302010626265
 20
-1.467627397560823
 30
0.0
 10
-0.0443177077510934
 20
-1.471019814135641
 30
0.0
 10
-0.0449579067757482
 20
-1.474404883044135
 30
0.0
 10
-0.0456469616529567
 20
-1.477782389136678
 30
0.0
 10
-0.0463788955657383
 20
-1.481147637868966
 30
0.0
 10
-0.0473194189097437
 20
-1.485225016953624
 30
0.0
 10
-0.0485221877751022
 20
-1.490115609777653
 30
0.0
 10
-0.0500376315646727
 20
-1.495834433974316
 30
0.0
 10
-0.0518859159147746
 20
-1.502323627757443
 30
0.0
 10
-0.0539087103127521
 20
-1.508941405512138
 30
0.0
 10
-0.0560135587084592
 20
-1.515456906441387
 30
0.0
 10
-0.0582723810274611
 20
-1.522044832999085
 30
0.0
 10
-0.0605515511961916
 20
-1.528422514718292
 30
0.0
 10
-0.0630550543977301
 20
-1.535053030790101
 30
0.0
 10
-0.0651309810161695
 20
-1.540393957012147
 30
0.0
 10
-0.0668379730114824
 20
-1.5445885025588
 30
0.0
 10
-0.067811079837453
 20
-1.546950925272302
 30
0.0
 10
-0.0681267998497504
 20
-1.547713897357335
 30
0.0
  0
LINE
  5
9E
330
1F
100
AcDbEntity
  8
0
  6
Continuous
 62
     7
370
    25
100
AcDbLine
 10
-0.041884197
 20
-1.4434623515
 30
0.0
 11
-0.0421815562
 21
-1.4543999947
 31
0.0
  0
ARC
  5
9F
330
1F
100
AcDbEntity
  8
0
  6
Continuous
 62
     7
370
    25
100
AcDbCircle
 10
-0.0223542256
 20
-1.4439933084
 30
0.0
 40
0.019537187563351
100
AcDbArc
 50
89.2193182671
 51
178.4426960915
  0
ARC
  5
A0
330
1F
100
AcDbEntity
  8
0
  6
Continuous
 62
     7
370
    25
100
AcDbCircle
 10
-0.0027149196
 20
-0.0027149203
 30
0.0
 40
1.421875000000002
100
AcDbArc
 50
269.2193182671
 51
270.7806817329
  0
ARC
  5
A1
330
1F
100
AcDbEntity
  8
0
  6
Continuous
 62
     7
370
    25
100
AcDbCircle
 10
0.0169243864
 20
-1.4439933084
 30
0.0
 40
0.019537187563351
100
AcDbArc
 50
1.5573039085
 51
90.7806817329
  0
LINE
  5
A2
330
1F
100
AcDbEntity
  8
0
  6
Continuous
 62
     7
370
    25
100
AcDbLine
 10
0.0367517171
 20
-1.4543999947
 30
0.0
 11
0.0364543578
 21
-1.4434623515
 31
0.0
  0
SPLINE
  5
A3
330
1F
100
AcDbEntity
  8
0
  6
Continuous
 62
     7
370
    25
100
AcDbSpline
210
0.0
220
0.0
230
1.0
 70
     8
 71
     4
 72
    30
 73
    25
 74
     0
 42
0.000000001
 43
0.00000001
 40
0.1348114569517135
 40
0.1348114569517135
 40
0.1348114569517135
 40
0.1348114569517135
 40
0.1348114569517135
 40
0.1641972261336471
 40
0.2189295268191453
 40
0.2736619316695276
 40
0.3283942982642787
 40
0.3831266318023283
 40
0.4378589770028988
 40
0.4925912529856677
 40
0.5473235620026173
 40
0.6020558817592608
 40
0.652783568933083
 40
0.6801499008181584
 40
0.7075159582806415
 40
0.7348820599390721
 40
0.7622484179955665
 40
0.789614737865057
 40
0.8169803882616113
 40
0.8442360645756393
 40
0.8624807742783243
 40
0.894007225739611
 40
0.9037141653194946
 40
0.9090909141271956
 40
0.9090909141271956
 40
0.9090909141271956
 40
0.9090909141271956
 40
0.9090909141271956
 10
0.0628205527215341
 20
-1.548012365519498
 30
0.0
 10
0.0624750723746048
 20
-1.547178628682661
 30
0.0
 10
0.0614739691784049
 20
-1.544750214503456
 30
0.0
 10
0.0597296637262383
 20
-1.540467337857654
 30
0.0
 10
0.057625215228982
 20
-1.5350530307901
 30
0.0
 10
0.0551217120274434
 20
-1.528422514718291
 30
0.0
 10
0.0528425418587128
 20
-1.522044832999083
 30
0.0
 10
0.0505837195397107
 20
-1.515456906441386
 30
0.0
 10
0.0484788711440035
 20
-1.508941405512137
 30
0.0
 10
0.0464560767460259
 20
-1.502323627757442
 30
0.0
 10
0.0446077923959239
 20
-1.495834433974315
 30
0.0
 10
0.0430923486063532
 20
-1.490115609777652
 30
0.0
 10
0.0418895797409947
 20
-1.485225016953623
 30
0.0
 10
0.0409490563969891
 20
-1.481147637868965
 30
0.0
 10
0.0402171224842074
 20
-1.477782389136677
 30
0.0
 10
0.0395280676069989
 20
-1.474404883044134
 30
0.0
 10
0.038887868582344
 20
-1.471019814135639
 30
0.0
 10
0.038300361893877
 20
-1.467627397560822
 30
0.0
 10
0.0378164831363056
 20
-1.464509758510036
 30
0.0
 10
0.0373700731731016
 20
-1.461253717211586
 30
0.0
 10
0.0370603336295746
 20
-1.458540994580562
 30
0.0
 10
0.0368731888299316
 20
-1.456507810523179
 30
0.0
 10
0.0367790272796899
 20
-1.455043465839468
 30
0.0
 10
0.0367577377524309
 20
-1.454569143273518
 30
0.0
 10
0.0367517170542644
 20
-1.45439999466911
 30
0.0
  0
ARC
  5
A4
330
1F
100
AcDbEntity
  8
0
  6
Continuous
 62
     7
370
    25
100
AcDbCircle
 10
0.0812970836
 20
-1.5403561388
 30
0.0
 40
0.02
100
AcDbArc
 50
202.5079324971
 51
273.0211597777
  0
ARC
  5
A5
330
1F
100
AcDbEntity
  8
0
  6
Continuous
 62
     7
370
    25
100
AcDbCircle
 10
0.0
 20
0.0
 30
0.0
 40
1.5625
100
AcDbArc
 50
273.0211597777
 51
274.2768178942
  0
ARC
  5
A6
330
1F
100
AcDbEntity
  8
0
  6
Continuous
 62
     7
370
    25
100
AcDbCircle
 10
0.1150323317
 20
-1.5382047369
 30
0.0
 40
0.0200000000000001
100
AcDbArc
 50
274.2768178942
 51
344.9863286615
  0
SPLINE
  5
A7
330
1F
100
AcDbEntity
  8
0
  6
Continuous
 62
     7
370
    25
100
AcDbSpline
210
0.0
220
0.0
230
1.0
 70
     8
 71
     4
 72
    30
 73
    25
 74
     0
 42
0.000000001
 43
0.00000001
 40
0.0
 40
0.0
 40
0.0
 40
0.0
 40
0.0
 40
0.005376748807701
 40
0.0150836883875846
 40
0.0466101398488713
 40
0.0648548495515563
 40
0.0921105258655842
 40
0.1194761762621386
 40
0.146842496131629
 40
0.1742088541881235
 40
0.201574955846554
 40
0.2289410133090372
 40
0.2563073451941125
 40
0.3070350323679347
 40
0.3617673521245782
 40
0.4164996611415279
 40
0.4712319371242968
 40
0.5259642823248672
 40
0.5806966158629169
 40
0.635428982457668
 40
0.6901613873080502
 40
0.7448936879935485
 40
0.7748083446261009
 40
0.7748083446261009
 40
0.7748083446261009
 40
0.7748083446261009
 40
0.7748083446261009
 10
0.1479933795432761
 20
-1.447108830852859
 30
0.0
 10
0.1480094886762698
 20
-1.447277318226315
 30
0.0
 10
0.1480502928022853
 20
-1.447750361737886
 30
0.0
 10
0.1481480721528217
 20
-1.449214469298439
 30
0.0
 10
0.1482279121759756
 20
-1.451254686482449
 30
0.0
 10
0.1482749038527582
 20
-1.453984630518507
 30
0.0
 10
0.1482573116610715
 20
-1.457271084124942
 30
0.0
 10
0.1481845061073651
 20
-1.460425210193184
 30
0.0
 10
0.148044824837997
 20
-1.463865289184876
 30
0.0
 10
0.1478519429597747
 20
-1.46730496110055
 30
0.0
 10
0.1476096360520215
 20
-1.470743511869613
 30
0.0
 10
0.1473232170382278
 20
-1.474175506979076
 30
0.0
 10
0.1469229447679695
 20
-1.478340766451221
 30
0.0
 10
0.1463688162160087
 20
-1.483346512415792
 30
0.0
 10
0.1456127936045045
 20
-1.48921421638605
 30
0.0
 10
0.1446273313383281
 20
-1.49588914373515
 30
0.0
 10
0.1434856355581164
 20
-1.502714333134168
 30
0.0
 10
0.1422492379589227
 20
-1.50944883089604
 30
0.0
 10
0.1408696371461934
 20
-1.516275232304978
 30
0.0
 10
0.1394424201042087
 20
-1.52289584347651
 30
0.0
 10
0.1378257907349176
 20
-1.529796407304269
 30
0.0
 10
0.1364422853968857
 20
-1.535454496212384
 30
0.0
 10
0.1352667813862984
 20
-1.539947082314046
 30
0.0
 10
0.1345873941397381
 20
-1.542499160331573
 30
0.0
 10
0.1343496125009617
 20
-1.543385727259993
 30
0.0
  0
LINE
  5
A8
330
1F
100
AcDbEntity
  8
0
  6
Continuous
 62
     7
370
    25
100
AcDbLine
 10
0.1468605459
 20
-1.4362259476
 30
0.0
 11
0.1479933795
 21
-1.4471088309
 31
0.0
  0
ARC
  5
A9
330
1F
100
AcDbEntity
  8
0
  6
Continuous
 62
     7
370
    25
100
AcDbCircle
 10
0.1662927395
 20
-1.4342031893
 30
0.0
 40
0.019537187563351
100
AcDbArc
 50
96.7193182671
 51
185.9426960915
  0
ARC
  5
AA
330
1F
100
AcDbEntity
  8
0
  6
Continuous
 62
     7
370
    25
100
AcDbCircle
 10
-0.0023605514
 20
-0.0026916937
 30
0.0
 40
1.421875000000002
100
AcDbArc
 50
276.7193182671
 51
278.2806817329
  0
ARC
  5
AB
330
1F
100
AcDbEntity
  8
0
  6
Continuous
 62
     7
370
    25
100
AcDbCircle
 10
0.2052353175
 20
-1.4290763016
 30
0.0
 40
0.019537187563351
100
AcDbArc
 50
9.0573039085
 51
98.2806817329
  0
LINE
  5
AC
330
1F
100
AcDbEntity
  8
0
  6
Continuous
 62
     7
370
    25
100
AcDbLine
 10
0.2262513677
 20
-1.4368059713
 30
0.0
 11
0.2245289035
 21
-1.4260007143
 31
0.0
  0
SPLINE
  5
AD
330
1F
100
AcDbEntity
  8
0
  6
Continuous
 62
     7
370
    25
100
AcDbSpline
210
0.0
220
0.0
230
1.0
 70
     8
 71
     4
 72
    30
 73
    25
 74
     0
 42
0.000000001
 43
0.00000001
 40
0.1316592235645591
 40
0.1316592235645591
 40
0.1316592235645591
 40
0.1316592235645591
 40
0.1316592235645591
 40
0.1641972261336471
 40
0.2189295268191453
 40
0.2736619316695276
 40
0.3283942982642787
 40
0.3831266318023283
 40
0.4378589770028988
 40
0.4925912529856677
 40
0.5473235620026173
 40
0.6020558817592608
 40
0.652783568933083
 40
0.6801499008181584
 40
0.7075159582806415
 40
0.7348820599390721
 40
0.7622484179955665
 40
0.789614737865057
 40
0.8169803882616113
 40
0.8442360645756393
 40
0.8624807742783243
 40
0.894007225739611
 40
0.9037141653194946
 40
0.9090909141271956
 40
0.9090909141271956
 40
0.9090909141271956
 40
0.9090909141271956
 40
0.9090909141271956
 10
0.2645093088798848
 20
-1.526549209114285
 30
0.0
 10
0.2640115821176401
 20
-1.525688601283045
 30
0.0
 10
0.2626592392165023
 20
-1.523338980794062
 30
0.0
 10
0.2603122601670874
 20
-1.519220709991411
 30
0.0
 10
0.2574736239255271
 20
-1.514044471233804
 30
0.0
 10
0.2541260825256216
 20
-1.50779745288626
 30
0.0
 10
0.2510339564636377
 20
-1.50177182452182
 30
0.0
 10
0.2479345617145049
 20
-1.495535094065284
 30
0.0
 10
0.2449972770619091
 20
-1.489350071995996
 30
0.0
 10
0.2421279946191395
 20
-1.483052937897802
 30
0.0
 10
0.2394485128427836
 20
-1.47686050958542
 30
0.0
 10
0.2371995775385466
 20
-1.471388415829914
 30
0.0
 10
0.2353687480685472
 20
-1.466696655545575
 30
0.0
 10
0.2339040662659727
 20
-1.462776921935005
 30
0.0
 10
0.2327391410463812
 20
-1.459535999918726
 30
0.0
 10
0.2316151281197085
 20
-1.456277328568368
 30
0.0
 10
0.2305385659314297
 20
-1.453004782134596
 30
0.0
 10
0.2295132862261912
 20
-1.449718073164803
 30
0.0
 10
0.2286266135644535
 20
-1.446690264800005
 30
0.0
 10
0.2277590240279708
 20
-1.443520347578902
 30
0.0
 10
0.2270978529936001
 20
-1.440871261789238
 30
0.0
 10
0.2266469254705685
 20
-1.43887989920141
 30
0.0
 10
0.2263624341497798
 20
-1.437440372738071
 30
0.0
 10
0.2262794152389604
 20
-1.436972886908354
 30
0.0
 10
0.2262513677254485
 20
-1.43680597125251
 30
0.0
  0
ARC
  5
AE
330
1F
100
AcDbEntity
  8
0
  6
Continuous
 62
     7
370
    25
100
AcDbCircle
 10
0.2818223677
 20
-1.5165363177
 30
0.0
 40
0.0199999999999996
100
AcDbArc
 50
210.0426534641
 51
280.5273546343
  0
ARC
  5
AF
330
1F
100
AcDbEntity
  8
0
  6
Continuous
 62
     7
370
    25
100
AcDbCircle
 10
0.0
 20
0.0
 30
0.0
 40
1.5625
100
AcDbArc
 50
280.5273546343
 51
281.7740836723
  0
ARC
  5
B0
330
1F
100
AcDbEntity
  8
0
  6
Continuous
 62
     7
370
    25
100
AcDbCircle
 10
0.3147521605
 20
-1.510045472
 30
0.0
 40
0.0200000000000012
100
AcDbArc
 50
281.7740836723
 51
352.4514958133
  0
SPLINE
  5
B1
330
1F
100
AcDbEntity
  8
0
  6
Continuous
 62
     7
370
    25
100
AcDbSpline
210
0.0
220
0.0
230
1.0
 70
     8
 71
     4
 72
    30
 73
    25
 74
     0
 42
0.000000001
 43
0.00000001
 40
0.0
 40
0.0
 40
0.0
 40
0.0
 40
0.0
 40
0.005376748807701
 40
0.0150836883875846
 40
0.0466101398488713
 40
0.0648548495515563
 40
0.0921105258655842
 40
0.1194761762621386
 40
0.146842496131629
 40
0.1742088541881235
 40
0.201574955846554
 40
0.2289410133090372
 40
0.2563073451941125
 40
0.3070350323679347
 40
0.3617673521245782
 40
0.4164996611415279
 40
0.4712319371242968
 40
0.5259642823248672
 40
0.5806966158629169
 40
0.635428982457668
 40
0.6901613873080502
 40
0.7448936879935485
 40
0.777951271373169
 40
0.777951271373169
 40
0.777951271373169
 40
0.777951271373169
 40
0.777951271373169
 10
0.3355896545210699
 20
-1.415057233732535
 30
0.0
 10
0.3356276178534922
 20
-1.415222177009365
 30
0.0
 10
0.3357298174628727
 20
-1.415685847560923
 30
0.0
 10
0.33601786468239
 20
-1.417124666712028
 30
0.0
 10
0.3363633234434087
 20
-1.419137008340992
 30
0.0
 10
0.3367662422998827
 20
-1.421837463682743
 30
0.0
 10
0.3371777688869903
 20
-1.42509809746478
 30
0.0
 10
0.3375172822603584
 20
-1.428234742578963
 30
0.0
 10
0.3378278163953349
 20
-1.43166362328221
 30
0.0
 10
0.3380855519259583
 20
-1.43509904446493
 30
0.0
 10
0.3382941389260323
 20
-1.438539805353508
 30
0.0
 10
0.3384581355199628
 20
-1.441979824452296
 30
0.0
 10
0.3386049630929724
 20
-1.44616169556753
 30
0.0
 10
0.3387089561475667
 20
-1.451196944971335
 30
0.0
 10
0.3387252904706208
 20
-1.457113130673422
 30
0.0
 10
0.3386195118209657
 20
-1.46385958173091
 30
0.0
 10
0.3383784493898573
 20
-1.470775401891334
 30
0.0
 10
0.3380316576928933
 20
-1.477613667361969
 30
0.0
 10
0.3375548837388401
 20
-1.484561742001405
 30
0.0
 10
0.3370040399028889
 20
-1.491312002132536
 30
0.0
 10
0.336301945342568
 20
-1.498364543155955
 30
0.0
 10
0.3356585534998372
 20
-1.504248562125004
 30
0.0
 10
0.3350635799776527
 20
-1.508970421231035
 30
0.0
 10
0.3347114210314657
 20
-1.511672279004592
 30
0.0
 10
0.3345788406593593
 20
-1.512672781198969
 30
0.0
  0
LINE
  5
B2
330
1F
100
AcDbEntity
  8
0
  6
Continuous
 62
     7
370
    25
100
AcDbLine
 10
0.3330460111
 20
-1.4044153195
 30
0.0
 11
0.3355896545
 21
-1.4150572337
 31
0.0
  0
ARC
  5
B3
330
1F
100
AcDbEntity
  8
0
  6
Continuous
 62
     7
370
    25
100
AcDbCircle
 10
0.3520479367
 20
-1.399873456
 30
0.0
 40
0.019537187563351
100
AcDbArc
 50
104.2193182671
 51
193.4426960915
  0
ARC
  5
B4
330
1F
100
AcDbEntity
  8
0
  6
Continuous
 62
     7
370
    25
100
AcDbCircle
 10
-0.0020122466
 20
-0.0026224116
 30
0.0
 40
1.421875000000002
100
AcDbArc
 50
284.2193182671
 51
285.7806817329
  0
ARC
  5
B5
330
1F
100
AcDbEntity
  8
0
  6
Continuous
 62
     7
370
    25
100
AcDbCircle
 10
0.3899881624
 20
-1.3897074031
 30
0.0
 40
0.019537187563351
100
AcDbArc
 50
16.5573039085
 51
105.7806817329
  0
LINE
  5
B6
330
1F
100
AcDbEntity
  8
0
  6
Continuous
 62
     7
370
    25
100
AcDbLine
 10
0.4118333417
 20
-1.3946277993
 30
0.0
 11
0.4087152444
 21
-1.3841398095
 31
0.0
  0
SPLINE
  5
B7
330
1F
100
AcDbEntity
  8
0
  6
Continuous
 62
     7
370
    25
100
AcDbSpline
210
0.0
220
0.0
230
1.0
 70
     8
 71
     4
 72
    30
 73
    25
 74
     0
 42
0.000000001
 43
0.00000001
 40
0.1285630832435356
 40
0.1285630832435356
 40
0.1285630832435356
 40
0.1285630832435356
 40
0.1285630832435356
 40
0.1641972261336471
 40
0.2189295268191453
 40
0.2736619316695276
 40
0.3283942982642787
 40
0.3831266318023283
 40
0.4378589770028988
 40
0.4925912529856677
 40
0.5473235620026173
 40
0.6020558817592608
 40
0.652783568933083
 40
0.6801499008181584
 40
0.7075159582806415
 40
0.7348820599390721
 40
0.7622484179955665
 40
0.789614737865057
 40
0.8169803882616113
 40
0.8442360645756393
 40
0.8624807742783243
 40
0.894007225739611
 40
0.9037141653194946
 40
0.9090909141271956
 40
0.9090909141271956
 40
0.9090909141271956
 40
0.9090909141271956
 40
0.9090909141271956
 10
0.4617079708631818
 20
-1.478908889011243
 30
0.0
 10
0.4610469299984836
 20
-1.478049831490437
 30
0.0
 10
0.4593496363746576
 20
-1.475833177273906
 30
0.0
 10
0.4564150445957972
 20
-1.471966563625958
 30
0.0
 10
0.4528701344985371
 20
-1.467130191008453
 30
0.0
 10
0.448735832261731
 20
-1.461373558601101
 30
0.0
 10
0.4448836574407135
 20
-1.455803083763364
 30
0.0
 10
0.4409967217649224
 20
-1.450024261595249
 30
0.0
 10
0.4372772586102129
 20
-1.444275545828339
 30
0.0
 10
0.4336105823407626
 20
-1.438406801096962
 30
0.0
 10
0.430145749814239
 20
-1.432617092420616
 30
0.0
 10
0.4272018029019137
 20
-1.427485358147575
 30
0.0
 10
0.424774238827107
 20
-1.423072707722193
 30
0.0
 10
0.4228104596776922
 20
-1.419377687314543
 30
0.0
 10
0.4212324753447763
 20
-1.416316545088524
 30
0.0
 10
0.4196927365414502
 20
-1.41323246525063
 30
0.0
 10
0.4181982314670683
 20
-1.410128435468384
 30
0.0
 10
0.4167527215650763
 20
-1.407003670605337
 30
0.0
 10
0.4154784262142465
 20
-1.404117499567116
 30
0.0
 10
0.4142045018019958
 20
-1.401087944585879
 30
0.0
 10
0.4132032120964905
 20
-1.398547822229901
 30
0.0
 10
0.4124962173450102
 20
-1.396632353877616
 30
0.0
 10
0.4120262639790492
 20
-1.395242276331548
 30
0.0
 10
0.4118829361612506
 20
-1.394789626050222
 30
0.0
 10
0.4118333417331257
 20
-1.394627799316093
 30
0.0
  0
ARC
  5
B8
330
1F
100
AcDbEntity
  8
0
  6
Continuous
 62
     7
370
    25
100
AcDbCircle
 10
0.4775584229
 20
-1.4667120381
 30
0.0
 40
0.0199999999999995
100
AcDbArc
 50
217.578118788
 51
288.0351428128
  0
ARC
  5
B9
330
1F
100
AcDbEntity
  8
0
  6
Continuous
 62
     7
370
    25
100
AcDbCircle
 10
0.0
 20
0.0
 30
0.0
 40
1.5625
100
AcDbArc
 50
288.0351428128
 51
289.2731532366
  0
ARC
  5
BA
330
1F
100
AcDbEntity
  8
0
  6
Continuous
 62
     7
370
    25
100
AcDbCircle
 10
0.5091362527
 20
-1.4560516908
 30
0.0
 40
0.0200000000000023
100
AcDbArc
 50
289.2731532366
 51
359.9159971396
  0
SPLINE
  5
BB
330
1F
100
AcDbEntity
  8
0
  6
Continuous
 62
     7
370
    25
100
AcDbSpline
210
0.0
220
0.0
230
1.0
 70
     8
 71
     4
 72
    30
 73
    25
 74
     0
 42
0.000000001
 43
0.00000001
 40
0.0
 40
0.0
 40
0.0
 40
0.0
 40
0.0
 40
0.005376748807701
 40
0.0150836883875846
 40
0.0466101398488713
 40
0.0648548495515563
 40
0.0921105258655842
 40
0.1194761762621386
 40
0.146842496131629
 40
0.1742088541881235
 40
0.201574955846554
 40
0.2289410133090372
 40
0.2563073451941125
 40
0.3070350323679347
 40
0.3617673521245782
 40
0.4164996611415279
 40
0.4712319371242968
 40
0.5259642823248672
 40
0.5806966158629169
 40
0.635428982457668
 40
0.6901613873080502
 40
0.7448936879935485
 40
0.7810290291442362
 40
0.7810290291442362
 40
0.7810290291442362
 40
0.7810290291442362
 40
0.7810290291442362
 10
0.5173974444339847
 20
-1.358793615021249
 30
0.0
 10
0.5174566124026923
 20
-1.358952191976255
 30
0.0
 10
0.5176184588317866
 20
-1.359398556036109
 30
0.0
 10
0.5180918453524971
 20
-1.360787468183175
 30
0.0
 10
0.5186970119562001
 20
-1.362737502533896
 30
0.0
 10
0.519448963939021
 20
-1.365362263641735
 30
0.0
 10
0.5202825679709209
 20
-1.368541287251345
 30
0.0
 10
0.5210285911034143
 20
-1.371606782543921
 30
0.0
 10
0.5217840273175894
 20
-1.374965795859227
 30
0.0
 10
0.5224879703306721
 20
-1.378338185300076
 30
0.0
 10
0.5231438822571706
 20
-1.381722283935407
 30
0.0
 10
0.5237554884316348
 20
-1.385111467342985
 30
0.0
 10
0.5244469035874296
 20
-1.389238397127094
 30
0.0
 10
0.5252072388985827
 20
-1.394216995456798
 30
0.0
 10
0.5259956506713989
 20
-1.400080435313075
 30
0.0
 10
0.5267713655402881
 20
-1.406782976430889
 30
0.0
 10
0.5274350611033143
 20
-1.413671095752347
 30
0.0
 10
0.527983809010664
 20
-1.420496124313616
 30
0.0
 10
0.5284180196498274
 20
-1.427446988700099
 30
0.0
 10
0.5287529741106652
 20
-1.43421139896846
 30
0.0
 10
0.5289774273918993
 20
-1.441295246255293
 30
0.0
 10
0.5291095888770339
 20
-1.447305239161925
 30
0.0
 10
0.5291351118415335
 20
-1.45217779990178
 30
0.0
 10
0.5291378416913066
 20
-1.454982528797219
 30
0.0
 10
0.5291362311729222
 20
-1.45608101329791
 30
0.0
  0
LINE
  5
BC
330
1F
100
AcDbEntity
  8
0
  6
Continuous
 62
     7
370
    25
100
AcDbLine
 10
0.5134865137
 20
-1.3485747559
 30
0.0
 11
0.5173974444
 21
-1.358793615
 31
0.0
  0
ARC
  5
BD
330
1F
100
AcDbEntity
  8
0
  6
Continuous
 62
     7
370
    25
100
AcDbCircle
 10
0.531733043
 20
-1.3415914997
 30
0.0
 40
0.0195371875633511
100
AcDbArc
 50
111.7193182671
 51
200.9426960915
  0
ARC
  5
BE
330
1F
100
AcDbEntity
  8
0
  6
Continuous
 62
     7
370
    25
100
AcDbCircle
 10
-0.0016759647
 20
-0.0025082592
 30
0.0
 40
1.421875000000003
100
AcDbArc
 50
291.7193182671
 51
293.2806817329
  0
ARC
  5
BF
330
1F
100
AcDbEntity
  8
0
  6
Continuous
 62
     7
370
    25
100
AcDbCircle
 10
0.5680217487
 20
-1.3265602256
 30
0.0
 40
0.019537187563351
100
AcDbArc
 50
24.0573039085
 51
113.2806817329
  0
LINE
  5
C0
330
1F
100
AcDbEntity
  8
0
  6
Continuous
 62
     7
370
    25
100
AcDbLine
 10
0.59032228
 20
-1.3285871591
 30
0.0
 11
0.5858619011
 21
-1.3185958889
 31
0.0
  0
SPLINE
  5
C1
330
1F
100
AcDbEntity
  8
0
  6
Continuous
 62
     7
370
    25
100
AcDbSpline
210
0.0
220
0.0
230
1.0
 70
     8
 71
     4
 72
    30
 73
    25
 74
     0
 42
0.000000001
 43
0.00000001
 40
0.125579252919644
 40
0.125579252919644
 40
0.125579252919644
 40
0.125579252919644
 40
0.125579252919644
 40
0.1641972261336471
 40
0.2189295268191453
 40
0.2736619316695276
 40
0.3283942982642787
 40
0.3831266318023283
 40
0.4378589770028988
 40
0.4925912529856677
 40
0.5473235620026173
 40
0.6020558817592608
 40
0.652783568933083
 40
0.6801499008181584
 40
0.7075159582806415
 40
0.7348820599390721
 40
0.7622484179955665
 40
0.789614737865057
 40
0.8169803882616113
 40
0.8442360645756393
 40
0.8624807742783243
 40
0.894007225739611
 40
0.9037141653194946
 40
0.9090909141271956
 40
0.9090909141271956
 40
0.9090909141271956
 40
0.9090909141271956
 40
0.9090909141271956
 10
0.6510277938644311
 20
-1.405893089231131
 30
0.0
 10
0.6501984359440334
 20
-1.40506701904161
 30
0.0
 10
0.6481720849903789
 20
-1.403037734367414
 30
0.0
 10
0.6446792195801976
 20
-1.399509888349337
 30
0.0
 10
0.6404714584779616
 20
-1.395112906455797
 30
0.0
 10
0.6356211344617717
 20
-1.389945157565167
 30
0.0
 10
0.631074822660933
 20
-1.384925148623034
 30
0.0
 10
0.6264668526055582
 20
-1.379703111992828
 30
0.0
 10
0.6220288519945425
 20
-1.374489064648915
 30
0.0
 10
0.6176275197459764
 20
-1.369149125133831
 30
0.0
 10
0.6134366207144469
 20
-1.363861199614184
 30
0.0
 10
0.6098480339419197
 20
-1.359157630219806
 30
0.0
 10
0.6068652715566735
 20
-1.355099591325575
 30
0.0
 10
0.6044359958661271
 20
-1.351692506944474
 30
0.0
 10
0.6024719521693231
 20
-1.348863521500911
 30
0.0
 10
0.6005428328471647
 20
-1.346006802636577
 30
0.0
 10
0.5986559562828574
 20
-1.343124400316031
 30
0.0
 10
0.596814949259306
 20
-1.340215045152884
 30
0.0
 10
0.5951748347661383
 20
-1.337519894627901
 30
0.0
 10
0.5935163726780117
 20
-1.334682538412213
 30
0.0
 10
0.592192096645843
 20
-1.332294841687686
 30
0.0
 10
0.5912411315421279
 20
-1.330488041765518
 30
0.0
 10
0.5905937571633817
 20
-1.329171197748939
 30
0.0
 10
0.5903925728173046
 20
-1.328741127987815
 30
0.0
 10
0.5903222800489821
 20
-1.328587159075688
 30
0.0
  0
ARC
  5
C2
330
1F
100
AcDbEntity
  8
0
  6
Continuous
 62
     7
370
    25
100
AcDbCircle
 10
0.6651418149
 20
-1.3917228948
 30
0.0
 40
0.0199999999999987
100
AcDbArc
 50
225.1137910215
 51
295.5443903696
  0
ARC
  5
C3
330
1F
100
AcDbEntity
  8
0
  6
Continuous
 62
     7
370
    25
100
AcDbCircle
 10
0.0
 20
0.0
 30
0.0
 40
1.5625
100
AcDbArc
 50
295.5443903696
 51
296.7740430136
  0
ARC
  5
C4
330
1F
100
AcDbEntity
  8
0
  6
Continuous
 62
     7
370
    25
100
AcDbCircle
 10
0.6948547906
 20
-1.3771285597
 30
0.0
 40
0.019999999999999
100
AcDbArc
 50
296.7740430136
 51
7.380394412
  0
SPLINE
  5
C5
330
1F
100
AcDbEntity
  8
0
  6
Continuous
 62
     7
370
    25
100
AcDbSpline
210
0.0
220
0.0
230
1.0
 70
     8
 71
     4
 72
    30
 73
    25
 74
     0
 42
0.000000001
 43
0.00000001
 40
0.0
 40
0.0
 40
0.0
 40
0.0
 40
0.0
 40
0.005376748807701
 40
0.0150836883875846
 40
0.0466101398488713
 40
0.0648548495515563
 40
0.0921105258655842
 40
0.1194761762621386
 40
0.146842496131629
 40
0.1742088541881235
 40
0.201574955846554
 40
0.2289410133090372
 40
0.2563073451941125
 40
0.3070350323679347
 40
0.3617673521245782
 40
0.4164996611415279
 40
0.4712319371242968
 40
0.5259642823248672
 40
0.5806966158629169
 40
0.635428982457668
 40
0.6901613873080502
 40
0.7448936879935485
 40
0.7839856863719203
 40
0.7839856863719203
 40
0.7839856863719203
 40
0.7839856863719203
 40
0.7839856863719203
 10
0.6903059675899698
 20
-1.279280660834373
 30
0.0
 10
0.6903853278146134
 20
-1.279430158171889
 30
0.0
 10
0.6906040518261473
 20
-1.279851578327219
 30
0.0
 10
0.6912546778734341
 20
-1.281166818798331
 30
0.0
 10
0.6921091977514484
 20
-1.283021180242415
 30
0.0
 10
0.6931973167537094
 20
-1.285525336726066
 30
0.0
 10
0.6944387350342972
 20
-1.288568356187897
 30
0.0
 10
0.6955785032632821
 20
-1.291510250184494
 30
0.0
 10
0.6967659158335852
 20
-1.294741922462739
 30
0.0
 10
0.6979040216690032
 20
-1.297993577643383
 30
0.0
 10
0.6989960356870106
 20
-1.301263111159567
 30
0.0
 10
0.7000447866907943
 20
-1.304543469008172
 30
0.0
 10
0.7012689591243623
 20
-1.308544844548348
 30
0.0
 10
0.7026726271440955
 20
-1.313381606606202
 30
0.0
 10
0.7042196264226516
 20
-1.319091975535075
 30
0.0
 10
0.7058635621136099
 20
-1.325635924376394
 30
0.0
 10
0.707420659655676
 20
-1.332378485227548
 30
0.0
 10
0.7088555579385031
 20
-1.339073498748512
 30
0.0
 10
0.710193323706461
 20
-1.345908221665246
 30
0.0
 10
0.7114083453003964
 20
-1.352571041135696
 30
0.0
 10
0.7125555059653131
 20
-1.359564988094853
 30
0.0
 10
0.7134845098077826
 20
-1.365594000725711
 30
0.0
 10
0.7141591557185277
 20
-1.370530131128394
 30
0.0
 10
0.7145369556599628
 20
-1.373384886964995
 30
0.0
 10
0.7146890940913858
 20
-1.37455943458802
 30
0.0
  0
LINE
  5
C6
330
1F
100
AcDbEntity
  8
0
  6
Continuous
 62
     7
370
    25
100
AcDbLine
 10
0.6850946667
 20
-1.2696597044
 30
0.0
 11
0.6903059676
 21
-1.2792806608
 31
0.0
  0
ARC
  5
C7
330
1F
100
AcDbEntity
  8
0
  6
Continuous
 62
     7
370
    25
100
AcDbCircle
 10
0.7022735965
 20
-1.2603545409
 30
0.0
 40
0.0195371875633512
100
AcDbArc
 50
119.2193182671
 51
208.4426960915
  0
ARC
  5
C8
330
1F
100
AcDbEntity
  8
0
  6
Continuous
 62
     7
370
    25
100
AcDbCircle
 10
-0.0013574597
 20
-0.0023511898
 30
0.0
 40
1.421875000000003
100
AcDbArc
 50
299.2193182671
 51
300.7806817329
  0
ARC
  5
C9
330
1F
100
AcDbEntity
  8
0
  6
Continuous
 62
     7
370
    25
100
AcDbCircle
 10
0.7362898723
 20
-1.2407152349
 30
0.0
 40
0.0195371875633511
100
AcDbArc
 50
31.5573039085
 51
120.7806817329
  0
LINE
  5
CA
330
1F
100
AcDbEntity
  8
0
  6
Continuous
 62
     7
370
    25
100
AcDbLine
 10
0.7586641875
 20
-1.2398140242
 30
0.0
 11
0.7529378452
 21
-1.230490427
 31
0.0
  0
SPLINE
  5
CB
330
1F
100
AcDbEntity
  8
0
  6
Continuous
 62
     7
370
    25
100
AcDbSpline
210
0.0
220
0.0
230
1.0
 70
     8
 71
     4
 72
    30
 73
    25
 74
     0
 42
0.000000001
 43
0.00000001
 40
0.1227631153856227
 40
0.1227631153856227
 40
0.1227631153856227
 40
0.1227631153856227
 40
0.1227631153856227
 40
0.1641972261336471
 40
0.2189295268191453
 40
0.2736619316695276
 40
0.3283942982642787
 40
0.3831266318023283
 40
0.4378589770028988
 40
0.4925912529856677
 40
0.5473235620026173
 40
0.6020558817592608
 40
0.652783568933083
 40
0.6801499008181584
 40
0.7075159582806415
 40
0.7348820599390721
 40
0.7622484179955665
 40
0.789614737865057
 40
0.8169803882616113
 40
0.8442360645756393
 40
0.8624807742783243
 40
0.894007225739611
 40
0.9037141653194946
 40
0.9090909141271956
 40
0.9090909141271956
 40
0.9090909141271956
 40
0.9090909141271956
 40
0.9090909141271956
 10
0.8292118043975976
 20
-1.308741891783086
 30
0.0
 10
0.8282159566997817
 20
-1.30798185647393
 30
0.0
 10
0.825886222678617
 20
-1.30619253581415
 30
0.0
 10
0.821879264637069
 20
-1.303087900124726
 30
0.0
 10
0.8170676851976005
 20
-1.299224853281496
 30
0.0
 10
0.8115843297907079
 20
-1.294734409523878
 30
0.0
 10
0.8064216696654358
 20
-1.290350760222158
 30
0.0
 10
0.801171508875696
 20
-1.285774859624426
 30
0.0
 10
0.7960909062292743
 20
-1.28118469449917
 30
0.0
 10
0.7910302260166454
 20
-1.276464928045993
 30
0.0
 10
0.7861849679244761
 20
-1.271769263554776
 30
0.0
 10
0.7820131430063689
 20
-1.267574338415474
 30
0.0
 10
0.778526218202073
 20
-1.263940345222978
 30
0.0
 10
0.7756730115509827
 20
-1.260879493026807
 30
0.0
 10
0.7733565138224787
 20
-1.258331069090983
 30
0.0
 10
0.771071021747943
 20
-1.255750590452009
 30
0.0
 10
0.7688240586748668
 20
-1.25313913429602
 30
0.0
 10
0.7666190546703523
 20
-1.250494968706242
 30
0.0
 10
0.7646411838485506
 20
-1.248036953467216
 30
0.0
 10
0.7626265608306886
 20
-1.245440343968589
 30
0.0
 10
0.7610019572019258
 20
-1.243245927028465
 30
0.0
 10
0.7598232930225575
 20
-1.241578710384024
 30
0.0
 10
0.7590095743861326
 20
-1.240357631463154
 30
0.0
 10
0.758753975831717
 20
-1.239957500835083
 30
0.0
 10
0.7586641874519517
 20
-1.239814024195733
 30
0.0
  0
ARC
  5
CC
330
1F
100
AcDbEntity
  8
0
  6
Continuous
 62
     7
370
    25
100
AcDbCircle
 10
0.8413457377
 20
-1.2928432232
 30
0.0
 40
0.0200000000000046
100
AcDbArc
 50
232.6489684265
 51
303.0549379189
  0
ARC
  5
CD
330
1F
100
AcDbEntity
  8
0
  6
Continuous
 62
     7
370
    25
100
AcDbCircle
 10
0.0
 20
0.0
 30
0.0
 40
1.5625
100
AcDbArc
 50
303.0549379189
 51
304.2767387991
  0
ARC
  5
CE
330
1F
100
AcDbEntity
  8
0
  6
Continuous
 62
     7
370
    25
100
AcDbCircle
 10
0.8687215304
 20
-1.2746094118
 30
0.0
 40
0.0200000000000022
100
AcDbArc
 50
304.2767387991
 51
14.8454123927
  0
SPLINE
  5
CF
330
1F
100
AcDbEntity
  8
0
  6
Continuous
 62
     7
370
    25
100
AcDbSpline
210
0.0
220
0.0
230
1.0
 70
     8
 71
     4
 72
    30
 73
    25
 74
     0
 42
0.000000001
 43
0.00000001
 40
0.0
 40
0.0
 40
0.0
 40
0.0
 40
0.0
 40
0.005376748807701
 40
0.0150836883875846
 40
0.0466101398488713
 40
0.0648548495515563
 40
0.0921105258655842
 40
0.1194761762621386
 40
0.146842496131629
 40
0.1742088541881235
 40
0.201574955846554
 40
0.2289410133090372
 40
0.2563073451941125
 40
0.3070350323679347
 40
0.3617673521245782
 40
0.4164996611415279
 40
0.4712319371242968
 40
0.5259642823248672
 40
0.5806966158629169
 40
0.635428982457668
 40
0.6901613873080502
 40
0.7448936879935485
 40
0.7867663639954998
 40
0.7867663639954998
 40
0.7867663639954998
 40
0.7867663639954998
 40
0.7867663639954998
 10
0.851356711218525
 20
-1.177878859863201
 30
0.0
 10
0.8514549058236587
 20
-1.178016719642334
 30
0.0
 10
0.8517267649891529
 20
-1.178405985277442
 30
0.0
 10
0.8525434981709592
 20
-1.179625049943485
 30
0.0
 10
0.8536327502512543
 20
-1.181352009842499
 30
0.0
 10
0.8550384182551433
 20
-1.183692714890243
 30
0.0
 10
0.8566664097734519
 20
-1.186547663297618
 30
0.0
 10
0.858180421348527
 20
-1.189315619376308
 30
0.0
 10
0.859779493316667
 20
-1.192364655808822
 30
0.0
 10
0.8613322886680336
 20
-1.195439940007591
 30
0.0
 10
0.8628417201149386
 20
-1.198538965779679
 30
0.0
 10
0.8643096715275982
 20
-1.201654370237035
 30
0.0
 10
0.8660456553091962
 20
-1.205461726888395
 30
0.0
 10
0.8680686388885217
 20
-1.210073894334586
 30
0.0
 10
0.8703477560862527
 20
-1.215533486340468
 30
0.0
 10
0.8728317844038225
 20
-1.221806874126292
 30
0.0
 10
0.8752556415542749
 20
-1.228288509421588
 30
0.0
 10
0.8775521387051308
 20
-1.234738954364695
 30
0.0
 10
0.8797705700586951
 20
-1.241340591807631
 30
0.0
 10
0.8818448694293881
 20
-1.247787817791748
 30
0.0
 10
0.8838951092409577
 20
-1.254572196051669
 30
0.0
 10
0.8856264721681267
 20
-1.26050847364557
 30
0.0
 10
0.886965460353678
 20
-1.265414307953315
 30
0.0
 10
0.8877296802063539
 20
-1.268261814625829
 30
0.0
 10
0.8880539427666186
 20
-1.26948517225222
 30
0.0
  0
LINE
  5
D0
330
1F
100
AcDbEntity
  8
0
  6
Continuous
 62
     7
370
    25
100
AcDbLine
 10
0.8449342069
 20
-1.1690204233
 30
0.0
 11
0.8513567112
 21
-1.1778788599
 31
0.0
  0
ARC
  5
D1
330
1F
100
AcDbEntity
  8
0
  6
Continuous
 62
     7
370
    25
100
AcDbCircle
 10
0.860751601
 20
-1.1575525664
 30
0.0
 40
0.019537187563351
100
AcDbArc
 50
126.7193182671
 51
215.9426960915
  0
ARC
  5
D2
330
1F
100
AcDbEntity
  8
0
  6
Continuous
 62
     7
370
    25
100
AcDbCircle
 10
-0.0010621811
 20
-0.0021538909
 30
0.0
 40
1.421875000000002
100
AcDbArc
 50
306.7193182671
 51
308.2806817329
  0
ARC
  5
D3
330
1F
100
AcDbEntity
  8
0
  6
Continuous
 62
     7
370
    25
100
AcDbCircle
 10
0.8919134191
 20
-1.1336412625
 30
0.0
 40
0.019537187563351
100
AcDbArc
 50
39.0573039085
 51
128.2806817329
  0
LINE
  5
D4
330
1F
100
AcDbEntity
  8
0
  6
Continuous
 62
     7
370
    25
100
AcDbLine
 10
0.9139786872
 20
-1.1298273276
 30
0.0
 11
0.907084361
 21
-1.1213309327
 31
0.0
  0
SPLINE
  5
D5
330
1F
100
AcDbEntity
  8
0
  6
Continuous
 62
     7
370
    25
100
AcDbSpline
210
0.0
220
0.0
230
1.0
 70
     8
 71
     4
 72
    30
 73
    25
 74
     0
 42
0.000000001
 43
0.00000001
 40
0.1201676432342271
 40
0.1201676432342271
 40
0.1201676432342271
 40
0.1201676432342271
 40
0.1201676432342271
 40
0.1641972261336471
 40
0.2189295268191453
 40
0.2736619316695276
 40
0.3283942982642787
 40
0.3831266318023283
 40
0.4378589770028988
 40
0.4925912529856677
 40
0.5473235620026173
 40
0.6020558817592608
 40
0.652783568933083
 40
0.6801499008181584
 40
0.7075159582806415
 40
0.7348820599390721
 40
0.7622484179955665
 40
0.789614737865057
 40
0.8169803882616113
 40
0.8442360645756393
 40
0.8624807742783243
 40
0.894007225739611
 40
0.9037141653194946
 40
0.9090909141271956
 40
0.9090909141271956
 40
0.9090909141271956
 40
0.9090909141271956
 40
0.9090909141271956
 10
0.9931917155676567
 20
-1.18911322438779
 30
0.0
 10
0.992038501972435
 20
-1.188452312976523
 30
0.0
 10
0.989440514026445
 20
-1.186951680899878
 30
0.0
 10
0.9849784252056746
 20
-1.184349078536695
 30
0.0
 10
0.9796372042565556
 20
-1.181106702660553
 30
0.0
 10
0.9736146391902454
 20
-1.177370396773625
 30
0.0
 10
0.9679239652866434
 20
-1.173698112567248
 30
0.0
 10
0.96212144546927
 20
-1.169846642929898
 30
0.0
 10
0.9564851713073321
 20
-1.165958899021226
 30
0.0
 10
0.9508517327721638
 20
-1.161940062142537
 30
0.0
 10
0.9454350193286715
 20
-1.157917002801078
 30
0.0
 10
0.9407513373459816
 20
-1.154302498249038
 30
0.0
 10
0.9368199123727952
 20
-1.151154729389334
 30
0.0
 10
0.9335915939180199
 20
-1.148492481407799
 30
0.0
 10
0.9309622780762048
 20
-1.146268223219813
 30
0.0
 10
0.9283595186523452
 20
-1.144008137511155
 30
0.0
 10
0.9257909152316562
 20
-1.141712310258584
 30
0.0
 10
0.9232596424760388
 20
-1.139378576648516
 30
0.0
 10
0.9209778572437335
 20
-1.137199754017679
 30
0.0
 10
0.9186415440545302
 20
-1.134888319944551
 30
0.0
 10
0.9167444102476866
 20
-1.132924729871083
 30
0.0
 10
0.9153582142635616
 20
-1.131425623043394
 30
0.0
 10
0.9143920743209331
 20
-1.130321202217117
 30
0.0
 10
0.9140864349203104
 20
-1.129957857068082
 30
0.0
 10
0.9139786872331742
 20
-1.129827327626588
 30
0.0
  0
ARC
  5
D6
330
1F
100
AcDbEntity
  8
0
  6
Continuous
 62
     7
370
    25
100
AcDbCircle
 10
1.0031364037
 20
-1.1717608995
 30
0.0
 40
0.0200000000000012
100
AcDbArc
 50
240.1828022272
 51
310.5666033913
  0
ARC
  5
D7
330
1F
100
AcDbEntity
  8
0
  6
Continuous
 62
     7
370
    25
100
AcDbCircle
 10
0.0
 20
0.0
 30
0.0
 40
1.5625
100
AcDbArc
 50
310.5666033913
 51
311.7811959769
  0
ARC
  5
D8
330
1F
100
AcDbEntity
  8
0
  6
Continuous
 62
     7
370
    25
100
AcDbCircle
 10
1.027748893
 20
-1.1502340905
 30
0.0
 40
0.0200000000000001
100
AcDbArc
 50
311.7811959769
 51
22.3119170525
  0
SPLINE
  5
D9
330
1F
100
AcDbEntity
  8
0
  6
Continuous
 62
     7
370
    25
100
AcDbSpline
210
0.0
220
0.0
230
1.0
 70
     8
 71
     4
 72
    30
 73
    25
 74
     0
 42
0.000000001
 43
0.00000001
 40
0.0
 40
0.0
 40
0.0
 40
0.0
 40
0.0
 40
0.005376748807701
 40
0.0150836883875846
 40
0.0466101398488713
 40
0.0648548495515563
 40
0.0921105258655842
 40
0.1194761762621386
 40
0.146842496131629
 40
0.1742088541881235
 40
0.201574955846554
 40
0.2289410133090372
 40
0.2563073451941125
 40
0.3070350323679347
 40
0.3617673521245782
 40
0.4164996611415279
 40
0.4712319371242968
 40
0.5259642823248672
 40
0.5806966158629169
 40
0.635428982457668
 40
0.6901613873080502
 40
0.7448936879935485
 40
0.7893188045207568
 40
0.7893188045207568
 40
0.7893188045207568
 40
0.7893188045207568
 40
0.7893188045207568
 10
0.9977940524444633
 20
-1.056323225036239
 30
0.0
 10
0.9979094012931682
 20
-1.056447088437946
 30
0.0
 10
0.9982297440269278
 20
-1.056797539109892
 30
0.0
 10
0.9991986098120716
 20
-1.057899569436441
 30
0.0
 10
1.000503956689556
 20
-1.059469579027708
 30
0.0
 10
1.002203122325801
 20
-1.061606782527213
 30
0.0
 10
1.004189831695588
 20
-1.064224810921341
 30
0.0
 10
1.00605218145894
 20
-1.066771468586195
 30
0.0
 10
1.008035552260196
 20
-1.069585699314265
 30
0.0
 10
1.009976468368533
 20
-1.072431993565888
 30
0.0
 10
1.011877490453786
 20
-1.075307486403708
 30
0.0
 10
1.013739525219658
 20
-1.078204632035796
 30
0.0
 10
1.015957617185477
 20
-1.081752824870436
 30
0.0
 10
1.018565302514475
 20
-1.086061482241225
 30
0.0
 10
1.021537541304237
 20
-1.091176882191211
 30
0.0
 10
1.024819159835202
 20
-1.097072369517212
 30
0.0
 10
1.028068303726177
 20
-1.103182176679699
 30
0.0
 10
1.031187106042101
 20
-1.109277684143572
 30
0.0
 10
1.034248245005747
 20
-1.115533280265741
 30
0.0
 10
1.03714633031586
 20
-1.121654598939429
 30
0.0
 10
1.040064569102473
 20
-1.128113325907101
 30
0.0
 10
1.042586818786856
 20
-1.133842929890933
 30
0.0
 10
1.044590251706251
 20
-1.138620243794269
 30
0.0
 10
1.045742437161339
 20
-1.141400609722864
 30
0.0
 10
1.046251508448157
 20
-1.142641118787261
 30
0.0
  0
LINE
  5
DA
330
1F
100
AcDbEntity
  8
0
  6
Continuous
 62
     7
370
    25
100
AcDbLine
 10
0.9902702355
 20
-1.0483788786
 30
0.0
 11
0.9977940524
 21
-1.056323225
 31
0.0
  0
ARC
  5
DB
330
1F
100
AcDbEntity
  8
0
  6
Continuous
 62
     7
370
    25
100
AcDbCircle
 10
1.004455454
 20
-1.0349445467
 30
0.0
 40
0.0195371875633511
100
AcDbArc
 50
134.2193182671
 51
223.4426960915
  0
ARC
  5
DC
330
1F
100
AcDbEntity
  8
0
  6
Continuous
 62
     7
370
    25
100
AcDbCircle
 10
-0.0007951814
 20
-0.0019197384
 30
0.0
 40
1.421875000000002
100
AcDbArc
 50
314.2193182671
 51
315.7806817329
  0
ARC
  5
DD
330
1F
100
AcDbEntity
  8
0
  6
Continuous
 62
     7
370
    25
100
AcDbCircle
 10
1.0322296269
 20
-1.0071703738
 30
0.0
 40
0.0195371875633512
100
AcDbArc
 50
46.5573039085
 51
135.7806817329
  0
LINE
  5
DE
330
1F
100
AcDbEntity
  8
0
  6
Continuous
 62
     7
370
    25
100
AcDbLine
 10
1.0536083052
 20
-1.0005089722
 30
0.0
 11
1.0456639588
 21
-0.9929851553
 31
0.0
  0
SPLINE
  5
DF
330
1F
100
AcDbEntity
  8
0
  6
Continuous
 62
     7
370
    25
100
AcDbSpline
210
0.0
220
0.0
230
1.0
 70
     8
 71
     4
 72
    30
 73
    25
 74
     0
 42
0.000000001
 43
0.00000001
 40
0.1178418262009677
 40
0.1178418262009677
 40
0.1178418262009677
 40
0.1178418262009677
 40
0.1178418262009677
 40
0.1641972261336471
 40
0.2189295268191453
 40
0.2736619316695276
 40
0.3283942982642787
 40
0.3831266318023283
 40
0.4378589770028988
 40
0.4925912529856677
 40
0.5473235620026173
 40
0.6020558817592608
 40
0.652783568933083
 40
0.6801499008181584
 40
0.7075159582806415
 40
0.7348820599390721
 40
0.7622484179955665
 40
0.789614737865057
 40
0.8169803882616113
 40
0.8442360645756393
 40
0.8624807742783243
 40
0.894007225739611
 40
0.9037141653194946
 40
0.9090909141271956
 40
0.9090909141271956
 40
0.9090909141271956
 40
0.9090909141271956
 40
0.9090909141271956
 10
1.14014176056617
 20
-1.049054831463754
 30
0.0
 10
1.138847722393644
 20
-1.048524486097265
 30
0.0
 10
1.13602525705948
 20
-1.047355453232728
 30
0.0
 10
1.13118102343703
 20
-1.045325075778073
 30
0.0
 10
1.125398406110941
 20
-1.042779488898631
 30
0.0
 10
1.118939679143268
 20
-1.039861250112019
 30
0.0
 10
1.11281836046958
 20
-1.036963164801906
 30
0.0
 10
1.106562764347411
 20
-1.03390202583826
 30
0.0
 10
1.100467256883538
 20
-1.030783223522336
 30
0.0
 10
1.094357449721051
 20
-1.027534079631362
 30
0.0
 10
1.08846196239505
 20
-1.024252461100397
 30
0.0
 10
1.083346562445064
 20
-1.021280222310635
 30
0.0
 10
1.079037905074275
 20
-1.018672536981637
 30
0.0
 10
1.075489712239635
 20
-1.016454445015818
 30
0.0
 10
1.072592566607546
 20
-1.014592410249946
 30
0.0
 10
1.069717073769726
 20
-1.012691388164694
 30
0.0
 10
1.066870779518104
 20
-1.010750472056356
 30
0.0
 10
1.064056548790034
 20
-1.0087671012551
 30
0.0
 10
1.061509891125179
 20
-1.006904751491748
 30
0.0
 10
1.058891862731051
 20
-1.004918042121962
 30
0.0
 10
1.056754659231546
 20
-1.003218876485716
 30
0.0
 10
1.055184649640279
 20
-1.001913529608232
 30
0.0
 10
1.05408261931373
 20
-1.000944663823088
 30
0.0
 10
1.053732168641784
 20
-1.000624321089329
 30
0.0
 10
1.053608305240077
 20
-1.000508972240624
 30
0.0
  0
ARC
  5
E0
330
1F
100
AcDbEntity
  8
0
  6
Continuous
 62
     7
370
    25
100
AcDbCircle
 10
1.1477262516
 20
-1.030548738
 30
0.0
 40
0.0200000000000026
100
AcDbArc
 50
247.7143421013
 51
318.0791852304
  0
ARC
  5
E1
330
1F
100
AcDbEntity
  8
0
  6
Continuous
 62
     7
370
    25
100
AcDbCircle
 10
0.0
 20
0.0
 30
0.0
 40
1.5625
100
AcDbArc
 50
318.0791852304
 51
319.2873402045
  0
ARC
  5
E2
330
1F
100
AcDbEntity
  8
0
  6
Continuous
 62
     7
370
    25
100
AcDbCircle
 10
1.1691999347
 20
-1.0061201532
 30
0.0
 40
0.0200000000000001
100
AcDbArc
 50
319.2873402045
 51
29.7808665684
  0
SPLINE
  5
E3
330
1F
100
AcDbEntity
  8
0
  6
Continuous
 62
     7
370
    25
100
AcDbSpline
210
0.0
220
0.0
230
1.0
 70
     8
 71
     4
 72
    30
 73
    25
 74
     0
 42
0.000000001
 43
0.00000001
 40
0.0
 40
0.0
 40
0.0
 40
0.0
 40
0.0
 40
0.005376748807701
 40
0.0150836883875846
 40
0.0466101398488713
 40
0.0648548495515563
 40
0.0921105258655842
 40
0.1194761762621386
 40
0.146842496131629
 40
0.1742088541881235
 40
0.201574955846554
 40
0.2289410133090372
 40
0.2563073451941125
 40
0.3070350323679347
 40
0.3617673521245782
 40
0.4164996611415279
 40
0.4712319371242968
 40
0.5259642823248672
 40
0.5806966158629169
 40
0.635428982457668
 40
0.6901613873080502
 40
0.7448936879935485
 40
0.7915949120715529
 40
0.7915949120715529
 40
0.7915949120715529
 40
0.7915949120715529
 40
0.7915949120715529
 10
1.127112407759309
 20
-0.9166936069669664
 30
0.0
 10
1.127242937200803
 20
-0.9168013546541026
 30
0.0
 10
1.127606282349837
 20
-0.9171069940547252
 30
0.0
 10
1.128710703176115
 20
-0.918073133997354
 30
0.0
 10
1.130209810003804
 20
-0.9194593299814787
 30
0.0
 10
1.132173400077272
 20
-0.9213564637883225
 30
0.0
 10
1.1344848341504
 20
-0.9236927769775255
 30
0.0
 10
1.136663656781238
 20
-0.9259745622098309
 30
0.0
 10
1.138997390391305
 20
-0.9285058349654483
 30
0.0
 10
1.141293217643876
 20
-0.931074438386137
 30
0.0
 10
1.143553303352534
 20
-0.9336771978099968
 30
0.0
 10
1.145777561540521
 20
-0.9363065136518115
 30
0.0
 10
1.148439809522055
 20
-0.939534832106587
 30
0.0
 10
1.15158757838176
 20
-0.9434662570797732
 30
0.0
 10
1.1552020829338
 20
-0.9481499390624629
 30
0.0
 10
1.159225142275259
 20
-0.9535666525059553
 30
0.0
 10
1.163243979153947
 20
-0.9592000910411234
 30
0.0
 10
1.16713172306262
 20
-0.9648363652030612
 30
0.0
 10
1.170983192699971
 20
-0.9706388850204345
 30
0.0
 10
1.174655476906347
 20
-0.9763295589240364
 30
0.0
 10
1.178391782793276
 20
-0.9823521239903467
 30
0.0
 10
1.181675759803076
 20
-0.9877618751947759
 30
0.0
 10
1.184327424471799
 20
-0.9923109223122162
 30
0.0
 10
1.1858587883807
 20
-0.9949636497758881
 30
0.0
 10
1.186558562036592
 20
-0.9961864701614498
 30
0.0
  0
LINE
  5
E4
330
1F
100
AcDbEntity
  8
0
  6
Continuous
 62
     7
370
    25
100
AcDbLine
 10
1.1186160129
 20
-0.9097992807
 30
0.0
 11
1.1271124078
 21
-0.916693607
 31
0.0
  0
ARC
  5
E5
330
1F
100
AcDbEntity
  8
0
  6
Continuous
 62
     7
370
    25
100
AcDbCircle
 10
1.1309263426
 20
-0.8946283388
 30
0.0
 40
0.019537187563351
100
AcDbArc
 50
141.7193182671
 51
230.9426960915
  0
ARC
  5
E6
330
1F
100
AcDbEntity
  8
0
  6
Continuous
 62
     7
370
    25
100
AcDbCircle
 10
-0.0005610289
 20
-0.0016527386
 30
0.0
 40
1.421875000000003
100
AcDbArc
 50
321.7193182671
 51
323.2806817329
  0
ARC
  5
E7
330
1F
100
AcDbEntity
  8
0
  6
Continuous
 62
     7
370
    25
100
AcDbCircle
 10
1.1548376466
 20
-0.8634665208
 30
0.0
 40
0.019537187563351
100
AcDbArc
 50
54.0573039085
 51
143.2806817329
  0
LINE
  5
E8
330
1F
100
AcDbEntity
  8
0
  6
Continuous
 62
     7
370
    25
100
AcDbLine
 10
1.17516394
 20
-0.854071631
 30
0.0
 11
1.1663055034
 21
-0.8476491266
 31
0.0
  0
SPLINE
  5
E9
330
1F
100
AcDbEntity
  8
0
  6
Continuous
 62
     7
370
    25
100
AcDbSpline
210
0.0
220
0.0
230
1.0
 70
     8
 71
     4
 72
    30
 73
    25
 74
     0
 42
0.000000001
 43
0.00000001
 40
0.1158292816275422
 40
0.1158292816275422
 40
0.1158292816275422
 40
0.1158292816275422
 40
0.1158292816275422
 40
0.1641972261336471
 40
0.2189295268191453
 40
0.2736619316695276
 40
0.3283942982642787
 40
0.3831266318023283
 40
0.4378589770028988
 40
0.4925912529856677
 40
0.5473235620026173
 40
0.6020558817592608
 40
0.652783568933083
 40
0.6801499008181584
 40
0.7075159582806415
 40
0.7348820599390721
 40
0.7622484179955665
 40
0.789614737865057
 40
0.8169803882616113
 40
0.8442360645756393
 40
0.8624807742783243
 40
0.894007225739611
 40
0.9037141653194946
 40
0.9090909141271956
 40
0.9090909141271956
 40
0.9090909141271956
 40
0.9090909141271956
 40
0.9090909141271956
 10
1.267528432290572
 20
-0.8909692131868726
 30
0.0
 10
1.266117247203489
 20
-0.8905974843115346
 30
0.0
 10
1.263121502551198
 20
-0.8897954407957197
 30
0.0
 10
1.257980663808932
 20
-0.88839596404165
 30
0.0
 10
1.251857276184389
 20
-0.8866100289747467
 30
0.0
 10
1.245072897924468
 20
-0.8845597891631775
 30
0.0
 10
1.23862567194035
 20
-0.8824854897924845
 30
0.0
 10
1.232024034497415
 20
-0.8802670584389206
 30
0.0
 10
1.225573589554308
 20
-0.8779705612880646
 30
0.0
 10
1.219091954259012
 20
-0.8755467041376125
 30
0.0
 10
1.212818566473188
 20
-0.8730626758200428
 30
0.0
 10
1.207358974467305
 20
-0.8707835586223118
 30
0.0
 10
1.202746807021115
 20
-0.8687605750429866
 30
0.0
 10
1.198939450369755
 20
-0.8670245912613886
 30
0.0
 10
1.195824045912399
 20
-0.8655566398487292
 30
0.0
 10
1.192725020140311
 20
-0.8640472084018244
 30
0.0
 10
1.189649735941542
 20
-0.8624944130504576
 30
0.0
 10
1.186600699509028
 20
-0.8608953410823177
 30
0.0
 10
1.183832743430338
 20
-0.8593813295072428
 30
0.0
 10
1.180977795022963
 20
-0.8577533379889342
 30
0.0
 10
1.178637089975218
 20
-0.8563476699850452
 30
0.0
 10
1.176910130076205
 20
-0.8552584179047502
 30
0.0
 10
1.175691065410162
 20
-0.8544416847229439
 30
0.0
 10
1.175301799775053
 20
-0.8541698255574495
 30
0.0
 10
1.17516393999592
 20
-0.8540716309523161
 30
0.0
  0
ARC
  5
EA
330
1F
100
AcDbEntity
  8
0
  6
Continuous
 62
     7
370
    25
100
AcDbCircle
 10
1.2726229685
 20
-0.8716289521
 30
0.0
 40
0.0200000000000045
100
AcDbArc
 50
255.2426020104
 51
325.5924659736
  0
ARC
  5
EB
330
1F
100
AcDbEntity
  8
0
  6
Continuous
 62
     7
370
    25
100
AcDbCircle
 10
0.0
 20
0.0
 30
0.0
 40
1.5625
100
AcDbArc
 50
325.5924659736
 51
326.7950685519
  0
ARC
  5
EC
330
1F
100
AcDbEntity
  8
0
  6
Continuous
 62
     7
370
    25
100
AcDbCircle
 10
1.2906362526
 20
-0.8447273604
 30
0.0
 40
0.0200000000000006
100
AcDbArc
 50
326.7950685519
 51
37.2532438389
  0
SPLINE
  5
ED
330
1F
100
AcDbEntity
  8
0
  6
Continuous
 62
     7
370
    25
100
AcDbSpline
210
0.0
220
0.0
230
1.0
 70
     8
 71
     4
 72
    30
 73
    25
 74
     0
 42
0.000000001
 43
0.00000001
 40
0.0
 40
0.0
 40
0.0
 40
0.0
 40
0.0
 40
0.005376748807701
 40
0.0150836883875846
 40
0.0466101398488713
 40
0.0648548495515563
 40
0.0921105258655842
 40
0.1194761762621386
 40
0.146842496131629
 40
0.1742088541881235
 40
0.201574955846554
 40
0.2289410133090372
 40
0.2563073451941125
 40
0.3070350323679347
 40
0.3617673521245782
 40
0.4164996611415279
 40
0.4712319371242968
 40
0.5259642823248672
 40
0.5806966158629169
 40
0.635428982457668
 40
0.6901613873080502
 40
0.7448936879935485
 40
0.7935520884131448
 40
0.7935520884131448
 40
0.7935520884131448
 40
0.7935520884131448
 40
0.7935520884131448
 10
1.237099104249803
 20
-0.7613791071331908
 30
0.0
 10
1.237242580889153
 20
-0.761468895512956
 30
0.0
 10
1.237642711517224
 20
-0.7617244940673716
 30
0.0
 10
1.238863790438094
 20
-0.7625382127037963
 30
0.0
 10
1.240531007082535
 20
-0.7637168768831646
 30
0.0
 10
1.242725424022659
 20
-0.7653414805119273
 30
0.0
 10
1.245322033521286
 20
-0.7673561035297894
 30
0.0
 10
1.247780048760312
 20
-0.7693339743515911
 30
0.0
 10
1.25042421435009
 20
-0.7715389783561055
 30
0.0
 10
1.253035670506079
 20
-0.7737859414291816
 30
0.0
 10
1.255616149145054
 20
-0.7760714335037172
 30
0.0
 10
1.258164573080878
 20
-0.7783879312322213
 30
0.0
 10
1.261225425277048
 20
-0.7812411378833114
 30
0.0
 10
1.264859418469544
 20
-0.7847280626876073
 30
0.0
 10
1.269054343608847
 20
-0.7888998876057145
 30
0.0
 10
1.273750008100064
 20
-0.7937451456978835
 30
0.0
 10
1.278469774553241
 20
-0.7988058259105124
 30
0.0
 10
1.283059939678497
 20
-0.8038864285569338
 30
0.0
 10
1.287635840276229
 20
-0.8091365893466738
 30
0.0
 10
1.292019489577949
 20
-0.8142992494719455
 30
0.0
 10
1.296509933335567
 20
-0.8197826048788381
 30
0.0
 10
1.300508697772888
 20
-0.8247632260130624
 30
0.0
 10
1.303775503502478
 20
-0.8289859002137911
 30
0.0
 10
1.305666862354174
 20
-0.8314519578325674
 30
0.0
 10
1.306555607245118
 20
-0.8326205793703345
 30
0.0
  0
LINE
  5
EE
330
1F
100
AcDbEntity
  8
0
  6
Continuous
 62
     7
370
    25
100
AcDbLine
 10
1.227775507
 20
-0.7556527649
 30
0.0
 11
1.2370991042
 21
-0.7613791071
 31
0.0
  0
ARC
  5
EF
330
1F
100
AcDbEntity
  8
0
  6
Continuous
 62
     7
370
    25
100
AcDbCircle
 10
1.2380003149
 20
-0.739004792
 30
0.0
 40
0.0195371875633513
100
AcDbArc
 50
149.2193182671
 51
238.4426960915
  0
ARC
  5
F0
330
1F
100
AcDbEntity
  8
0
  6
Continuous
 62
     7
370
    25
100
AcDbCircle
 10
-0.0003637301
 20
-0.00135746
 30
0.0
 40
1.421875000000002
100
AcDbArc
 50
329.2193182671
 51
330.7806817329
  0
ARC
  5
F1
330
1F
100
AcDbEntity
  8
0
  6
Continuous
 62
     7
370
    25
100
AcDbCircle
 10
1.2576396209
 20
-0.7049885162
 30
0.0
 40
0.0195371875633512
100
AcDbArc
 50
61.5573039085
 51
150.7806817329
  0
LINE
  5
F2
330
1F
100
AcDbEntity
  8
0
  6
Continuous
 62
     7
370
    25
100
AcDbLine
 10
1.2765657409
 20
-0.6930208873
 30
0.0
 11
1.2669447844
 21
-0.6878095864
 31
0.0
  0
SPLINE
  5
F3
330
1F
100
AcDbEntity
  8
0
  6
Continuous
 62
     7
370
    25
100
AcDbSpline
210
0.0
220
0.0
230
1.0
 70
     8
 71
     4
 72
    30
 73
    25
 74
     0
 42
0.000000001
 43
0.00000001
 40
0.1141671908782134
 40
0.1141671908782134
 40
0.1141671908782134
 40
0.1141671908782134
 40
0.1141671908782134
 40
0.1641972261336471
 40
0.2189295268191453
 40
0.2736619316695276
 40
0.3283942982642787
 40
0.3831266318023283
 40
0.4378589770028988
 40
0.4925912529856677
 40
0.5473235620026173
 40
0.6020558817592608
 40
0.652783568933083
 40
0.6801499008181584
 40
0.7075159582806415
 40
0.7348820599390721
 40
0.7622484179955665
 40
0.789614737865057
 40
0.8169803882616113
 40
0.8442360645756393
 40
0.8624807742783243
 40
0.894007225739611
 40
0.9037141653194946
 40
0.9090909141271956
 40
0.9090909141271956
 40
0.9090909141271956
 40
0.9090909141271956
 40
0.9090909141271956
 10
1.37315517659182
 20
-0.7175721242435029
 30
0.0
 10
1.371656924092656
 20
-0.7173819644435594
 30
0.0
 10
1.368544967943631
 20
-0.716973399024677
 30
0.0
 10
1.363203473834082
 20
-0.7162494148535165
 30
0.0
 10
1.356850068148922
 20
-0.7152704256465491
 30
0.0
 10
1.349856121189765
 20
-0.7141232649816326
 30
0.0
 10
1.343193301719315
 20
-0.7129082433876975
 30
0.0
 10
1.336358578802581
 20
-0.7115704776197396
 30
0.0
 10
1.329663565281617
 20
-0.7101355793369128
 30
0.0
 10
1.322921004430463
 20
-0.7085784817948468
 30
0.0
 10
1.316377055589144
 20
-0.7069345461038887
 30
0.0
 10
1.310666686660271
 20
-0.7053875468253327
 30
0.0
 10
1.305829924602416
 20
-0.7039838788055995
 30
0.0
 10
1.301828549062241
 20
-0.7027597063720318
 30
0.0
 10
1.298548191213635
 20
-0.7017109553682481
 30
0.0
 10
1.295278657697452
 20
-0.7006189413502407
 30
0.0
 10
1.292027002516808
 20
-0.6994808355148228
 30
0.0
 10
1.288795330238563
 20
-0.6982934229445198
 30
0.0
 10
1.285853436241966
 20
-0.697153654715535
 30
0.0
 10
1.282810416780135
 20
-0.6959122364349474
 30
0.0
 10
1.280306260296484
 20
-0.6948241174326865
 30
0.0
 10
1.2784518988524
 20
-0.6939695975546721
 30
0.0
 10
1.277136658381288
 20
-0.6933189715073854
 30
0.0
 10
1.276715238225958
 20
-0.6931002474958515
 30
0.0
 10
1.276565740888442
 20
-0.6930208872712078
 30
0.0
  0
ARC
  5
F4
330
1F
100
AcDbEntity
  8
0
  6
Continuous
 62
     7
370
    25
100
AcDbCircle
 10
1.3756733959
 20
-0.6977312933
 30
0.0
 40
0.0199999999999995
100
AcDbArc
 50
262.7666339584
 51
333.1062161475
  0
ARC
  5
F5
330
1F
100
AcDbEntity
  8
0
  6
Continuous
 62
     7
370
    25
100
AcDbCircle
 10
0.0
 20
0.0
 30
0.0
 40
1.5625
100
AcDbArc
 50
333.1062161475
 51
334.3042510856
  0
ARC
  5
F6
330
1F
100
AcDbEntity
  8
0
  6
Continuous
 62
     7
370
    25
100
AcDbCircle
 10
1.3899609323
 20
-0.6688160111
 30
0.0
 40
0.0199999999999997
100
AcDbArc
 50
334.3042510856
 51
44.7299831123
  0
SPLINE
  5
F7
330
1F
100
AcDbEntity
  8
0
  6
Continuous
 62
     7
370
    25
100
AcDbSpline
210
0.0
220
0.0
230
1.0
 70
     8
 71
     4
 72
    30
 73
    25
 74
     0
 42
0.000000001
 43
0.00000001
 40
0.0
 40
0.0
 40
0.0
 40
0.0
 40
0.0
 40
0.005376748807701
 40
0.0150836883875846
 40
0.0466101398488713
 40
0.0648548495515563
 40
0.0921105258655842
 40
0.1194761762621386
 40
0.146842496131629
 40
0.1742088541881235
 40
0.201574955846554
 40
0.2289410133090372
 40
0.2563073451941125
 40
0.3070350323679347
 40
0.3617673521245782
 40
0.4164996611415279
 40
0.4712319371242968
 40
0.5259642823248672
 40
0.5806966158629169
 40
0.635428982457668
 40
0.6901613873080502
 40
0.7448936879935485
 40
0.7951542337720049
 40
0.7951542337720049
 40
0.7951542337720049
 40
0.7951542337720049
 40
0.7951542337720049
 10
1.32587223904492
 20
-0.5930371996883838
 30
0.0
 10
1.326026207957047
 20
-0.5931074924567062
 30
0.0
 10
1.326456277718171
 20
-0.5933086768027834
 30
0.0
 10
1.327773121734751
 20
-0.5939560511815294
 30
0.0
 10
1.329579921656918
 20
-0.5949070162852447
 30
0.0
 10
1.331967618381445
 20
-0.5962312923174132
 30
0.0
 10
1.334804974597133
 20
-0.5978897544055397
 30
0.0
 10
1.337500125122117
 20
-0.5995298688987073
 30
0.0
 10
1.340409480285263
 20
-0.6013708759222588
 30
0.0
 10
1.343291882605809
 20
-0.6032577524865659
 30
0.0
 10
1.346148601470144
 20
-0.6051868718087242
 30
0.0
 10
1.348977586913707
 20
-0.6071509155055281
 30
0.0
 10
1.352384671294808
 20
-0.6095801911960745
 30
0.0
 10
1.356442710189038
 20
-0.6125629535813205
 30
0.0
 10
1.361146279583416
 20
-0.6161515403538478
 30
0.0
 10
1.366434205103063
 20
-0.6203424393853771
 30
0.0
 10
1.371774144618148
 20
-0.6247437716339431
 30
0.0
 10
1.376988191962061
 20
-0.6291817722449587
 30
0.0
 10
1.382210228592267
 20
-0.6337897423003334
 30
0.0
 10
1.387230237534401
 20
-0.6383360541011719
 30
0.0
 10
1.392397986425031
 20
-0.6431863781173617
 30
0.0
 10
1.397047376519713
 20
-0.6476356852246458
 30
0.0
 10
1.400879510017065
 20
-0.6514388375902141
 30
0.0
 10
1.403101666003471
 20
-0.6536626745730094
 30
0.0
 10
1.404169558059716
 20
-0.6547406796385647
 30
0.0
  0
LINE
  5
F8
330
1F
100
AcDbEntity
  8
0
  6
Continuous
 62
     7
370
    25
100
AcDbLine
 10
1.3158809688
 20
-0.5885768207
 30
0.0
 11
1.325872239
 21
-0.5930371997
 31
0.0
  0
ARC
  5
F9
330
1F
100
AcDbEntity
  8
0
  6
Continuous
 62
     7
370
    25
100
AcDbCircle
 10
1.3238453056
 20
-0.5707366683
 30
0.0
 40
0.0195371875633509
100
AcDbArc
 50
156.7193182671
 51
245.9426960915
  0
ARC
  5
FA
330
1F
100
AcDbEntity
  8
0
  6
Continuous
 62
     7
370
    25
100
AcDbCircle
 10
-0.0002066608
 20
-0.0010389549
 30
0.0
 40
1.421875000000002
100
AcDbArc
 50
336.7193182671
 51
338.2806817329
  0
ARC
  5
FB
330
1F
100
AcDbEntity
  8
0
  6
Continuous
 62
     7
370
    25
100
AcDbCircle
 10
1.3388765796
 20
-0.5344479626
 30
0.0
 40
0.019537187563351
100
AcDbArc
 50
69.0573039085
 51
158.2806817329
  0
LINE
  5
FC
330
1F
100
AcDbEntity
  8
0
  6
Continuous
 62
     7
370
    25
100
AcDbLine
 10
1.356078695
 20
-0.5201123641
 30
0.0
 11
1.3458598359
 21
-0.5162014334
 31
0.0
  0
SPLINE
  5
FD
330
1F
100
AcDbEntity
  8
0
  6
Continuous
 62
     7
370
    25
100
AcDbSpline
210
0.0
220
0.0
230
1.0
 70
     8
 71
     4
 72
    30
 73
    25
 74
     0
 42
0.000000001
 43
0.00000001
 40
0.1128856258099777
 40
0.1128856258099777
 40
0.1128856258099777
 40
0.1128856258099777
 40
0.1128856258099777
 40
0.1641972261336471
 40
0.2189295268191453
 40
0.2736619316695276
 40
0.3283942982642787
 40
0.3831266318023283
 40
0.4378589770028988
 40
0.4925912529856677
 40
0.5473235620026173
 40
0.6020558817592608
 40
0.652783568933083
 40
0.6801499008181584
 40
0.7075159582806415
 40
0.7348820599390721
 40
0.7622484179955665
 40
0.789614737865057
 40
0.8169803882616113
 40
0.8442360645756393
 40
0.8624807742783243
 40
0.894007225739611
 40
0.9037141653194946
 40
0.9090909141271956
 40
0.9090909141271956
 40
0.9090909141271956
 40
0.9090909141271956
 40
0.9090909141271956
 10
1.455201172208351
 20
-0.5318453646441088
 30
0.0
 10
1.453651123341823
 20
-0.5318530910966673
 30
0.0
 10
1.450484119981344
 20
-0.5318545858485374
 30
0.0
 10
1.445045608459951
 20
-0.5318345204606719
 30
0.0
 10
1.438580326224524
 20
-0.5316923470312982
 30
0.0
 10
1.43149647893769
 20
-0.5314678937500643
 30
0.0
 10
1.424732068669329
 20
-0.5311329392892267
 30
0.0
 10
1.417781204282846
 20
-0.5306987286500634
 30
0.0
 10
1.410956175721578
 20
-0.5301499807427138
 30
0.0
 10
1.40406805640012
 20
-0.5294862851796879
 30
0.0
 10
1.397365515282305
 20
-0.5287105703107987
 30
0.0
 10
1.391502075426029
 20
-0.5279221585379827
 30
0.0
 10
1.386523477096324
 20
-0.5271618232268298
 30
0.0
 10
1.382396547312216
 20
-0.5264704080710351
 30
0.0
 10
1.379007363904638
 20
-0.5258588018965709
 30
0.0
 10
1.375623265269307
 20
-0.5252028899700726
 30
0.0
 10
1.372250875828457
 20
-0.52449894695699
 30
0.0
 10
1.368891862513151
 20
-0.5237435107428148
 30
0.0
 10
1.365826367220576
 20
-0.5229974876103216
 30
0.0
 10
1.362647343610966
 20
-0.5221638835784217
 30
0.0
 10
1.360022582503127
 20
-0.521411931595601
 30
0.0
 10
1.358072548152406
 20
-0.5208067649918978
 30
0.0
 10
1.35668363600534
 20
-0.5203333784711874
 30
0.0
 10
1.356237271945486
 20
-0.5201715320420932
 30
0.0
 10
1.35607869499048
 20
-0.5201123640733857
 30
0.0
  0
ARC
  5
FE
330
1F
100
AcDbEntity
  8
0
  6
Continuous
 62
     7
370
    25
100
AcDbCircle
 10
1.4551014804
 20
-0.5118456131
 30
0.0
 40
0.0199999999999999
100
AcDbArc
 50
270.2855970965
 51
340.6201983912
  0
ARC
  5
FF
330
1F
100
AcDbEntity
  8
0
  6
Continuous
 62
     7
370
    25
100
AcDbCircle
 10
0.0
 20
0.0
 30
0.0
 40
1.5625
100
AcDbArc
 50
340.6201983912
 51
341.8147328881
  0
ARC
  5
100
330
1F
100
AcDbEntity
  8
0
  6
Continuous
 62
     7
370
    25
100
AcDbCircle
 10
1.4654557238
 20
-0.4813998042
 30
0.0
 40
0.0200000000000007
100
AcDbArc
 50
341.8147328881
 51
52.2119028163
  0
SPLINE
  5
101
330
1F
100
AcDbEntity
  8
0
  6
Continuous
 62
     7
370
    25
100
AcDbSpline
210
0.0
220
0.0
230
1.0
 70
     8
 71
     4
 72
    30
 73
    25
 74
     0
 42
0.000000001
 43
0.00000001
 40
0.0
 40
0.0
 40
0.0
 40
0.0
 40
0.0
 40
0.005376748807701
 40
0.0150836883875846
 40
0.0466101398488713
 40
0.0648548495515563
 40
0.0921105258655842
 40
0.1194761762621386
 40
0.146842496131629
 40
0.1742088541881235
 40
0.201574955846554
 40
0.2289410133090372
 40
0.2563073451941125
 40
0.3070350323679347
 40
0.3617673521245782
 40
0.4164996611415279
 40
0.4712319371242968
 40
0.5259642823248672
 40
0.5806966158629169
 40
0.635428982457668
 40
0.6901613873080502
 40
0.7448936879935485
 40
0.7963723629973155
 40
0.7963723629973155
 40
0.7963723629973155
 40
0.7963723629973155
 40
0.7963723629973155
 10
1.391912879195752
 20
-0.4145482613421214
 30
0.0
 10
1.392074705929881
 20
-0.4145978557702462
 30
0.0
 10
1.392527356211208
 20
-0.4147411835880447
 30
0.0
 10
1.393917433757275
 20
-0.4152111369540057
 30
0.0
 10
1.39583290210956
 20
-0.415918131705486
 30
0.0
 10
1.398373024465539
 20
-0.4169194214109912
 30
0.0
 10
1.401402579446775
 20
-0.4181933458232419
 30
0.0
 10
1.404288750484997
 20
-0.4194676411740715
 30
0.0
 10
1.407413515348044
 20
-0.4209131510760635
 30
0.0
 10
1.41051754513029
 20
-0.4224076561504454
 30
0.0
 10
1.413601624968184
 20
-0.4239473949537714
 30
0.0
 10
1.416662767194202
 20
-0.4255253792866871
 30
0.0
 10
1.420357787601852
 20
-0.427489158436102
 30
0.0
 10
1.424770438027235
 20
-0.4299167225109085
 30
0.0
 10
1.429902172300276
 20
-0.4328606694232336
 30
0.0
 10
1.435691880976622
 20
-0.4363255019497572
 30
0.0
 10
1.441560625708
 20
-0.4399921782192074
 30
0.0
 10
1.447309341474909
 20
-0.4437116413739166
 30
0.0
 10
1.453088163643024
 20
-0.4475985770497076
 30
0.0
 10
1.458658638480761
 20
-0.451450751870725
 30
0.0
 10
1.464415270888113
 20
-0.4555850541075309
 30
0.0
 10
1.469635117435073
 20
-0.4594110386198678
 30
0.0
 10
1.473966943393348
 20
-0.4627097601992406
 30
0.0
 10
1.476481461816215
 20
-0.4646411636321039
 30
0.0
 10
1.477710581639955
 20
-0.4655941577869248
 30
0.0
  0
LINE
  5
102
330
1F
100
AcDbEntity
  8
0
  6
Continuous
 62
     7
370
    25
100
AcDbLine
 10
1.3814248894
 20
-0.411430164
 30
0.0
 11
1.3919128792
 21
-0.4145482613
 31
0.0
  0
ARC
  5
103
330
1F
100
AcDbEntity
  8
0
  6
Continuous
 62
     7
370
    25
100
AcDbCircle
 10
1.386992483
 20
-0.392703082
 30
0.0
 40
0.019537187563351
100
AcDbArc
 50
164.2193182671
 51
253.4426960915
  0
ARC
  5
104
330
1F
100
AcDbEntity
  8
0
  6
Continuous
 62
     7
370
    25
100
AcDbCircle
 10
-0.0000925086
 20
-0.000702673
 30
0.0
 40
1.421875000000002
100
AcDbArc
 50
344.2193182671
 51
345.7806817329
  0
ARC
  5
105
330
1F
100
AcDbEntity
  8
0
  6
Continuous
 62
     7
370
    25
100
AcDbCircle
 10
1.3971585358
 20
-0.3547628563
 30
0.0
 40
0.019537187563351
100
AcDbArc
 50
76.5573039085
 51
165.7806817329
  0
LINE
  5
106
330
1F
100
AcDbEntity
  8
0
  6
Continuous
 62
     7
370
    25
100
AcDbLine
 10
1.4123423136
 20
-0.3383045741
 30
0.0
 11
1.4017003994
 21
-0.3357609307
 31
0.0
  0
SPLINE
  5
107
330
1F
100
AcDbEntity
  8
0
  6
Continuous
 62
     7
370
    25
100
AcDbSpline
210
0.0
220
0.0
230
1.0
 70
     8
 71
     4
 72
    30
 73
    25
 74
     0
 42
0.000000001
 43
0.00000001
 40
0.1120072373108143
 40
0.1120072373108143
 40
0.1120072373108143
 40
0.1120072373108143
 40
0.1120072373108143
 40
0.1641972261336471
 40
0.2189295268191453
 40
0.2736619316695276
 40
0.3283942982642787
 40
0.3831266318023283
 40
0.4378589770028988
 40
0.4925912529856677
 40
0.5473235620026173
 40
0.6020558817592608
 40
0.652783568933083
 40
0.6801499008181584
 40
0.7075159582806415
 40
0.7348820599390721
 40
0.7622484179955665
 40
0.789614737865057
 40
0.8169803882616113
 40
0.8442360645756393
 40
0.8624807742783243
 40
0.894007225739611
 40
0.9037141653194946
 40
0.9090909141271956
 40
0.9090909141271956
 40
0.9090909141271956
 40
0.9090909141271956
 40
0.9090909141271956
 10
1.512253441885137
 20
-0.3369847226008876
 30
0.0
 10
1.510690403333775
 20
-0.3371987992694715
 30
0.0
 10
1.507531718441533
 20
-0.3376164147384184
 30
0.0
 10
1.502104353181339
 20
-0.3383110683277509
 30
0.0
 10
1.495649623035612
 20
-0.3390168649515611
 30
0.0
 10
1.488597082012194
 20
-0.3397189595118821
 30
0.0
 10
1.481846821881063
 20
-0.3402698033478335
 30
0.0
 10
1.474898747241627
 20
-0.3407465773018869
 30
0.0
 10
1.468060481770992
 20
-0.341093368998851
 30
0.0
 10
1.461144661610568
 20
-0.3413344314299597
 30
0.0
 10
1.454398210553079
 20
-0.3414402100796149
 30
0.0
 10
1.448482024850993
 20
-0.341423875756561
 30
0.0
 10
1.443446775447187
 20
-0.3413198827019667
 30
0.0
 10
1.439264904331953
 20
-0.3411730551289573
 30
0.0
 10
1.435824885233166
 20
-0.3410090585350268
 30
0.0
 10
1.432384124344587
 20
-0.340800471534953
 30
0.0
 10
1.428948703161868
 20
-0.3405427360043296
 30
0.0
 10
1.425519822458621
 20
-0.3402322018693532
 30
0.0
 10
1.422383177344438
 20
-0.3398926884959853
 30
0.0
 10
1.419122543562401
 20
-0.3394811619088776
 30
0.0
 10
1.41642208822065
 20
-0.3390782430524037
 30
0.0
 10
1.414409746591686
 20
-0.3387327842913851
 30
0.0
 10
1.412970927440581
 20
-0.3384447370718679
 30
0.0
 10
1.412507256889023
 20
-0.3383425374624872
 30
0.0
 10
1.412342313612193
 20
-0.338304574130065
 30
0.0
  0
ARC
  5
108
330
1F
100
AcDbEntity
  8
0
  6
Continuous
 62
     7
370
    25
100
AcDbCircle
 10
1.5095395408
 20
-0.3171697096
 30
0.0
 40
0.0199999999999992
100
AcDbArc
 50
277.798813335
 51
348.1341717144
  0
ARC
  5
109
330
1F
100
AcDbEntity
  8
0
  6
Continuous
 62
     7
370
    25
100
AcDbCircle
 10
0.0
 20
0.0
 30
0.0
 40
1.5625
100
AcDbArc
 50
348.1341717144
 51
349.3263365053
  0
ARC
  5
10A
330
1F
100
AcDbEntity
  8
0
  6
Continuous
 62
     7
370
    25
100
AcDbCircle
 10
1.5158117206
 20
-0.2856940283
 30
0.0
 40
0.0199999999999997
100
AcDbArc
 50
349.3263365053
 51
59.6996525528
  0
SPLINE
  5
10B
330
1F
100
AcDbEntity
  8
0
  6
Continuous
 62
     7
370
    25
100
AcDbSpline
210
0.0
220
0.0
230
1.0
 70
     8
 71
     4
 72
    30
 73
    25
 74
     0
 42
0.000000001
 43
0.00000001
 40
0.0
 40
0.0
 40
0.0
 40
0.0
 40
0.0
 40
0.005376748807701
 40
0.0150836883875846
 40
0.0466101398488713
 40
0.0648548495515563
 40
0.0921105258655842
 40
0.1194761762621386
 40
0.146842496131629
 40
0.1742088541881235
 40
0.201574955846554
 40
0.2289410133090372
 40
0.2563073451941125
 40
0.3070350323679347
 40
0.3617673521245782
 40
0.4164996611415279
 40
0.4712319371242968
 40
0.5259642823248672
 40
0.5806966158629169
 40
0.635428982457668
 40
0.6901613873080502
 40
0.7448936879935485
 40
0.7971848775515882
 40
0.7971848775515882
 40
0.7971848775515882
 40
0.7971848775515882
 40
0.7971848775515882
 10
1.434091051039394
 20
-0.2289662873159898
 30
0.0
 10
1.434257966695238
 20
-0.2289943348295018
 30
0.0
 10
1.434725452524955
 20
-0.2290773537403212
 30
0.0
 10
1.436164978988294
 20
-0.2293618450611098
 30
0.0
 10
1.438156341576122
 20
-0.2298127725841413
 30
0.0
 10
1.440805427365787
 20
-0.230473943618512
 30
0.0
 10
1.44397534458689
 20
-0.2313415331549946
 30
0.0
 10
1.447003152951688
 20
-0.2322282058167323
 30
0.0
 10
1.450289861921481
 20
-0.2332534855219706
 30
0.0
 10
1.453562408355253
 20
-0.2343300477102494
 30
0.0
 10
1.456821079705611
 20
-0.235454060636922
 30
0.0
 10
1.46006200172189
 20
-0.2366189858565134
 30
0.0
 10
1.46398173533246
 20
-0.2380836676590878
 30
0.0
 10
1.468673495616799
 20
-0.2399144971290871
 30
0.0
 10
1.474145589372305
 20
-0.242163432433324
 30
0.0
 10
1.480338017684687
 20
-0.2448429142096797
 30
0.0
 10
1.486635151782881
 20
-0.2477121966524491
 30
0.0
 10
1.492820173852168
 20
-0.2506494813050448
 30
0.0
 10
1.499056904308705
 20
-0.2537488760541774
 30
0.0
 10
1.505082532673145
 20
-0.2568410021161613
 30
0.0
 10
1.511329551020689
 20
-0.2601885435160666
 30
0.0
 10
1.517025510078474
 20
-0.2633121930556303
 30
0.0
 10
1.521777192152733
 20
-0.2660328760352306
 30
0.0
 10
1.524537507915423
 20
-0.2676286018911877
 30
0.0
 10
1.525902377743668
 20
-0.2684261785257162
 30
0.0
  0
LINE
  5
10C
330
1F
100
AcDbEntity
  8
0
  6
Continuous
 62
     7
370
    25
100
AcDbLine
 10
1.4232857941
 20
-0.2272438231
 30
0.0
 11
1.434091051
 21
-0.2289662873
 31
0.0
  0
ARC
  5
10D
330
1F
100
AcDbEntity
  8
0
  6
Continuous
 62
     7
370
    25
100
AcDbCircle
 10
1.4263613814
 20
-0.2079502371
 30
0.0
 40
0.0195371875633511
100
AcDbArc
 50
171.7193182671
 51
260.9426960915
  0
ARC
  5
10E
330
1F
100
AcDbEntity
  8
0
  6
Continuous
 62
     7
370
    25
100
AcDbCircle
 10
-0.0000232265
 20
-0.0003543682
 30
0.0
 40
1.421875000000002
100
AcDbArc
 50
351.7193182671
 51
353.2806817329
  0
ARC
  5
10F
330
1F
100
AcDbEntity
  8
0
  6
Continuous
 62
     7
370
    25
100
AcDbCircle
 10
1.4314882691
 20
-0.1690076591
 30
0.0
 40
0.019537187563351
100
AcDbArc
 50
84.0573039085
 51
173.2806817329
  0
LINE
  5
110
330
1F
100
AcDbEntity
  8
0
  6
Continuous
 62
     7
370
    25
100
AcDbLine
 10
1.4443939106
 20
-0.1507082991
 30
0.0
 11
1.4335110273
 21
-0.1495754655
 31
0.0
  0
SPLINE
  5
111
330
1F
100
AcDbEntity
  8
0
  6
Continuous
 62
     7
370
    25
100
AcDbSpline
210
0.0
220
0.0
230
1.0
 70
     8
 71
     4
 72
    30
 73
    25
 74
     0
 42
0.000000001
 43
0.00000001
 40
0.1115472048289764
 40
0.1115472048289764
 40
0.1115472048289764
 40
0.1115472048289764
 40
0.1115472048289764
 40
0.1641972261336471
 40
0.2189295268191453
 40
0.2736619316695276
 40
0.3283942982642787
 40
0.3831266318023283
 40
0.4378589770028988
 40
0.4925912529856677
 40
0.5473235620026173
 40
0.6020558817592608
 40
0.652783568933083
 40
0.6801499008181584
 40
0.7075159582806415
 40
0.7348820599390721
 40
0.7622484179955665
 40
0.789614737865057
 40
0.8169803882616113
 40
0.8442360645756393
 40
0.8624807742783243
 40
0.894007225739611
 40
0.9037141653194946
 40
0.9090909141271956
 40
0.9090909141271956
 40
0.9090909141271956
 40
0.9090909141271956
 40
0.9090909141271956
 10
1.543331673082794
 20
-0.1363440371493483
 30
0.0
 10
1.541795981035011
 20
-0.1367643222238894
 30
0.0
 10
1.538709248542209
 20
-0.1375933627109881
 30
0.0
 10
1.533402280491637
 20
-0.1389951617220001
 30
0.0
 10
1.527081487091152
 20
-0.1405407103254567
 30
0.0
 10
1.520180923263392
 20
-0.1421573396947479
 30
0.0
 10
1.513560312091861
 20
-0.1435845567367328
 30
0.0
 10
1.506733910682922
 20
-0.1449641575494623
 30
0.0
 10
1.499999412921051
 20
-0.1462005551486562
 30
0.0
 10
1.493174223522032
 20
-0.147342250928868
 30
0.0
 10
1.486499296172933
 20
-0.1483277131950446
 30
0.0
 10
1.480631592202675
 20
-0.1490837358065489
 30
0.0
 10
1.475625846238103
 20
-0.1496378643585098
 30
0.0
 10
1.471460586765959
 20
-0.1500381366287682
 30
0.0
 10
1.468028591656496
 20
-0.1503245556425619
 30
0.0
 10
1.464590040887432
 20
-0.1505668625503153
 30
0.0
 10
1.461150368971758
 20
-0.1507597444285377
 30
0.0
 10
1.457710289980067
 20
-0.1508994256979059
 30
0.0
 10
1.454556163911824
 20
-0.1509722312516123
 30
0.0
 10
1.451269710305389
 20
-0.1509898234432992
 30
0.0
 10
1.448539766269332
 20
-0.1509428317665165
 30
0.0
 10
1.446499549085321
 20
-0.1508629917433628
 30
0.0
 10
1.445035441524769
 20
-0.1507652123928264
 30
0.0
 10
1.444562398013197
 20
-0.1507244082668109
 30
0.0
 10
1.444393910639741
 20
-0.1507082991338172
 30
0.0
  0
ARC
  5
112
330
1F
100
AcDbEntity
  8
0
  6
Continuous
 62
     7
370
    25
100
AcDbCircle
 10
1.5380522572
 20
-0.1170534237
 30
0.0
 40
0.0200000000000025
100
AcDbArc
 50
285.3058060683
 51
355.6478957914
  0
ARC
  5
113
330
1F
100
AcDbEntity
  8
0
  6
Continuous
 62
     7
370
    25
100
AcDbCircle
 10
0.0
 20
0.0
 30
0.0
 40
1.5625
100
AcDbArc
 50
355.6478957914
 51
356.8388648032
  0
ARC
  5
114
330
1F
100
AcDbEntity
  8
0
  6
Continuous
 62
     7
370
    25
100
AcDbCircle
 10
1.5401529309
 20
-0.0850599764
 30
0.0
 40
0.0199999999999992
100
AcDbArc
 50
356.8388648032
 51
67.1936768299
  0
SPLINE
  5
115
330
1F
100
AcDbEntity
  8
0
  6
Continuous
 62
     7
370
    25
100
AcDbSpline
210
0.0
220
0.0
230
1.0
 70
     8
 71
     4
 72
    30
 73
    25
 74
     0
 42
0.000000001
 43
0.00000001
 40
0.0
 40
0.0
 40
0.0
 40
0.0
 40
0.0
 40
0.005376748807701
 40
0.0150836883875846
 40
0.0466101398488713
 40
0.0648548495515563
 40
0.0921105258655842
 40
0.1194761762621386
 40
0.146842496131629
 40
0.1742088541881235
 40
0.201574955846554
 40
0.2289410133090372
 40
0.2563073451941125
 40
0.3070350323679347
 40
0.3617673521245782
 40
0.4164996611415279
 40
0.4712319371242968
 40
0.5259642823248672
 40
0.5806966158629169
 40
0.635428982457668
 40
0.6901613873080502
 40
0.7448936879935485
 40
0.797577600895246
 40
0.797577600895246
 40
0.797577600895246
 40
0.797577600895246
 40
0.797577600895246
 10
1.451685074361603
 20
-0.0394666366386392
 30
0.0
 10
1.451854222966012
 20
-0.0394726573368058
 30
0.0
 10
1.452328545531961
 20
-0.0394939468640648
 30
0.0
 10
1.453792890215673
 20
-0.0395881084143064
 30
0.0
 10
1.455826074273056
 20
-0.0397752532139494
 30
0.0
 10
1.458538796904079
 20
-0.0400849927574763
 30
0.0
 10
1.461794838202529
 20
-0.0405314027206804
 30
0.0
 10
1.464912477253316
 20
-0.0410152814782517
 30
0.0
 10
1.468304893828133
 20
-0.0416027881667187
 30
0.0
 10
1.471689962736627
 20
-0.0422429871913735
 30
0.0
 10
1.475067468829171
 20
-0.042932042068582
 30
0.0
 10
1.478432717561458
 20
-0.0436639759813637
 30
0.0
 10
1.482510096646116
 20
-0.0446044993253692
 30
0.0
 10
1.487400689470145
 20
-0.0458072681907277
 30
0.0
 10
1.493119513666809
 20
-0.0473227119802983
 30
0.0
 10
1.499608707449936
 20
-0.0491709963304002
 30
0.0
 10
1.506226485204631
 20
-0.0511937907283778
 30
0.0
 10
1.512741986133879
 20
-0.0532986391240849
 30
0.0
 10
1.519329912691577
 20
-0.055557461443087
 30
0.0
 10
1.525707594410784
 20
-0.0578366316118175
 30
0.0
 10
1.532338110482594
 20
-0.060340134813356
 30
0.0
 10
1.538404041957288
 20
-0.0626978585658336
 30
0.0
 10
1.543483812240324
 20
-0.0647808656347658
 30
0.0
 10
1.546436597412925
 20
-0.0660060019548444
 30
0.0
 10
1.547905277271087
 20
-0.0666235688524931
 30
0.0
  0
LINE
  5
116
330
1F
100
AcDbEntity
  8
0
  6
Continuous
 62
     7
370
    25
100
AcDbLine
 10
1.4407474312
 20
-0.0391692774
 30
0.0
 11
1.4516850744
 21
-0.0394666366
 31
0.0
  0
ARC
  5
117
330
1F
100
AcDbEntity
  8
0
  6
Continuous
 62
     7
370
    25
100
AcDbCircle
 10
1.4412783881
 20
-0.019639306
 30
0.0
 40
0.0195371875633512
100
AcDbArc
 50
179.2193182671
 51
268.4426960915
  0
ARC
  5
118
330
1F
100
AcDbEntity
  8
0
  6
Continuous
 62
     7
370
    25
100
AcDbCircle
 10
0.0
 20
0.0
 30
0.0
 40
1.421875000000002
100
AcDbArc
 50
359.2193182671
 51
0.7806817329
  0
ARC
  5
119
330
1F
100
AcDbEntity
  8
0
  6
Continuous
 62
     7
370
    25
100
AcDbCircle
 10
1.4412783881
 20
0.019639306
 30
0.0
 40
0.0195371875633512
100
AcDbArc
 50
91.5573039085
 51
180.7806817329
  0
LINE
  5
11A
330
1F
100
AcDbEntity
  8
0
  6
Continuous
 62
     7
370
    25
100
AcDbLine
 10
1.4516850744
 20
0.0394666366
 30
0.0
 11
1.4407474312
 21
0.0391692774
 31
0.0
  0
SPLINE
  5
11B
330
1F
100
AcDbEntity
  8
0
  6
Continuous
 62
     7
370
    25
100
AcDbSpline
210
0.0
220
0.0
230
1.0
 70
     8
 71
     4
 72
    30
 73
    25
 74
     0
 42
0.000000001
 43
0.00000001
 40
0.1115133132319833
 40
0.1115133132319833
 40
0.1115133132319833
 40
0.1115133132319833
 40
0.1115133132319833
 40
0.1641972261336471
 40
0.2189295268191453
 40
0.2736619316695276
 40
0.3283942982642787
 40
0.3831266318023283
 40
0.4378589770028988
 40
0.4925912529856677
 40
0.5473235620026173
 40
0.6020558817592608
 40
0.652783568933083
 40
0.6801499008181584
 40
0.7075159582806415
 40
0.7348820599390721
 40
0.7622484179955665
 40
0.789614737865057
 40
0.8169803882616113
 40
0.8442360645756393
 40
0.8624807742783243
 40
0.894007225739611
 40
0.9037141653194946
 40
0.9090909141271956
 40
0.9090909141271956
 40
0.9090909141271956
 40
0.9090909141271956
 40
0.9090909141271956
 10
1.547905277271083
 20
0.0666235688524915
 30
0.0
 10
1.546436597412922
 20
0.0660060019548432
 30
0.0
 10
1.543483812240322
 20
0.0647808656347649
 30
0.0
 10
1.538404041957287
 20
0.0626978585658333
 30
0.0
 10
1.532338110482594
 20
0.0603401348133561
 30
0.0
 10
1.525707594410784
 20
0.0578366316118175
 30
0.0
 10
1.519329912691577
 20
0.055557461443087
 30
0.0
 10
1.512741986133879
 20
0.053298639124085
 30
0.0
 10
1.506226485204631
 20
0.0511937907283778
 30
0.0
 10
1.499608707449936
 20
0.0491709963304002
 30
0.0
 10
1.493119513666809
 20
0.0473227119802983
 30
0.0
 10
1.487400689470145
 20
0.0458072681907277
 30
0.0
 10
1.482510096646116
 20
0.0446044993253692
 30
0.0
 10
1.478432717561458
 20
0.0436639759813637
 30
0.0
 10
1.475067468829171
 20
0.0429320420685821
 30
0.0
 10
1.471689962736627
 20
0.0422429871913736
 30
0.0
 10
1.468304893828133
 20
0.0416027881667187
 30
0.0
 10
1.464912477253316
 20
0.0410152814782518
 30
0.0
 10
1.461794838202529
 20
0.0405314027206804
 30
0.0
 10
1.458538796904079
 20
0.0400849927574764
 30
0.0
 10
1.455826074273056
 20
0.0397752532139494
 30
0.0
 10
1.453792890215673
 20
0.0395881084143065
 30
0.0
 10
1.452328545531961
 20
0.0394939468640648
 30
0.0
 10
1.451854222966012
 20
0.0394726573368058
 30
0.0
 10
1.451685074361603
 20
0.0394666366386392
 30
0.0
  0
ARC
  5
11C
330
1F
100
AcDbEntity
  8
0
  6
Continuous
 62
     7
370
    25
100
AcDbCircle
 10
1.5401529309
 20
0.0850599764
 30
0.0
 40
0.0199999999999999
100
AcDbArc
 50
292.8063231701
 51
3.1611351968
  0
ARC
  5
11D
330
1F
100
AcDbEntity
  8
0
  6
Continuous
 62
     7
370
    25
100
AcDbCircle
 10
0.0
 20
0.0
 30
0.0
 40
1.5625
100
AcDbArc
 50
3.1611351968
 51
4.3521042074
  0
ARC
  5
11E
330
1F
100
AcDbEntity
  8
0
  6
Continuous
 62
     7
370
    25
100
AcDbCircle
 10
1.5380522572
 20
0.1170534236
 30
0.0
 40
0.0200000000000026
100
AcDbArc
 50
4.3521042074
 51
74.6941939185
  0
SPLINE
  5
11F
330
1F
100
AcDbEntity
  8
0
  6
Continuous
 62
     7
370
    25
100
AcDbSpline
210
0.0
220
0.0
230
1.0
 70
     8
 71
     4
 72
    30
 73
    25
 74
     0
 42
0.000000001
 43
0.00000001
 40
0.0
 40
0.0
 40
0.0
 40
0.0
 40
0.0
 40
0.005376748807701
 40
0.0150836883875846
 40
0.0466101398488713
 40
0.0648548495515563
 40
0.0921105258655842
 40
0.1194761762621386
 40
0.146842496131629
 40
0.1742088541881235
 40
0.201574955846554
 40
0.2289410133090372
 40
0.2563073451941125
 40
0.3070350323679347
 40
0.3617673521245782
 40
0.4164996611415279
 40
0.4712319371242968
 40
0.5259642823248672
 40
0.5806966158629169
 40
0.635428982457668
 40
0.6901613873080502
 40
0.7448936879935485
 40
0.797543710166754
 40
0.797543710166754
 40
0.797543710166754
 40
0.797543710166754
 40
0.797543710166754
 10
1.444393910545354
 20
0.1507082991276504
 30
0.0
 10
1.44456239791881
 20
0.1507244082606442
 30
0.0
 10
1.445035441430381
 20
0.1507652123866596
 30
0.0
 10
1.446499548990934
 20
0.150862991737196
 30
0.0
 10
1.448539766174944
 20
0.1509428317603498
 30
0.0
 10
1.451269710211002
 20
0.1509898234371325
 30
0.0
 10
1.454556163817437
 20
0.1509722312454457
 30
0.0
 10
1.457710289885679
 20
0.1508994256917393
 30
0.0
 10
1.46115036887737
 20
0.1507597444223711
 30
0.0
 10
1.464590040793045
 20
0.1505668625441488
 30
0.0
 10
1.468028591562108
 20
0.1503245556363955
 30
0.0
 10
1.471460586671572
 20
0.1500381366226018
 30
0.0
 10
1.475625846143716
 20
0.1496378643523435
 30
0.0
 10
1.480631592108287
 20
0.1490837358003826
 30
0.0
 10
1.486499296078545
 20
0.1483277131888784
 30
0.0
 10
1.493174223427645
 20
0.1473422509227019
 30
0.0
 10
1.499999412826663
 20
0.1462005551424901
 30
0.0
 10
1.506733910588534
 20
0.1449641575432964
 30
0.0
 10
1.513560311997473
 20
0.143584556730567
 30
0.0
 10
1.520180923169005
 20
0.1421573396885822
 30
0.0
 10
1.527081486996764
 20
0.1405407103192911
 30
0.0
 10
1.533402280422566
 20
0.1389951617096442
 30
0.0
 10
1.538709248504686
 20
0.1375933626898022
 30
0.0
 10
1.541795981015523
 20
0.1367643221976075
 30
0.0
 10
1.54333167308974
 20
0.1363440371154501
 30
0.0
  0
LINE
  5
120
330
1F
100
AcDbEntity
  8
0
  6
Continuous
 62
     7
370
    25
100
AcDbLine
 10
1.4335110273
 20
0.1495754655
 30
0.0
 11
1.4443939105
 21
0.1507082991
 31
0.0
  0
ARC
  5
121
330
1F
100
AcDbEntity
  8
0
  6
Continuous
 62
     7
370
    25
100
AcDbCircle
 10
1.431488269
 20
0.1690076591
 30
0.0
 40
0.0195371875633513
100
AcDbArc
 50
186.7193182671
 51
275.9426960915
  0
ARC
  5
122
330
1F
100
AcDbEntity
  8
0
  6
Continuous
 62
     7
370
    25
100
AcDbCircle
 10
-0.0000232266
 20
0.0003543682
 30
0.0
 40
1.421875000000002
100
AcDbArc
 50
6.7193182671
 51
8.2806817329
  0
ARC
  5
123
330
1F
100
AcDbEntity
  8
0
  6
Continuous
 62
     7
370
    25
100
AcDbCircle
 10
1.4263613813
 20
0.2079502371
 30
0.0
 40
0.0195371875633511
100
AcDbArc
 50
99.0573039085
 51
188.2806817329
  0
LINE
  5
124
330
1F
100
AcDbEntity
  8
0
  6
Continuous
 62
     7
370
    25
100
AcDbLine
 10
1.4340910509
 20
0.2289662873
 30
0.0
 11
1.423285794
 21
0.2272438231
 31
0.0
  0
SPLINE
  5
125
330
1F
100
AcDbEntity
  8
0
  6
Continuous
 62
     7
370
    25
100
AcDbSpline
210
0.0
220
0.0
230
1.0
 70
     8
 71
     4
 72
    30
 73
    25
 74
     0
 42
0.000000001
 43
0.00000001
 40
0.111906035713538
 40
0.111906035713538
 40
0.111906035713538
 40
0.111906035713538
 40
0.111906035713538
 40
0.1641972261336471
 40
0.2189295268191453
 40
0.2736619316695276
 40
0.3283942982642787
 40
0.3831266318023283
 40
0.4378589770028988
 40
0.4925912529856677
 40
0.5473235620026173
 40
0.6020558817592608
 40
0.652783568933083
 40
0.6801499008181584
 40
0.7075159582806415
 40
0.7348820599390721
 40
0.7622484179955665
 40
0.789614737865057
 40
0.8169803882616113
 40
0.8442360645756393
 40
0.8624807742783243
 40
0.894007225739611
 40
0.9037141653194946
 40
0.9090909141271956
 40
0.9090909141271956
 40
0.9090909141271956
 40
0.9090909141271956
 40
0.9090909141271956
 10
1.525902377739283
 20
0.2684261785721457
 30
0.0
 10
1.524537507887736
 20
0.2676286019235825
 30
0.0
 10
1.521777192108991
 20
0.2660328760580643
 30
0.0
 10
1.517025510006767
 20
0.2633121930619031
 30
0.0
 10
1.5113295509263
 20
0.2601885435099007
 30
0.0
 10
1.505082532578756
 20
0.2568410021099953
 30
0.0
 10
1.499056904214316
 20
0.2537488760480114
 30
0.0
 10
1.49282017375778
 20
0.2506494812988787
 30
0.0
 10
1.486635151688492
 20
0.2477121966462829
 30
0.0
 10
1.480338017590298
 20
0.2448429142035134
 30
0.0
 10
1.474145589277916
 20
0.2421634324271576
 30
0.0
 10
1.46867349552241
 20
0.2399144971229206
 30
0.0
 10
1.463981735238071
 20
0.2380836676529213
 30
0.0
 10
1.460062001627501
 20
0.2366189858503468
 30
0.0
 10
1.456821079611222
 20
0.2354540606307553
 30
0.0
 10
1.453562408260864
 20
0.2343300477040827
 30
0.0
 10
1.450289861827092
 20
0.2332534855158039
 30
0.0
 10
1.4470031528573
 20
0.2322282058105655
 30
0.0
 10
1.443975344492501
 20
0.2313415331488278
 30
0.0
 10
1.440805427271398
 20
0.2304739436123451
 30
0.0
 10
1.438156341481734
 20
0.2298127725779744
 30
0.0
 10
1.436164978893906
 20
0.2293618450549429
 30
0.0
 10
1.434725452430566
 20
0.2290773537341542
 30
0.0
 10
1.434257966600849
 20
0.2289943348233348
 30
0.0
 10
1.434091050945006
 20
0.2289662873098229
 30
0.0
  0
ARC
  5
126
330
1F
100
AcDbEntity
  8
0
  6
Continuous
 62
     7
370
    25
100
AcDbCircle
 10
1.5158117205
 20
0.2856940284
 30
0.0
 40
0.0200000000000085
100
AcDbArc
 50
300.3003474603
 51
10.6736634964
  0
ARC
  5
127
330
1F
100
AcDbEntity
  8
0
  6
Continuous
 62
     7
370
    25
100
AcDbCircle
 10
0.0
 20
0.0
 30
0.0
 40
1.5625
100
AcDbArc
 50
10.6736634964
 51
11.8658282837
  0
ARC
  5
128
330
1F
100
AcDbEntity
  8
0
  6
Continuous
 62
     7
370
    25
100
AcDbCircle
 10
1.5095395408
 20
0.3171697095
 30
0.0
 40
0.0199999999999999
100
AcDbArc
 50
11.8658282837
 51
82.2011866388
  0
SPLINE
  5
129
330
1F
100
AcDbEntity
  8
0
  6
Continuous
 62
     7
370
    25
100
AcDbSpline
210
0.0
220
0.0
230
1.0
 70
     8
 71
     4
 72
    30
 73
    25
 74
     0
 42
0.000000001
 43
0.00000001
 40
0.0
 40
0.0
 40
0.0
 40
0.0
 40
0.0
 40
0.005376748807701
 40
0.0150836883875846
 40
0.0466101398488713
 40
0.0648548495515563
 40
0.0921105258655842
 40
0.1194761762621386
 40
0.146842496131629
 40
0.1742088541881235
 40
0.201574955846554
 40
0.2289410133090372
 40
0.2563073451941125
 40
0.3070350323679347
 40
0.3617673521245782
 40
0.4164996611415279
 40
0.4712319371242968
 40
0.5259642823248672
 40
0.5806966158629169
 40
0.635428982457668
 40
0.6901613873080502
 40
0.7448936879935485
 40
0.7970836785450148
 40
0.7970836785450148
 40
0.7970836785450148
 40
0.7970836785450148
 40
0.7970836785450148
 10
1.412342313425031
 20
0.3383045741054451
 30
0.0
 10
1.412507256701862
 20
0.3383425374378674
 30
0.0
 10
1.41297092725342
 20
0.338444737047248
 30
0.0
 10
1.414409746404524
 20
0.3387327842667653
 30
0.0
 10
1.416422088033489
 20
0.3390782430277839
 30
0.0
 10
1.41912254337524
 20
0.3394811618842579
 30
0.0
 10
1.422383177157277
 20
0.3398926884713656
 30
0.0
 10
1.425519822271459
 20
0.3402322018447336
 30
0.0
 10
1.428948702974707
 20
0.34054273597971
 30
0.0
 10
1.432384124157426
 20
0.3408004715103335
 30
0.0
 10
1.435824885046005
 20
0.3410090585104073
 30
0.0
 10
1.439264904144792
 20
0.3411730551043378
 30
0.0
 10
1.443446775260026
 20
0.3413198826773473
 30
0.0
 10
1.448482024663831
 20
0.3414238757319416
 30
0.0
 10
1.454398210365918
 20
0.3414402100549956
 30
0.0
 10
1.461144661423407
 20
0.3413344314053405
 30
0.0
 10
1.468060481583831
 20
0.341093368974232
 30
0.0
 10
1.474898747054465
 20
0.340746577277268
 30
0.0
 10
1.481846821693902
 20
0.3402698033232147
 30
0.0
 10
1.488597081825032
 20
0.3397189594872633
 30
0.0
 10
1.495649622848451
 20
0.3390168649269424
 30
0.0
 10
1.502104353045743
 20
0.3383110682974939
 30
0.0
 10
1.507531718370445
 20
0.3376164146989434
 30
0.0
 10
1.510690403299815
 20
0.3371987992245981
 30
0.0
 10
1.51225344190506
 20
0.3369847225479067
 30
0.0
  0
LINE
  5
12A
330
1F
100
AcDbEntity
  8
0
  6
Continuous
 62
     7
370
    25
100
AcDbLine
 10
1.4017003992
 20
0.3357609307
 30
0.0
 11
1.4123423134
 21
0.3383045741
 31
0.0
  0
ARC
  5
12B
330
1F
100
AcDbEntity
  8
0
  6
Continuous
 62
     7
370
    25
100
AcDbCircle
 10
1.3971585357
 20
0.3547628563
 30
0.0
 40
0.0195371875633513
100
AcDbArc
 50
194.2193182671
 51
283.4426960915
  0
ARC
  5
12C
330
1F
100
AcDbEntity
  8
0
  6
Continuous
 62
     7
370
    25
100
AcDbCircle
 10
-0.0000925087
 20
0.000702673
 30
0.0
 40
1.421875000000003
100
AcDbArc
 50
14.2193182671
 51
15.7806817329
  0
ARC
  5
12D
330
1F
100
AcDbEntity
  8
0
  6
Continuous
 62
     7
370
    25
100
AcDbCircle
 10
1.3869924828
 20
0.392703082
 30
0.0
 40
0.019537187563351
100
AcDbArc
 50
106.5573039085
 51
195.7806817329
  0
LINE
  5
12E
330
1F
100
AcDbEntity
  8
0
  6
Continuous
 62
     7
370
    25
100
AcDbLine
 10
1.391912879
 20
0.4145482613
 30
0.0
 11
1.3814248892
 21
0.411430164
 31
0.0
  0
SPLINE
  5
12F
330
1F
100
AcDbEntity
  8
0
  6
Continuous
 62
     7
370
    25
100
AcDbSpline
210
0.0
220
0.0
230
1.0
 70
     8
 71
     4
 72
    30
 73
    25
 74
     0
 42
0.000000001
 43
0.00000001
 40
0.1127185494267644
 40
0.1127185494267644
 40
0.1127185494267644
 40
0.1127185494267644
 40
0.1127185494267644
 40
0.1641972261336471
 40
0.2189295268191453
 40
0.2736619316695276
 40
0.3283942982642787
 40
0.3831266318023283
 40
0.4378589770028988
 40
0.4925912529856677
 40
0.5473235620026173
 40
0.6020558817592608
 40
0.652783568933083
 40
0.6801499008181584
 40
0.7075159582806415
 40
0.7348820599390721
 40
0.7622484179955665
 40
0.789614737865057
 40
0.8169803882616113
 40
0.8442360645756393
 40
0.8624807742783243
 40
0.894007225739611
 40
0.9037141653194946
 40
0.9090909141271956
 40
0.9090909141271956
 40
0.9090909141271956
 40
0.9090909141271956
 40
0.9090909141271956
 10
1.477710581615447
 20
0.465594157888421
 30
0.0
 10
1.476481461750015
 20
0.4646411637003964
 30
0.0
 10
1.473966943297864
 20
0.4627097602444363
 30
0.0
 10
1.46963511728913
 20
0.4594110386254613
 30
0.0
 10
1.464415270700951
 20
0.4555850540829118
 30
0.0
 10
1.458658638293599
 20
0.4514507518461058
 30
0.0
 10
1.453088163455862
 20
0.4475985770250883
 30
0.0
 10
1.447309341287746
 20
0.4437116413492972
 30
0.0
 10
1.441560625520837
 20
0.4399921781945879
 30
0.0
 10
1.435691880789459
 20
0.4363255019251376
 30
0.0
 10
1.429902172113114
 20
0.432860669398614
 30
0.0
 10
1.424770437840073
 20
0.4299167224862889
 30
0.0
 10
1.42035778741469
 20
0.4274891584114823
 30
0.0
 10
1.41666276700704
 20
0.4255253792620673
 30
0.0
 10
1.413601624781021
 20
0.4239473949291516
 30
0.0
 10
1.410517544943127
 20
0.4224076561258254
 30
0.0
 10
1.407413515160882
 20
0.4209131510514437
 30
0.0
 10
1.404288750297835
 20
0.4194676411494516
 30
0.0
 10
1.401402579259613
 20
0.4181933457986219
 30
0.0
 10
1.398373024278377
 20
0.4169194213863712
 30
0.0
 10
1.395832901922398
 20
0.4159181316808659
 30
0.0
 10
1.393917433570113
 20
0.4152111369293857
 30
0.0
 10
1.392527356024046
 20
0.4147411835634247
 30
0.0
 10
1.392074705742719
 20
0.4145978557456261
 30
0.0
 10
1.39191287900859
 20
0.4145482613175012
 30
0.0
  0
ARC
  5
130
330
1F
100
AcDbEntity
  8
0
  6
Continuous
 62
     7
370
    25
100
AcDbCircle
 10
1.4654557238
 20
0.4813998043
 30
0.0
 40
0.0199999999999987
100
AcDbArc
 50
307.7880972092
 51
18.1852671156
  0
ARC
  5
131
330
1F
100
AcDbEntity
  8
0
  6
Continuous
 62
     7
370
    25
100
AcDbCircle
 10
0.0
 20
0.0
 30
0.0
 40
1.5625
100
AcDbArc
 50
18.1852671156
 51
19.3798016066
  0
ARC
  5
132
330
1F
100
AcDbEntity
  8
0
  6
Continuous
 62
     7
370
    25
100
AcDbCircle
 10
1.4551014804
 20
0.5118456131
 30
0.0
 40
0.0199999999999997
100
AcDbArc
 50
19.3798016066
 51
89.7144028651
  0
SPLINE
  5
133
330
1F
100
AcDbEntity
  8
0
  6
Continuous
 62
     7
370
    25
100
AcDbSpline
210
0.0
220
0.0
230
1.0
 70
     8
 71
     4
 72
    30
 73
    25
 74
     0
 42
0.000000001
 43
0.00000001
 40
0.0
 40
0.0
 40
0.0
 40
0.0
 40
0.0
 40
0.005376748807701
 40
0.0150836883875846
 40
0.0466101398488713
 40
0.0648548495515563
 40
0.0921105258655842
 40
0.1194761762621386
 40
0.146842496131629
 40
0.1742088541881235
 40
0.201574955846554
 40
0.2289410133090372
 40
0.2563073451941125
 40
0.3070350323679347
 40
0.3617673521245782
 40
0.4164996611415279
 40
0.4712319371242968
 40
0.5259642823248672
 40
0.5806966158629169
 40
0.635428982457668
 40
0.6901613873080502
 40
0.7448936879935485
 40
0.7962052908826203
 40
0.7962052908826203
 40
0.7962052908826203
 40
0.7962052908826203
 40
0.7962052908826203
 10
1.356078694713748
 20
0.5201123640183614
 30
0.0
 10
1.356237271668754
 20
0.5201715319870688
 30
0.0
 10
1.356683635728608
 20
0.5203333784161631
 30
0.0
 10
1.358072547875674
 20
0.5208067649368736
 30
0.0
 10
1.360022582226394
 20
0.5214119315405766
 30
0.0
 10
1.362647343334234
 20
0.5221638835233974
 30
0.0
 10
1.365826366943844
 20
0.5229974875552974
 30
0.0
 10
1.368891862236419
 20
0.5237435106877906
 30
0.0
 10
1.372250875551725
 20
0.5244989469019659
 30
0.0
 10
1.375623264992575
 20
0.5252028899150485
 30
0.0
 10
1.379007363627906
 20
0.5258588018415469
 30
0.0
 10
1.382396547035484
 20
0.5264704080160111
 30
0.0
 10
1.386523476819592
 20
0.5271618231718059
 30
0.0
 10
1.391502075149297
 20
0.527922158482959
 30
0.0
 10
1.397365515005573
 20
0.528710570255775
 30
0.0
 10
1.404068056123388
 20
0.5294862851246642
 30
0.0
 10
1.410956175444846
 20
0.5301499806876903
 30
0.0
 10
1.417781204006114
 20
0.53069872859504
 30
0.0
 10
1.424732068392597
 20
0.5311329392342032
 30
0.0
 10
1.431496478660958
 20
0.5314678936950412
 30
0.0
 10
1.438580325947792
 20
0.5316923469762751
 30
0.0
 10
1.445045608260181
 20
0.5318345204073412
 30
0.0
 10
1.45048411987817
 20
0.5318545857941547
 30
0.0
 10
1.453651123294938
 20
0.5318530910415358
 30
0.0
 10
1.455201172241607
 20
0.5318453645875407
 30
0.0
  0
LINE
  5
134
330
1F
100
AcDbEntity
  8
0
  6
Continuous
 62
     7
370
    25
100
AcDbLine
 10
1.3458598356
 20
0.5162014333
 30
0.0
 11
1.3560786947
 21
0.520112364
 31
0.0
  0
ARC
  5
135
330
1F
100
AcDbEntity
  8
0
  6
Continuous
 62
     7
370
    25
100
AcDbCircle
 10
1.3388765794
 20
0.5344479626
 30
0.0
 40
0.0195371875633511
100
AcDbArc
 50
201.7193182671
 51
290.9426960915
  0
ARC
  5
136
330
1F
100
AcDbEntity
  8
0
  6
Continuous
 62
     7
370
    25
100
AcDbCircle
 10
-0.0002066611
 20
0.0010389549
 30
0.0
 40
1.421875000000003
100
AcDbArc
 50
21.7193182671
 51
23.2806817329
  0
ARC
  5
137
330
1F
100
AcDbEntity
  8
0
  6
Continuous
 62
     7
370
    25
100
AcDbCircle
 10
1.3238453053
 20
0.5707366683
 30
0.0
 40
0.0195371875633509
100
AcDbArc
 50
114.0573039085
 51
203.2806817329
  0
LINE
  5
138
330
1F
100
AcDbEntity
  8
0
  6
Continuous
 62
     7
370
    25
100
AcDbLine
 10
1.3258722388
 20
0.5930371996
 30
0.0
 11
1.3158809686
 21
0.5885768207
 31
0.0
  0
SPLINE
  5
139
330
1F
100
AcDbEntity
  8
0
  6
Continuous
 62
     7
370
    25
100
AcDbSpline
210
0.0
220
0.0
230
1.0
 70
     8
 71
     4
 72
    30
 73
    25
 74
     0
 42
0.000000001
 43
0.00000001
 40
0.1139366778472583
 40
0.1139366778472583
 40
0.1139366778472583
 40
0.1139366778472583
 40
0.1139366778472583
 40
0.1641972261336471
 40
0.2189295268191453
 40
0.2736619316695276
 40
0.3283942982642787
 40
0.3831266318023283
 40
0.4378589770028988
 40
0.4925912529856677
 40
0.5473235620026173
 40
0.6020558817592608
 40
0.652783568933083
 40
0.6801499008181584
 40
0.7075159582806415
 40
0.7348820599390721
 40
0.7622484179955665
 40
0.789614737865057
 40
0.8169803882616113
 40
0.8442360645756393
 40
0.8624807742783243
 40
0.894007225739611
 40
0.9037141653194946
 40
0.9090909141271956
 40
0.9090909141271956
 40
0.9090909141271956
 40
0.9090909141271956
 40
0.9090909141271956
 10
1.404169557996127
 20
0.6547406797987051
 30
0.0
 10
1.403101665885977
 20
0.6536626746773461
 30
0.0
 10
1.400879509860672
 20
0.6514388376546211
 30
0.0
 10
1.397047376297351
 20
0.6476356852216536
 30
0.0
 10
1.392397986148297
 20
0.6431863780623379
 30
0.0
 10
1.387230237257667
 20
0.6383360540461481
 30
0.0
 10
1.382210228315534
 20
0.6337897422453093
 30
0.0
 10
1.376988191685328
 20
0.6291817721899347
 30
0.0
 10
1.371774144341415
 20
0.624743771578919
 30
0.0
 10
1.36643420482633
 20
0.6203424393303529
 30
0.0
 10
1.361146279306683
 20
0.6161515402988235
 30
0.0
 10
1.356442709912305
 20
0.6125629535262963
 30
0.0
 10
1.352384671018075
 20
0.6095801911410501
 30
0.0
 10
1.348977586636973
 20
0.6071509154505038
 30
0.0
 10
1.346148601193411
 20
0.6051868717536998
 30
0.0
 10
1.343291882329076
 20
0.6032577524315413
 30
0.0
 10
1.34040948000853
 20
0.6013708758672343
 30
0.0
 10
1.337500124845384
 20
0.5995298688436828
 30
0.0
 10
1.3348049743204
 20
0.5978897543505152
 30
0.0
 10
1.331967618104712
 20
0.5962312922623886
 30
0.0
 10
1.329579921380185
 20
0.59490701623022
 30
0.0
 10
1.327773121458018
 20
0.5939560511265047
 30
0.0
 10
1.326456277441438
 20
0.5933086767477588
 30
0.0
 10
1.326026207680314
 20
0.5931074924016815
 30
0.0
 10
1.325872238768188
 20
0.593037199633359
 30
0.0
  0
ARC
  5
13A
330
1F
100
AcDbEntity
  8
0
  6
Continuous
 62
     7
370
    25
100
AcDbCircle
 10
1.3899609322
 20
0.6688160112
 30
0.0
 40
0.0199999999999978
100
AcDbArc
 50
315.2700169245
 51
25.6957489206
  0
ARC
  5
13B
330
1F
100
AcDbEntity
  8
0
  6
Continuous
 62
     7
370
    25
100
AcDbCircle
 10
0.0
 20
0.0
 30
0.0
 40
1.5625
100
AcDbArc
 50
25.6957489206
 51
26.8937838505
  0
ARC
  5
13C
330
1F
100
AcDbEntity
  8
0
  6
Continuous
 62
     7
370
    25
100
AcDbCircle
 10
1.375673396
 20
0.6977312933
 30
0.0
 40
0.0199999999999993
100
AcDbArc
 50
26.8937838505
 51
97.2333659923
  0
SPLINE
  5
13D
330
1F
100
AcDbEntity
  8
0
  6
Continuous
 62
     7
370
    25
100
AcDbSpline
210
0.0
220
0.0
230
1.0
 70
     8
 71
     4
 72
    30
 73
    25
 74
     0
 42
0.000000001
 43
0.00000001
 40
0.0
 40
0.0
 40
0.0
 40
0.0
 40
0.0
 40
0.005376748807701
 40
0.0150836883875846
 40
0.0466101398488713
 40
0.0648548495515563
 40
0.0921105258655842
 40
0.1194761762621386
 40
0.146842496131629
 40
0.1742088541881235
 40
0.201574955846554
 40
0.2289410133090372
 40
0.2563073451941125
 40
0.3070350323679347
 40
0.3617673521245782
 40
0.4164996611415279
 40
0.4712319371242968
 40
0.5259642823248672
 40
0.5806966158629169
 40
0.635428982457668
 40
0.6901613873080502
 40
0.7448936879935485
 40
0.7949237266125981
 40
0.7949237266125981
 40
0.7949237266125981
 40
0.7949237266125981
 40
0.7949237266125981
 10
1.276565740526874
 20
0.6930208871743464
 30
0.0
 10
1.27671523786439
 20
0.6931002473989901
 30
0.0
 10
1.27713665801972
 20
0.6933189714105241
 30
0.0
 10
1.278451898490831
 20
0.6939695974578107
 30
0.0
 10
1.280306259934916
 20
0.694824117335825
 30
0.0
 10
1.282810416418567
 20
0.6959122363380861
 30
0.0
 10
1.285853435880398
 20
0.6971536546186738
 30
0.0
 10
1.288795329876995
 20
0.6982934228476587
 30
0.0
 10
1.29202700215524
 20
0.6994808354179617
 30
0.0
 10
1.295278657335884
 20
0.7006189412533796
 30
0.0
 10
1.298548190852067
 20
0.701710955271387
 30
0.0
 10
1.301828548700672
 20
0.7027597062751707
 30
0.0
 10
1.305829924240848
 20
0.7039838787087387
 30
0.0
 10
1.310666686298703
 20
0.7053875467284717
 30
0.0
 10
1.316377055227576
 20
0.706934546007028
 30
0.0
 10
1.322921004068895
 20
0.7085784816979861
 30
0.0
 10
1.329663564920049
 20
0.7101355792400522
 30
0.0
 10
1.336358578441013
 20
0.711570477522879
 30
0.0
 10
1.343193301357747
 20
0.712908243290837
 30
0.0
 10
1.349856120828197
 20
0.7141232648847722
 30
0.0
 10
1.356850067787354
 20
0.7152704255496888
 30
0.0
 10
1.36320347357227
 20
0.7162494147720275
 30
0.0
 10
1.368544967807359
 20
0.7169733989583533
 30
0.0
 10
1.371656924030836
 20
0.7173819643860528
 30
0.0
 10
1.373155176633174
 20
0.717572124197782
 30
0.0
  0
LINE
  5
13E
330
1F
100
AcDbEntity
  8
0
  6
Continuous
 62
     7
370
    25
100
AcDbLine
 10
1.2669447841
 20
0.6878095863
 30
0.0
 11
1.2765657405
 21
0.6930208872
 31
0.0
  0
ARC
  5
13F
330
1F
100
AcDbEntity
  8
0
  6
Continuous
 62
     7
370
    25
100
AcDbCircle
 10
1.2576396206
 20
0.7049885161
 30
0.0
 40
0.0195371875633512
100
AcDbArc
 50
209.2193182671
 51
298.4426960915
  0
ARC
  5
140
330
1F
100
AcDbEntity
  8
0
  6
Continuous
 62
     7
370
    25
100
AcDbCircle
 10
-0.0003637305
 20
0.0013574599
 30
0.0
 40
1.421875000000002
100
AcDbArc
 50
29.2193182671
 51
30.7806817329
  0
ARC
  5
141
330
1F
100
AcDbEntity
  8
0
  6
Continuous
 62
     7
370
    25
100
AcDbCircle
 10
1.2380003146
 20
0.7390047919
 30
0.0
 40
0.0195371875633512
100
AcDbArc
 50
121.5573039085
 51
210.7806817329
  0
LINE
  5
142
330
1F
100
AcDbEntity
  8
0
  6
Continuous
 62
     7
370
    25
100
AcDbLine
 10
1.2370991039
 20
0.761379107
 30
0.0
 11
1.2277755067
 21
0.7556527648
 31
0.0
  0
SPLINE
  5
143
330
1F
100
AcDbEntity
  8
0
  6
Continuous
 62
     7
370
    25
100
AcDbSpline
210
0.0
220
0.0
230
1.0
 70
     8
 71
     4
 72
    30
 73
    25
 74
     0
 42
0.000000001
 43
0.00000001
 40
0.1155388224526437
 40
0.1155388224526437
 40
0.1155388224526437
 40
0.1155388224526437
 40
0.1155388224526437
 40
0.1641972261336471
 40
0.2189295268191453
 40
0.2736619316695276
 40
0.3283942982642787
 40
0.3831266318023283
 40
0.4378589770028988
 40
0.4925912529856677
 40
0.5473235620026173
 40
0.6020558817592608
 40
0.652783568933083
 40
0.6801499008181584
 40
0.7075159582806415
 40
0.7348820599390721
 40
0.7622484179955665
 40
0.789614737865057
 40
0.8169803882616113
 40
0.8442360645756393
 40
0.8624807742783243
 40
0.894007225739611
 40
0.9037141653194946
 40
0.9090909141271956
 40
0.9090909141271956
 40
0.9090909141271956
 40
0.9090909141271956
 40
0.9090909141271956
 10
1.306555607121826
 20
0.8326205795867887
 30
0.0
 10
1.30566686217159
 20
0.831451957969078
 30
0.0
 10
1.303775503275669
 20
0.8289859002911216
 30
0.0
 10
1.300508697472588
 20
0.8247632259925152
 30
0.0
 10
1.296509932973998
 20
0.8197826047819771
 30
0.0
 10
1.292019489216379
 20
0.8142992493750844
 30
0.0
 10
1.287635839914659
 20
0.8091365892498124
 30
0.0
 10
1.283059939316928
 20
0.8038864284600725
 30
0.0
 10
1.278469774191671
 20
0.7988058258136509
 30
0.0
 10
1.273750007738495
 20
0.7937451456010219
 30
0.0
 10
1.269054343247278
 20
0.7888998875088529
 30
0.0
 10
1.264859418107975
 20
0.7847280625907458
 30
0.0
 10
1.261225424915479
 20
0.7812411377864497
 30
0.0
 10
1.258164572719309
 20
0.7783879311353596
 30
0.0
 10
1.255616148783485
 20
0.7760714334068556
 30
0.0
 10
1.25303567014451
 20
0.7737859413323198
 30
0.0
 10
1.250424213988521
 20
0.7715389782592437
 30
0.0
 10
1.247780048398743
 20
0.7693339742547293
 30
0.0
 10
1.245322033159717
 20
0.7673561034329276
 30
0.0
 10
1.242725423661091
 20
0.7653414804150654
 30
0.0
 10
1.240531006720966
 20
0.7637168767863026
 30
0.0
 10
1.238863790076525
 20
0.7625382126069343
 30
0.0
 10
1.237642711155655
 20
0.7617244939705097
 30
0.0
 10
1.237242580527584
 20
0.7614688954160941
 30
0.0
 10
1.237099103888234
 20
0.7613791070363289
 30
0.0
  0
ARC
  5
144
330
1F
100
AcDbEntity
  8
0
  6
Continuous
 62
     7
370
    25
100
AcDbCircle
 10
1.2906362525
 20
0.8447273606
 30
0.0
 40
0.0200000000000001
100
AcDbArc
 50
322.7467562078
 51
33.2049314571
  0
ARC
  5
145
330
1F
100
AcDbEntity
  8
0
  6
Continuous
 62
     7
370
    25
100
AcDbCircle
 10
0.0
 20
0.0
 30
0.0
 40
1.5625
100
AcDbArc
 50
33.2049314571
 51
34.4075340251
  0
ARC
  5
146
330
1F
100
AcDbEntity
  8
0
  6
Continuous
 62
     7
370
    25
100
AcDbCircle
 10
1.2726229685
 20
0.871628952
 30
0.0
 40
0.019999999999999
100
AcDbArc
 50
34.4075340251
 51
104.757397931
  0
SPLINE
  5
147
330
1F
100
AcDbEntity
  8
0
  6
Continuous
 62
     7
370
    25
100
AcDbSpline
210
0.0
220
0.0
230
1.0
 70
     8
 71
     4
 72
    30
 73
    25
 74
     0
 42
0.000000001
 43
0.00000001
 40
0.0
 40
0.0
 40
0.0
 40
0.0
 40
0.0
 40
0.005376748807701
 40
0.0150836883875846
 40
0.0466101398488713
 40
0.0648548495515563
 40
0.0921105258655842
 40
0.1194761762621386
 40
0.146842496131629
 40
0.1742088541881235
 40
0.201574955846554
 40
0.2289410133090372
 40
0.2563073451941125
 40
0.3070350323679347
 40
0.3617673521245782
 40
0.4164996611415279
 40
0.4712319371242968
 40
0.5259642823248672
 40
0.5806966158629169
 40
0.635428982457668
 40
0.6901613873080502
 40
0.7448936879935485
 40
0.7932616366076917
 40
0.7932616366076917
 40
0.7932616366076917
 40
0.7932616366076917
 40
0.7932616366076917
 10
1.175163939555703
 20
0.8540716308029023
 30
0.0
 10
1.175301799334836
 20
0.8541698254080358
 30
0.0
 10
1.175691064969945
 20
0.85444168457353
 30
0.0
 10
1.176910129635987
 20
0.8552584177553364
 30
0.0
 10
1.178637089535001
 20
0.8563476698356315
 30
0.0
 10
1.180977794582745
 20
0.8577533378395205
 30
0.0
 10
1.183832742990121
 20
0.8593813293578291
 30
0.0
 10
1.18660069906881
 20
0.860895340932904
 30
0.0
 10
1.189649735501325
 20
0.862494412901044
 30
0.0
 10
1.192725019700093
 20
0.8640472082524107
 30
0.0
 10
1.195824045472181
 20
0.8655566396993157
 30
0.0
 10
1.198939449929537
 20
0.8670245911119752
 30
0.0
 10
1.202746806580897
 20
0.8687605748935732
 30
0.0
 10
1.207358974027088
 20
0.8707835584728985
 30
0.0
 10
1.212818566032971
 20
0.8730626756706295
 30
0.0
 10
1.219091953818794
 20
0.8755467039881992
 30
0.0
 10
1.22557358911409
 20
0.8779705611386515
 30
0.0
 10
1.232024034057197
 20
0.8802670582895075
 30
0.0
 10
1.238625671500133
 20
0.8824854896430715
 30
0.0
 10
1.245072897484251
 20
0.8845597890137644
 30
0.0
 10
1.251857275744172
 20
0.8866100288253339
 30
0.0
 10
1.257980663487055
 20
0.8883959639267525
 30
0.0
 10
1.26312150237859
 20
0.8897954407191576
 30
0.0
 10
1.266117247121369
 20
0.8905974842579946
 30
0.0
 10
1.267528432329779
 20
0.8909692131637483
 30
0.0
  0
LINE
  5
148
330
1F
100
AcDbEntity
  8
0
  6
Continuous
 62
     7
370
    25
100
AcDbLine
 10
1.166305503
 20
0.8476491265
 30
0.0
 11
1.1751639396
 21
0.8540716308
 31
0.0
  0
ARC
  5
149
330
1F
100
AcDbEntity
  8
0
  6
Continuous
 62
     7
370
    25
100
AcDbCircle
 10
1.1548376461
 20
0.8634665206
 30
0.0
 40
0.0195371875633509
100
AcDbArc
 50
216.7193182671
 51
305.9426960915
  0
ARC
  5
14A
330
1F
100
AcDbEntity
  8
0
  6
Continuous
 62
     7
370
    25
100
AcDbCircle
 10
-0.0005610294
 20
0.0016527385
 30
0.0
 40
1.421875000000002
100
AcDbArc
 50
36.7193182671
 51
38.2806817329
  0
ARC
  5
14B
330
1F
100
AcDbEntity
  8
0
  6
Continuous
 62
     7
370
    25
100
AcDbCircle
 10
1.1309263422
 20
0.8946283386
 30
0.0
 40
0.0195371875633511
100
AcDbArc
 50
129.0573039085
 51
218.2806817329
  0
LINE
  5
14C
330
1F
100
AcDbEntity
  8
0
  6
Continuous
 62
     7
370
    25
100
AcDbLine
 10
1.1271124073
 20
0.9166936068
 30
0.0
 11
1.1186160124
 21
0.9097992806
 31
0.0
  0
SPLINE
  5
14D
330
1F
100
AcDbEntity
  8
0
  6
Continuous
 62
     7
370
    25
100
AcDbSpline
210
0.0
220
0.0
230
1.0
 70
     8
 71
     4
 72
    30
 73
    25
 74
     0
 42
0.000000001
 43
0.00000001
 40
0.1174959981066528
 40
0.1174959981066528
 40
0.1174959981066528
 40
0.1174959981066528
 40
0.1174959981066528
 40
0.1641972261336471
 40
0.2189295268191453
 40
0.2736619316695276
 40
0.3283942982642787
 40
0.3831266318023283
 40
0.4378589770028988
 40
0.4925912529856677
 40
0.5473235620026173
 40
0.6020558817592608
 40
0.652783568933083
 40
0.6801499008181584
 40
0.7075159582806415
 40
0.7348820599390721
 40
0.7622484179955665
 40
0.789614737865057
 40
0.8169803882616113
 40
0.8442360645756393
 40
0.8624807742783243
 40
0.894007225739611
 40
0.9037141653194946
 40
0.9090909141271956
 40
0.9090909141271956
 40
0.9090909141271956
 40
0.9090909141271956
 40
0.9090909141271956
 10
1.18655856183306
 20
0.9961864704256357
 30
0.0
 10
1.185858788119337
 20
0.9949636499363006
 30
0.0
 10
1.184327424165686
 20
0.9923109223928673
 30
0.0
 10
1.181675759424348
 20
0.9877618751466575
 30
0.0
 10
1.178391782353057
 20
0.9823521238409327
 30
0.0
 10
1.174655476466129
 20
0.9763295587746226
 30
0.0
 10
1.170983192259752
 20
0.9706388848710206
 30
0.0
 10
1.167131722622401
 20
0.9648363650536472
 30
0.0
 10
1.163243978713729
 20
0.9592000908917094
 30
0.0
 10
1.15922514183504
 20
0.9535666523565413
 30
0.0
 10
1.155202082493582
 20
0.9481499389130488
 30
0.0
 10
1.151587577941542
 20
0.943466256930359
 30
0.0
 10
1.148439809081837
 20
0.9395348319571726
 30
0.0
 10
1.145777561100303
 20
0.9363065135023975
 30
0.0
 10
1.143553302912316
 20
0.9336771976605824
 30
0.0
 10
1.141293217203658
 20
0.9310744382367229
 30
0.0
 10
1.138997389951087
 20
0.9285058348160338
 30
0.0
 10
1.13666365634102
 20
0.9259745620604164
 30
0.0
 10
1.134484833710182
 20
0.923692776828111
 30
0.0
 10
1.132173399637054
 20
0.9213564636389081
 30
0.0
 10
1.130209809563586
 20
0.9194593298320644
 30
0.0
 10
1.128710702735897
 20
0.9180731338479394
 30
0.0
 10
1.127606281909619
 20
0.9171069939053107
 30
0.0
 10
1.127242936760585
 20
0.916801354504688
 30
0.0
 10
1.127112407319091
 20
0.9166936068175521
 30
0.0
  0
ARC
  5
14E
330
1F
100
AcDbEntity
  8
0
  6
Continuous
 62
     7
370
    25
100
AcDbCircle
 10
1.1691999345
 20
1.0061201534
 30
0.0
 40
0.0200000000000051
100
AcDbArc
 50
330.2191334865
 51
40.7126598077
  0
ARC
  5
14F
330
1F
100
AcDbEntity
  8
0
  6
Continuous
 62
     7
370
    25
100
AcDbCircle
 10
0.0
 20
0.0
 30
0.0
 40
1.5625
100
AcDbArc
 50
40.7126598077
 51
41.9208147695
  0
ARC
  5
150
330
1F
100
AcDbEntity
  8
0
  6
Continuous
 62
     7
370
    25
100
AcDbCircle
 10
1.1477262516
 20
1.030548738
 30
0.0
 40
0.0200000000000025
100
AcDbArc
 50
41.9208147695
 51
112.2856578326
  0
SPLINE
  5
151
330
1F
100
AcDbEntity
  8
0
  6
Continuous
 62
     7
370
    25
100
AcDbSpline
210
0.0
220
0.0
230
1.0
 70
     8
 71
     4
 72
    30
 73
    25
 74
     0
 42
0.000000001
 43
0.00000001
 40
0.0
 40
0.0
 40
0.0
 40
0.0
 40
0.0
 40
0.005376748807701
 40
0.0150836883875846
 40
0.0466101398488713
 40
0.0648548495515563
 40
0.0921105258655842
 40
0.1194761762621386
 40
0.146842496131629
 40
0.1742088541881235
 40
0.201574955846554
 40
0.2289410133090372
 40
0.2563073451941125
 40
0.3070350323679347
 40
0.3617673521245782
 40
0.4164996611415279
 40
0.4712319371242968
 40
0.5259642823248672
 40
0.5806966158629169
 40
0.635428982457668
 40
0.6901613873080502
 40
0.7448936879935485
 40
0.7912490927097443
 40
0.7912490927097443
 40
0.7912490927097443
 40
0.7912490927097443
 40
0.7912490927097443
 10
1.053608304728743
 20
1.000508972028842
 30
0.0
 10
1.053732168130449
 20
1.000624320877547
 30
0.0
 10
1.054082618802395
 20
1.000944663611307
 30
0.0
 10
1.055184649128945
 20
1.001913529396451
 30
0.0
 10
1.056754658720212
 20
1.003218876273935
 30
0.0
 10
1.058891862219717
 20
1.004918041910181
 30
0.0
 10
1.061509890613845
 20
1.006904751279967
 30
0.0
 10
1.064056548278699
 20
1.008767101043319
 30
0.0
 10
1.066870779006769
 20
1.010750471844575
 30
0.0
 10
1.069717073258392
 20
1.012691387952912
 30
0.0
 10
1.072592566096211
 20
1.014592410038165
 30
0.0
 10
1.0754897117283
 20
1.016454444804036
 30
0.0
 10
1.07903790456294
 20
1.018672536769856
 30
0.0
 10
1.083346561933729
 20
1.021280222098854
 30
0.0
 10
1.088461961883715
 20
1.024252460888616
 30
0.0
 10
1.094357449209716
 20
1.027534079419581
 30
0.0
 10
1.100467256372203
 20
1.030783223310555
 30
0.0
 10
1.106562763836076
 20
1.03390202562648
 30
0.0
 10
1.112818359958245
 20
1.036963164590125
 30
0.0
 10
1.118939678631933
 20
1.039861249900239
 30
0.0
 10
1.125398405599606
 20
1.042779488686851
 30
0.0
 10
1.13118102305707
 20
1.045325075624126
 30
0.0
 10
1.13602525684557
 20
1.047355453145609
 30
0.0
 10
1.13884772228299
 20
1.048524486051443
 30
0.0
 10
1.140141760588973
 20
1.049054831470883
 30
0.0
  0
LINE
  5
152
330
1F
100
AcDbEntity
  8
0
  6
Continuous
 62
     7
370
    25
100
AcDbLine
 10
1.0456639583
 20
0.9929851551
 30
0.0
 11
1.0536083047
 21
1.000508972
 31
0.0
  0
ARC
  5
153
330
1F
100
AcDbEntity
  8
0
  6
Continuous
 62
     7
370
    25
100
AcDbCircle
 10
1.0322296264
 20
1.0071703736
 30
0.0
 40
0.019537187563351
100
AcDbArc
 50
224.2193182671
 51
313.4426960915
  0
ARC
  5
154
330
1F
100
AcDbEntity
  8
0
  6
Continuous
 62
     7
370
    25
100
AcDbCircle
 10
-0.0007951819
 20
0.0019197382
 30
0.0
 40
1.421875000000002
100
AcDbArc
 50
44.2193182671
 51
45.0
  0
ARC
  5
155
330
1F
100
AcDbEntity
  8
0
  6
Continuous
 62
     7
370
    25
100
AcDbCircle
 10
0.851092627
 20
0.8100337515
 30
0.0
 40
0.2500000000000001
100
AcDbArc
 50
52.1120971948
 51
90.0
  0
LINE
  5
156
330
1F
100
AcDbEntity
  8
0
  6
Continuous
 62
     7
370
    25
100
AcDbLine
 10
0.2882310034
 20
1.0600337515
 30
0.0
 11
0.851092627
 21
1.0600337515
 31
0.0
  0
ARC
  5
157
330
1F
100
AcDbEntity
  8
0
  6
Continuous
 62
     7
370
    25
100
AcDbCircle
 10
0.2882310034
 20
1.5600337515
 30
0.0
 40
0.5000000000000002
100
AcDbArc
 50
181.3673847187
 51
270.0
  0
ARC
  5
158
330
1F
100
AcDbEntity
  8
0
  6
Continuous
 62
     7
370
    25
100
AcDbCircle
 10
-10.2087789713
 20
1.3094712004
 30
0.0
 40
10.00000000000001
100
AcDbArc
 50
1.3673847187
 51
23.4356040172
  0
ARC
  5
159
330
1F
100
AcDbEntity
  8
0
  6
Continuous
 62
     7
370
    25
100
AcDbCircle
 10
-2.8687177081
 20
4.4912161073
 30
0.0
 40
2.000000000000002
100
AcDbArc
 50
23.4356040172
 51
41.707938154
  0
ARC
  5
15A
330
1F
100
AcDbEntity
  8
0
  6
Continuous
 62
     7
370
    25
100
AcDbCircle
 10
-7.6279485187
 20
0.2497131789
 30
0.0
 40
8.375000000000002
100
AcDbArc
 50
41.707938154
 51
55.125
  0
ARC
  5
15B
330
1F
100
AcDbEntity
  8
0
  6
Continuous
 62
     7
370
    25
100
AcDbCircle
 10
-3.1251183319
 20
6.7103745467
 30
0.0
 40
0.4999999999999998
100
AcDbArc
 50
55.125
 51
257.9155968503
  0
ARC
  5
15C
330
1F
100
AcDbEntity
  8
0
  6
Continuous
 62
     7
370
    25
100
AcDbCircle
 10
-3.386808815
 20
5.488074219
 30
0.0
 40
0.7500000000000009
100
AcDbArc
 50
31.4883628646
 51
77.9155968503
  0
ARC
  5
15D
330
1F
100
AcDbEntity
  8
0
  6
Continuous
 62
     7
370
    25
100
AcDbCircle
 10
-10.2087789713
 20
1.3094712004
 30
0.0
 40
8.750000000000004
100
AcDbArc
 50
354.7447561563
 51
31.4883628646
  0
ARC
  5
15E
330
1F
100
AcDbEntity
  8
0
  6
Continuous
 62
     7
370
    25
100
AcDbCircle
 10
-2.4913557168
 20
0.5996273361
 30
0.0
 40
1.000000000000001
100
AcDbArc
 50
346.4672627368
 51
354.7447561563
  0
CIRCLE
  5
15F
330
1F
100
AcDbEntity
  8
0
  6
Continuous
 62
     7
370
    25
100
AcDbCircle
 10
0.0
 20
0.6875
 30
0.0
 40
0.072
  0
CIRCLE
  5
160
330
1F
100
AcDbEntity
  8
0
  6
Continuous
 62
     7
370
    25
100
AcDbCircle
 10
-0.5953924651
 20
0.34375
 30
0.0
 40
0.0720000000000296
  0
CIRCLE
  5
161
330
1F
100
AcDbEntity
  8
0
  6
Continuous
 62
     7
370
    25
100
AcDbCircle
 10
-0.5953924651
 20
-0.34375
 30
0.0
 40
0.0720000000000556
  0
CIRCLE
  5
162
330
1F
100
AcDbEntity
  8
0
  6
Continuous
 62
     7
370
    25
100
AcDbCircle
 10
0.0
 20
-0.6875
 30
0.0
 40
0.0720000000000605
  0
CIRCLE
  5
163
330
1F
100
AcDbEntity
  8
0
  6
Continuous
 62
     7
370
    25
100
AcDbCircle
 10
0.5953924651
 20
-0.34375
 30
0.0
 40
0.0720000000000376
  0
CIRCLE
  5
164
330
1F
100
AcDbEntity
  8
0
  6
Continuous
 62
     7
370
    25
100
AcDbCircle
 10
0.5953924651
 20
0.34375
 30
0.0
 40
0.0720000000000083
  0
CIRCLE
  5
165
330
1F
100
AcDbEntity
  8
0
  6
Continuous
 62
     7
370
    25
100
AcDbCircle
 10
0.0
 20
0.0
 30
0.0
 40
0.19
  0
CIRCLE
  5
166
330
1F
100
AcDbEntity
  8
0
  6
Continuous
 62
     7
370
    25
100
AcDbCircle
 10
-0.9278844365
 20
2.63446993
 30
0.0
 40
0.1299999999999994
  0
CIRCLE
  5
167
330
1F
100
AcDbEntity
  8
0
  6
Continuous
 62
     7
370
    25
100
AcDbCircle
 10
-3.1251183319
 20
6.7103745467
 30
0.0
 40
0.129999999999999
  0
LINE
  5
168
330
1F
100
AcDbEntity
  8
0
  6
Continuous
 62
     7
370
    25
100
AcDbLine
 10
-0.7836538462
 20
0.0
 30
0.0
 11
-0.9567307692
 21
0.0
 31
0.0
  0
LINE
  5
169
330
1F
100
AcDbEntity
  8
0
  6
Continuous
 62
     7
370
    25
100
AcDbLine
 10
-0.9567307692
 20
0.0
 30
0.0
 11
-0.9567307692
 21
0.375
 31
0.0
  0
LINE
  5
16A
330
1F
100
AcDbEntity
  8
0
  6
Continuous
 62
     7
370
    25
100
AcDbLine
 10
-0.9567307692
 20
0.375
 30
0.0
 11
-0.8894230769
 21
0.375
 31
0.0
  0
LINE
  5
16B
330
1F
100
AcDbEntity
  8
0
  6
Continuous
 62
     7
370
    25
100
AcDbLine
 10
-0.8894230769
 20
0.375
 30
0.0
 11
-0.8894230769
 21
0.0673076923
 31
0.0
  0
LINE
  5
16C
330
1F
100
AcDbEntity
  8
0
  6
Continuous
 62
     7
370
    25
100
AcDbLine
 10
-0.8894230769
 20
0.0673076923
 30
0.0
 11
-0.7836538462
 21
0.0673076923
 31
0.0
  0
LINE
  5
16D
330
1F
100
AcDbEntity
  8
0
  6
Continuous
 62
     7
370
    25
100
AcDbLine
 10
-0.7836538462
 20
0.0673076923
 30
0.0
 11
-0.7836538462
 21
0.0
 31
0.0
  0
ENDSEC
  0
SECTION
  2
OBJECTS
  0
DICTIONARY
  5
C
330
0
100
AcDbDictionary
281
     1
  3
ACAD_GROUP
350
D
  3
ACAD_LAYOUT
350
1A
  3
ACAD_MLINESTYLE
350
17
  3
ACAD_PLOTSETTINGS
350
19
  3
ACAD_PLOTSTYLENAME
350
E
  3
ACAD_SCALELIST
350
47
  0
DICTIONARY
  5
D
102
{ACAD_REACTORS
330
C
102
}
330
C
100
AcDbDictionary
281
     1
  0
DICTIONARY
  5
1A
102
{ACAD_REACTORS
330
C
102
}
330
C
100
AcDbDictionary
281
     1
  3
Layout1
350
1E
  3
Layout2
350
26
  3
Model
350
22
  0
DICTIONARY
  5
17
102
{ACAD_REACTORS
330
C
102
}
330
C
100
AcDbDictionary
281
     1
  3
Standard
350
18
  0
DICTIONARY
  5
19
102
{ACAD_REACTORS
330
C
102
}
330
C
100
AcDbDictionary
281
     1
  0
ACDBDICTIONARYWDFLT
  5
E
102
{ACAD_REACTORS
330
C
102
}
330
C
100
AcDbDictionary
281
     1
  3
Normal
350
F
100
AcDbDictionaryWithDefault
340
F
  0
DICTIONARY
  5
47
102
{ACAD_REACTORS
330
C
102
}
330
C
100
AcDbDictionary
281
     1
  3
A0
350
48
  3
A1
350
49
  3
A2
350
4A
  3
A3
350
4B
  3
A4
350
4C
  3
A5
350
4D
  3
A6
350
4E
  3
A7
350
4F
  3
A8
350
50
  3
A9
350
51
  3
B0
350
52
  3
B1
350
53
  3
B2
350
54
  3
B3
350
55
  3
B4
350
56
  3
B5
350
57
  3
B6
350
58
  3
B7
350
59
  3
B8
350
5A
  3
B9
350
5B
  3
C0
350
5C
  3
C1
350
5D
  3
C2
350
5E
  3
C3
350
5F
  3
C4
350
60
  3
C5
350
61
  3
C6
350
62
  3
C7
350
63
  3
C8
350
64
  3
C9
350
65
  3
D0
350
66
  3
D1
350
67
  3
D2
350
68
  0
LAYOUT
  5
1E
102
{ACAD_REACTORS
330
1A
102
}
330
1A
100
AcDbPlotSettings
  1

  2
none_device
  4

  6

 40
0.0
 41
0.0
 42
0.0
 43
0.0
 44
0.0
 45
0.0
 46
0.0
 47
0.0
 48
0.0
 49
0.0
140
0.0
141
0.0
142
1.0
143
1.0
 70
   688
 72
     0
 73
     0
 74
     5
  7

 75
    16
147
1.0
148
0.0
149
0.0
100
AcDbLayout
  1
Layout1
 70
     1
 71
     1
 10
0.0
 20
0.0
 11
12.0
 21
9.0
 12
0.0
 22
0.0
 32
0.0
 14
1.0000000000E+20
 24
1.0000000000E+20
 34
1.0000000000E+20
 15
-1.0000000000E+20
 25
-1.0000000000E+20
 35
-1.0000000000E+20
146
0.0
 13
0.0
 23
0.0
 33
0.0
 16
1.0
 26
0.0
 36
0.0
 17
0.0
 27
1.0
 37
0.0
 76
     0
330
1B
  0
LAYOUT
  5
26
102
{ACAD_REACTORS
330
1A
102
}
330
1A
100
AcDbPlotSettings
  1

  2
none_device
  4

  6

 40
0.0
 41
0.0
 42
0.0
 43
0.0
 44
0.0
 45
0.0
 46
0.0
 47
0.0
 48
0.0
 49
0.0
140
0.0
141
0.0
142
1.0
143
1.0
 70
   688
 72
     0
 73
     0
 74
     5
  7

 75
    16
147
1.0
148
0.0
149
0.0
100
AcDbLayout
  1
Layout2
 70
     1
 71
     2
 10
0.0
 20
0.0
 11
0.0
 21
0.0
 12
0.0
 22
0.0
 32
0.0
 14
0.0
 24
0.0
 34
0.0
 15
0.0
 25
0.0
 35
0.0
146
0.0
 13
0.0
 23
0.0
 33
0.0
 16
1.0
 26
0.0
 36
0.0
 17
0.0
 27
1.0
 37
0.0
 76
     0
330
23
  0
LAYOUT
  5
22
102
{ACAD_REACTORS
330
1A
102
}
330
1A
100
AcDbPlotSettings
  1

  2
none_device
  4
ANSI_A_(11.00_x_8.50_Inches)
  6

 40
6.35
 41
19.05
 42
6.35000508
 43
19.05000254
 44
279.4
 45
215.9
 46
158.5113999481
 47
20.0550741827
 48
0.0
 49
0.0
140
0.0
141
0.0
142
0.9594411574
143
1.0
 70
  1696
 72
     0
 73
     0
 74
     0
  7

 75
     0
147
0.5913241897
148
-39.4088153714
149
0.0
100
AcDbLayout
  1
Model
 70
     1
 71
     0
 10
0.0
 20
0.0
 11
12.0
 21
9.0
 12
0.0
 22
0.0
 32
0.0
 14
-3.6251183319
 24
-1.5603561388
 34
0.0
 15
1.5601529309
 25
7.2103745467
 35
0.0
146
0.0
 13
0.0
 23
0.0
 33
0.0
 16
1.0
 26
0.0
 36
0.0
 17
0.0
 27
1.0
 37
0.0
 76
     0
330
1F
331
29
  0
MLINESTYLE
  5
18
102
{ACAD_REACTORS
330
17
102
}
330
17
100
AcDbMlineStyle
  2
Standard
 70
     0
  3

 62
   256
 51
90.0
 52
90.0
 71
     2
 49
0.5
 62
   256
  6
BYLAYER
 49
-0.5
 62
   256
  6
BYLAYER
  0
ACDBPLACEHOLDER
  5
F
102
{ACAD_REACTORS
330
E
102
}
330
E
  0
SCALE
  5
48
102
{ACAD_REACTORS
330
47
102
}
330
47
100
AcDbScale
 70
     0
300
1:1
140
1.0
141
1.0
290
     1
  0
SCALE
  5
49
102
{ACAD_REACTORS
330
47
102
}
330
47
100
AcDbScale
 70
     0
300
1:2
140
1.0
141
2.0
290
     0
  0
SCALE
  5
4A
102
{ACAD_REACTORS
330
47
102
}
330
47
100
AcDbScale
 70
     0
300
1:4
140
1.0
141
4.0
290
     0
  0
SCALE
  5
4B
102
{ACAD_REACTORS
330
47
102
}
330
47
100
AcDbScale
 70
     0
300
1:5
140
1.0
141
5.0
290
     0
  0
SCALE
  5
4C
102
{ACAD_REACTORS
330
47
102
}
330
47
100
AcDbScale
 70
     0
300
1:8
140
1.0
141
8.0
290
     0
  0
SCALE
  5
4D
102
{ACAD_REACTORS
330
47
102
}
330
47
100
AcDbScale
 70
     0
300
1:10
140
1.0
141
10.0
290
     0
  0
SCALE
  5
4E
102
{ACAD_REACTORS
330
47
102
}
330
47
100
AcDbScale
 70
     0
300
1:16
140
1.0
141
16.0
290
     0
  0
SCALE
  5
4F
102
{ACAD_REACTORS
330
47
102
}
330
47
100
AcDbScale
 70
     0
300
1:20
140
1.0
141
20.0
290
     0
  0
SCALE
  5
50
102
{ACAD_REACTORS
330
47
102
}
330
47
100
AcDbScale
 70
     0
300
1:30
140
1.0
141
30.0
290
     0
  0
SCALE
  5
51
102
{ACAD_REACTORS
330
47
102
}
330
47
100
AcDbScale
 70
     0
300
1:40
140
1.0
141
40.0
290
     0
  0
SCALE
  5
52
102
{ACAD_REACTORS
330
47
102
}
330
47
100
AcDbScale
 70
     0
300
1:50
140
1.0
141
50.0
290
     0
  0
SCALE
  5
53
102
{ACAD_REACTORS
330
47
102
}
330
47
100
AcDbScale
 70
     0
300
1:100
140
1.0
141
100.0
290
     0
  0
SCALE
  5
54
102
{ACAD_REACTORS
330
47
102
}
330
47
100
AcDbScale
 70
     0
300
2:1
140
2.0
141
1.0
290
     0
  0
SCALE
  5
55
102
{ACAD_REACTORS
330
47
102
}
330
47
100
AcDbScale
 70
     0
300
4:1
140
4.0
141
1.0
290
     0
  0
SCALE
  5
56
102
{ACAD_REACTORS
330
47
102
}
330
47
100
AcDbScale
 70
     0
300
8:1
140
8.0
141
1.0
290
     0
  0
SCALE
  5
57
102
{ACAD_REACTORS
330
47
102
}
330
47
100
AcDbScale
 70
     0
300
10:1
140
10.0
141
1.0
290
     0
  0
SCALE
  5
58
102
{ACAD_REACTORS
330
47
102
}
330
47
100
AcDbScale
 70
     0
300
100:1
140
100.0
141
1.0
290
     0
  0
SCALE
  5
59
102
{ACAD_REACTORS
330
47
102
}
330
47
100
AcDbScale
 70
     0
300
1/128" = 1'-0"
140
0.0078125
141
12.0
290
     0
  0
SCALE
  5
5A
102
{ACAD_REACTORS
330
47
102
}
330
47
100
AcDbScale
 70
     0
300
1/64" = 1'-0"
140
0.015625
141
12.0
290
     0
  0
SCALE
  5
5B
102
{ACAD_REACTORS
330
47
102
}
330
47
100
AcDbScale
 70
     0
300
1/32" = 1'-0"
140
0.03125
141
12.0
290
     0
  0
SCALE
  5
5C
102
{ACAD_REACTORS
330
47
102
}
330
47
100
AcDbScale
 70
     0
300
1/16" = 1'-0"
140
0.0625
141
12.0
290
     0
  0
SCALE
  5
5D
102
{ACAD_REACTORS
330
47
102
}
330
47
100
AcDbScale
 70
     0
300
3/32" = 1'-0"
140
0.09375
141
12.0
290
     0
  0
SCALE
  5
5E
102
{ACAD_REACTORS
330
47
102
}
330
47
100
AcDbScale
 70
     0
300
1/8" = 1'-0"
140
0.125
141
12.0
290
     0
  0
SCALE
  5
5F
102
{ACAD_REACTORS
330
47
102
}
330
47
100
AcDbScale
 70
     0
300
3/16" = 1'-0"
140
0.1875
141
12.0
290
     0
  0
SCALE
  5
60
102
{ACAD_REACTORS
330
47
102
}
330
47
100
AcDbScale
 70
     0
300
1/4" = 1'-0"
140
0.25
141
12.0
290
     0
  0
SCALE
  5
61
102
{ACAD_REACTORS
330
47
102
}
330
47
100
AcDbScale
 70
     0
300
3/8" = 1'-0"
140
0.375
141
12.0
290
     0
  0
SCALE
  5
62
102
{ACAD_REACTORS
330
47
102
}
330
47
100
AcDbScale
 70
     0
300
1/2" = 1'-0"
140
0.5
141
12.0
290
     0
  0
SCALE
  5
63
102
{ACAD_REACTORS
330
47
102
}
330
47
100
AcDbScale
 70
     0
300
3/4" = 1'-0"
140
0.75
141
12.0
290
     0
  0
SCALE
  5
64
102
{ACAD_REACTORS
330
47
102
}
330
47
100
AcDbScale
 70
     0
300
1" = 1'-0"
140
1.0
141
12.0
290
     0
  0
SCALE
  5
65
102
{ACAD_REACTORS
330
47
102
}
330
47
100
AcDbScale
 70
     0
300
1-1/2" = 1'-0"
140
1.5
141
12.0
290
     0
  0
SCALE
  5
66
102
{ACAD_REACTORS
330
47
102
}
330
47
100
AcDbScale
 70
     0
300
3" = 1'-0"
140
3.0
141
12.0
290
     0
  0
SCALE
  5
67
102
{ACAD_REACTORS
330
47
102
}
330
47
100
AcDbScale
 70
     0
300
6" = 1'-0"
140
6.0
141
12.0
290
     0
  0
SCALE
  5
68
102
{ACAD_REACTORS
330
47
102
}
330
47
100
AcDbScale
 70
     0
300
1'-0" = 1'-0"
140
12.0
141
12.0
290
     0
  0
ENDSEC
  0
EOF
