0
SECTION
2
HEADER
9
$INSUNITS
70
1
9
$ACADVER
1
AC1014
9
$HANDSEED
5
FFFF
0
ENDSEC
0
SECTION
2
TABLES
0
TABLE
2
VPORT
5
8
100
AcDbSymbolTable
0
ENDTAB
0
TABLE
2
LTYPE
5
5
100
AcDbSymbolTable
0
LTYPE
5
14
100
AcDbSymbolTableRecord
100
AcDbLinetypeTableRecord
2
BYBLOCK
70
0
0
LTYPE
5
15
100
AcDbSymbolTableRecord
100
AcDbLinetypeTableRecord
2
BYLAYER
70
0
0
ENDTAB
0
TABLE
2
LAYER
5
2
100
AcDbSymbolTable
70
2
0
LAYER
5
50
100
AcDbSymbolTableRecord
100
AcDbLayerTableRecord
2
0
70
0
6
CONTINUOUS
0
ENDTAB
0
TABLE
2
STYLE
5
3
100
AcDbSymbolTable
70
1
0
STYLE
5
11
100
AcDbSymbolTableRecord
100
AcDbTextStyleTableRecord
2
STANDARD
70
0
0
ENDTAB
0
TABLE
2
VIEW
5
6
100
AcDbSymbolTable
70
0
0
ENDTAB
0
TABLE
2
UCS
5
7
100
AcDbSymbolTable
70
0
0
ENDTAB
0
TABLE
2
APPID
5
9
100
AcDbSymbolTable
70
2
0
APPID
5
12
100
AcDbSymbolTableRecord
100
AcDbRegAppTableRecord
2
ACAD
70
0
0
ENDTAB
0
TABLE
2
DIMSTYLE
5
A
100
AcDbSymbolTable
70
1
0
ENDTAB
0
TABLE
2
BLOCK_RECORD
5
1
100
AcDbSymbolTable
70
1
0
BLOCK_RECORD
5
1F
100
AcDbSymbolTableRecord
100
AcDbBlockTableRecord
2
*MODEL_SPACE
0
BLOCK_RECORD
5
1B
100
AcDbSymbolTableRecord
100
AcDbBlockTableRecord
2
*PAPER_SPACE
0
ENDTAB
0
ENDSEC
0
SECTION
2
BLOCKS
0
BLOCK
5
20
100
AcDbEntity
100
AcDbBlockBegin
2
*MODEL_SPACE
0
ENDBLK
5
21
100
AcDbEntity
100
AcDbBlockEnd
0
BLOCK
5
1C
100
AcDbEntity
100
AcDbBlockBegin
2
*PAPER_SPACE
0
ENDBLK
5
1D
100
AcDbEntity
100
AcDbBlockEnd
0
ENDSEC
0
SECTION
2
ENTITIES
0
LWPOLYLINE
5
100
100
AcDbEntity
8
0
100
AcDbPolyline
90
4
70
1
43
0.0
10
-6.871215498971269
20
23.363536176203592
42
-0.99999999999999989
10
-7.1212154989712708
20
23.363536176203599
10
-7.1212154989711927
20
25.488536176203599
42
-0.99999999999999989
10
-6.8712154989711909
20
25.488536176203599
0
LWPOLYLINE
5
101
100
AcDbEntity
8
0
100
AcDbPolyline
90
2
70
1
43
0.0
10
-3.001541588754967
20
24.206069772903177
42
-0.0093464175470332356
10
-3.0013476720864745
20
24.159342169486578
0
LWPOLYLINE
5
102
100
AcDbEntity
8
0
100
AcDbPolyline
90
4
70
1
43
0.0
10
0.87878450102873973
20
25.488536176203297
42
-0.99999999999999989
10
1.1287845010287409
20
25.488536176203297
10
1.1287845010286606
20
23.363536176203294
42
-0.99999999999999989
10
0.87878450102865935
20
23.363536176203297
0
LWPOLYLINE
5
103
100
AcDbEntity
8
0
100
AcDbPolyline
90
32
70
1
43
0.0
10
-0.57294188401210777
20
25.922655545920097
10
1.2537845010287507
20
25.92265554592003
42
-0.41421356237311058
10
1.5037845010287445
20
25.672655545920016
10
1.5037845010286401
20
23.172655545920019
42
-0.41421356237310197
10
1.2537845010286295
20
22.92265554592003
10
-7.2462154989712673
20
22.922655545920342
42
-0.41421356237310325
10
-7.4962154989712584
20
23.172655545920353
10
-7.4962154989711589
20
25.672655545920357
42
-0.41421356237309337
10
-7.2462154989711474
20
25.92265554592035
10
-5.4194891139303119
20
25.922655545920271
42
0.41421356237308893
10
-4.9194891139302923
20
26.422655545920257
10
-4.9194891139302861
20
26.62448005272563
42
-0.24470025400784762
10
-4.8762222368877453
20
26.707594256818545
10
-4.4961186029521905
20
26.973741815446488
42
2.0094759022205633
10
-4.7351906029521835
20
27.051025139931408
42
-0.71904280608568372
10
-4.8237357699166132
20
26.982499256818539
10
-4.8777386029521859
20
27.018513172519722
42
-0.25072392555619483
10
-4.9194891139302666
20
27.096539172519719
10
-4.9194891139302213
20
28.346616172519724
42
-0.66817863791930099
10
-4.4055838135803134
20
28.55948271770005
10
-3.3449236418005301
20
27.498822545920195
42
0.41421356237310059
10
-2.647507356141769
20
27.498822545920167
10
-1.5868471843619067
20
28.559482717699943
42
-0.66817863791930576
10
-1.0729418840120164
20
28.346616172519571
10
-1.0729418840120657
20
27.096539172519581
42
-0.25072392555619294
10
-1.1146923949901493
20
27.018513172519587
10
-1.1686952280257221
20
26.982499256818404
42
-0.71904280608573345
10
-1.2572403949901489
20
27.051025139931291
42
2.0094759022204602
10
-1.4963123949901531
20
26.973741815446388
10
-1.116208761054613
20
26.707594256818403
42
-0.24470025400785234
10
-1.0729418840120797
20
26.624480052725485
10
-1.072941884012091
20
26.422655545920112
42
0.41421356237310114
0
ENDSEC
0
SECTION
2
OBJECTS
0
DICTIONARY
5
C
100
AcDbDictionary
3
ACAD_GROUP
350
D
3
ACAD_MLINESTYLE
350
17
0
DICTIONARY
5
D
100
AcDbDictionary
0
DICTIONARY
5
1A
330
C
100
AcDbDictionary
0
DICTIONARY
5
17
100
AcDbDictionary
0
ENDSEC
0
EOF
