0
SECTION
2
HEADER
9
$INSUNITS
70
1
9
$ACADVER
1
AC1014
9
$HANDSEED
5
FFFF
0
ENDSEC
0
SECTION
2
TABLES
0
TABLE
2
VPORT
5
8
100
AcDbSymbolTable
0
ENDTAB
0
TABLE
2
LTYPE
5
5
100
AcDbSymbolTable
0
LTYPE
5
14
100
AcDbSymbolTableRecord
100
AcDbLinetypeTableRecord
2
BYBLOCK
70
0
0
LTYPE
5
15
100
AcDbSymbolTableRecord
100
AcDbLinetypeTableRecord
2
BYLAYER
70
0
0
ENDTAB
0
TABLE
2
LAYER
5
2
100
AcDbSymbolTable
70
2
0
LAYER
5
50
100
AcDbSymbolTableRecord
100
AcDbLayerTableRecord
2
0
70
0
6
CONTINUOUS
0
ENDTAB
0
TABLE
2
STYLE
5
3
100
AcDbSymbolTable
70
1
0
STYLE
5
11
100
AcDbSymbolTableRecord
100
AcDbTextStyleTableRecord
2
STANDARD
70
0
0
ENDTAB
0
TABLE
2
VIEW
5
6
100
AcDbSymbolTable
70
0
0
ENDTAB
0
TABLE
2
UCS
5
7
100
AcDbSymbolTable
70
0
0
ENDTAB
0
TABLE
2
APPID
5
9
100
AcDbSymbolTable
70
2
0
APPID
5
12
100
AcDbSymbolTableRecord
100
AcDbRegAppTableRecord
2
ACAD
70
0
0
ENDTAB
0
TABLE
2
DIMSTYLE
5
A
100
AcDbSymbolTable
70
1
0
ENDTAB
0
TABLE
2
BLOCK_RECORD
5
1
100
AcDbSymbolTable
70
1
0
BLOCK_RECORD
5
1F
100
AcDbSymbolTableRecord
100
AcDbBlockTableRecord
2
*MODEL_SPACE
0
BLOCK_RECORD
5
1B
100
AcDbSymbolTableRecord
100
AcDbBlockTableRecord
2
*PAPER_SPACE
0
ENDTAB
0
ENDSEC
0
SECTION
2
BLOCKS
0
BLOCK
5
20
100
AcDbEntity
100
AcDbBlockBegin
2
*MODEL_SPACE
0
ENDBLK
5
21
100
AcDbEntity
100
AcDbBlockEnd
0
BLOCK
5
1C
100
AcDbEntity
100
AcDbBlockBegin
2
*PAPER_SPACE
0
ENDBLK
5
1D
100
AcDbEntity
100
AcDbBlockEnd
0
ENDSEC
0
SECTION
2
ENTITIES
0
CIRCLE
5
100
100
AcDbEntity
8
0
100
AcDbCircle
10
0.068115958004750149
20
13.021278225547212
30
0
40
0.099999999999998854
210
9.5805526580338302e-45
220
6.1769465586760487e-59
230
1
0
CIRCLE
5
101
100
AcDbEntity
8
0
100
AcDbCircle
10
0.068115958004813792
20
13.459475354097055
30
1.3987061727561026e-15
40
0.099999999999998854
210
9.5805526580338302e-45
220
6.1769465586760487e-59
230
1
0
CIRCLE
5
102
100
AcDbEntity
8
0
100
AcDbCircle
10
0.068115958004763097
20
11.021278225547235
30
0
40
0.099999999999998854
210
9.5805526580338302e-45
220
6.1769465586760487e-59
230
1
0
CIRCLE
5
103
100
AcDbEntity
8
0
100
AcDbCircle
10
0.068115958004800678
20
15.459475354097028
30
0
40
0.099999999999998854
210
9.5805526580338302e-45
220
6.1769465586760487e-59
230
1
0
CIRCLE
5
104
100
AcDbEntity
8
0
100
AcDbCircle
10
1.5631159580048182
20
11.209475354097238
30
0
40
0.124999999999999
210
7.3211130770601612e-32
220
1.577721810442024e-30
230
1
0
CIRCLE
5
105
100
AcDbEntity
8
0
100
AcDbCircle
10
2.5631159580048064
20
11.209475354097238
30
0
40
0.124999999999999
210
7.3211130770601612e-32
220
1.577721810442024e-30
230
1
0
CIRCLE
5
106
100
AcDbEntity
8
0
100
AcDbCircle
10
0.55531253024236049
20
12.508474797784888
30
-1.3987061727561026e-15
40
0.093749999999998973
210
-1.2400409553466179e-31
220
-1.577721810442024e-30
230
1
0
CIRCLE
5
107
100
AcDbEntity
8
0
100
AcDbCircle
10
-0.41908061423269233
20
12.50847479778489
30
0
40
0.093749999999998973
210
-1.2400409553466179e-31
220
-1.577721810442024e-30
230
1
0
CIRCLE
5
108
100
AcDbEntity
8
0
100
AcDbCircle
10
-5.4368840419951008
20
14.209475354097226
30
0
40
0.12499999999999845
210
7.321113077059639e-32
220
2.2961139994258002e-46
230
1
0
CIRCLE
5
109
100
AcDbEntity
8
0
100
AcDbCircle
10
2.5631159580047966
20
14.209475354097204
30
0
40
0.12499999999999845
210
7.321113077059639e-32
220
2.2961139994258002e-46
230
1
0
CIRCLE
5
110
100
AcDbEntity
8
0
100
AcDbCircle
10
-0.41908061423268955
20
11.534081653309837
30
1.3987061727561026e-15
40
0.093749999999998973
210
-1.2400409553466179e-31
220
-1.577721810442024e-30
230
1
0
CIRCLE
5
111
100
AcDbEntity
8
0
100
AcDbCircle
10
0.55531253024236327
20
11.534081653309835
30
0
40
0.093749999999998973
210
-1.2400409553466179e-31
220
-1.577721810442024e-30
230
1
0
CIRCLE
5
112
100
AcDbEntity
8
0
100
AcDbCircle
10
1.5631159580048095
20
14.209475354097204
30
-1.3987061727561026e-15
40
0.12499999999999845
210
7.321113077059639e-32
220
2.2961139994258002e-46
230
1
0
CIRCLE
5
113
100
AcDbEntity
8
0
100
AcDbCircle
10
-4.4368840419951132
20
14.209475354097226
30
-1.3987061727561026e-15
40
0.12499999999999845
210
7.321113077059639e-32
220
2.2961139994258002e-46
230
1
0
CIRCLE
5
114
100
AcDbEntity
8
0
100
AcDbCircle
10
0.068115958004834942
20
12.021278225547363
30
0
40
0.51999999999999424
210
-1.2400409553465058e-31
220
-1.5777218104420243e-30
230
1
0
CIRCLE
5
115
100
AcDbEntity
8
0
100
AcDbCircle
10
-4.4368840419951043
20
11.209475354097261
30
0
40
0.124999999999999
210
7.3211130770601612e-32
220
1.577721810442024e-30
230
1
0
CIRCLE
5
116
100
AcDbEntity
8
0
100
AcDbCircle
10
-5.436884041995091
20
11.209475354097263
30
1.3987061727561026e-15
40
0.124999999999999
210
7.3211130770601612e-32
220
1.577721810442024e-30
230
1
0
LWPOLYLINE
5
117
100
AcDbEntity
8
0
100
AcDbPolyline
90
6
70
1
43
0.0
10
3.0631159580048024
20
10.579081653309837
10
-5.9368840419950821
20
10.579081653309869
10
-5.9368840419951017
20
14.954475354097212
42
-0.41421356237309448
10
-5.1868840419951106
20
15.704475354097212
10
2.3131159580048015
20
15.70447535409718
42
-0.41421356237309509
10
3.0631159580047882
20
14.954475354097189
0
LWPOLYLINE
5
118
100
AcDbEntity
8
0
100
AcDbPolyline
90
4
70
1
43
0.0
10
-4.0918289238848162
20
11.854081653309867
10
-4.0918289238848118
20
13.104081653309853
42
0.99999999999999989
10
-4.2099391601052831
20
13.104081653309853
10
-4.2099391601052876
20
11.854081653309867
42
0.99999999999999989
0
LWPOLYLINE
5
119
100
AcDbEntity
8
0
100
AcDbPolyline
90
4
70
1
43
0.0
10
-4.8368289238848057
20
11.854081653309875
10
-4.8368289238848012
20
13.104081653309859
42
0.99999999999999989
10
-4.9549391601052726
20
13.104081653309859
10
-4.954939160105277
20
11.854081653309876
42
0.99999999999999989
0
CIRCLE
5
120
100
AcDbEntity
8
0
100
AcDbCircle
10
-2.9418840419950603
20
14.459475354097222
30
0
40
0.43749999999999467
210
1.561548445760436e-31
220
-4.8884868393773148e-46
230
1
0
CIRCLE
5
121
100
AcDbEntity
8
0
100
AcDbCircle
10
0.55531253024242977
20
14.946671926334739
30
0
40
0.093749999999998973
210
-4.1060381729209353e-32
220
1.2854108769280055e-46
230
1
0
CIRCLE
5
122
100
AcDbEntity
8
0
100
AcDbCircle
10
0.55531253024242688
20
13.972278781859679
30
0
40
0.093750000000000014
210
-4.1060381729231768e-32
220
1.2854108769287081e-46
230
1
0
CIRCLE
5
123
100
AcDbEntity
8
0
100
AcDbCircle
10
-0.41908061423262855
20
14.946671926334744
30
1.3987061727561026e-15
40
0.093749999999998973
210
-4.1060381729209353e-32
220
1.2854108769280055e-46
230
1
0
CIRCLE
5
124
100
AcDbEntity
8
0
100
AcDbCircle
10
0.068115958004901209
20
14.459475354097211
30
0
40
0.437499999999995
210
-4.1060381729269319e-32
220
-1.5777218104420236e-30
230
1
0
CIRCLE
5
125
100
AcDbEntity
8
0
100
AcDbCircle
10
-0.41908061423263149
20
13.972278781859684
30
1.3987061727561026e-15
40
0.093749999999998973
210
-4.1060381729209353e-32
220
1.2854108769280055e-46
230
1
0
CIRCLE
5
126
100
AcDbEntity
8
0
100
AcDbCircle
10
1.2413443044614438
20
13.123640430271772
30
0
40
0.10826771653543196
210
2.38587013287927e-33
220
2.3296166297561063e-47
230
1
0
CIRCLE
5
127
100
AcDbEntity
8
0
100
AcDbCircle
10
-3.3098367979007035
20
13.123640430271758
30
0
40
0.10826771653543196
210
2.38587013287927e-33
220
2.3296166297561063e-47
230
1
0
CIRCLE
5
128
100
AcDbEntity
8
0
100
AcDbCircle
10
1.2413443044614658
20
10.918916020822978
30
-1.3987061727561026e-15
40
0.10826771653543196
210
2.38587013287927e-33
220
2.3296166297561063e-47
230
1
0
CIRCLE
5
129
100
AcDbEntity
8
0
100
AcDbCircle
10
-3.3098367979006813
20
10.918916020822962
30
0
40
0.10826771653543196
210
2.38587013287927e-33
220
2.3296166297561063e-47
230
1
0
ENDSEC
0
SECTION
2
OBJECTS
0
DICTIONARY
5
C
100
AcDbDictionary
3
ACAD_GROUP
350
D
3
ACAD_MLINESTYLE
350
17
0
DICTIONARY
5
D
100
AcDbDictionary
0
DICTIONARY
5
1A
330
C
100
AcDbDictionary
0
DICTIONARY
5
17
100
AcDbDictionary
0
ENDSEC
0
EOF
